<?xml version="1.0" encoding="utf-8"?>
<!-- Generator: Adobe Illustrator 21.0.0, SVG Export Plug-In . SVG Version: 6.00 Build 0)  -->
<svg id="main-svg" version="1.1" xmlns="http://www.w3.org/2000/svg" xmlns:xlink="http://www.w3.org/1999/xlink" x="0px" y="0px"
	 viewBox="0 0 1000 1175" style="enable-background:new 0 0 1000 1175;" xml:space="preserve">
<style type="text/css">
	.st0{fill:#FFFFFF;}
	.st1{fill:url(#SVGID_1_);}
	.st2{fill:url(#SVGID_2_);}
	.st3{opacity:0.2;fill:#353535;}
	.st4{fill:#777777;}
	.st5{fill:#D8D8D8;}
	.st6{fill:#353535;}
	.st7{fill:#783102;}
	.st8{fill:#A33F01;}
	.st9{fill:#B05C06;}
	.st10{fill:#C56C12;}
	.st11{fill:#E58121;}
	.st12{fill:#DADADA;}
	.st13{fill:#C5C5C5;}
	.st14{fill:#EFEFEF;}
	.st15{fill:#512210;}
	.st16{fill:#984614;}
	.st17{fill:#4D200D;}
	.st18{fill:#CB651B;}
	.st19{fill:#FFCEAA;}
	.st20{fill:#C63E3E;}
	.st21{fill:#E6706E;}
	.st22{fill:#871F20;}
	.st23{fill:#F4DDCB;}
	.st24{fill:#EFB699;}
	.st25{fill:#6E191C;}
	.st26{fill:none;}
	.st27{fill:#B92428;}
	.st28{fill:#FEF6EB;}
	.st29{fill:#E78D5B;}
	.st30{fill:none;stroke:#000302;stroke-width:5;stroke-miterlimit:10;}
	.st31{fill:#15030D;}
	.st32{fill:#1A000F;}
	.st33{fill:#230012;}
	.st34{fill:#361629;}
	.st35{fill:#90A364;}
	.st36{fill:#ADC47A;}
	.st37{fill:#D7DBC2;}
	.st38{fill:none;stroke:#241F10;stroke-width:6;stroke-miterlimit:10;}
	.st39{fill:#FECB00;}
	.st40{fill:#D7B601;}
	.st41{fill:#A68400;}
	.st42{fill:#CEA300;}
	.st43{fill:#203800;}
	.st44{fill:#3E6C00;}
	.st45{fill:#FECD06;}
	.st46{fill:#FFE83C;}
	.st47{fill:#406901;}
	.st48{fill:#609B05;}
	.st49{fill:url(#SVGID_3_);}
	.st50{fill:#375A00;}
	.st51{fill:url(#SVGID_4_);}
	.st52{fill:url(#SVGID_5_);}
	.st53{fill:url(#SVGID_6_);}
	.st54{fill:url(#SVGID_7_);}
	.st55{fill:none;stroke:#000204;stroke-width:6;stroke-miterlimit:10;}
	.st56{fill:#29051A;}
	.st57{fill:#120209;}
	.st58{fill:#1C000D;}
	.st59{fill:#371629;}
	.st60{fill:#93A869;}
	.st61{fill:#ACC379;}
	.st62{fill:#DCE4C3;}
	.st63{fill:none;stroke:#000102;stroke-width:6;stroke-miterlimit:10;}
	.st64{fill:none;stroke:#0A0000;stroke-width:6;stroke-miterlimit:10;}
	.st65{fill:#9F7023;}
	.st66{fill:#AA7725;}
	.st67{fill:#BA8126;}
	.st68{fill:#CF912E;}
	.st69{fill:#9F6F23;}
	.st70{fill:#855F1C;}
	.st71{fill:#401F0A;}
	.st72{fill:#9D7022;}
	.st73{fill:#866020;}
	.st74{fill:#A16D24;}
	.st75{fill:#FFF7B2;}
	.st76{fill:none;stroke:#010305;stroke-width:5;stroke-miterlimit:10;}
	.st77{fill:url(#SVGID_8_);}
	.st78{fill:#800104;}
	.st79{opacity:0.75;fill:url(#SVGID_9_);}
	.st80{fill:none;stroke:#010305;stroke-width:3;stroke-miterlimit:10;}
	.st81{fill:#660B10;}
	.st82{fill:#B70E17;}
	.st83{fill:#EA7957;}
	.st84{fill:#F22516;}
	.st85{fill:#E40B0C;}
	.st86{fill:#EB7859;}
	.st87{fill:#FF6E00;}
	.st88{fill:#F3A388;}
	.st89{fill:#D50A13;}
	.st90{fill:#B71012;}
	.st91{fill:none;stroke:#0C0902;stroke-width:6;stroke-miterlimit:10;}
	.st92{fill:none;stroke:#150E05;stroke-width:6;stroke-miterlimit:10;}
	.st93{fill:none;stroke:#080904;stroke-width:5;stroke-miterlimit:10;}
	.st94{fill:url(#SVGID_10_);}
	.st95{fill:#E1A174;}
	.st96{fill:#8D391E;}
	.st97{fill:#400F02;}
	.st98{fill:url(#SVGID_11_);}
	.st99{fill:#DDB895;}
	.st100{fill:#FEFFFF;}
	.st101{fill:url(#SVGID_12_);}
	.st102{fill:#867C65;}
	.st103{fill:#F0DFD0;}
	.st104{fill:#C8A287;}
	.st105{fill:#FEFCFA;}
	.st106{fill:url(#SVGID_13_);}
	.st107{fill:#867C5F;}
	.st108{fill:url(#SVGID_14_);}
	.st109{fill:url(#SVGID_15_);}
	.st110{fill:#903C22;}
	.st111{fill:#410F04;}
	.st112{fill:url(#SVGID_16_);}
	.st113{fill:#FCF8FA;}
	.st114{fill:#E8BD9F;}
	.st115{opacity:0.5;fill:none;stroke:#FFFFFF;stroke-width:250;stroke-miterlimit:10;}
	.st116{fill:none;stroke:#FFFFFF;stroke-miterlimit:10;}
	.st117{fill:none;stroke:#FFFFFF;stroke-width:2;stroke-miterlimit:10;}
	.st118{fill:none;stroke:#FFFFFF;stroke-width:3;stroke-miterlimit:10;}

	.st120{font-size:40px;}

	.st122{font-size:16px;}
	.st123{fill:#1B7A88;}
	.st124{font-size:16px;}
	.st125{opacity:0.66;fill:#777777;}
	.st126{fill:url(#SVGID_17_);}
	.st127{font-size:9px;}
	.st128{fill:none;stroke:#353535;stroke-width:2;stroke-linecap:round;stroke-miterlimit:10;}
	.st129{fill:none;stroke:#353535;stroke-width:2;stroke-miterlimit:10;}
	.st130{opacity:0.33;fill:#FFFFFF;}
	.st131{font-size:30px;}
	.st132{fill:#803235;}
	.st133{display:none;}
	.st134{display:inline;fill:#FFFFFF;}
	.st135{display:inline;}
	.st136{fill:#4995A0;}
	.st137{fill:#666666;}
	.st138{fill:#464646;}
	.st139{fill:#353535;stroke:#353535;stroke-width:0.25;stroke-miterlimit:10;}

	.st141{fill:none;stroke:#FFFFFF;stroke-width:50;stroke-miterlimit:10;}
</style>
<g id="BG">
	<linearGradient id="SVGID_1_" gradientUnits="userSpaceOnUse" x1="750.0001" y1="1080" x2="750.0001" y2="80">
		<stop  offset="0" style="stop-color:#95C366"/>
		<stop  offset="1" style="stop-color:#777777;stop-opacity:0.5"/>
	</linearGradient>
	<rect x="500" y="80" class="st1" width="500" height="1000"/>
	<linearGradient id="SVGID_2_" gradientUnits="userSpaceOnUse" x1="250.0001" y1="1080" x2="250.0001" y2="80">
		<stop  offset="0" style="stop-color:#FD8187"/>
		<stop  offset="1" style="stop-color:#777777;stop-opacity:0.5"/>
	</linearGradient>
	<rect y="80" class="st2" width="500" height="1000"/>
</g>
<g id="plate-left">
	<g id="plate_3_">
		<ellipse class="st3" cx="210" cy="939.7" rx="192" ry="122.2"/>
		<ellipse class="st4" cx="210" cy="904.1" rx="199.1" ry="128.2"/>
		<ellipse class="st0" cx="210" cy="899" rx="199.1" ry="128.2"/>
		<path class="st5" d="M217.1,985.8c-79.1,0-143.2-41-143.2-91.6c0-11.2,3.2-22,8.9-31.9C75,873.4,70.6,885.9,70.6,899
			c0,49.6,62.4,89.7,139.4,89.7c26.4,0,51-4.7,72.1-12.9C262.6,982.2,240.5,985.8,217.1,985.8z"/>
		<path class="st5" d="M210,809.3c-38.3,0-73,9.9-98.2,26c24.4-12,55.3-19.1,88.8-19.1c79.1,0,143.2,39.7,143.2,88.6
			c0,19.2-9.9,37-26.6,51.5c20.1-15.5,32.1-35.5,32.1-57.3C349.4,849.4,287,809.3,210,809.3z"/>
	</g>
	<g id="meat_2_">
		<g id="chicken_4_">
			<path id="chicken-ouline_4_" class="st6" d="M257.4,756.6c11.3,2.6,18.8,8.8,21.9,19.1c1.3,4.3,1.8,9.2,1.6,15
				c-1.3,30.2-18.5,34.6-41.5,31.9c-4.2-0.5-8.3-1.3-12.3-2.2c-16.4-3.8-30.7-10.3-36.9-11.9c-7.7-1.9-19.4-5.4-24.2-7.4h0
				c-12.5-1.2-15.8,0.5-24.7,2.4c-8,1.8-9.9,10.8-16.6,9.2c-0.7-0.2-1.5-0.5-2.3-0.9c-4.1-2.7-5.8-7.7-1.7-11.9
				c1.3-1.4,0.9-1-0.2-2.1c-7-6.8,2.1-16.5,9.9-14.7c1,0.2,1.9,0.6,2.8,1.3c6,3.1,8.9,4.7,11.6,5.3c4,0.9,7.6-0.1,20-1.3l0,0
				c14.5-6,34.2-26.7,59.8-32.1C237.7,754.6,248.7,754.5,257.4,756.6 M258.4,752.6c-9.1-2.1-20.4-2.2-34.4-0.1l-0.1,0l-0.1,0
				c-17.1,3.6-31.7,13.7-43.4,21.8c-6.3,4.4-11.8,8.2-16.6,10.3c-3.6,0.3-6.4,0.7-8.7,0.9c-5,0.6-7.2,0.8-9.3,0.4
				c-2.1-0.5-4.7-1.9-9.5-4.4l-0.9-0.5c-1.2-0.8-2.6-1.4-4-1.7c-6-1.4-12.8,1.9-15.9,7.5c-2.3,4.2-1.9,8.7,0.8,12.4
				c-1.4,2.2-2.1,4.7-1.8,7.1c0.4,3.5,2.5,6.8,5.8,9l0.2,0.1l0.2,0.1c1.1,0.6,2.2,1,3.3,1.2c5.8,1.3,9.4-2.3,12.1-4.9
				c1.9-1.9,3.7-3.7,6.3-4.3c1.6-0.4,3.1-0.7,4.4-1c5.8-1.4,9.4-2.2,18.5-1.4c5.2,2.1,16.5,5.4,24.1,7.3c2,0.5,5.4,1.7,9.2,3.2
				c7.2,2.6,17,6.3,27.7,8.8c4.4,1,8.7,1.8,12.7,2.3c7.5,0.9,13.7,0.9,18.9,0.1c6.5-1,11.6-3.1,15.8-6.7c7.1-6,10.8-15.6,11.4-29.3
				c0.3-6.1-0.3-11.6-1.7-16.3C279.8,763,271.5,755.6,258.4,752.6L258.4,752.6z"/>
			<g id="chicken-skin_4_">
				<path class="st7" d="M237.8,762.7c19.3-1.6,33.7,3.7,41.6,13c-5.5-18.2-24.7-23.6-54.8-19.2c-25.6,5.3-45.3,26-59.8,32.1
					c-0.8,0.3-1.5,2.1-1.8,4.3l11.5,3.2C181.9,786.5,215.6,764.6,237.8,762.7z"/>
				<path class="st8" d="M279.4,775.7c-7.9-9.3-22.3-14.6-41.6-13c-22.2,1.9-55.8,23.8-63.3,33.3c0,0-11.4,3.8-8.4,5.1
					c4.7,2,16.4,5.4,24.2,7.4s27.8,11.5,49.1,14.1c23,2.7,40.2-1.7,41.5-31.9C281.2,784.9,280.7,780,279.4,775.7z"/>
				<path class="st9" d="M223.7,777.1c18.4-6.3,48.8-11.5,52.8,7.6s-9.7,34-21.8,34.4c-12,0.4-31.9-1-52.9-11.8
					C180.8,796.6,188.5,789.2,223.7,777.1z"/>
				<path class="st10" d="M235.7,791c11.2-3.8,29.6-7,32.1,4.6c2.4,11.6-5.9,20.7-13.2,20.9c-7.3,0.3-19.4-0.6-32.1-7.2
					C209.6,802.8,214.2,798.4,235.7,791z"/>
				<path class="st11" d="M244,798.8c5.1-1.7,13.5-3.2,14.6,2.1c1.1,5.3-2.7,9.4-6,9.5c-3.3,0.1-8.8-0.3-14.6-3.3
					C232.2,804.2,234.3,802.1,244,798.8z"/>
				<g>
					<polygon class="st11" points="218.6,774.3 217.1,772.3 219.3,771.2 220.9,773.2 					"/>
					<polygon class="st11" points="247.3,768.6 246,767 247.8,766.1 249.2,767.7 					"/>
					<polygon class="st11" points="237.3,769.6 235.6,767.5 238,766.3 239.7,768.5 					"/>
					<polygon class="st11" points="258.7,768.6 257,766.5 259.5,765.3 261.2,767.5 					"/>
					<polygon class="st11" points="208.9,775.9 207.7,774.4 209.4,773.6 210.6,775.1 					"/>
					<polygon class="st11" points="228.6,773.4 227.7,772.2 229.1,771.5 230,772.7 					"/>
					<polygon class="st11" points="191.7,787.6 190.5,786.1 192.2,785.3 193.4,786.8 					"/>
					<polygon class="st11" points="196.1,808.5 195.1,807.2 196.5,806.5 197.5,807.8 					"/>
					<polygon class="st11" points="199.8,803.2 198.9,802 200.3,801.3 201.3,802.5 					"/>
					<polygon class="st11" points="183.9,802.6 182.5,800.9 184.5,800 185.9,801.7 					"/>
					<polygon class="st11" points="207.8,804.9 206.3,803.1 208.4,802.1 209.8,803.9 					"/>
					<polygon class="st11" points="224.6,804.4 223.2,802.6 225.3,801.7 226.7,803.4 					"/>
					<polygon class="st11" points="238,797 236.4,795 238.7,793.9 240.3,795.9 					"/>
					<polygon class="st11" points="257.6,794.8 255.9,792.7 258.4,791.5 260.1,793.6 					"/>
					<polygon class="st11" points="264.6,798.5 263.6,797.3 265,796.7 266,797.9 					"/>
					<polygon class="st11" points="261.6,810.7 260.1,808.7 262.3,807.7 263.8,809.6 					"/>
					<polygon class="st11" points="273,799.5 272.2,798.4 273.4,797.8 274.3,798.9 					"/>
					<polygon class="st11" points="229.6,798 228.7,796.9 230,796.3 230.9,797.4 					"/>
					<polygon class="st11" points="230.4,809.8 229.2,808.4 230.9,807.6 232,809.1 					"/>
					<polygon class="st11" points="247.2,793.8 246,792.4 247.7,791.6 248.8,793 					"/>
					<polygon class="st11" points="200.3,797 198.8,795.1 201,794.1 202.5,796 					"/>
					<polygon class="st11" points="211,793.9 209.5,792.1 211.7,791 213.2,792.9 					"/>
					<polygon class="st11" points="221.6,791.6 220.7,790.4 222,789.8 223,790.9 					"/>
					<polygon class="st11" points="215.3,785.9 214.4,784.8 215.7,784.2 216.6,785.3 					"/>
					<polygon class="st11" points="228.9,783.1 227.7,781.6 229.4,780.8 230.6,782.3 					"/>
					<polygon class="st11" points="240.3,779 239.3,777.8 240.7,777.2 241.7,778.4 					"/>
					<polygon class="st11" points="252,777.4 251.1,776.2 252.5,775.6 253.4,776.8 					"/>
					<polygon class="st11" points="260.6,785.5 259.7,784.5 261,783.9 261.8,784.9 					"/>
					<polygon class="st11" points="270.1,782.2 269.2,781 270.5,780.3 271.4,781.5 					"/>
					<polygon class="st11" points="270.5,789.7 269,787.8 271.2,786.8 272.8,788.7 					"/>
					<polygon class="st11" points="248.7,783.9 247.2,782.1 249.3,781.1 250.7,782.9 					"/>
					<polygon class="st11" points="262.4,779.4 260.8,777.5 263.1,776.4 264.6,778.4 					"/>
				</g>
			</g>
			<g id="chicken-bone_4_">
				<path class="st12" d="M133.2,784.5c-8-5.5-20.6,5.8-12.7,13.5c1.1,1.1,1.6,0.7,0.2,2.1c-4.1,4.2-2.4,9.1,1.7,11.9
					c8.7,4.4,10-6.4,18.9-8.4c8.9-1.9,12.3-3.7,24.7-2.4c15.2-4.4,13.3-8.7-1.3-12.5C144,790.5,147.9,792.1,133.2,784.5z"/>
				<path class="st13" d="M138.8,791.4c6.1,0.7,26.1,1.5,36.3,1.2c-1.9-1.4-5.3-2.7-10.2-4c-20.8,1.9-16.9,3.6-31.6-4.1
					c-8-5.5-20.6,5.8-12.7,13.5c1.1,1.1,1.6,0.7,0.2,2.1c-2.7,2.7-2.9,5.8-1.6,8.3c5.8-1.6,7-6.7,5.2-12.1
					C122,789,131.2,790.5,138.8,791.4z"/>
				<path class="st14" d="M169.4,800c-4.8,0.3-11.2-0.1-17.3-1c-9.3-1.3-12-1-16.3,4.6c-2.2,2.9-4.7,6.4-8.1,9.1
					c4.5-1.2,6.9-7.8,13.7-9.2c8.9-1.9,12.3-3.7,24.7-2.4C167.3,800.8,168.4,800.4,169.4,800z"/>
			</g>
		</g>
		<g id="chicken_3_">
			<path id="chicken-ouline_3_" class="st6" d="M195.6,790.8c11.6,0,20.3,4.3,25.7,13.7c2.2,3.9,3.9,8.6,4.9,14.2
				c5.5,29.7-10.2,37.9-33.2,40.5c-4.2,0.5-8.3,0.6-12.4,0.6c-16.9,0-32.2-3.1-38.6-3.2c-8-0.1-20.1-0.9-25.2-1.7h0
				c-12.4,1.6-15.3,4.1-23.5,8c-7.4,3.5-7.2,12.8-14.1,12.8c-0.7,0-1.5-0.1-2.5-0.3c-4.6-1.7-7.4-6.2-4.3-11.2c1-1.6,0.6-1.1-0.7-2
				c-8.4-5-1.7-16.6,6.3-16.6c1,0,2,0.2,3,0.6c6.5,1.7,9.7,2.6,12.5,2.6c4.1,0,7.4-1.9,19.2-5.7l0,0c12.8-9.2,27.3-33.8,50.9-44.8
				C175.9,793.3,186.6,790.8,195.6,790.8 M195.6,786.7c-9.4,0-20.3,2.5-33.5,7.7l-0.1,0l-0.1,0.1c-15.9,7.4-27.8,20.5-37.3,31.1
				c-5.2,5.7-9.7,10.7-13.8,13.8c-3.4,1.1-6.1,2.1-8.3,2.9c-4.7,1.7-6.9,2.5-9,2.5c-2.1,0-5-0.7-10.3-2.1l-1-0.3
				c-1.4-0.5-2.8-0.8-4.3-0.8c-6.1,0-12.1,4.7-13.8,11c-1.3,4.6,0.1,9,3.5,11.9c-0.9,2.5-1,5-0.2,7.3c1.1,3.3,4,6,7.7,7.4l0.2,0.1
				l0.2,0.1c1.2,0.3,2.4,0.5,3.4,0.5c5.9,0,8.7-4.4,10.7-7.6c1.4-2.3,2.8-4.5,5.2-5.6c1.5-0.7,2.9-1.4,4-2c5.3-2.7,8.6-4.3,17.7-5.6
				c5.6,0.8,17.3,1.5,25.2,1.7c2.1,0,5.6,0.5,9.7,1c7.6,0.9,18,2.3,29,2.3c4.5,0,8.9-0.2,12.9-0.7c7.5-0.8,13.5-2.2,18.5-4.2
				c6.1-2.4,10.6-5.7,13.9-10.1c5.5-7.5,7-17.6,4.5-31.1c-1.1-6-2.9-11.2-5.4-15.5C218.9,791.9,209,786.7,195.6,786.7L195.6,786.7z"
				/>
			<g id="chicken-skin_3_">
				<path class="st7" d="M177.8,801.2c18.4-6,33.7-4.1,43.5,3.2c-9.5-16.5-29.4-17.4-57.7-6.3c-23.7,11-38.2,35.6-51,44.8
					c-0.7,0.5-1,2.4-0.8,4.6l11.9,0.5C128.9,837.1,156.7,808,177.8,801.2z"/>
				<path class="st8" d="M221.3,804.4c-9.8-7.3-25-9.2-43.5-3.2c-21.2,6.8-49,35.9-54.1,46.8c0,0-10.2,6.3-7,6.8
					c5.1,0.8,17.2,1.6,25.2,1.7c8,0.1,29.7,4.9,51.1,2.6c23-2.6,38.7-10.8,33.2-40.5C225.2,813,223.5,808.3,221.3,804.4z"/>
				<path class="st9" d="M167.4,818.4c16.5-10.3,44.9-22.2,53.1-4.6c8.2,17.7-1.8,35.3-13.4,38.5c-11.6,3.1-31.3,6.2-54.2,0.5
					C130.1,847.1,135.8,838.2,167.4,818.4z"/>
				<path class="st10" d="M182.2,829.3c10-6.3,27.3-13.5,32.3-2.8c5,10.7-1.1,21.5-8.1,23.4c-7.1,1.9-19,3.8-32.9,0.3
					C159.5,846.7,163,841.3,182.2,829.3z"/>
				<path class="st11" d="M192.1,835c4.6-2.8,12.4-6.1,14.7-1.3s-0.5,9.8-3.7,10.6c-3.2,0.9-8.7,1.7-15,0.1
					C181.8,842.9,183.4,840.4,192.1,835z"/>
				<g>
					<polygon class="st11" points="161.8,816.8 159.9,815.3 161.8,813.7 163.8,815.3 					"/>
					<polygon class="st11" points="188.4,804.8 186.8,803.5 188.4,802.2 190.1,803.5 					"/>
					<polygon class="st11" points="178.9,808.1 176.8,806.4 178.9,804.7 181,806.4 					"/>
					<polygon class="st11" points="199.6,802.2 197.5,800.5 199.6,798.9 201.7,800.5 					"/>
					<polygon class="st11" points="152.7,820.6 151.3,819.5 152.7,818.3 154.2,819.5 					"/>
					<polygon class="st11" points="171.4,813.7 170.2,812.7 171.4,811.8 172.6,812.7 					"/>
					<polygon class="st11" points="138.6,835.9 137.2,834.7 138.6,833.6 140.1,834.7 					"/>
					<polygon class="st11" points="147.6,855.2 146.3,854.2 147.6,853.2 148.8,854.2 					"/>
					<polygon class="st11" points="150.1,849.3 148.8,848.3 150.1,847.3 151.4,848.3 					"/>
					<polygon class="st11" points="134.4,852.3 132.7,850.9 134.4,849.6 136.2,850.9 					"/>
					<polygon class="st11" points="158.2,849.1 156.4,847.7 158.2,846.2 160,847.7 					"/>
					<polygon class="st11" points="174.5,844.8 172.7,843.4 174.5,842 176.3,843.4 					"/>
					<polygon class="st11" points="185.8,834.6 183.8,833 185.8,831.4 187.9,833 					"/>
					<polygon class="st11" points="204.4,828 202.3,826.3 204.4,824.6 206.6,826.3 					"/>
					<polygon class="st11" points="212.1,830 210.8,829.1 212.1,828.1 213.3,829.1 					"/>
					<polygon class="st11" points="211.9,842.5 210,841 211.9,839.5 213.9,841 					"/>
					<polygon class="st11" points="220.5,829.1 219.4,828.2 220.5,827.3 221.6,828.2 					"/>
					<polygon class="st11" points="177.9,837.5 176.7,836.6 177.9,835.6 179,836.6 					"/>
					<polygon class="st11" points="181.3,848.8 179.9,847.7 181.3,846.5 182.7,847.7 					"/>
					<polygon class="st11" points="194,829.3 192.6,828.2 194,827.1 195.5,828.2 					"/>
					<polygon class="st11" points="149.2,843.1 147.3,841.6 149.2,840.1 151,841.6 					"/>
					<polygon class="st11" points="158.9,837.7 157,836.2 158.9,834.7 160.8,836.2 					"/>
					<polygon class="st11" points="168.7,833 167.5,832.1 168.7,831.1 169.8,832.1 					"/>
					<polygon class="st11" points="161.2,828.9 160.1,828 161.2,827.1 162.3,828 					"/>
					<polygon class="st11" points="173.8,823.1 172.4,821.9 173.8,820.7 175.3,821.9 					"/>
					<polygon class="st11" points="184,816.6 182.8,815.6 184,814.6 185.2,815.6 					"/>
					<polygon class="st11" points="195.1,812.3 193.9,811.4 195.1,810.5 196.2,811.4 					"/>
					<polygon class="st11" points="205.2,818.3 204.1,817.4 205.2,816.6 206.3,817.4 					"/>
					<polygon class="st11" points="213.7,812.8 212.6,811.9 213.7,811 214.9,811.9 					"/>
					<polygon class="st11" points="215.9,820.1 214,818.6 215.9,817 217.8,818.6 					"/>
					<polygon class="st11" points="193.3,819.4 191.5,818 193.3,816.6 195.1,818 					"/>
					<polygon class="st11" points="205.6,811.9 203.7,810.4 205.6,808.8 207.6,810.4 					"/>
				</g>
			</g>
			<g id="chicken-bone_3_">
				<path class="st12" d="M81,846.1c-9-3.6-18.7,10.4-9.3,16c1.3,0.8,1.7,0.3,0.7,2c-3.1,5-0.3,9.4,4.3,11.2
					c9.4,2.4,8.3-8.5,16.5-12.4c8.2-3.9,11.1-6.3,23.5-8c13.8-7.8,11-11.5-4.1-11.9C92.8,849.5,97,850.3,81,846.1z"/>
				<path class="st13" d="M87.9,851.6c6.1-0.7,25.8-4.4,35.6-7.1c-2.1-0.9-5.8-1.4-10.9-1.6c-19.8,6.6-15.7,7.3-31.7,3.2
					c-9-3.6-18.7,10.4-9.3,16c1.3,0.8,1.7,0.3,0.7,2c-2,3.3-1.5,6.3,0.4,8.5c5.3-2.9,5.3-8.1,2.3-13C71.1,853,80.4,852.4,87.9,851.6
					z"/>
				<path class="st14" d="M119.8,853.1c-4.6,1.4-11,2.4-17.1,3c-9.3,0.8-11.9,1.8-14.8,8.2c-1.5,3.3-3.1,7.3-5.9,10.7
					c4.1-2.2,5-9.1,11.2-12.1c8.2-3.9,11.1-6.3,23.5-8C117.9,854.2,118.9,853.6,119.8,853.1z"/>
			</g>
		</g>
		<g id="porc_1_">
			<path id="porce-outline_1_" class="st15" d="M284.5,819.5c13.6,0,28,1.3,40.8,5.3c49,14.4,48.8,46.3,48.8,46.3s0,24,0,38.7
				c-3.7,15.9-33,24.4-48,24.4c0,0-1,0-2.7,0c-9.1,0-38.9-1.3-52.8-17.7c-16.6-19.5-25.1-25.5-45.9-25.9s-23.2-17.3-23.2-17.3
				s0-23.2,0-28.9c0-12,19.4-17.5,31.4-19.7C240.7,823.3,261.5,819.5,284.5,819.5 M284.5,815.4c-23.6,0-45.2,4-52.3,5.3
				c-5.9,1.1-14.3,3.1-21.3,6.6c-3.9,1.9-7,4.2-9.2,6.6c-2.8,3.2-4.3,6.7-4.3,10.6v28.9v0.3l0,0.3c0.1,0.5,0.9,5.4,4.6,10.4
				c3.5,4.6,10.2,10.2,22.6,10.5c19.6,0.4,27.1,5.8,42.9,24.4c6.5,7.7,16.8,13.2,30.4,16.3c10.6,2.4,20.5,2.8,25.5,2.8
				c1.5,0,2.5,0,2.8,0c8.7,0,20.4-2.6,29.7-6.6c8.7-3.7,19.7-10.4,22.1-21l0.1-0.5v-0.5v-38.7c0-0.7-0.1-9.4-6.6-19.9
				c-3.8-6.1-9-11.6-15.5-16.4c-8-5.8-17.9-10.5-29.5-13.9C314.7,817.3,300.6,815.4,284.5,815.4L284.5,815.4z"/>
			<g id="porc-side_1_">
				<path class="st16" d="M344.9,899.7c-9.1,2.8-19.1,3.8-28.7,3.3v31c6,0.4,10,0.2,10,0.2c9.8,0,25.8-3.7,36.7-10.7v-32.2
					C358.6,894.4,352.8,897.3,344.9,899.7z"/>
				<path class="st16" d="M202.4,849.1v27.5c1.2,3.3,4.1,8.4,10.4,11.5v-30.5C207.9,855.8,204,853.1,202.4,849.1z"/>
				<path class="st16" d="M271.1,886c-4.4-5.1-8.4-9.4-12.5-12.9v30.6c3.7,3.4,7.5,7.7,12,12.9c3.5,4.2,8.1,7.4,13.1,9.8v-31.2
					C278.5,892.7,274.1,889.5,271.1,886z"/>
				<path class="st17" d="M201.5,844.5c0,5.7,0,28.9,0,28.9s0.2,1.3,0.9,3.2v-27.5C201.8,847.7,201.5,846.2,201.5,844.5z"/>
				<path class="st18" d="M232,861.1c-6.7-0.4-13.6-1.4-19.2-3.4v30.5c3.1,1.5,7,2.5,11.9,2.6c15.2,0.3,23.9,3.6,34,13v-30.6
					C250.1,865.6,241.9,861.7,232,861.1z"/>
				<path class="st18" d="M283.8,895.3v31.2c10.9,5.3,23.7,7.1,32.4,7.6v-31C304.2,902.5,292.7,899.6,283.8,895.3z"/>
				<path class="st17" d="M374.1,909.8c0-12.1,0-30.4,0-36.6c-0.2,4.8-2.3,11.8-11.3,18.2v32.2C368.6,919.9,372.9,915.3,374.1,909.8
					z"/>
			</g>
			<g id="porc-top_1_">
				<path class="st19" d="M374.1,871.1c0,0,0.2-31.9-48.8-46.3c-34.6-10.6-79.9-2.4-92.4,0c-12,2.2-31.4,7.8-31.4,19.7
					c0,12,15.8,15.7,30.5,16.6c14.6,0.8,25.5,9,39.2,24.9c12.3,14.4,46.7,22.1,73.8,13.7C372,891.3,374.5,877.8,374.1,871.1z"/>
				<path class="st20" d="M218.1,851.4c5.1,2.1,21.9,7.4,28.9-3.7c7-11.1,1.2-17.2-11.5-16.8S198,842.9,218.1,851.4z"/>
				<path class="st21" d="M222.1,848.5c3.4,1.4,14.8,5,19.5-2.5c4.7-7.5,0.8-11.6-7.8-11.4C225.2,835,208.5,842.8,222.1,848.5z"/>
				<path class="st20" d="M269.6,873.3c10.5,8.6,18.9,22.7,34,17.2c15.1-5.5,8.4-25.6-6-32.9s-33.5-12.5-42.2-5.6
					C246.7,858.9,260.3,865.6,269.6,873.3z"/>
				<path class="st21" d="M275.4,870.9c6.2,5.4,16.9,18.5,25.1,13.6c9.3-5.6,4.1-18.6-7.4-24.1c-11.5-5.6-26.5-9.6-31.4-6
					C255.5,859,267.2,863.7,275.4,870.9z"/>
				<path class="st20" d="M306.3,857c17.8,13.3,23.1,44.1,43.6,33.7c21.2-10.8,21.3-23.8,3.5-44.5c-12-13.4-40.4-18.3-54.3-20.3
					c-14-1.9-38.6-0.8-38.6,12.9C264.5,847.8,285.2,841.5,306.3,857z"/>
				<path class="st21" d="M311,854.5c20.5,14.9,18.9,41.9,41.4,27.9c9.3-5.8,11.7-16.6-3.9-34.7c-9.3-9.8-24-12.6-39-16.9
					c-17.1-5-43.1-4.2-43,6.6C266.5,842.1,292.5,840.9,311,854.5z"/>
			</g>
		</g>
		<g id="beef_1_">
			<path id="beef-outline_1_" class="st6" d="M161.3,861.3c16,0,26.3,3.8,29.9,5.3c5.7,2.5,15.5,3.6,25.5,8.6
				c10,5.1,19.3,11.9,24.5,17.4c5.2,5.5,6.6,4.1,16,14.6c4.1,4.6,5.9,8.7,5.8,12c0,0,0.6,23.3,0.6,28.2c-0.7,4.5-6.6,17.4-31.4,17.4
				c-0.7,0-1.5,0-2.3,0c-5.2-0.2-10.1-0.2-14.7-0.2c-28.3,0-46.1,2.7-54.3,4.2c-20.9,3.8-34.4,15.2-54.2,15.8
				c-1.1,0.1-2.2,0.1-3.3,0.1c-23.7,0-35.2-12.5-35.2-24.7c0-12.2,1.1-42.6,1.1-42.6c0.2-3.2,1.1-6.1,2.5-8.6
				c3.4-6,16.1-29.9,53.1-41.5C139.1,862.8,151.3,861.3,161.3,861.3 M161.3,857.2c-12,0-24.7,2.1-37.7,6.1
				c-15.9,5-29.4,12.8-40.1,23.2c-8.6,8.4-13.1,16.3-15,19.7l-0.3,0.5c-1.8,3.1-2.8,6.7-3.1,10.4l0,0.1l0,0.1
				c0,1.2-1.1,30.6-1.1,42.8c0,7.6,3.7,14.9,10.3,20.1c7.1,5.7,17.2,8.7,29,8.7c1.1,0,2.3,0,3.4-0.1c11.8-0.4,21.5-4.3,31-8.2
				c7.4-3,15-6.1,23.8-7.7c15.2-2.8,33.2-4.2,53.6-4.2c4.7,0,9.6,0.1,14.6,0.2c0.8,0,1.6,0,2.4,0c11.7,0,20.8-2.7,27.3-7.9
				c6.4-5.2,7.8-11.2,8.1-12.9l0.1-0.3v-0.3c0-4.8-0.6-26.4-0.6-28.2c0.1-4.6-2.2-9.6-6.9-14.7c-5.9-6.6-9-8.9-11.4-10.7
				c-1.6-1.2-2.8-2.1-4.7-4c-5.9-6.2-15.7-13.2-25.6-18.2c-6.5-3.3-12.9-5-18.1-6.4c-3-0.8-5.7-1.5-7.6-2.3
				C187.9,860.8,177.2,857.2,161.3,857.2L161.3,857.2z"/>
			<g id="beef-side_1_">
				<path class="st22" d="M263,919.3c-0.1,4.2-3.2,7.1-8.1,8.1c-8.8,1.8-18.3,2.3-35.3,1.8c-15.4-0.5-39.5-1.5-56.8,1.6
					c2.8,6.6,7.2,24,2.1,37.3c11.2-1.8,32.5-4.3,65.1-3.3c26.8,0.8,32.9-12.7,33.7-17.3C263.6,942.6,263,919.3,263,919.3z"/>
				<path class="st23" d="M162.8,930.8c-1.8,0.3-3.5,0.7-5.1,1.1c-17.2,4.3-24.6,7.9-28.2,9.8c-3.6,1.8-7.4-0.9-14.6,0.2
					c-7.2,1.1-16,0.2-18.1,0.8c-2.1,0.6-6.9,2.2-11.2,0c-4.4-2.2-5.2-5.8-8.2-6.8c-2.1-0.6-4.2-4-4.2-4c-2.9-4.7-4.1-9.3-4-13.5
					c-0.2,5.2-1,30.7-1,41.7c0,12.7,12.6,25.9,38.5,24.6c19.8-0.6,33.3-12,54.2-15.8c1.1-0.2,2.5-0.4,4-0.7
					C170,954.8,165.6,937.4,162.8,930.8z"/>
				<path class="st24" d="M105.4,961.7c-2.8-4.3,0.2-6.1,0.8-7.1c0.5-0.8,0.2-7.7-1.7-12.3c-3.6,0-6.5-0.1-7.6,0.2
					c-2.1,0.6-6.9,2.2-11.2,0c-4.4-2.2-5.2-5.8-8.2-6.8c-1-0.3-2.1-1.3-2.8-2.2c0.2,4.7,3.1,11.1,2.4,16.6
					c-0.7,5.4-0.6,18.3-1.2,25.7c6.3,5.6,16.6,9.4,30.9,8.7c0.4,0,0.8,0,1.2-0.1c0.2-5.9,0.6-13.8,0.6-13.8S108.1,966.1,105.4,961.7
					z"/>
				<path class="st24" d="M155.1,959.1c1.3-7.6-0.3-17.1-4.9-15.5c-4.6,1.6-1.7,12.4-2.9,18.7c-0.5,2.7-2.1,7.3-5.1,6.9
					s-3.4-3.9-0.2-14.6c3.2-10.7,0.1-12.1-2.1-12.9c-2.2-0.8-5.1,3.2-7.7,8.9c-2.6,5.7,0.2,15.7-0.5,18.7c-0.5,1.9-1.3,6.1-2.8,10.5
					c8.6-3.3,17.1-7.3,27.2-9.8C155.5,966.1,154.8,961.3,155.1,959.1z"/>
				<path class="st25" d="M229.9,964.8c26.8,0.8,32.9-12.7,33.7-17.3c0-4.9-0.6-28.2-0.6-28.2c-0.1,4.2-3.2,7.1-8.1,8.1
					c-0.3,0.1-0.6,0.1-0.9,0.2c0.2,1.2,0.2,2.9-0.6,4.6c-1.5,3.4-1.8,7.8-1.6,9.3c0.2,1.5,0.7,7.5-3.1,8.3c-3.8,0.8-7.9,3.1-8.9,4.4
					c-1,1.4-4.1,5.8-9.2,5.6c-5.1-0.2-5.3-8.1-6.8-14.5c-1.4-6.4-2.6-7.1-5.2-6.3c-2.7,0.8-4.8,10.9-5.9,13.7
					c-1.1,2.8-0.3,6.9-4.1,7.8c-2.5,0.6-4.3,1.8-6.5,4.2C210.1,964.5,219.5,964.5,229.9,964.8z"/>
			</g>
			<g id="beef-top_1_">
				<path class="st26" d="M73.2,931.9c-5.3-8.7-4.8-17.1-1.4-23.1c3.4-6,16.1-29.9,53.1-41.5c37-11.6,60.6-3.1,66.3-0.6
					c5.7,2.5,15.5,3.6,25.5,8.6c10,5.1,19.3,11.9,24.5,17.4c5.2,5.5,6.6,4.1,16,14.6c9.4,10.5,6.4,18.3-2.3,20.1
					c-8.8,1.8-18.3,2.3-35.3,1.8s-44.6-1.7-61.8,2.6s-24.6,7.9-28.2,9.8c-3.6,1.8-7.4-0.9-14.6,0.2c-7.2,1.1-16,0.2-18.1,0.8
					c-2.1,0.6-6.9,2.2-11.2,0c-4.4-2.2-5.2-5.8-8.2-6.8C75.3,935.2,73.2,931.9,73.2,931.9z"/>
				<path class="st27" d="M73.2,931.9c-5.3-8.7-4.8-17.1-1.4-23.1c3.4-6,16.1-29.9,53.1-41.5c37-11.6,60.6-3.1,66.3-0.6
					c5.7,2.5,15.5,3.6,25.5,8.6c10,5.1,19.3,11.9,24.5,17.4c5.2,5.5,6.6,4.1,16,14.6c9.4,10.5,6.4,18.3-2.3,20.1
					c-8.8,1.8-18.3,2.3-35.3,1.8s-44.6-1.7-61.8,2.6s-24.6,7.9-28.2,9.8c-3.6,1.8-7.4-0.9-14.6,0.2c-7.2,1.1-16,0.2-18.1,0.8
					c-2.1,0.6-6.9,2.2-11.2,0c-4.4-2.2-5.2-5.8-8.2-6.8C75.3,935.2,73.2,931.9,73.2,931.9z"/>
				<path class="st28" d="M241.2,892.7c-5.2-5.5-14.5-12.3-24.5-17.4c-6.9-3.5-13.7-5.1-19.2-6.6c0.1,2.1,0.2,5.1,0.5,7.9
					c0.5,5.3-8.4,7.7-17.3,4.6c-8.4-3.3-26.7-9.2-30.2-9.1c-3.5,0.1-4.5,0.8-1.4,1.2c15,2.3,38.3,24.6,15.2,44.5
					s-49.6,14.5-49.6,14.5s-7.2-13.6-15.5-22.4c-6.4-6.7-16.8-6.4-25.5-4.5c-0.9,1.4-1.5,2.6-2,3.4c-3.4,6-3.9,14.4,1.4,23.1
					c0,0,2.1,3.3,4.2,4c3,1,3.9,4.6,8.2,6.8c4.4,2.2,9.1,0.6,11.2,0c2.1-0.6,10.9,0.4,18.1-0.8c7.2-1.1,11,1.6,14.6-0.2
					c3.6-1.8,11-5.4,28.2-9.8c1.6-0.4,3.3-0.8,5.1-1.1c6.7-4.3,22.3-32.5,40.4-39.4c13.4-5.1,30.4-0.6,39.1,2.4
					C241.9,893.5,241.6,893.1,241.2,892.7z M93.4,937c-10-1.5-19.4-7.7-21-17.7c-1.6-9.9,4-14.8,19-9.3c8.2,3,15.1,14.1,16.7,20.8
					C109.7,937.5,103.4,938.5,93.4,937z"/>
				<path class="st29" d="M81.5,918.8c-0.5,5.1,5.7,11,14.4,9.6c4-0.5,3.4-3.6-0.3-8.4C92.1,915.1,82.4,911,81.5,918.8z"/>
				<path class="st24" d="M222.1,883.9c0.7,0.4,5.2,2,10.4,1.2c-4.6-3.5-10.1-6.9-15.8-9.8c-5.1-2.6-10.2-4.1-14.6-5.4
					c-1.6,4-2.1,12.1-0.8,14.7c1.4,3.3,6.9-0.7,9.3-0.8C212.9,883.7,221.2,883.5,222.1,883.9z"/>
				<path class="st29" d="M134.8,901.9c-0.5-0.8-1.4-4-1.4-4s-0.3-0.7-1.4-0.8s-5.8,0-6.3-0.1c-0.5-0.1-1-1-1.6-1
					c-0.5-1-0.8-3.1-0.8-3.1s-4.5-0.3-5.3-0.5c-0.8-0.3-0.7-1.4-0.4-1.4s0.6-1.4,1.1-2.1c0.5-0.7,1.5-1.4,1.8-1.4
					c0.3,0,5.5-1.9,7.5-1.9c1.9,0,2-0.8,3.2,0.1c1.2,0.8,1.8,1.2,2.9,1.6c1,0.4,1.1,1.3,3,1.1c1.9-0.2,7.2-0.6,7.2-0.6
					s-7.9-0.4-8.6-0.7c-0.8-0.3-3-2.9-3.8-3c-0.8-0.1-2.5,0-2.5,0s0.8-4.9,1.4-5.3c0.6-0.3,4.2-2.9,4.7-2.9c0.5,0,5.5,0.1,6,0.3
					c0.5,0.1-5.6-1.5-5.6-1.5s-6,3.1-6.4,3.2c-0.4,0.1-1.8,4-1.9,4.5c-0.1,0.5-0.8,0.6-1.1,0.7c-0.3,0.1-6.8,2.3-7.5,2.6
					c-0.7,0.4-2,2.1-2.5,3.4c-0.6,0.3-2.1,0.6-2.6-0.3c-0.5-0.9-2.6-3.5-2.5-4.2c0.1-0.7-0.5-0.9-0.5-0.9s-2.7,0.3-3,0.2
					c-0.3-0.1-1.1-0.6-1.7-1.2s-1.8-2.3-1.8-2.3s0.3-1.1,1.2-2c0.9-0.9,7.3-5.8,7.3-5.8s0.9-0.7,1.9-1.8
					c-13.3,5.6-22.8,12.8-29.5,19.5c3.7-2.3,6.7-4.3,8.5-4.7c2.5-0.5,11.2-1,12.7,0c1.5,1,5.5,5.3,6,6.8c0.5,1.6,1.9,1.8,3,1.8
					c1.1,0,4.1,0.3,4.1,0.3s0.3,1,0.5,1.2c0.3,0.2,1.6,0.1,1.7,0.4c0.1,0.3,1.9,12.3,2,12.5c0.1,0.2-0.3,0.5,1.2,1.6
					c1.5,1.1,7.7,4.4,7.7,4.4l-7.5-5.7c0,0-1.5-8.6-1.4-9.1c0.1-0.5,0-1.5,1-1.4c1,0.1,4.9-0.3,5.6-0.3c0.7,0,0.6,0.1,0.7,0.6
					c0.1,0.5,1.5,4.2,1.5,4.2l5.4,3l12.9,0.4c0,0-11.5-1.4-11.7-1.4C139.4,905.1,135.3,902.7,134.8,901.9z"/>
				<path class="st29" d="M233.8,926.5c0.1-0.2,3.5-2.5,4.3-3.5c0.8-1,1.5-3.6,1.2-3.7c-0.3-0.1-3-4.3-3-4.3l-2-1.1
					c0,0,2.9,5.6,2.8,6c-0.2,0.3-1,2.1-1.7,2.9c-0.4-0.1-3.5,1.2-3.5,1.2s-6,2.5-6.3,2.7c-0.3,0.2-1.3,0.2-1.3,0.2s-7.6-1.3-8.3-1.2
					c-0.7,0.1-1.1-0.6-1.1-0.6s0.3-0.9,1.2-2c0.9-1.1,4.9-3,5.3-3.1c0.4-0.2,3.5-2,3.9-2.7c0.4-0.7,2.3-5.7,3-6.6
					c0.7-0.8,0.2-2.4,0-2.4s-0.7-2.5-1.2-3.7c-0.5-1.2-1.7-1.3-2-1.5c-0.2-0.2-2.8-1.7-2.8-1.7l-2.7-0.6c0,0,5,3.8,5,4
					s0.8,2.8,0.8,2.8s1.1,2.2,0.7,2.8c-0.5,0.2-3,6-3,6s-0.9,0.6-1.4,0.8c-0.6,0.2-6.9,3.9-6.9,3.9s-0.6,0.4-1.6-0.2
					c-0.3-1.2-2-4.3-2.1-4.4c0-0.2,0-7.9,0-7.9l-1.1-3.4l-10.9-2.2l8.1,2.6c0,0-0.1,0.5,1.1,1.3c1.1,0.9,1.1,10.1,1.1,10.1
					s-0.5,0-1.6-0.3c-1.3-0.9-4.1-1.3-4.1-1.3s-2.9-3.1-3.1-3c-0.2,0.1-5.5-0.4-5.8-0.5c-0.2-0.1-3.3-3.3-3.3-3.3l2.8,5.5l6.8,0.3
					c0,0,1.2,2.5,1.4,3.1c-0.7-0.1-4.8,0.7-4.8,0.7s-3.9,0-4.4,0c-0.5,0-0.8-0.4-1.2-0.8c-0.4-0.4-1.6-0.1-2.1-0.2
					c-0.2-0.4-0.9-2.4-1.1-2.8c-0.2-0.4-1.6-2.7-1.6-2.7l2.1,6.4c0,0,0.9,0.5,1.8,0.6c0.5,0.3,5.4,0.5,6.9,0.4
					c1.5-0.1,4.5-0.3,5.4-0.6c1-0.3,5.4,0.3,5.6,0.6c0.2,0.3,0.5,1,1.3,2s0.9,3.3,0.6,3.4c-0.3,0.1-0.7,1.6-1.6,1.8
					c-0.9,0.2-7.1,1.5-9.7,2.2c7.3,0.1,14.2,0.3,19.8,0.5c3.9,0.1,7.5,0.2,10.7,0.2C231.9,928.1,233.7,926.6,233.8,926.5z"/>
			</g>
		</g>
	</g>
</g>
<g id="plate_right">
	<g id="plate_2_">
		<ellipse class="st3" cx="790" cy="938.3" rx="192" ry="122.2"/>
		<ellipse class="st4" cx="790" cy="902.8" rx="199.1" ry="128.2"/>
		<ellipse class="st0" cx="790" cy="897.7" rx="199.1" ry="128.2"/>
		<path class="st5" d="M797.1,984.4c-79.1,0-143.2-41-143.2-91.6c0-11.2,3.2-22,8.9-31.9c-7.9,11.2-12.2,23.7-12.2,36.8
			c0,49.6,62.4,89.7,139.4,89.7c26.4,0,51-4.7,72.1-12.9C842.6,980.9,820.5,984.4,797.1,984.4z"/>
		<path class="st5" d="M790,807.9c-38.3,0-73,9.9-98.2,26c24.4-12,55.3-19.1,88.8-19.1c79.1,0,143.2,39.7,143.2,88.6
			c0,19.2-9.9,37-26.6,51.5c20.1-15.5,32.1-35.5,32.1-57.3C929.4,848.1,867,807.9,790,807.9z"/>
	</g>
	<g id="eggplants">
		<path class="st30" d="M780,777.6c-9-1.6-30.6,11.2-63.4,13.7c-59.2,4-74.9,33.3-79,54.2c-9.7,49.5,87.7,1.2,111.5-5.2
			c19.7-5.3,31.1-12,42-22.2c-0.2,0.4-0.4,0.7-0.6,1.1c16.6-8,15.2-22.3,16.6-24c1.4-1.7,4.8-5.1,9.5-8.4c4.7-3.3,7.2-5,6.9-7.2
			c-0.3-3-2.8-5.7-4.3-4.8c-2.5,1.2-14.5,6.5-21.7,3C790.2,774.2,783.5,775.5,780,777.6z"/>
		<g>
			<path class="st31" d="M637.6,845.6c4.1-20.9,19.8-50.2,79-54.2c32.8-2.6,56.1-16.3,63.5-13.1c7.4,3.2,30.9,19.3,17.6,33.3
				c-13.3,14-24.9,22.4-48.6,28.8C725.4,846.8,627.9,895.1,637.6,845.6z"/>
			<path class="st32" d="M667.4,829.8c7.3-10.3,21.7-26.4,46.4-26.8c28.3-0.4,45.9-14.6,60.4-13.7c12.4,0.8,18.1,16.6,9.8,25.1
				c-8.3,8.6-33.7,25.3-61.1,25.9C695.3,841.1,658.4,842.4,667.4,829.8z"/>
			<path class="st33" d="M728.6,805.9c22.1-1.8,32.3-12.3,39.1-7.5s10.8,13.7,8.6,19.6c-2.2,5.9-89.5,28.5-97.4,23.4
				c-7.9-5.1-1.9-22.7,17.4-29.2C715.7,805.7,717.9,806.8,728.6,805.9z"/>
			<path class="st34" d="M780,777.6c-8.4-1.5-30.6,11.2-63.4,13.7c-59.2,4-74.9,33.3-79,54.2c-9.7,49.5,87.7,1.2,111.5-5.2
				c23.7-6.4,35.3-14.8,48.6-28.8C811,797.5,788,779,780,777.6z M744.7,840.7c-22.6,6.1-101.1,14.4-98.5,8.1
				c7.8-18.8,16.7-49.3,73.1-53.2c31.3-2.5,53.7-14.9,60.7-11.8c3.4,1.5,9.9,4,12.5,13.1c-4.6,3.5-42,34.9-59.3,36.8
				c-17.3,1.9,6.2,6.3,13.8,4.2c7.7-2.2,38.6-18.5,45.5-29c0.2,1.3-0.3,2.9-1,4C783.6,825.6,760,836.6,744.7,840.7z"/>
			<path class="st35" d="M780,777.6c3.5-2.2,10.2-3.4,17.4,0.1c7.2,3.5,19.3-1.7,21.7-3c1.5-0.9,4.1,1.8,4.3,4.8
				c0.3,2.2-2.2,3.9-6.9,7.2c-4.7,3.3-8.1,6.7-9.5,8.4c-1.4,1.7,0,16-16.6,24C796.5,809.7,799,786.1,780,777.6z"/>
			<path class="st36" d="M816.6,786.8c4.7-3.3,7.2-5,6.9-7.2c-0.1-1.3-0.7-2.5-1.4-3.4c-4.2,4.6-9.6,9.1-19.6,7.2
				c-8.1-1.6-11-1-13.3,1.4c8.4,10.7,5.9,26.9,1.2,34.5c16.6-8,15.2-22.3,16.6-24C808.5,793.5,811.9,790.1,816.6,786.8z"/>
			<path class="st37" d="M816.6,786.8c4.7-3.3,7.2-5,6.9-7.2c0-0.3-0.1-0.5-0.1-0.8c-5.5,5.2-17.5,12.7-19.2,12.7
				c-1.2-2-2.6-3.4-2.6-3.4s6.2,16.4-9.6,28c-0.5,1.2-1,2.2-1.6,3.1c16.6-8,15.2-22.3,16.6-24C808.5,793.5,811.9,790.1,816.6,786.8z
				"/>
		</g>
		<g id="peppers">
			<path class="st38" d="M973.2,765.6c-1.5-4.6-3.9-8.3-7.6-9c-0.1,0-0.2,0-0.3,0v0c0,0,0,0,0,0c-2.9-0.5-4.1-0.2-4.5,0.2
				c0,0,0,0,0,0c0,0-0.1,0.1-0.1,0.1c0,0,0,0,0,0c0,0,0,0,0,0.1c0,0,0,0.1,0,0.1c0.3,5.4-3.3,10.1-8.9,12.4c0-0.1,0-0.2-0.1-0.3
				l0-0.1l0,0c-0.8-4.3-2.4-8.8-4.5-12.8c-5.3-10.2-13.6-18.5-22.9-17.7c-11-8.1-24.6-8-37.7,11c-17.2,24.8-48.3,33-37.3,54.3
				c1,1.9,2.1,3.5,3.3,4.9c-0.6,3.2-0.2,6.8,1.7,10.8c1.9,4.1,4.4,6.8,7.3,8.5c0.2,0.8,0.5,1.6,0.8,2.4c8.8,22.2,35.4,5.8,65.4,9.1
				c23.2,2.6,32.5-8.4,33.6-22.7c6.9-6.7,6.3-18.9,2.1-29.5c-1.5-3.8-3.5-7.5-5.8-10.6C966.6,773.9,971.9,768.7,973.2,765.6z"/>
			<path class="st38" d="M900.3,745.3c-3.9-10-16.4-14.5-28.5-14.5c-3.8,0-7.9,0.4-11.8,1.4c1.6-10-1.1-17.5-3.6-20.2
				c-5-0.6-9.6,0.1-11.9,3.4c-0.1,0.1-0.1,0.1-0.2,0.2v0c0,0,0,0,0,0c-1.7,2.5-2,3.8-1.8,4.4c0,0,0,0,0,0c0,0,0,0.1,0,0.1
				c0,0,0,0,0,0c0,0,0,0,0,0.1c0,0,0.1,0.1,0.1,0.1c2.3,0.9,4.2,2.4,5.5,4.4c1.6,2.3,2.4,5.2,2.4,8.4c0,0.2,0,0.5,0,0.7
				c-3.9-0.9-8.1-1.4-12.2-1.4c-11.6,0-26,3.3-30.6,13.4c-11.9,6.2-18.5,18.3-6.6,40.2c12.1,22.3,14.6,31.1,17.2,38.3
				c2.5,7,6.8,18.1,21.5,18.1c0,0,0,0,0,0c3.3,4,8.1,6.4,14.7,6.4c2.7,0,5-0.4,7.1-1c0,0,0.1,0,0.1,0c0.5-0.2,1.1-0.4,1.6-0.6
				c0,0,0.1,0,0.1,0c0.5-0.2,1-0.5,1.4-0.7c0,0,0.1,0,0.1-0.1c0.5-0.3,0.9-0.5,1.3-0.8c0,0,0,0,0,0c1.3-0.9,2.4-1.9,3.4-3.2
				c0.4,0,0.8,0,1.2,0c14.7,0,19-11.1,21.5-18.1c2.6-7.2,3.5-16,15.6-38.3C920.2,763.5,912.9,751.3,900.3,745.3z"/>
			<g>
				<g>
					<path class="st39" d="M879.7,791.1c-8.2-16,15-22.1,28-40.7c15.1-21.8,31.1-10.4,39.5,5.7c8.3,16.1,8.6,37.4-17.9,37
						C906.5,792.9,887.9,807.1,879.7,791.1z"/>
					<path class="st40" d="M849.3,803.7c-11-21.3,20-29.4,37.3-54.3c20.1-29.1,41.5-13.9,52.6,7.6c11.1,21.5,11.5,49.8-23.9,49.3
						C885,806,860.2,824.9,849.3,803.7z"/>
					<path class="st41" d="M892.6,814.6c-6.6-16.6,17.1-20.4,31.7-37.6c17.1-20.2,32.6-6.7,39.2,10.1c6.7,16.8,4.2,37.4-22.1,34.4
						C919,818.9,899.2,831.2,892.6,814.6z"/>
					<path class="st42" d="M862.4,830.2c-8.8-22.2,22.9-27.3,42.4-50.3c22.8-27,43.6-9,52.5,13.5c8.9,22.5,5.6,50-29.5,46
						C897.8,836,871.3,852.4,862.4,830.2z"/>
				</g>
				<g>
					<polygon class="st43" points="933.1,760.8 940.3,759.3 945.6,760.8 946.8,766.9 951.6,769 952.9,779.2 956.1,781.4 
						954.6,784.1 955.4,788.1 950.4,795.4 					"/>
					<path class="st43" d="M948.8,770.3c7.1-1.7,12.1-7,11.8-13.3c0.1-0.5,1.2-1.1,5-0.4c3.8,0.7,6.2,4.3,7.6,9
						c-1.5,3.8-8.8,10.5-21.4,12.2C950.1,776.9,948.4,772,948.8,770.3z"/>
					<path class="st44" d="M965.2,756.6c-3.6-0.6-4.6-0.1-4.7,0.5c0.4,6.3-4.6,11.6-11.8,13.3c-0.1,0.6,0,1.5,0.2,2.6
						C953.9,772.7,965.9,768.1,965.2,756.6z"/>
					<path class="st44" d="M946.5,769.8l1.1-0.2c0,0-0.5,6.6,4.2,9.3c-0.2,0.8-0.8,0.9-0.8,0.9S945.3,776.7,946.5,769.8z"/>
				</g>
				<g>
					<path class="st45" d="M854.3,819.3c-10.1-21.7,21.2-28.6,39.4-52.7c21.2-28.3,43-11.5,53.2,10.4c10.2,21.9,8.6,49.5-26.7,47.6
						C890,823.1,864.4,841,854.3,819.3z"/>
					<path class="st46" d="M946.9,777c-0.7-1.5-1.4-2.9-2.2-4.3c4,11.7,6.7,30.1-6.2,40.1c-14.1,11-41.7-2.1-61.8,13.3
						c-2.1,1.6-3.8,2.9-5.4,4.1c12.6,0.3,29.8-6.5,48.9-5.5C955.4,826.5,957.1,798.9,946.9,777z"/>
					<path class="st46" d="M884.8,795.5c11.1-10.1,33.5-28,48.1-26.9c-6.2-7.2-18-12.4-33.5,3.8C884,788.4,884.8,795.5,884.8,795.5z
						"/>
					<path class="st46" d="M906.5,809.9c6.6-6.5,31.6-19.7,34.4-12.2C943.7,805.2,916.9,812.2,906.5,809.9z"/>
				</g>
			</g>
			<g>
				<g>
					<path class="st47" d="M876.1,814.5c-11.1,0-14.4-9.1-16.3-14.9c-1.9-5.9-3.9-13.2-13-31.4c-14.8-29.6,8.3-37.5,25-37.5
						c19,0,38.6,11,25.6,36.6C886.3,789.3,894.9,814.5,876.1,814.5z"/>
					<path class="st48" d="M843.1,816.1c-12,0-15.6-9.1-17.6-14.8c-2.1-5.9-4.2-13.1-14.1-31.4c-16-29.5,8.9-37.4,27-37.4
						c20.5,0,41.8,11,27.7,36.6C854.1,790.9,863.4,816.1,843.1,816.1z"/>
					<linearGradient id="SVGID_3_" gradientUnits="userSpaceOnUse" x1="794.9563" y1="791.4133" x2="873.5154" y2="791.4133">
						<stop  offset="0" style="stop-color:#5A7C00"/>
						<stop  offset="1" style="stop-color:#396000"/>
					</linearGradient>
					<path class="st49" d="M839.9,842.5c-14.7,0-19-11.1-21.5-18.1c-2.6-7.2-5.1-16-17.2-38.3c-19.5-36,10.9-45.7,33-45.7
						c25,0,51,13.4,33.8,44.7C853.3,811.7,864.7,842.5,839.9,842.5z"/>
					<path class="st50" d="M871,842.5c14.7,0,19-11.1,21.5-18.1c2.6-7.2,3.5-16,15.6-38.3c19.5-36-10.9-45.7-33-45.7
						c-25,0-51,13.4-33.8,44.7C855.9,811.7,846.2,842.5,871,842.5z"/>
				</g>
				<g>
					<polygon class="st43" points="834.4,748.1 836.2,740.6 839.8,736.2 846.2,737.7 850.3,734 860.6,737.2 864.1,735.1 866,737.7 
						870.1,738.7 874.9,746.6 					"/>
					<path class="st43" d="M850.3,737.3c1.5-7.5-1.4-14.6-7.6-17c-0.5-0.4-0.5-1.6,1.8-4.9c2.3-3.3,6.8-4,11.9-3.4
						c3,3.1,6.2,13,2.3,25.7C857.2,738.9,851.8,738.4,850.3,737.3z"/>
					<path class="st44" d="M844.4,715.6c-2.1,3.1-2.1,4.3-1.6,4.7c6.2,2.4,9.1,9.5,7.6,17c0.5,0.4,1.4,0.7,2.5,0.9
						C854.8,733.4,855.7,720,844.4,715.6z"/>
					<path class="st44" d="M848.8,739.2l0.3-1.1c0,0,6.1,3.4,10.7,0.1c0.7,0.5,0.5,1.2,0.5,1.2S854.9,743.3,848.8,739.2z"/>
				</g>
				<g>
					<linearGradient id="SVGID_4_" gradientUnits="userSpaceOnUse" x1="855.4628" y1="848.925" x2="855.4628" y2="742.364">
						<stop  offset="0" style="stop-color:#B5D401"/>
						<stop  offset="1" style="stop-color:#457000"/>
					</linearGradient>
					<path class="st51" d="M854.6,848.9c-13.7,0-19.7-10.6-20.9-23.8c-1.1-12.3-5.4-19.9-15.8-41.9s10.5-40.8,36.6-40.8
						c26.1,0,53.2,14,35.2,46.6C874.6,816.8,880.4,848.9,854.6,848.9z"/>
					<linearGradient id="SVGID_5_" gradientUnits="userSpaceOnUse" x1="836.3873" y1="832.0679" x2="836.3873" y2="753.033">
						<stop  offset="0" style="stop-color:#B1D103"/>
						<stop  offset="1" style="stop-color:#4E7501"/>
					</linearGradient>
					<path class="st52" d="M840.4,753c-32.4,14.3,3,55.9,3.6,79C853.1,817.6,826.8,763.6,840.4,753z"/>
					<linearGradient id="SVGID_6_" gradientUnits="userSpaceOnUse" x1="872.1055" y1="795.3769" x2="872.1055" y2="757.2789">
						<stop  offset="0" style="stop-color:#5FA200"/>
						<stop  offset="1" style="stop-color:#5BA105"/>
					</linearGradient>
					<path class="st53" d="M873.5,757.3c6.4,0.3,6.1,18.8-3.4,38.1C862.9,780.7,867.1,757,873.5,757.3z"/>
					<linearGradient id="SVGID_7_" gradientUnits="userSpaceOnUse" x1="876.756" y1="848.3829" x2="876.756" y2="742.439">
						<stop  offset="0" style="stop-color:#ACCD00"/>
						<stop  offset="1" style="stop-color:#487000"/>
					</linearGradient>
					<path class="st54" d="M857.9,742.4c21.4,7.9,41.1,20.9,17.9,63.1c-12.2,25.9-5.4,26.6-15.7,42.8c19.7-4.3,15.7-33.7,29.9-59.5
						C907.1,757.7,882.9,743.6,857.9,742.4z"/>
				</g>
			</g>
		</g>
		<path class="st55" d="M854.6,836.8c1.9-1.2,3.8-2,4.3-4.3c1.4-5.7-2-10.1-2.8-9.6c-7.2,3-19.8,0.4-23.8-2.1
			c-7.2-9.5-20.3-11.4-25.2-6.2c-19.2-2.6-37.5,9.3-59.2,10.4c-19.4,1.1-39.7-1.4-45.7-3.1c-46-12.9-109.3,56.5-19.3,91.5
			c14.7,4.8,23.8,4.9,40.3,1c16.4-3.9,77.9-25.3,95.8-45.6c0.8-0.9,1.5-1.8,2.2-2.8c11.4-3.7,15.9-16.5,15.9-20.9
			C839.2,844.6,852.7,838.1,854.6,836.8z"/>
		<g>
			<path class="st56" d="M702.3,822c-46-12.9-109.3,56.5-19.3,91.5c14.7,4.8,23.8,4.9,40.3,1c16.4-3.9,77.9-25.3,95.8-45.6
				c18-20.2,7.5-51.6-11.8-54.3c-19.3-2.7-37.6,9.2-59.3,10.4C728.5,826.1,708.3,823.6,702.3,822z"/>
			<path class="st57" d="M807.3,814.6c-0.8-0.1-1.7-0.2-2.5-0.3c-16,3.9-48.9,18.3-68.8,15.8c-21.4-2.8-47.5-10.4-75.4,11.4
				s-10.3,47.4,9.2,58c16.8,9,30.9,15.5,44.6,16.9c2.7-0.5,5.6-1.1,8.8-1.8c16.4-3.9,77.9-25.3,95.8-45.6
				C837.1,848.6,826.5,817.3,807.3,814.6z"/>
			<path class="st58" d="M715.5,831.3c-38.8-10.9-92.2,47.7-16.3,77.3c12.4,4.1,20.1,4.1,34,0.8c13.9-3.3,60.5-22.2,75.7-39.3
				s10.5-39.6-5.7-41.9s-30.8,4.6-49.1,5.6C737.6,834.8,720.6,832.7,715.5,831.3z"/>
			<path class="st33" d="M718.6,838.1c-34.3-9.6-81.5,42.1-14.4,68.3c11,3.6,17.8,3.6,30,0.7c12.2-2.9,53.5-19.6,66.9-34.7
				c13.4-15.1,9.3-34.9-5.1-37c-14.4-2-27.2,4.1-43.4,5C738.2,841.2,723.1,839.3,718.6,838.1z"/>
			<path class="st59" d="M736.6,860.8c21.1,2.6,27.3-3.6,41.4-8.2c14.1-4.6,27.6,5.4,12.4,19.8c-15.1,14.4-29.6,15.4-42.6,18.8
				s-33.6,10.1-47.9,1C685.5,883.1,681.7,854.1,736.6,860.8z"/>
			<path class="st60" d="M806.7,815c4.5-5.7,18.1-4,25.6,5.8c4.1,2.4,16.7,5.1,23.8,2.1c0.8-0.5,4.2,3.9,2.8,9.6
				c-0.5,2.3-2.4,3.1-4.3,4.3c-1.9,1.2-15.4,7.7-17.4,8.4c0,4.4-4.6,17.4-16.1,20.9c4.8-9.9,4.4-22.2-4.1-24.4
				C819.3,836,820,821.8,806.7,815z"/>
			<path class="st61" d="M854.6,836.8c1.9-1.2,3.8-2,4.3-4.3c0.9-3.7-0.2-6.9-1.4-8.5c-7.7,4.5-21.6,5.4-25.1,1.7
				c-7-8.7-12.8-8.5-18.4-4.6c5.4,7.1,4.6,16.3,2.8,20.7c8.5,2.2,8.9,14.5,4.1,24.4c11.5-3.6,16.1-16.6,16.1-20.9
				C839.2,844.6,852.7,838.1,854.6,836.8z"/>
			<path class="st62" d="M854.6,836.8c1.9-1.2,3.8-2,4.3-4.3c0.3-1.4,0.4-2.7,0.3-3.9c-4.9,6.5-13.1,8.1-15.9,8.7
				c-3.1,0.6-5.6,1.8-4.9,0.6s8.8-4.6,10.9-5.3c2.1-0.7,3.1-1,0.6-1.5c-2.5-0.4-9.6,2.2-12.1,2.7c-2.2,0.4-2.9,0-3.5-3
				c-0.3-1.5-0.7-2.1-0.5,0.2c0.7,7.6-2.5,16.8-9.9,20.6c0.4,4.5-0.7,9.8-3,14.5c11.5-3.6,16.1-16.6,16.1-20.9
				C839.2,844.6,852.7,838.1,854.6,836.8z"/>
		</g>
	</g>
	<g id="potatoes">
		<path class="st63" d="M927.5,852.7c-6.9-11-16.8-16.3-27.5-18.1l0,0c0,0,0,0,0,0c-5.7-1-11.6-1-17.4-0.3c0,0,0,0,0,0
			c-2.4,0.3-4.8,0.6-7.1,1.1c0,0-0.1,0-0.1,0c-0.4,0.1-0.8,0.2-1.3,0.3c0,0-0.1,0-0.1,0c-0.4,0.1-0.9,0.2-1.3,0.3c0,0-0.1,0-0.1,0
			c-1.4,0.3-2.7,0.7-4,1c-0.1,0-0.1,0-0.2,0.1c-0.4,0.1-0.7,0.2-1.1,0.3c-0.1,0-0.2,0.1-0.3,0.1c-0.3,0.1-0.6,0.2-1,0.3
			c-0.1,0-0.2,0.1-0.3,0.1c-0.3,0.1-0.7,0.2-1,0.3c-0.1,0-0.2,0.1-0.3,0.1c-0.8,0.3-1.6,0.5-2.4,0.8c-0.1,0-0.2,0.1-0.2,0.1
			c-0.3,0.1-0.6,0.2-0.9,0.3c-0.1,0-0.2,0.1-0.4,0.1c-0.3,0.1-0.5,0.2-0.8,0.3c-0.1,0.1-0.3,0.1-0.4,0.2c-0.2,0.1-0.5,0.2-0.7,0.3
			c-0.1,0.1-0.3,0.1-0.4,0.2c-0.2,0.1-0.5,0.2-0.7,0.3c-0.1,0-0.2,0.1-0.3,0.1c-0.3,0.1-0.7,0.3-1,0.4c0,0,0,0,0,0
			c-0.6,0.2-1.2,0.5-1.7,0.7c-0.2,0.1-0.4,0.2-0.6,0.2c-0.4,0.2-0.8,0.4-1.2,0.5c-0.2,0.1-0.4,0.2-0.6,0.3c-0.4,0.2-0.8,0.4-1.1,0.5
			c-0.2,0.1-0.4,0.2-0.6,0.3c-0.5,0.2-0.9,0.5-1.4,0.7c-0.2,0.1-0.4,0.2-0.6,0.3c-0.4,0.2-0.9,0.4-1.3,0.7c-0.2,0.1-0.5,0.3-0.7,0.4
			c-0.3,0.2-0.6,0.3-0.9,0.5c-0.3,0.1-0.5,0.3-0.8,0.4c-0.3,0.1-0.5,0.3-0.8,0.5c-0.3,0.2-0.6,0.3-0.8,0.5c-0.2,0.1-0.5,0.3-0.7,0.4
			c-0.6,0.3-1.1,0.7-1.7,1c-0.2,0.1-0.4,0.2-0.5,0.3c-0.3,0.2-0.6,0.4-1,0.6c-0.2,0.1-0.4,0.2-0.5,0.3c-0.3,0.2-0.7,0.4-1,0.6
			c-0.1,0.1-0.3,0.2-0.4,0.3c-0.4,0.2-0.7,0.5-1,0.7c0,0,0,0-0.1,0.1c-1.2,0.9-2.4,1.8-3.6,2.7c-0.1,0.1-0.1,0.1-0.2,0.2
			c-0.4,0.3-0.7,0.6-1.1,0.9c0,0-0.1,0.1-0.1,0.1c-1.5,1.3-3,2.6-4.3,4c0,0,0,0,0,0c-6.1,6.4-9.9,13.9-9.5,22.5
			c1.6,39.9,33.7,30.9,65.8,28.6c32.2-2.3,35.7-7.9,40.3-13.5C927.7,892.2,936.6,868.5,927.5,852.7z"/>
		<path class="st64" d="M872.9,876.4c-5.3-10.5-22.8-21.9-54.4-8.9C787.7,880,782,896,782.1,916.4c0,0,0,0.1,0,0.1
			c0,0.9,0,1.9,0,2.8c0.9,11.3,7.9,18.8,19.8,23.8c4.8,2,15,3.6,26.6,3.5c16.6,0.1,36.3-3.1,47.4-12.9
			C894.5,917.2,878.2,886.9,872.9,876.4z"/>
		<g>
			<path class="st65" d="M817,882.6c-0.8-19.1,18.8-32.8,39.1-41.3s54.8-15.2,71.4,11.4c9.1,15.8,0.2,39.4-4.4,45
				c-4.6,5.6-8.1,11.2-40.3,13.5C850.7,913.6,818.7,922.5,817,882.6z"/>
			<path class="st66" d="M916.6,848.5c-4.4-7-10.2-11.4-16.6-13.9c-15.2-2.6-32,1.7-43.9,6.7c-16.2,6.8-32,17-37.3,30.5
				c-0.1,1-0.1,2.1-0.1,3.2c1.4,35.3,29.8,27.4,58.3,25.4s31.6-7,35.7-11.9C916.8,883.5,924.7,862.5,916.6,848.5z"/>
			<path class="st67" d="M825.8,874.4c-1.3-11.9,12.9-21.3,27.8-27.6c14.9-6.2,40.5-11.9,53.9,4c7.4,9.5,1.6,24.7-1.6,28.4
				c-3.2,3.7-5.7,7.4-29.7,10.2C852.2,892.3,828.5,899.3,825.8,874.4z"/>
			<path class="st68" d="M879.6,843.2c17.5-1.7,37.3,20.1,5.1,22.3C855.2,866.2,857.7,845.4,879.6,843.2z"/>
			<g>
				<path class="st69" d="M877.9,852.5c-0.5-3,2.2-6.6,2.9-1.1C881.4,856.4,878.5,856.2,877.9,852.5z"/>
				<path class="st69" d="M879.4,879.5c-0.5-3,2.2-6.6,2.9-1.1C882.9,883.4,880.1,883.2,879.4,879.5z"/>
				<path class="st69" d="M854.6,865.8c0.1-3,3.6-6,3.3-0.5C857.5,870.3,854.5,869.6,854.6,865.8z"/>
				<path class="st69" d="M899.6,867.5c0.1-3.7,5.5-7.4,4.4-0.6C902.5,873,899.4,872.2,899.6,867.5z"/>
				<path class="st70" d="M903.9,888.3c0.8-2.9,6.2-4.4,3.7,0.7C905.1,894.2,902.9,891.9,903.9,888.3z"/>
				<path class="st69" d="M830.3,868.2c-0.6-2.9,2.3-6.6,3.1-1.2C834,872,831,871.9,830.3,868.2z"/>
			</g>
		</g>
		<g>
			<path class="st71" d="M782.2,918.2c-0.5-21.2,4.7-37.8,36.3-50.8c31.6-13,49.1-1.6,54.4,8.9s21.7,40.9,3.1,57.4
				c-18.6,16.5-61.7,14.3-73.4,9.2C790.3,937.8,783.1,929.9,782.2,918.2z"/>
			<path class="st65" d="M782.2,919.3c-0.5-20.4,4.5-36.3,35.2-48.7s47.6-1.6,52.8,8.6c5.1,10.1,21,39.2,3,55.1
				c-18.1,15.9-59.8,13.7-71.1,8.9C790,938.2,783,930.6,782.2,919.3z"/>
			<path class="st66" d="M872.4,921c6.2-5.4,7.9-12.1,7.3-18.7c-2.5-9.6-7.2-18.4-9.6-23.1c-5.1-10.1-22.1-21-52.8-8.6
				s-35.6,28.3-35.2,48.7c0,0.4,0.1,0.8,0.1,1.2c3.3,6,9.8,10.2,19,12.8C813,936.9,855.1,936.1,872.4,921z"/>
			<path class="st67" d="M796.2,904.4c-0.3-13.3,3.2-23.7,25.2-31.9c22-8.2,34.2-1,37.9,5.6c3.7,6.6,14.4,23.5,1.5,33.9
				s-38.6,13.2-50.4,8C801.8,916.8,796.8,911.8,796.2,904.4z"/>
			<path class="st68" d="M825.4,875.1c13.7-4.9,31.3-1.6,30.7,6.8s-9.5,5-24.6,9.7C816.4,896.3,796.5,885.6,825.4,875.1z"/>
			<g>
				<path class="st72" d="M840,881.2c-1.4-1.7-0.9-5.1,1.6-1.8C843.7,882.5,841.7,883.4,840,881.2z"/>
				<path class="st72" d="M860.4,892.6c-1.3-2.7,0.6-7,2.8-1.9C865,895.4,862,896,860.4,892.6z"/>
				<path class="st72" d="M854.5,907.1c-0.6-2.9,2.1-6.7,3.1-1.3C858.4,910.8,855.3,910.7,854.5,907.1z"/>
				<path class="st73" d="M870.2,909.7c-0.5-2.3,1.9-5.3,2.7-1C873.5,912.6,870.8,912.6,870.2,909.7z"/>
				<path class="st73" d="M855.7,922.7c0.3-3,4.1-5.6,3.4-0.2C858.2,927.4,855.3,926.4,855.7,922.7z"/>
			</g>
			<path class="st74" d="M793.4,887.6c9.4-10.5,35-16.3,46.9,11.6s3.3,40.3-10.8,43.6c-14.1,3.3-34.4-0.4-41.7-10.7
				C780.4,921.8,781.1,900.7,793.4,887.6z"/>
			<path class="st75" d="M794.9,889.3c8.8-9.9,32.3-14,43.7,10.9c11.8,26,3.4,38.2-10.7,40.6c-13.3,2.3-29.8-1.7-37.8-10.2
				C781.9,922,783.5,901.6,794.9,889.3z"/>
		</g>
	</g>
	<g id="tomates">
		<path class="st76" d="M744.7,899.5c8.4-0.2,12.2-15.9,35.3-4.9c21.1,9.7,32.8,48.4,10.3,76.6c-16.2,20.3-52.1,30.7-83.5,9
			c-32.3-22.3-24.6-72.2-1.6-85C732,882.4,735.7,899.8,744.7,899.5z"/>
		<g>
			<radialGradient id="SVGID_8_" cx="661.5828" cy="892.8558" r="67.4854" gradientUnits="userSpaceOnUse">
				<stop  offset="0" style="stop-color:#EB0010"/>
				<stop  offset="1" style="stop-color:#9B0005"/>
			</radialGradient>
			<path class="st77" d="M688.4,872.6c7.1-2.8,33-14.5,48.5,2.7c15.5,17.2,30.5,76.9-12.5,90.9c-43,14-88.9-5.5-85.8-53
				C645,866.1,674.2,870.9,688.4,872.6z"/>
			<path class="st78" d="M736.9,875.3c-15.5-17.2-41.4-5.4-48.5-2.7c1.9-0.8,22.4-2.2,30.5,8.5c-32.4-0.3-56.6,48.6-35.3,88.2
				c12.7,2.3,26.9,1.3,40.8-3.3C767.4,952.1,752.3,892.4,736.9,875.3z"/>
			<linearGradient id="SVGID_9_" gradientUnits="userSpaceOnUse" x1="650.7281" y1="896.1801" x2="670.0234" y2="901.5869">
				<stop  offset="0" style="stop-color:#FEC0C3"/>
				<stop  offset="1" style="stop-color:#FEC0C3;stop-opacity:0"/>
			</linearGradient>
			<path class="st79" d="M667.3,879.6c-13.8,0-29.2,36.1-14.3,38.7C667.8,921,682.2,879.1,667.3,879.6z"/>
		</g>
		<path class="st80" d="M688.4,872.6c7.1-2.8,33-14.5,48.5,2.7c15.5,17.2,30.5,76.9-12.5,90.9c-43,14-88.9-5.5-85.8-53
			C645,866.1,674.2,870.9,688.4,872.6z"/>
		<g>
			<path class="st81" d="M744.7,899.5c8.4-0.2,12.2-15.9,35.3-4.9c21.1,9.7,32.8,48.4,10.3,76.6c-16.2,20.3-52.1,30.7-83.5,9
				c-32.3-22.3-24.6-72.2-1.6-85C732,882.4,735.7,899.8,744.7,899.5z"/>
			<path class="st82" d="M744.9,905.3c2.7-0.1,5-4.6,7.2-6.9c4.6-5,13-9.6,27.7-2.5c20.2,9.3,31,47.9,9.5,74.8
				c-15.5,19.4-50.9,28.6-81,7.9c-30.9-21.4-23.5-69.1-1.5-81.3c17.4-9.8,26.7-3.2,31.8,2C740.3,901.1,742.7,905.3,744.9,905.3z"/>
			<path class="st83" d="M745.3,906.7c2.5-0.1,4.1-2.5,6.2-4.5c4.3-4.6,12.4-8.7,26-2.3c18.6,8.5,28.5,43.7,8.8,68.3
				c-14.2,17.7-46.9,26.1-74.6,7.2c-28.5-19.5-21.7-63.1-1.4-74.2c17.5-8.3,24.6-3,29.2,1.9C741.1,904.6,743.3,906.7,745.3,906.7z"
				/>
			<g>
				<path class="st26" d="M730.6,930.2c7.3,2.3,8.8-3.1,5.9-11.3c-2.9-8.2-20.2-15.1-31.1-1.4c-10.9,13.7-4,41.8,12.7,51.2
					s16,7.5,19.8,4.5c-0.8-2.6-2.3-11.4-2.3-11.4c-6.9-3.4-19.6-12.4-19.2-24.1C716.8,925.9,725.2,928.5,730.6,930.2z"/>
				<path class="st84" d="M730.6,930.2c7.3,2.3,8.8-3.1,5.9-11.3c-2.9-8.2-20.2-15.1-31.1-1.4c-10.9,13.7-4,41.8,12.7,51.2
					s16,7.5,19.8,4.5c-0.8-2.6-2.3-11.4-2.3-11.4c-6.9-3.4-19.6-12.4-19.2-24.1C716.8,925.9,725.2,928.5,730.6,930.2z"/>
				<path class="st85" d="M727.3,925.9c6,2.1,8.5,2.5,6.2-4.9c-2.3-7.5-16.6-13.8-25.5-1.3c-9,12.5-3,38.3,11.1,46.3
					c11.3,6.4,12.5,7.3,15.6,4.6c-0.7-2.4-2.4-8.8-2.4-8.8c-5.6-3.1-18.5-9.8-18.5-23.6C713.8,927.4,718.5,922.8,727.3,925.9z"/>
				<g>
					<path class="st86" d="M727.6,924.1c0.2,5.3-0.3,6.7-0.3,6.7l2.1,0.5l-0.2-7.2H727.6z"/>
					<path class="st86" d="M725.2,929.3c-3.4-2-4.2-3.7-4.8-5.5c-0.5-1.7-1.8,0.2-1.8,0.2s2.7,4.3,2.4,6.1S725.2,929.3,725.2,929.3z
						"/>
					<path class="st86" d="M719,932.4c-1.3-0.6-5-2-5-2l-0.3,1.4l4.3,2.3L719,932.4z"/>
					<path class="st86" d="M718,940.2c-2.3,0.2-4.8,0-4.8,0l0.6,1.8l4.9-0.4L718,940.2z"/>
					<path class="st86" d="M720.5,947.3c-1.1,1.7-1.8,2.7-3.4,3.4c-1.6,0.7,0.4,1.2,0.4,1.2l5-2.3L720.5,947.3z"/>
					<path class="st86" d="M726,952.2c-0.5,3.3,0.7,3.3-2.6,6.2c-3.3,2.9,0.5,1.3,0.5,1.3s4.3-4.2,5.5-3.7
						C730.6,956.5,726,952.2,726,952.2z"/>
					<path class="st86" d="M734.4,959.4c-0.8,1.6-1.3,3.6-2.6,3.7c-1.2,0.1,0.8,0.8,0.8,0.8s0.2,0.5,1.2-0.7c1-1.2,1.8-3.1,1.8-3.1
						L734.4,959.4z"/>
				</g>
				<g>
					<path class="st87" d="M729.3,925.6c1.1-0.8,5.9-7.9,0.3-8.8c-5.7-0.9-4.2,6.3-2.1,8.5C728.3,926.1,728.8,926,729.3,925.6z"/>
					<path class="st0" d="M728,921.9c0.3-0.2,1.6-2.4,0.1-2.6c-1.5-0.3-1.1,1.9-0.5,2.6C727.7,922.1,727.8,922.1,728,921.9z"/>
				</g>
				<g>
					<path class="st87" d="M720.9,924.3c0.5-1.3,0.8-10-4.4-7.9c-5.4,2.2-0.2,7.8,2.8,8.6C720.3,925.3,720.7,924.9,720.9,924.3z"/>
					<path class="st0" d="M717.8,921.8c0.1-0.4,0.1-2.9-1.3-2.4c-1.4,0.5,0.1,2.3,0.9,2.6C717.6,922.1,717.7,922,717.8,921.8z"/>
				</g>
				<g>
					<path class="st87" d="M715,930.4c-0.4-1.4-5.7-9.1-8.8-3.8c-3.1,5.4,4.8,6.7,7.9,5.4C715.1,931.6,715.2,931,715,930.4z"/>
					<path class="st0" d="M710.8,930.3c-0.1-0.4-1.8-2.5-2.7-1.1c-0.9,1.4,1.5,1.9,2.4,1.6C710.8,930.7,710.9,930.5,710.8,930.3z"/>
				</g>
				<g>
					<path class="st87" d="M714.6,940.4c-1-1-9.5-5-9.5,1.1c0,6.3,7.5,3.4,9.5,0.8C715.3,941.4,715.1,940.9,714.6,940.4z"/>
					<path class="st0" d="M710.9,942.5c-0.3-0.3-2.8-1.3-2.9,0.4c0,1.7,2.2,0.9,2.9,0.1C711.1,942.7,711.1,942.6,710.9,942.5z"/>
				</g>
				<g>
					<path class="st87" d="M717.4,950.7c-1.2-0.4-9.9-0.6-7.9,4.4c2,5.2,7.7,0,8.6-2.9C718.4,951.3,718,950.9,717.4,950.7z"/>
					<path class="st0" d="M714.9,953.8c-0.4-0.1-2.9,0-2.4,1.4c0.5,1.4,2.2-0.1,2.6-0.9C715.2,953.9,715.1,953.8,714.9,953.8z"/>
				</g>
				<g>
					<path class="st87" d="M723.7,957.9c-1.3-0.1-9.5,2.3-6,6.5c3.6,4.3,7.2-2.2,7.1-5.2C724.8,958.2,724.3,958,723.7,957.9z"/>
					<path class="st0" d="M722.3,961.6c-0.4,0-2.7,0.8-1.8,2c0.9,1.1,2.1-0.8,2.1-1.6C722.6,961.6,722.5,961.6,722.3,961.6z"/>
				</g>
				<g>
					<path class="st87" d="M733,962.2c-1.3,0.1-9.1,3.6-5.1,7.2c4.1,3.7,6.8-3.2,6.4-6.2C734.1,962.3,733.6,962.2,733,962.2z"/>
					<path class="st0" d="M732.1,966c-0.4,0.1-2.6,1.2-1.5,2.2c1.1,1,1.9-1,1.9-1.9C732.4,966,732.3,966,732.1,966z"/>
				</g>
				<path class="st88" d="M737.4,936c-12.1-8.3-23.2-4.1-13,10.7c7.9,10.7,11.2,11.3,11.2,11.3S735.3,941.2,737.4,936z"/>
			</g>
			<g>
				<path class="st89" d="M758.1,930.2c-7.3,2.3-8.8-3.1-5.9-11.3c2.9-8.2,20.2-15.1,31.1-1.4c10.9,13.7,4,41.8-12.7,51.2
					s-16,7.5-19.8,4.5c0.8-2.6,2.3-11.4,2.3-11.4c6.9-3.4,19.6-12.4,19.2-24.1C771.9,925.9,763.5,928.5,758.1,930.2z"/>
				<path class="st90" d="M761.5,925.9c-6,2.1-8.5,2.5-6.2-4.9s16.6-13.8,25.5-1.3c9,12.5,3,38.3-11.1,46.3
					c-11.3,6.4-12.5,7.3-15.6,4.6c0.7-2.4,2.4-8.8,2.4-8.8c5.6-3.1,18.5-9.8,18.5-23.6C775,927.4,770.3,922.8,761.5,925.9z"/>
				<path class="st86" d="M761.2,924.1c-0.2,5.3,0.3,6.7,0.3,6.7l-2.1,0.5l0.2-7.2H761.2z"/>
				<path class="st86" d="M764.4,929.7c3.3-2.3,3.9-4.1,4.2-5.9c0.4-1.8,1.9,0.1,1.9,0.1s-2.3,4.5-1.9,6.3S764.4,929.7,764.4,929.7z
					"/>
				<path class="st86" d="M770.6,933.4c1.2-0.7,4.8-2.3,4.8-2.3l0.4,1.4l-4.2,2.6L770.6,933.4z"/>
				<path class="st86" d="M771,941.3c2.3,0.2,4.8,0,4.8,0l-0.6,1.8l-4.9-0.4L771,941.3z"/>
				<path class="st86" d="M767.7,948c1.2,1.6,2,2.6,3.7,3.1c1.6,0.5-0.3,1.3-0.3,1.3l-5.2-2L767.7,948z"/>
				<path class="st86" d="M762.7,952.2c0.5,3.3-0.7,3.3,2.6,6.2s-0.5,1.3-0.5,1.3s-4.3-4.2-5.5-3.7
					C758.1,956.5,762.7,952.2,762.7,952.2z"/>
				<path class="st86" d="M753.6,960c1,1.5,1.6,3.5,2.8,3.5c-0.6,0.8-0.7,0.8-0.7,0.8s-0.2,0.6-1.2-0.6c-1-1.1-2-2.9-2-2.9
					L753.6,960z"/>
				<g>
					<g>
						<path class="st87" d="M759.8,925.6c-1.1-0.8-5.9-7.9-0.3-8.8c5.7-0.9,4.2,6.3,2.1,8.5C760.9,926.1,760.4,926,759.8,925.6z"/>
						<path class="st0" d="M759.2,922.1c-0.3-0.2-1.6-2.4-0.1-2.6c1.5-0.3,1.1,1.9,0.5,2.6C759.5,922.2,759.4,922.2,759.2,922.1z"/>
					</g>
					<g>
						<path class="st87" d="M768.4,924.6c-0.5-1.3-0.8-10,4.4-7.9c5.4,2.2,0.2,7.8-2.8,8.6C769,925.6,768.6,925.2,768.4,924.6z"/>
						<path class="st0" d="M769.7,921.3c-0.1-0.4-0.1-2.9,1.3-2.4c1.4,0.5-0.1,2.3-0.9,2.6C769.8,921.5,769.7,921.4,769.7,921.3z"/>
					</g>
					<g>
						<path class="st87" d="M774.4,930.7c0.4-1.4,5.7-9.1,8.8-3.8c3.1,5.4-4.8,6.7-7.9,5.4C774.3,932,774.2,931.4,774.4,930.7z"/>
						<path class="st0" d="M777.4,928.5c0.1-0.4,1.8-2.5,2.7-1.1c0.9,1.4-1.5,1.9-2.4,1.6C777.4,928.8,777.4,928.7,777.4,928.5z"/>
					</g>
					<g>
						<path class="st87" d="M775.1,940.9c1.1-1,9.6-5.1,9.6,1.1c0,6.4-7.6,3.5-9.7,0.8C774.4,941.9,774.6,941.4,775.1,940.9z"/>
						<path class="st0" d="M779.3,940.7c0.3-0.3,2.9-1.3,2.9,0.4c0,1.7-2.3,0.9-2.9,0.2C779,941,779.1,940.9,779.3,940.7z"/>
					</g>
					<g>
						<path class="st87" d="M771.4,951c1.3-0.5,10.4-0.7,8.3,4.6c-2.2,5.5-8.1,0.1-9-3C770.4,951.6,770.8,951.2,771.4,951z"/>
						<path class="st0" d="M775.2,952.5c0.4-0.1,3,0,2.5,1.4c-0.5,1.5-2.4-0.1-2.7-1C774.9,952.6,775,952.5,775.2,952.5z"/>
					</g>
					<g>
						<path class="st87" d="M765.1,957.6c1.3-0.1,9.8,1.7,6.3,6.2c-3.6,4.6-7.4-1.8-7.4-4.9C764,958,764.4,957.7,765.1,957.6z"/>
						<path class="st0" d="M768,959.4c0.4,0,2.8,0.7,1.9,1.9c-0.9,1.2-2.1-0.7-2.2-1.5C767.7,959.5,767.8,959.4,768,959.4z"/>
					</g>
					<g>
						<path class="st87" d="M756,963.3c1.3,0.1,9.1,3.6,5.1,7.2c-4.1,3.7-6.8-3.2-6.4-6.2C754.9,963.4,755.4,963.2,756,963.3z"/>
						<path class="st0" d="M758.4,965.9c0.4,0.1,2.6,1.2,1.5,2.2c-1.1,1-1.9-1-1.9-1.9C758,965.9,758.2,965.8,758.4,965.9z"/>
					</g>
				</g>
				<path class="st88" d="M751.4,936c12.1-8.3,23.2-4.1,13,10.7c-7.9,10.7-11.2,11.3-11.2,11.3S753.4,941.2,751.4,936z"/>
			</g>
			<path class="st88" d="M775.6,902.4c-10.6-5.1-23.8,2.4-27.8,6.7c-0.1,0.1-0.2,0.2-0.3,0.3c0-2.3,0-4.2,0.1-5.5
				c-0.8,0.8-1.7,1.3-2.6,1.4c-1.1,0-2.2-1-3.3-2.3c0.1,1.8,0.2,3.9,0.3,6.3c-0.1-0.1-0.2-0.2-0.3-0.3c-4.4-4.5-14-13.2-29.4-5.6
				c-8.1,4.2-13.7,15.3-15.6,27.7c2.8-13.9,18.5-42.4,45.4-18.2c0.2,6.1,0.2,12.3-0.5,14.3c2.5-2.1,5.7-0.7,6.5,1.1
				c-0.3-2.9-0.5-10-0.6-15.9c0.1-0.1,0.3-0.2,0.4-0.3c20.7-16.1,37.4-6.6,45.2,16.6C791,916.6,784,906.5,775.6,902.4z"/>
		</g>
	</g>
	<g id="champs">
		<path class="st91" d="M923,915.8c-0.4-3.7-1.2-7.4-2.6-10.8c-3.9-9.6-11.8-16.3-22.3-16.9c-1.7-0.1-3.4,0.1-5,0.5
			c-3.4,0.8-6.5,2.3-9.3,4.3c-2.1,1.6-4.1,3.4-6.2,4.9c-0.3,0.2-0.7,0.5-1.1,0.5c-0.4,0.1-0.9-0.1-1.3-0.3c-1.9-0.9-3.9-1.7-6-1.6
			c-1.9,0.2-3.7,1.2-5.1,2.5c-5.9,5-7.9,14-4.8,21.1c0.3,0.7,0.7,1.4,0.7,2.2c0.1,0.9-0.2,1.7-0.5,2.6c-1.9,6.1-1.4,12.8,1.1,18.6
			c2.5,5.8,7,10.7,12.6,13.8c4.7,2.7,10.3,4.1,15.7,3.6c5.6-0.5,10.9-2.9,15.5-6.2c7.7-5.4,13.7-13.2,16.6-22.1
			C922.9,927.1,923.6,921.4,923,915.8z"/>
		<path class="st92" d="M875.7,971.8c2.5-2.8,4.4-6.1,5.6-9.7c3.9-11.6,1.7-23.6-6.1-33c-6.6-7.9-16.7-13.8-27.2-13.5
			c-7.2,0.2-14.5,3.5-18.6,9.4c-2.7,3.8-4,8.5-4,13.1c0,4.6,1.3,9.2,3.5,13.3c0.2,0.3,0.4,0.7,0.3,1.1c-0.1,0.5-0.5,0.8-0.9,1.1
			c-3.9,3.2-4.8,9.6-2,13.9c3,4.6,9.9,6,14.5,3c0.3-0.2,0.7-0.5,1.1-0.5c0.4,0,0.8,0.3,1.1,0.5c7.7,6.1,17.7,10.9,27.2,5.6
			C872.3,975,874.1,973.5,875.7,971.8z"/>
		<path class="st93" d="M835.4,962.9c0.1-0.1,0.2-0.2,0.2-0.3c0-0.1,0.1-0.1,0.1-0.2c0.1-0.1,0.1-0.2,0.2-0.3c0-0.1,0.1-0.1,0.1-0.2
			c0.1-0.1,0.1-0.2,0.2-0.3c0-0.1,0.1-0.1,0.1-0.2c0.1-0.1,0.1-0.2,0.2-0.3c0-0.1,0.1-0.1,0.1-0.2c0.1-0.2,0.1-0.3,0.2-0.5
			c0,0,0,0,0,0c0.1-0.2,0.1-0.4,0.2-0.6c0-0.1,0-0.1,0.1-0.2c0-0.1,0.1-0.3,0.1-0.4c0-0.1,0-0.1,0.1-0.2c0-0.1,0.1-0.2,0.1-0.4
			c0-0.1,0-0.1,0-0.2c0-0.1,0-0.3,0.1-0.4c0-0.1,0-0.1,0-0.2c0-0.1,0-0.3,0.1-0.4c0-0.1,0-0.1,0-0.2c0-0.2,0-0.4,0.1-0.6
			c0,0,0,0,0,0c0-0.2,0-0.4,0-0.6c0,0,0-0.1,0-0.1c0-0.2,0-0.3,0-0.5c0-0.1,0-0.1,0-0.2c0-0.2,0-0.3,0-0.5c0-0.1,0-0.1,0-0.2
			c0-0.2,0-0.3,0-0.5c0-0.1,0-0.1,0-0.2c0-0.2,0-0.4-0.1-0.5c0,0,0-0.1,0-0.1c-0.1-0.7-0.2-1.3-0.4-2c0,0,0-0.1,0-0.1
			c0-0.2-0.1-0.4-0.1-0.6c0,0,0-0.1,0-0.1c-0.1-0.2-0.1-0.4-0.2-0.6c0,0,0-0.1,0-0.1c-0.1-0.2-0.1-0.4-0.2-0.6c0,0,0,0,0,0
			c-0.2-0.7-0.5-1.3-0.8-2c0,0,0,0,0,0c-0.1-0.2-0.2-0.4-0.3-0.6c0,0,0,0,0-0.1c-0.1-0.2-0.2-0.4-0.3-0.6c0,0,0,0,0-0.1
			c-0.1-0.2-0.2-0.4-0.3-0.6c0,0,0,0,0,0c-0.4-0.6-0.7-1.2-1.1-1.8c0,0,0,0,0,0c0,0,0,0,0,0c-3.1-4.5-7.8-7.5-13-6.5
			c-11,2.2-11.2,8.7-7.9,15.2c-0.4,0.4-0.8,0.8-1.3,1.1l0,0c-1.2,0.7-2.9,1.1-5.5,1.1c-6.6-0.1-6.3,3-5.9,7.3
			c0.3,2.7,3.9,5.3,9.4,4.7c0,0,0.1,0,0.1,0c0.2,0,0.4,0,0.5-0.1c0,0,0.1,0,0.1,0c0.4-0.1,0.7-0.1,1.1-0.2c0,0,0.1,0,0.1,0
			c0.2,0,0.3-0.1,0.5-0.1c0.1,0,0.2-0.1,0.3-0.1c0.2,0,0.3-0.1,0.5-0.1c0.1,0,0.2-0.1,0.4-0.1c0.1,0,0.3-0.1,0.4-0.1
			c0.2-0.1,0.5-0.2,0.8-0.3c0.1,0,0.2-0.1,0.4-0.2c0.2-0.1,0.3-0.1,0.5-0.2c0.1-0.1,0.2-0.1,0.4-0.2c0.2-0.1,0.4-0.2,0.6-0.3
			c0.1-0.1,0.2-0.1,0.3-0.2c0.3-0.2,0.6-0.3,0.9-0.5c0.1,0,0.1-0.1,0.2-0.1c0.2-0.1,0.5-0.3,0.7-0.4c0.1-0.1,0.2-0.1,0.3-0.2
			c0.2-0.1,0.4-0.3,0.7-0.4c0.1-0.1,0.2-0.1,0.3-0.2c5.3,6.6,9.2,8.4,15.5,1.5c0.1-0.1,0.3-0.3,0.4-0.4
			C835.3,963,835.3,963,835.4,962.9z"/>
		<g>
			<radialGradient id="SVGID_10_" cx="892.1535" cy="925.6381" r="35.0378" gradientUnits="userSpaceOnUse">
				<stop  offset="0" style="stop-color:#F9EFE6"/>
				<stop  offset="1" style="stop-color:#F2DCC6"/>
			</radialGradient>
			<path class="st94" d="M868.7,906.8c7.6-9.2,17.3-15.7,23.1-18.4c2.8-0.7,9.8,0.1,11.6,0.4c1.9,0.2,13.8,3.6,18.4,20.5
				c4.6,16.9-2.1,37.5-22.7,48.6s-48.4-9.9-38.7-36.2C863.5,916,868.7,906.8,868.7,906.8z"/>
			<path class="st95" d="M921.8,909.3c-4.5-16.7-16.3-20.2-18.4-20.5c7.6,20.9,12.4,29.9-5.8,48.3c-17.5,17.8-21.1,16.5-36.3,7.7
				c6.8,13.4,23.8,20.5,37.7,13C919.8,946.7,926.4,926.2,921.8,909.3z"/>
			<path class="st96" d="M884,899.3c-5.1,4.9-24.9,27.7-17.2,35.4s11.4,1.6,11.7,1.6c7.3-6.3,8.9-10.5,12.7-24.4
				S892.7,891,884,899.3z"/>
			<path class="st97" d="M891.2,911.9c0.4-1.6,0.8-3.1,1.1-4.5c0.8-10.1-1.6-13.8-7.6-6.6c-4.2,5-19.1,28-12.8,35.9
				c0.6,0.8,1.2,1.4,1.7,1.9c3.2,0.2,4.8-2.3,4.9-2.3C885.8,930,887.3,925.8,891.2,911.9z"/>
			<linearGradient id="SVGID_11_" gradientUnits="userSpaceOnUse" x1="857.7053" y1="914.8572" x2="892.0737" y2="914.8572">
				<stop  offset="0" style="stop-color:#F2DCC6"/>
				<stop  offset="1" style="stop-color:#F9EFE6"/>
			</linearGradient>
			<path class="st98" d="M881.9,901.4c-5.6-3.4-11.6-6.1-14.6-4.7c-7.2,3.5-13.8,15.3-6.4,26c1.1,1.4,2.7,2.7,4.6,4
				c5.2,3.3,12.4,5.8,16.1,6.7c4.7-5,6.4-9.8,9.6-21.4c0.3-1.2,0.6-2.4,0.9-3.5C889.9,906.7,886,903.9,881.9,901.4z"/>
			<path class="st99" d="M881.6,933.4c4.7-5,6.4-9.8,9.6-21.4c0.3-1.2,0.6-2.4,0.9-3.5c-0.2-0.1-0.3-0.3-0.5-0.4
				c-0.7,2.8-2.1,4.3-4.9,9c-3.7,6.1-10.9,9.6-19.4,10.7C872.2,930.5,878.3,932.6,881.6,933.4z"/>
			<path class="st100" d="M869.3,896.4c-0.7,0-1.4,0.1-2,0.4c-4.4,2.1-8.5,7.4-9.4,13.5c0.9,10,5,15.7,12,12.9
				c8.3-3.3,15.3-20.1,5-25.4C872.8,896.9,870.9,896.4,869.3,896.4C869.3,896.4,869.3,896.4,869.3,896.4z"/>
			<linearGradient id="SVGID_12_" gradientUnits="userSpaceOnUse" x1="858.4369" y1="909.844" x2="876.312" y2="909.844">
				<stop  offset="0" style="stop-color:#F9EFE6"/>
				<stop  offset="1" style="stop-color:#F2DCC6"/>
			</linearGradient>
			<path class="st101" d="M858.4,912.2c-0.1,3.8,3,13.5,8.8,8.4c5.8-5,11.3-12.8,8.2-18c-3.1-5.2-4.8-6.1-9-3.6
				C862.3,901.6,858.6,907.1,858.4,912.2z"/>
			<g>
				<polygon class="st95" points="897.9,908.5 898.8,908.5 898.8,910.6 				"/>
				<polygon class="st95" points="898.4,918.3 899.4,919 898.9,920.4 				"/>
				<polygon class="st95" points="899.2,926.8 901.2,928.1 899.4,928.5 				"/>
				<polygon class="st95" points="893.9,935.8 895.1,934.6 894.7,937.2 				"/>
				<polygon class="st95" points="879.8,943.2 880.6,943.7 880.2,945.5 				"/>
			</g>
		</g>
		<g>
			<path class="st102" d="M836.4,963.4c1.7-2.6,2.6-5.7,2.3-8.9c-0.6-8.3-8.2-21-18.1-19.1c-11.5,2.3-11.9,10.5-9.2,16.3
				c-0.4,0.4-0.9,0.7-1.9,0.7c0,0-1.8,0.3-4.5,0.2c-6.9-0.2-6.3,4.5-5.9,8.9c0.3,3.3,4,5.1,6.9,5.5c4.5,0.6,9.4-1.2,13.2-3.6
				c1.4,2.1,3.4,3.9,5.8,4.8C829.5,969.7,834,967.1,836.4,963.4z"/>
			<path class="st103" d="M814.8,948.4c-1.6,3.1-2.4,6-9,5.8c-6.6-0.1-6.3,3-5.9,7.3c0.4,4.2,9.1,8.3,20.4-0.1
				C823.4,955.5,814.8,948.4,814.8,948.4z"/>
			<path class="st104" d="M814.8,948.4c-0.9,1.9-1.6,3.7-3.5,4.8c2.2,3.4,4.7,7.2,2,9.7c-1.2,1.1-2.8,2.3-4.5,3.4
				c3.2-0.2,7.2-1.6,11.5-4.9C823.4,955.5,814.8,948.4,814.8,948.4z"/>
			<path class="st105" d="M816,957.5c7.3,10.1,11.3,14.3,18.9,6c7.6-8.3-1.9-29.1-14.3-26.7C806.5,939.6,810.2,949.5,816,957.5z"/>
			<radialGradient id="SVGID_13_" cx="825.489" cy="945.999" r="12.08" gradientUnits="userSpaceOnUse">
				<stop  offset="0" style="stop-color:#F9EFE6"/>
				<stop  offset="1" style="stop-color:#F2DCC6"/>
			</radialGradient>
			<path class="st106" d="M833.6,943.4c-12-6.6-17.1,0.6-20.8,9c0.9,1.7,2,3.5,3.2,5.1c7.3,10.1,11.3,14.3,18.9,6
				C839.3,958.7,837.9,949.6,833.6,943.4z"/>
		</g>
		<g>
			<path class="st107" d="M875.3,971.6c0.2-0.2,0.3-0.4,0.5-0.6c2.3-2.7,4.2-5.8,5.5-9.1c5.9-15.1-0.7-31-12.9-40.3
				c-1.9-1.4-3.8-2.9-5.9-3.9c-6.6-3.3-15.3-4.2-22.5-2.5c-15.1,3.7-20.5,20.8-14,34.3c0.4,0.9,0.9,1.7,1.4,2.5
				c-2.6,2.6-4.8,5.2-4.8,9c-0.1,5.1,4.4,11.3,9.6,11.9c1.7,0.2,3.2,0.1,4.8-0.5c1.1-0.4,3.7-1.8,4-2c0.4,0.1,0.5,0.7,0.9,0.9
				c3.9,3,7.7,5.3,12.4,6.7C862.2,980.2,869.9,977.5,875.3,971.6z"/>
			<path class="st105" d="M834.5,961.4c-7-10.7-13.1-22.7-6.3-34.7s26.5-17.2,43.7-0.9c17.2,16.3,13.6,38.8,0,49.3
				C858.3,985.6,840,969.7,834.5,961.4z"/>
			<radialGradient id="SVGID_14_" cx="866.5808" cy="932.8983" r="27.8135" gradientUnits="userSpaceOnUse">
				<stop  offset="0" style="stop-color:#F9EFE6"/>
				<stop  offset="1" style="stop-color:#F2DCC6"/>
			</radialGradient>
			<path class="st108" d="M871.9,975.1c12.7-9.8,16.6-29.9,3.3-45.8c-19.5-10.6-31.1-3.7-38.7,3.6c0,0,1.8,18.1-0.3,30.8
				C843.2,972.3,859.5,984.7,871.9,975.1z"/>
			<linearGradient id="SVGID_15_" gradientUnits="userSpaceOnUse" x1="833.658" y1="935.6774" x2="862.4267" y2="965.2236">
				<stop  offset="0" style="stop-color:#EDE3DA"/>
				<stop  offset="1" style="stop-color:#D5C0AB"/>
			</linearGradient>
			<path class="st109" d="M835,960.5c9.1,12.3,23.2,21.6,31.1,9.4c8.5-13.2,0.2-27-11.1-36C838.1,920.7,812.4,929.9,835,960.5z"/>
			<path class="st110" d="M837.6,962.6c8.9,7.7,17.4,9.7,22.5,1.6c2.3-4.7-1.1-17.5-8.9-23.9C837.3,929,819,946.5,837.6,962.6z"/>
			<path class="st111" d="M839.9,961.7c4.7,4.5,15.1,8.1,19.5,0.4c2-4.5-0.9-16.3-8.6-21.6C837.7,931.4,823.5,946,839.9,961.7z"/>
			<linearGradient id="SVGID_16_" gradientUnits="userSpaceOnUse" x1="834.4194" y1="952.7257" x2="842.4168" y2="966.1659">
				<stop  offset="0" style="stop-color:#F9EFE6"/>
				<stop  offset="1" style="stop-color:#F2DCC6"/>
			</linearGradient>
			<path class="st112" d="M827.3,954.4c4.7-5.1,10.8-11.7,20.5-6.3c2.7,1.7,6.5,11.8,2.6,15.6c-4.7,4.2-11.4,8.3-15.6,8.5
				C828.2,972.9,820.2,962.2,827.3,954.4z"/>
			<path class="st113" d="M839.1,961.9c-3.8-6.4-9.2-7.7-13-6c-5,7.6,2.4,16.9,8.6,16.4c1.5-0.1,3.4-0.7,5.4-1.6
				C841.1,968.7,841.4,965.8,839.1,961.9z"/>
			<path class="st114" d="M826.8,956.8c1.1-1.9,7.6,1.3,10.8,5.1c3.3,3.9,0.9,9.8-4,9.3C828.7,970.7,822.2,964.7,826.8,956.8z"/>
			<g>
				<polygon class="st114" points="844.1,921.3 842.5,922.5 843.3,923.7 				"/>
				<path class="st114" d="M851.8,922.5c-0.4,0.4-1.1,1.2-1.1,1.2l2.5-0.6L851.8,922.5z"/>
				<polygon class="st114" points="858.7,923.1 859.4,925 860.1,923.1 				"/>
				<polygon class="st114" points="866.6,934.7 865.5,936 868.1,936 				"/>
				<polygon class="st114" points="877.2,937.6 876.1,938.7 876.7,939.7 				"/>
				<polygon class="st114" points="873.7,947.3 874.9,948.4 872.2,948.4 				"/>
				<polygon class="st114" points="876.1,955.5 878.1,956.1 875.8,956.5 				"/>
				<polygon class="st114" points="871.7,968.2 872.2,970.4 873,968.6 				"/>
			</g>
		</g>
	</g>
</g>
<g id="txt">
	<g>
		<line class="st115" x1="500" y1="1080" x2="500" y2="79.9"/>
		<g>
			<line class="st116" x1="375" y1="980" x2="625" y2="980"/>
			<line class="st116" x1="375" y1="880" x2="625" y2="880"/>
			<line class="st116" x1="375" y1="780" x2="625" y2="780"/>
			<line class="st116" x1="375" y1="680" x2="625" y2="680"/>
			<line class="st116" x1="375" y1="580" x2="625" y2="580"/>
			<line class="st116" x1="375" y1="480" x2="625" y2="480"/>
			<line class="st116" x1="375" y1="380" x2="625" y2="380"/>
			<line class="st116" x1="375" y1="280" x2="625" y2="280"/>
			<line class="st116" x1="375" y1="180" x2="625" y2="180"/>
		</g>
		<g>
			<line class="st117" x1="495" y1="1030" x2="505" y2="1030"/>
			<line class="st117" x1="495" y1="930" x2="505" y2="930"/>
			<line class="st117" x1="495" y1="830" x2="505" y2="830"/>
			<line class="st117" x1="495" y1="730" x2="505" y2="730"/>
			<line class="st117" x1="495" y1="630" x2="505" y2="630"/>
			<line class="st117" x1="495" y1="530" x2="505" y2="530"/>
			<line class="st117" x1="495" y1="430" x2="505" y2="430"/>
			<line class="st117" x1="495" y1="330" x2="505" y2="330"/>
			<line class="st117" x1="495" y1="230" x2="505" y2="230"/>
		</g>
	</g>
	<line class="st118" x1="500" y1="1080" x2="500" y2="80"/>
	<text transform="matrix(1 0 0 1 263.4766 56.6895)" class="st6 st120">Fleisch belastet das Klima</text>
	<text transform="matrix(1 0 0 1 279.5309 1123.6683)" class="st6 font-reg">Quelle: Bundesumweltministerium, eigene Berechnung</text>

	<text id="credits" transform="matrix(1 0 0 1 312.2892 1162.2764)" class="st123 font-reg">
			<a href="https://correctiv.org/" target="_blank">Correctiv.org</a> | 
			<a href="http://www.klimaretter.info/" target="_blank"> Klimaretter.info</a> | Design: 
			<a href="http://www.kreataz.com/" target="_blank">kreataz</a></text>

	<text transform="matrix(1 0 0 1 822.2856 1162.2764)" class="st125 font-reg st124">(food icons by <a id="stock" href="https://www.shutterstock.com/fr/g/In-Finity/sets/942541" target="_blank">In-Finity</a>)</text>
	<g>
		<g>
			<g>
				<line class="st128" x1="560" y1="1018.5" x2="560" y2="269.1"/>
				<g>
					<path class="st6" d="M560,1030.6c2.1-5.7,5.7-12.7,9.5-17.1l-9.5,3.4l-9.5-3.4C554.3,1017.9,557.9,1024.9,560,1030.6z"/>
				</g>
			</g>
		</g>
		<line class="st129" x1="545" y1="269.1" x2="575" y2="269.1"/>
	</g>
	<text transform="matrix(1 0 0 1 518.4872 237.9996)"><tspan x="0" y="0" class="st6">7,8 kg CO</tspan><tspan x="77.9" y="0" class="st6 st127">2</tspan><tspan x="11.6" y="23" class="st6 font-reg">jhrlich</tspan></text>
	<g>
		<circle class="st130" cx="180" cy="243" r="100"/>
		<circle class="st117" cx="180" cy="243" r="100"/>
		<path class="st0" d="M316.4,207.6h-0.2V218h-39.3c2.1,8,3.2,16.4,3.2,25c0,8.6-1.1,17-3.2,25h39.3v10.4h0.2l22.4-35.4L316.4,207.6
			z"/>
	</g>
	<g>
		<circle class="st130" cx="820" cy="243" r="100"/>
		<circle class="st117" cx="820" cy="243" r="100"/>
		<path class="st0" d="M683.6,207.6h0.2V218h39.3c-2.1,8-3.2,16.4-3.2,25c0,8.6,1.1,17,3.2,25h-39.3v10.4h-0.2L661.3,243
			L683.6,207.6z"/>
	</g>
	<text transform="matrix(1 0 0 1 130.0781 213.2929)"><tspan x="0" y="0" class="st6 st131">86,6 kg </tspan><tspan x="1.3" y="33" class="st6 st131">Fleisch</tspan><tspan x="-29.8" y="64.6" class="st6 font-reg">Pro-Kopf-Verbrauch </tspan><tspan x="20" y="86.2" class="st6 font-reg">jhrlich</tspan></text>
	<text transform="matrix(1 0 0 1 782.5513 213.293)"><tspan x="0" y="0" class="st6 st131">60 kg </tspan><tspan x="-17.6" y="33" class="st6 st131">Gemse</tspan><tspan x="-42.3" y="64.6" class="st6 font-reg">Pro-Kopf-Verbrauch </tspan><tspan x="7.5" y="86.2" class="st6 font-reg">jhrlich</tspan></text>
</g>
<g id="emissions">
	<g id="graph-left">

		<linearGradient id="SVGID_17_" gradientUnits="userSpaceOnUse" x1="440.0002" y1="1074.5792" x2="440.0002" y2="215.5565">
			<stop  offset="0" style="stop-color:#353535"/>
			<stop  offset="1" style="stop-color:#803235"/>
		</linearGradient>
		<rect x="390" y="214" class="st126" width="100" height="866"/>

		<circle class="st132" cx="400" cy="205.3" r="5">
			<animateTransform attributeName="transform" attributeType="XML" type="translate" values="0 15;0 -25;" dur="2.2s" repeatCount="indefinite"/>
											<animate attributeName="opacity" attributeType="XML" values="1;.8;0"  dur="2.2s" repeatCount="indefinite"/>
		</circle>

		<circle class="st132" cx="406.9" cy="192" r="3.5">
			<animateTransform attributeName="transform" attributeType="XML" type="translate" values="0 26;0 -18;" dur="1.8s" repeatCount="indefinite"/>
											<animate attributeName="opacity" attributeType="XML" values="1;.8;0"  dur="1.8s" repeatCount="indefinite"/>
		</circle>
		<circle class="st132" cx="418.5" cy="205.3" r="6">
			<animateTransform attributeName="transform" attributeType="XML" type="translate" values="0 15;0 -20;" dur="2.5s" repeatCount="indefinite"/>
											<animate attributeName="opacity" attributeType="XML" values="1;.8;0"  dur="2.5s" repeatCount="indefinite"/>
		</circle>
		<circle class="st132" cx="425" cy="194" r="2.5">
			<animateTransform attributeName="transform" attributeType="XML" type="translate" values="0 23;0 -10;" dur="1.5s" repeatCount="indefinite"/>
											<animate attributeName="opacity" attributeType="XML" values="1;.8;0"  dur="1.5s" repeatCount="indefinite"/>
		</circle>
		<circle class="st132" cx="435" cy="208.5" r="4.5">
			<animateTransform attributeName="transform" attributeType="XML" type="translate" values="0 12;0 -23;" dur="2s" repeatCount="indefinite"/>
											<animate attributeName="opacity" attributeType="XML" values="1;.8;0"  dur="2s" repeatCount="indefinite"/>
		</circle>
		<circle class="st132" cx="440" cy="192" r="5.5">
			<animateTransform attributeName="transform" attributeType="XML" type="translate" values="0 28;0 -12;" dur="2.8s" repeatCount="indefinite"/>
											<animate attributeName="opacity" attributeType="XML" values="1;.8;0"  dur="2.8s" repeatCount="indefinite"/>
		</circle>
		<circle class="st132" cx="450" cy="203.3" r="3.5">
			<animateTransform attributeName="transform" attributeType="XML" type="translate" values="0 15;0 -22;" dur="1.7s" repeatCount="indefinite"/>
											<animate attributeName="opacity" attributeType="XML" values="1;.8;0"  dur="1.7s" repeatCount="indefinite"/>
		</circle>
		<circle class="st132" cx="456.9" cy="190.5" r="5">
			<animateTransform attributeName="transform" attributeType="XML" type="translate" values="0 27;0 -13;" dur="2.3s" repeatCount="indefinite"/>
											<animate attributeName="opacity" attributeType="XML" values="1;.8;0"  dur="2.3s" repeatCount="indefinite"/>
		</circle>
		<circle class="st132" cx="463.5" cy="207.6" r="3.5">
			<animateTransform attributeName="transform" attributeType="XML" type="translate" values="0 10;0 -30;" dur="1.6s" repeatCount="indefinite"/>
											<animate attributeName="opacity" attributeType="XML" values="1;.8;0"  dur="1.6s" repeatCount="indefinite"/>
		</circle>
		<circle class="st132" cx="470.1" cy="196.2" r="5">
			<animateTransform attributeName="transform" attributeType="XML" type="translate" values="0 20;0 -20;" dur="2.2s" repeatCount="indefinite"/>
											<animate attributeName="opacity" attributeType="XML" values="1;.8;0"  dur="2.2s" repeatCount="indefinite"/>
		</circle>
		<circle class="st132" cx="480.1" cy="204.8" r="4">
			<animateTransform attributeName="transform" attributeType="XML" type="translate" values="0 15;0 -25;" dur="2.1s" repeatCount="indefinite"/>
											<animate attributeName="opacity" attributeType="XML" values="1;.8;0"  dur="2.1s" repeatCount="indefinite"/>
		</circle>
		<circle class="st132" cx="480.1" cy="190.5" r="3">
			<animateTransform attributeName="transform" attributeType="XML" type="translate" values="0 28;0 -12;" dur="1.9s" repeatCount="indefinite"/>
											<animate attributeName="opacity" attributeType="XML" values="1;.8;0"  dur="1.9s" repeatCount="indefinite"/>
		</circle>

		<text transform="matrix(1 0 0 1 395.6442 237.9997)"><tspan x="0" y="0" class="st0">866 kg CO</tspan><tspan x="83.5" y="0" class="st0 st127">2</tspan><tspan x="14.5" y="23" class="st0 font-reg">jhrlich</tspan></text>

	</g>

	<rect x="510" y="1072" class="st6" width="100" height="8"/>
</g>

</svg>
