<?xml version="1.0" encoding="utf-8"?>
<!-- Generator: Adobe Illustrator 21.0.0, SVG Export Plug-In . SVG Version: 6.00 Build 0)  -->
<svg id="main-svg" version="1.1" xmlns="http://www.w3.org/2000/svg" xmlns:xlink="http://www.w3.org/1999/xlink" x="0px" y="0px"
	 viewBox="0 0 1000 1100" style="enable-background:new 0 0 1000 1100;" xml:space="preserve">

<g id="graph">
	<g id="Fossile_Energie">
		<line class="st1" x1="380" y1="997" x2="380" y2="302.8"/>
		<line class="st2" x1="380" y1="997" x2="380" y2="572.2"/>
		<line class="st3" x1="380" y1="997" x2="380" y2="690.7"/>
		<line class="st2" x1="380" y1="997" x2="380" y2="802"/>
		<line class="st3" x1="380" y1="997" x2="380" y2="884.5"/>
		<line class="st2" x1="380" y1="997" x2="380" y2="950.5"/>
	</g>
	<line id="EEG" class="st4" x1="620" y1="997" x2="620" y2="669.3"/>
	<g id="txt-co2-2013_1_">
		<text transform="matrix(1 0 0 1 331.1431 254.7766)"><tspan x="0" y="0" class="st7 font-norm st9">Gesamtgröße</tspan><tspan x="-27.9" y="16" class="st7 st10 st9">46,28 Milliarden Euro</tspan></text>
		<line class="st11" x1="380" y1="292.8" x2="380" y2="275.8"/>
		<line class="st12" x1="304" y1="275.8" x2="456" y2="275.8"/>
	</g>
	<g id="txt-co2-2013_2_">
		<text transform="matrix(1 0 0 1 571.1431 621.3466)"><tspan x="0" y="0" class="st13 font-norm st9">Gesamtgröße</tspan><tspan x="-32.5" y="16" class="st13 st10 st9">21,842 Milliarden Euro</tspan></text>
		<line class="st14" x1="620" y1="659.3" x2="620" y2="642.4"/>
		<line class="st15" x1="540" y1="642.4" x2="700" y2="642.4"/>
	</g>
</g>

<g id="legende">
</g>

<g id="txt">
	<text transform="matrix(1 0 0 1 330.3501 1023.666)"><tspan x="0" y="0" class="st29 st10 st9">Subventionen </tspan><tspan x="-5.3" y="19.2" class="st29 st10 st9">Fossile Energie</tspan></text>
	<text transform="matrix(1 0 0 1 331.3306 626.3098)"><tspan x="0" y="0" class="st29 st10 st9">Dieselprivileg</tspan><tspan x="-23.3" y="19.2" class="st29 font-norm st9">(7,9 Milliarden Euro)</tspan></text>
	<text transform="matrix(1 0 0 1 292.5337 741.6432)"><tspan x="0" y="0" class="st29 st10 st9">Steuerbefreiung Kerosin</tspan><tspan x="15.5" y="19.2" class="st29 font-norm st9">(7,4 Milliarden Euro)</tspan></text>
	<text transform="matrix(1 0 0 1 299.2407 840.3098)"><tspan x="0" y="0" class="st29 st10 st9">Entfernungspauschale</tspan><tspan x="8.8" y="19.2" class="st29 font-norm st9">(5,1 Milliarden Euro)</tspan></text>
	<text transform="matrix(1 0 0 1 307.8618 903.3098)"><tspan x="0" y="0" class="st29 st10 st9">Steuerbefreiung für  </tspan><tspan x="0.2" y="19.2" class="st29 st10 st9">internationale Flüge</tspan><tspan x="0.2" y="38.4" class="st29 font-norm st9">(4,4 Milliarden Euro)</tspan></text>
	<text transform="matrix(1 0 0 1 306.9438 967.9765)"><tspan x="0" y="0" class="st29 st10 st9">Dienstwagenprivileg</tspan><tspan x="1.1" y="19.2" class="st29 font-norm st9">(3,1 Milliarden Euro)</tspan></text>
	<text transform="matrix(1 0 0 1 564.3794 1023.666)"><tspan x="0" y="0" class="st29 st10 st9">EEG-Zahlungen </tspan><tspan x="-22" y="19.2" class="st29 st10 st9">an Ökostromerzeuger</tspan></text>
	<g>
		<g>
			<text transform="matrix(1 0 0 1 160.8203 997.999)" class="st29 st10 st9">0</text>
		</g>
		<g>
			<text transform="matrix(1 0 0 1 151.6406 847.999)" class="st29 st10 st9">10</text>
		</g>
		<g>
			<text transform="matrix(1 0 0 1 151.6406 697.999)" class="st29 st10 st9">20</text>
		</g>
		<g>
			<text transform="matrix(1 0 0 1 151.6406 547.999)" class="st29 st10 st9">30</text>
		</g>
		<g>
			<text transform="matrix(1 0 0 1 151.6406 397.999)" class="st29 st10 st9">40</text>
		</g>
		<g>
			<text transform="matrix(1 0 0 1 151.6406 247.999)" class="st29 st10 st9">50</text>
		</g>
	</g>
	<g>
		<line class="st30" x1="190" y1="997" x2="794" y2="997"/>
		<line class="st30" x1="190" y1="997" x2="190" y2="247"/>
		<line class="st30" x1="190" y1="922" x2="195" y2="922"/>
		<line class="st30" x1="190" y1="772" x2="195" y2="772"/>
		<line class="st30" x1="190" y1="622" x2="195" y2="622"/>
		<line class="st30" x1="190" y1="472" x2="195" y2="472"/>
		<line class="st30" x1="190" y1="322" x2="195" y2="322"/>
		<line class="st30" x1="190" y1="847" x2="200" y2="847"/>
		<line class="st30" x1="190" y1="697" x2="200" y2="697"/>
		<line class="st30" x1="190" y1="547" x2="200" y2="547"/>
		<line class="st30" x1="190" y1="397" x2="200" y2="397"/>
		<line class="st30" x1="190" y1="247" x2="200" y2="247"/>
	</g>
	<g>
		<polyline id="anzahl-arrow_1_" class="st30" points="141.9,198 160.9,211 180.1,198 		"/>
		<text transform="matrix(1 0 0 1 125.404 177.0565)"><tspan x="0" y="0" class="st29 font-norm st9">Milliarden </tspan><tspan x="19" y="16" class="st29 font-norm st9">Euro</tspan></text>
	</g>
	<text transform="matrix(1 0 0 1 321.6621 51.3994)" class="st29 st32 st33">Grafik Subventionen</text>
</g>
</svg>
