<?xml version="1.0" encoding="utf-8"?>
<!-- Generator: Adobe Illustrator 21.0.0, SVG Export Plug-In . SVG Version: 6.00 Build 0)  -->
<svg id="main-svg" version="1.1" xmlns="http://www.w3.org/2000/svg" xmlns:xlink="http://www.w3.org/1999/xlink" x="0px" y="0px"
	 viewBox="0 0 1000 1375" style="enable-background:new 0 0 1000 1375;" xml:space="preserve">

<g id="graph">

	<g id="radio-btn-13" class="checked">
		<circle class="round" cx="169" cy="1134.2" r="20"/>
		<circle class="spot" cx="169" cy="1134.2" r="12.5"/>
	</g>
	<g id="radio-btn-16">
		<circle class="round" cx="487" cy="1134.2" r="20"/>
		<circle class="spot" cx="487" cy="1134.2" r="12.5"/>
		<text id="pointer" transform="matrix(1 0 0 1 415 1151.168)" class="awesome">&#xf0a4;</text>
	</g>

	<g id="graph-still-2013">
		<line class="st1" x1="169" y1="1072" x2="169" y2="316"/>
		<line class="st2" x1="169" y1="1072" x2="169" y2="516.4"/>
		<line class="st3" x1="169" y1="1072" x2="169" y2="570.4"/>
		<line class="st2" x1="169" y1="1072" x2="169" y2="651.2"/>
		<line class="st3" x1="169" y1="1072" x2="169" y2="778.4"/>
	</g>

	<g class="info-farming">
		<g class="nbr">
			<text transform="matrix(1 0 0 1 148.5781 518.3755)" class="st4 st5 st6">65,24</text>
		</g>
		<g class="icon">
			<circle class="st7" cx="169" cy="543.4" r="23.5"/>
			<g>
				<path class="figure st8" d="M168.1,532.3h-3.6v6.5c1.9,0,4.1,0,6.1,0c-0.4-2-1-4.5-1.1-5.4C169.2,532.3,168.8,532.3,168.1,532.3z"/>
				<circle class="figure st8" cx="162.1" cy="548.4" r="3.3"/>
				<path class="figure st8" d="M158.8,533.2c-0.1,0.8-0.3,3.6-0.5,5.6c1,0,2.9,0,5.2,0v-6.5h-3.7C159.1,532.3,158.8,532.4,158.8,533.2z"/>
				<path class="figure st8" d="M169,520.9c-12.4,0-22.5,10.1-22.5,22.5s10.1,22.5,22.5,22.5s22.5-10.1,22.5-22.5S181.4,520.9,169,520.9z
					 M167.5,553.6c-1.4,1.3-3.3,2-5.4,2c-2.1,0-4-0.7-5.4-2c-1.5-1.3-2.3-3.2-2.3-5.2c0-4.2,3.4-7.3,7.7-7.3c4.2,0,7.7,3,7.7,7.3
					C169.8,550.5,169,552.3,167.5,553.6z M170.5,549.7c0.1-0.4,0.1-0.8,0.1-1.2c0-2.2-0.9-4.3-2.5-5.8c-1.6-1.5-3.7-2.3-6-2.3
					c-1.5,0-3,0.4-4.3,1.1c0,0,0,0,0,0c-0.1,0.1-0.3,0.1-0.4,0.1c-0.3,0-0.6-0.3-0.6-0.7c0-0.1,0.6-6.5,0.7-7.8c0.2-2,1.6-2,2.2-2
					h8.4c0.7,0,2.1,0,2.6,2.1c0.2,1.2,0.8,3.7,1.2,5.6c2.2,0,4.2,0,5.7,0v-3.1c0-0.5,0.4-0.8,0.8-0.8s0.8,0.4,0.8,0.8v3.1
					c0.8,0,1.3,0,1.4,0c2.4,0,3.1,5.2,1.8,7.5c-1.1-1.2-2.8-2-4.5-2c-3.1,0-5.7,2.3-6.2,5.3H170.5z M181.7,554.2
					c-1,0.9-2.4,1.4-3.8,1.4c-1.5,0-2.8-0.5-3.8-1.4c-1-0.9-1.6-2.3-1.6-3.7c0-3,2.4-5.4,5.4-5.4c3,0,5.4,2.4,5.4,5.4
					C183.3,552,182.7,553.3,181.7,554.2z"/>
				<circle class="figure st8" cx="177.9" cy="550.5" r="2.3"/>
			</g>
		</g>
	</g>
	<g class="info-building">
		<g class="nbr">
			<text transform="matrix(1 0 0 1 155.2305 585.7758)" class="st4 st5 st6">101</text>
		</g>
		<g class="icon">
			<circle class="st9" cx="169" cy="610.8" r="23.5"/>
			<path class="figure st8" d="M169,588.3c-12.4,0-22.5,10.1-22.5,22.5c0,12.4,10.1,22.5,22.5,22.5s22.5-10.1,22.5-22.5
				C191.5,598.3,181.4,588.3,169,588.3z M179.2,599.6v5.5l-2.6-2.2l0-3.2H179.2z M178.4,620c0,0,0,0.8-0.7,0.8c-0.9,0-6.7,0-6.7,0
				l0-5.6c0,0,0.1-0.9-1-0.9h-2.8c-0.9,0-0.8,0.9-0.8,0.9l0,5.6c0,0-6.1,0-6.8,0c-0.6,0-0.6-0.6-0.6-0.6v-10.5l10-8.4l9.4,8.4V620z
				 M179.4,608.9l-10.3-9.3l-11,9.3c-1.8,1.6-2.7,0-2.7,0l13.7-12.1l13.3,12C182.4,608.9,181.6,610.4,179.4,608.9z"/>
		</g>
	</g>
	<g class="info-transport">
		<g class="nbr">
			<text transform="matrix(1 0 0 1 155.2305 689.7756)" class="st4 st5 st6">159</text>
		</g>
		<g class="icon">
			<circle class="st7" cx="169" cy="714.8" r="23.5"/>
			<g>
				<ellipse class="figure st8" cx="177" cy="722.8" rx="1.4" ry="1.4"/>
				<path class="figure st8" d="M177.9,709.2c-0.1-0.1-0.2-0.2-0.4-0.2h-3.3c-0.2,0-0.4,0.2-0.4,0.4v3c0,0.2,0.2,0.4,0.4,0.4h5.5
					c0.4,0,0.6-0.4,0.4-0.7L177.9,709.2z"/>
				<path class="figure st8" d="M169,692.3c-12.4,0-22.5,10.1-22.5,22.5c0,12.4,10.1,22.5,22.5,22.5s22.5-10.1,22.5-22.5
					C191.5,702.3,181.4,692.3,169,692.3z M162.7,707.3c0-0.5,0.4-0.9,0.9-0.9h6.1c0.5,0,0.9,0.4,0.9,0.9v3.9c0,0.5-0.4,0.9-0.9,0.9
					h-6.1c-0.5,0-0.9-0.4-0.9-0.9V707.3z M153.5,707.3c0-0.5,0.4-0.9,0.9-0.9h6.1c0.5,0,0.9,0.4,0.9,0.9v3.9c0,0.5-0.4,0.9-0.9,0.9
					h-6.1c-0.5,0-0.9-0.4-0.9-0.9V707.3z M153.5,718.3v-3.9c0-0.5,0.4-0.9,0.9-0.9h15.3c0.5,0,0.9,0.4,0.9,0.9v3.9
					c0,0.5-0.4,0.9-0.9,0.9h-15.3C153.9,719.2,153.5,718.8,153.5,718.3z M154.2,722.3c-0.2,0-0.4-0.2-0.4-0.4v-1.3
					c0-0.2,0.2-0.4,0.4-0.4h6.1c-0.6,0.6-1.1,1.3-1.2,2.2H154.2z M162.7,725.5c-1.5,0-2.7-1.2-2.7-2.7c0-1.5,1.2-2.7,2.7-2.7
					c1.5,0,2.7,1.2,2.7,2.7C165.4,724.3,164.2,725.5,162.7,725.5z M177,725.5c-1.5,0-2.7-1.2-2.7-2.7c0-1.5,1.2-2.7,2.7-2.7
					c1.5,0,2.7,1.2,2.7,2.7C179.7,724.3,178.5,725.5,177,725.5z M184.5,721.8c0,0.2-0.2,0.4-0.4,0.4h-3.5c-0.3-1.7-1.8-3.1-3.6-3.1
					c-1.8,0-3.3,1.3-3.6,3.1h-7.2c-0.1-0.9-0.6-1.7-1.2-2.2h6.8v-12.5c0-0.5,0.4-0.9,0.9-0.9h4.1c1.2,0,2.3,0.6,2.9,1.5l2.7,4
					c0.4,0.6,0.6,1.3,0.6,2v6h1.1c0.2,0,0.4,0.2,0.4,0.4V721.8z"/>
				<circle class="figure st8" cx="162.7" cy="722.8" r="1.4"/>
			</g>
		</g>
	</g>
	<g class="info-energy">
		<g class="nbr">
			<text transform="matrix(1 0 0 1 155.2305 900.1765)" class="st4 st5 st6">367</text>
		</g>
		<g class="icon">
			<circle class="st9" cx="169" cy="925.2" r="23.5"/>
			<path class="figure st8" d="M169,902.7c-12.4,0-22.5,10.1-22.5,22.5s10.1,22.5,22.5,22.5s22.5-10.1,22.5-22.5S181.4,902.7,169,902.7z
				 M177.2,923.4l-9,17.8c-0.2,0.3-0.5,0.5-0.8,0.5c-0.1,0-0.2,0-0.3,0c-0.4-0.1-0.7-0.5-0.6-0.9l1.4-12h-6.6
				c-0.3,0-0.6-0.2-0.7-0.5c-0.2-0.3-0.2-0.6,0-0.9l9-18.2c0.2-0.3,0.5-0.5,0.8-0.5c0.1,0,0.2,0,0.3,0c0.4,0.1,0.7,0.6,0.6,1
				l-1.4,12.5h6.7c0.3,0,0.6,0.1,0.7,0.4C177.4,922.8,177.4,923.1,177.2,923.4z"/>
		</g>
	</g>
	<g id="graph-still-2014">
		<line class="st10" x1="275" y1="1072" x2="275" y2="338.2"/>
		<line class="st11" x1="275" y1="1072" x2="275" y2="531.8"/>
		<line class="st12" x1="275" y1="1072" x2="275" y2="585.4"/>
		<line class="st11" x1="275" y1="1072" x2="275" y2="662.3"/>
		<line class="st12" x1="275" y1="1072" x2="275" y2="787.5"/>
	</g>
	<g id="graph-still-2015">
		<line class="st10" x1="381" y1="1072" x2="381" y2="360.5"/>
		<line class="st11" x1="381" y1="1072" x2="381" y2="547.1"/>
		<line class="st12" x1="381" y1="1072" x2="381" y2="601.2"/>
		<line class="st11" x1="381" y1="1072" x2="381" y2="673.3"/>
		<line class="st12" x1="381" y1="1072" x2="381" y2="796.5"/>
	</g>
	<g id="graph-2016">
		<line class="st10" x1="487" y1="1072" x2="487" y2="382.8"/>
		<line class="st11" x1="487" y1="1072" x2="487" y2="562.5"/>
		<line class="st12" x1="487" y1="1072" x2="487" y2="616.6"/>
		<line class="st11" x1="487" y1="1072" x2="487" y2="684.5"/>
		<line class="st12" x1="487" y1="1072" x2="487" y2="805.6"/>
	</g>
	<g id="icons2016">
		<g class="info-farming">
			<g class="nbr">
				<text transform="matrix(1 0 0 1 471.1694 551.5356)" class="st4 st5 st6">66,8</text>
			</g>
			<g class="icon">
				<circle class="st7" cx="487" cy="576.5" r="23.5"/>
				<g>
					<path class="figure st8" d="M486.1,565.5h-3.6v6.5c1.9,0,4.1,0,6.1,0c-0.4-2-1-4.5-1.1-5.4C487.2,565.5,486.8,565.5,486.1,565.5z"/>
					<circle class="figure st8" cx="480.1" cy="581.6" r="3.3"/>
					<path class="figure st8" d="M476.8,566.4c-0.1,0.8-0.3,3.6-0.5,5.6c1,0,2.9,0,5.2,0v-6.5h-3.7C477.1,565.5,476.8,565.5,476.8,566.4z"/>
					<path class="figure st8" d="M487,554c-12.4,0-22.5,10.1-22.5,22.5S474.6,599,487,599s22.5-10.1,22.5-22.5S499.4,554,487,554z
						 M485.5,586.8c-1.4,1.3-3.3,2-5.4,2c-2.1,0-4-0.7-5.4-2c-1.5-1.3-2.3-3.2-2.3-5.2c0-4.2,3.4-7.3,7.7-7.3c4.2,0,7.7,3,7.7,7.3
						C487.8,583.6,487,585.5,485.5,586.8z M488.5,582.8c0.1-0.4,0.1-0.8,0.1-1.2c0-2.2-0.9-4.3-2.5-5.8c-1.6-1.5-3.7-2.3-6-2.3
						c-1.5,0-3,0.4-4.3,1.1c0,0,0,0,0,0c-0.1,0.1-0.3,0.1-0.4,0.1c-0.3,0-0.6-0.3-0.6-0.7c0-0.1,0.6-6.5,0.7-7.8c0.2-2,1.6-2,2.2-2
						h8.4c0.7,0,2.1,0,2.6,2.1c0.2,1.2,0.8,3.7,1.2,5.6c2.2,0,4.2,0,5.7,0v-3.1c0-0.5,0.4-0.8,0.8-0.8s0.8,0.4,0.8,0.8v3.1
						c0.8,0,1.3,0,1.4,0c2.4,0,3.1,5.2,1.8,7.5c-1.1-1.2-2.8-2-4.5-2c-3.1,0-5.7,2.3-6.2,5.3H488.5z M499.7,587.4
						c-1,0.9-2.4,1.4-3.8,1.4c-1.5,0-2.8-0.5-3.8-1.4c-1-0.9-1.6-2.3-1.6-3.7c0-3,2.4-5.4,5.4-5.4c3,0,5.4,2.4,5.4,5.4
						C501.3,585.1,500.7,586.5,499.7,587.4z"/>
					<circle class="figure st8" cx="495.9" cy="583.7" r="2.3"/>
				</g>
			</g>
		</g>
		<g class="info-building">
			<g class="nbr">
				<text transform="matrix(1 0 0 1 471.1694 613.416)" class="st4 st5 st6">87,9</text>
			</g>
			<g class="icon">
				<circle class="st9" cx="486.8" cy="638.4" r="23.5"/>
				<path class="figure st8" d="M486.8,615.9c-12.4,0-22.5,10.1-22.5,22.5c0,12.4,10.1,22.5,22.5,22.5s22.5-10.1,22.5-22.5
					C509.3,626,499.3,615.9,486.8,615.9z M497,627.2v5.5l-2.6-2.2l0-3.2H497z M496.2,647.6c0,0,0,0.8-0.7,0.8c-0.9,0-6.7,0-6.7,0
					l0-5.6c0,0,0.1-0.9-1-0.9h-2.8c-0.9,0-0.8,0.9-0.8,0.9l0,5.6c0,0-6.1,0-6.8,0c-0.6,0-0.6-0.6-0.6-0.6v-10.5l10-8.4l9.4,8.4V647.6
					z M497.3,636.5l-10.3-9.3l-11,9.3c-1.8,1.6-2.7,0-2.7,0l13.7-12.1l13.3,12C500.2,636.5,499.4,638,497.3,636.5z"/>
			</g>
		</g>
		<g class="info-transport">
			<g class="nbr">
				<text transform="matrix(1 0 0 1 473.2319 714.9765)" class="st4 st5 st6">166</text>
			</g>
			<g class="icon">
				<circle class="st7" cx="487" cy="740" r="23.5"/>
				<g>
					<ellipse class="figure st8" cx="495" cy="748" rx="1.4" ry="1.4"/>
					<path class="figure st8" d="M495.9,734.4c-0.1-0.1-0.2-0.2-0.4-0.2h-3.3c-0.2,0-0.4,0.2-0.4,0.4v3c0,0.2,0.2,0.4,0.4,0.4h5.5
						c0.4,0,0.6-0.4,0.4-0.7L495.9,734.4z"/>
					<path class="figure st8" d="M487,717.5c-12.4,0-22.5,10.1-22.5,22.5c0,12.4,10.1,22.5,22.5,22.5s22.5-10.1,22.5-22.5
						C509.5,727.5,499.4,717.5,487,717.5z M480.7,732.5c0-0.5,0.4-0.9,0.9-0.9h6.1c0.5,0,0.9,0.4,0.9,0.9v3.9c0,0.5-0.4,0.9-0.9,0.9
						h-6.1c-0.5,0-0.9-0.4-0.9-0.9V732.5z M471.5,732.5c0-0.5,0.4-0.9,0.9-0.9h6.1c0.5,0,0.9,0.4,0.9,0.9v3.9c0,0.5-0.4,0.9-0.9,0.9
						h-6.1c-0.5,0-0.9-0.4-0.9-0.9V732.5z M471.5,743.5v-3.9c0-0.5,0.4-0.9,0.9-0.9h15.3c0.5,0,0.9,0.4,0.9,0.9v3.9
						c0,0.5-0.4,0.9-0.9,0.9h-15.3C471.9,744.4,471.5,744,471.5,743.5z M472.2,747.5c-0.2,0-0.4-0.2-0.4-0.4v-1.3
						c0-0.2,0.2-0.4,0.4-0.4h6.1c-0.6,0.6-1.1,1.3-1.2,2.2H472.2z M480.7,750.7c-1.5,0-2.7-1.2-2.7-2.7c0-1.5,1.2-2.7,2.7-2.7
						c1.5,0,2.7,1.2,2.7,2.7C483.4,749.5,482.2,750.7,480.7,750.7z M495,750.7c-1.5,0-2.7-1.2-2.7-2.7c0-1.5,1.2-2.7,2.7-2.7
						c1.5,0,2.7,1.2,2.7,2.7C497.7,749.5,496.5,750.7,495,750.7z M502.5,747c0,0.2-0.2,0.4-0.4,0.4h-3.5c-0.3-1.7-1.8-3.1-3.6-3.1
						c-1.8,0-3.3,1.3-3.6,3.1h-7.2c-0.1-0.9-0.6-1.7-1.2-2.2h6.8v-12.5c0-0.5,0.4-0.9,0.9-0.9h4.1c1.2,0,2.3,0.6,2.9,1.5l2.7,4
						c0.4,0.6,0.6,1.3,0.6,2v6h1.1c0.2,0,0.4,0.2,0.4,0.4V747z"/>
					<circle class="figure st8" cx="480.7" cy="748" r="1.4"/>
				</g>
			</g>
		</g>
		<g class="info-energy">
			<g class="nbr">
				<text transform="matrix(1 0 0 1 473.2319 914.1756)" class="st4 st5 st6">332</text>
			</g>
			<g class="icon">
				<circle class="st9" cx="487" cy="939.2" r="23.5"/>
				<path class="figure st8" d="M487,916.7c-12.4,0-22.5,10.1-22.5,22.5s10.1,22.5,22.5,22.5s22.5-10.1,22.5-22.5S499.4,916.7,487,916.7z
					 M495.2,937.4l-9,17.8c-0.2,0.3-0.5,0.5-0.8,0.5c-0.1,0-0.2,0-0.3,0c-0.4-0.1-0.7-0.5-0.6-0.9l1.4-12h-6.6
					c-0.3,0-0.6-0.2-0.7-0.5c-0.2-0.3-0.2-0.6,0-0.9l9-18.2c0.2-0.3,0.5-0.5,0.8-0.5c0.1,0,0.2,0,0.3,0c0.4,0.1,0.7,0.6,0.6,1
					l-1.4,12.5h6.7c0.3,0,0.6,0.1,0.7,0.4C495.4,936.8,495.4,937.1,495.2,937.4z"/>
			</g>
		</g>
	</g>	
	<g id="graph-2017">
		<line class="st10" x1="593" y1="1072" x2="593" y2="405.1"/>
		<line class="st11" x1="593" y1="1072" x2="593" y2="577.9"/>
		<line class="st12" x1="593" y1="1072" x2="593" y2="632"/>
		<line class="st11" x1="593" y1="1072" x2="593" y2="695.6"/>
		<line class="st12" x1="593" y1="1072" x2="593" y2="814.7"/>
		<line class="exceed st13" x1="593" y1="405.1" x2="593" y2="378.4"/>
	</g>
	<g id="graph-2018">
		<line class="st10" x1="699" y1="1072" x2="699" y2="427.4"/>
		<line class="st11" x1="699" y1="1072" x2="699" y2="593.3"/>
		<line class="st12" x1="699" y1="1072" x2="699" y2="647.5"/>
		<line class="st11" x1="699" y1="1072" x2="699" y2="706.7"/>
		<line class="st12" x1="699" y1="1072" x2="699" y2="823.8"/>
		<line class="exceed st13" x1="699" y1="427.4" x2="699" y2="409.6"/>
	</g>
	<g id="graph-2019">
		<line class="st10" x1="805" y1="1072" x2="805" y2="449.7"/>
		<line class="st11" x1="805" y1="1072" x2="805" y2="608.7"/>
		<line class="st12" x1="805" y1="1072" x2="805" y2="662.9"/>
		<line class="st11" x1="805" y1="1072" x2="805" y2="717.8"/>
		<line class="st12" x1="805" y1="1072" x2="805" y2="833.3"/>
		<line class="exceed st13" x1="805" y1="449.7" x2="805" y2="440.8"/>
	</g>
	<g id="graph-still-2020">
		<line class="st16" x1="911" y1="1072" x2="911" y2="472"/>
		<line class="st17" x1="911" y1="1072" x2="911" y2="624.1"/>
		<line class="st18" x1="911" y1="1072" x2="911" y2="678.3"/>
		<line class="st17" x1="911" y1="1072" x2="911" y2="728.9"/>
		<line class="st18" x1="911" y1="1072" x2="911" y2="842"/>
	</g>
	<g class="info-farming">
		<g class="nbr">
			<text transform="matrix(1 0 0 1 895.1695 626.1758)" class="st4 st5 st6">67,8</text>
		</g>
		<g class="icon">
			<circle class="st19" cx="911" cy="651.2" r="23.5"/>
			<g>
				<path class="figure st20" d="M910.1,640.1h-3.6v6.5c1.9,0,4.1,0,6.1,0c-0.4-2-1-4.5-1.1-5.4C911.2,640.1,910.8,640.1,910.1,640.1z"/>
				<circle class="figure st20" cx="904.1" cy="656.2" r="3.3"/>
				<path class="figure st20" d="M900.8,641c-0.1,0.8-0.3,3.6-0.5,5.6c1,0,2.9,0,5.2,0v-6.5h-3.7C901.1,640.1,900.8,640.2,900.8,641z"/>
				<path class="figure st20" d="M911,628.7c-12.4,0-22.5,10.1-22.5,22.5s10.1,22.5,22.5,22.5s22.5-10.1,22.5-22.5S923.4,628.7,911,628.7z
					 M909.5,661.4c-1.4,1.3-3.3,2-5.4,2c-2.1,0-4-0.7-5.4-2c-1.5-1.3-2.3-3.2-2.3-5.2c0-4.2,3.4-7.3,7.7-7.3c4.2,0,7.7,3,7.7,7.3
					C911.8,658.3,911,660.1,909.5,661.4z M912.5,657.5c0.1-0.4,0.1-0.8,0.1-1.2c0-2.2-0.9-4.3-2.5-5.8c-1.6-1.5-3.7-2.3-6-2.3
					c-1.5,0-3,0.4-4.3,1.1c0,0,0,0,0,0c-0.1,0.1-0.3,0.1-0.4,0.1c-0.3,0-0.6-0.3-0.6-0.7c0-0.1,0.6-6.5,0.7-7.8c0.2-2,1.6-2,2.2-2
					h8.4c0.7,0,2.1,0,2.6,2.1c0.2,1.2,0.8,3.7,1.2,5.6c2.2,0,4.2,0,5.7,0v-3.1c0-0.5,0.4-0.8,0.8-0.8s0.8,0.4,0.8,0.8v3.1
					c0.8,0,1.3,0,1.4,0c2.4,0,3.1,5.2,1.8,7.5c-1.1-1.2-2.8-2-4.5-2c-3.1,0-5.7,2.3-6.2,5.3H912.5z M923.7,662
					c-1,0.9-2.4,1.4-3.8,1.4c-1.5,0-2.8-0.5-3.8-1.4c-1-0.9-1.6-2.3-1.6-3.7c0-3,2.4-5.4,5.4-5.4c3,0,5.4,2.4,5.4,5.4
					C925.3,659.8,924.7,661.1,923.7,662z"/>
				<circle class="figure st20" cx="919.9" cy="658.3" r="2.3"/>
			</g>
		</g>
	</g>
	<g class="info-building">
		<g class="nbr">
			<text transform="matrix(1 0 0 1 895.1695 678.6157)" class="st4 st5 st6">63,3</text>
		</g>
		<g class="icon">
			<circle class="st21" cx="911" cy="703.6" r="23.5"/>
			<path class="figure st20" d="M911,681.1c-12.4,0-22.5,10.1-22.5,22.5c0,12.4,10.1,22.5,22.5,22.5s22.5-10.1,22.5-22.5
				C933.5,691.2,923.4,681.1,911,681.1z M921.2,692.4v5.5l-2.6-2.2l0-3.2H921.2z M920.4,712.8c0,0,0,0.8-0.7,0.8c-0.9,0-6.7,0-6.7,0
				l0-5.6c0,0,0.1-0.9-1-0.9h-2.8c-0.9,0-0.8,0.9-0.8,0.9l0,5.6c0,0-6.1,0-6.8,0c-0.6,0-0.6-0.6-0.6-0.6v-10.5l10-8.4l9.4,8.4V712.8
				z M921.4,701.7l-10.3-9.3l-11,9.3c-1.8,1.6-2.7,0-2.7,0l13.7-12.1l13.3,12C924.4,701.7,923.6,703.2,921.4,701.7z"/>
		</g>
	</g>
	<g class="info-transport">
		<g class="nbr">
			<text transform="matrix(1 0 0 1 890.5797 760.4562)" class="st4 st5 st6">141,3</text>
		</g>
		<g class="icon">
			<circle class="st19" cx="911" cy="785.5" r="23.5"/>
			<g>
				<ellipse class="figure st20" cx="919" cy="793.5" rx="1.4" ry="1.4"/>
				<path class="figure st20" d="M919.9,779.9c-0.1-0.1-0.2-0.2-0.4-0.2h-3.3c-0.2,0-0.4,0.2-0.4,0.4v3c0,0.2,0.2,0.4,0.4,0.4h5.5
					c0.4,0,0.6-0.4,0.4-0.7L919.9,779.9z"/>
				<path class="figure st20" d="M911,763c-12.4,0-22.5,10.1-22.5,22.5c0,12.4,10.1,22.5,22.5,22.5s22.5-10.1,22.5-22.5
					C933.5,773,923.4,763,911,763z M904.7,778c0-0.5,0.4-0.9,0.9-0.9h6.1c0.5,0,0.9,0.4,0.9,0.9v3.9c0,0.5-0.4,0.9-0.9,0.9h-6.1
					c-0.5,0-0.9-0.4-0.9-0.9V778z M895.5,778c0-0.5,0.4-0.9,0.9-0.9h6.1c0.5,0,0.9,0.4,0.9,0.9v3.9c0,0.5-0.4,0.9-0.9,0.9h-6.1
					c-0.5,0-0.9-0.4-0.9-0.9V778z M895.5,789V785c0-0.5,0.4-0.9,0.9-0.9h15.3c0.5,0,0.9,0.4,0.9,0.9v3.9c0,0.5-0.4,0.9-0.9,0.9
					h-15.3C895.9,789.8,895.5,789.5,895.5,789z M896.2,792.9c-0.2,0-0.4-0.2-0.4-0.4v-1.3c0-0.2,0.2-0.4,0.4-0.4h6.1
					c-0.6,0.6-1.1,1.3-1.2,2.2H896.2z M904.7,796.2c-1.5,0-2.7-1.2-2.7-2.7c0-1.5,1.2-2.7,2.7-2.7c1.5,0,2.7,1.2,2.7,2.7
					C907.4,795,906.2,796.2,904.7,796.2z M919,796.2c-1.5,0-2.7-1.2-2.7-2.7c0-1.5,1.2-2.7,2.7-2.7c1.5,0,2.7,1.2,2.7,2.7
					C921.7,795,920.5,796.2,919,796.2z M926.5,792.5c0,0.2-0.2,0.4-0.4,0.4h-3.5c-0.3-1.7-1.8-3.1-3.6-3.1c-1.8,0-3.3,1.3-3.6,3.1
					h-7.2c-0.1-0.9-0.6-1.7-1.2-2.2h6.8v-12.5c0-0.5,0.4-0.9,0.9-0.9h4.1c1.2,0,2.3,0.6,2.9,1.5l2.7,4c0.4,0.6,0.6,1.3,0.6,2v6h1.1
					c0.2,0,0.4,0.2,0.4,0.4V792.5z"/>
				<circle class="figure st20" cx="904.7" cy="793.5" r="1.4"/>
			</g>
		</g>
	</g>
	<g class="info-energy">
		<g class="nbr">
			<text transform="matrix(1 0 0 1 890.5797 931.9763)" class="st4 st5 st6">287,5</text>
		</g>
		<g class="icon">
			<circle class="st21" cx="911" cy="957" r="23.5"/>
			<path class="figure st20" d="M911,934.5c-12.4,0-22.5,10.1-22.5,22.5s10.1,22.5,22.5,22.5s22.5-10.1,22.5-22.5S923.4,934.5,911,934.5z
				 M919.2,955.2l-9,17.8c-0.2,0.3-0.5,0.5-0.8,0.5c-0.1,0-0.2,0-0.3,0c-0.4-0.1-0.7-0.5-0.6-0.9l1.4-12h-6.6
				c-0.3,0-0.6-0.2-0.7-0.5c-0.2-0.3-0.2-0.6,0-0.9l9-18.2c0.2-0.3,0.5-0.5,0.8-0.5c0.1,0,0.2,0,0.3,0c0.4,0.1,0.7,0.6,0.6,1
				l-1.4,12.5h6.7c0.3,0,0.6,0.1,0.7,0.4C919.4,954.6,919.4,954.9,919.2,955.2z"/>
		</g>
	</g>

	<!-- Infos Between --> 
	<g id="btw-farming" class="info-farming">
		<line class="st36" x1="540" y1="576.5" x2="599" y2="576.5"/>
		<line class="st37" x1="858" y1="651.2" x2="799" y2="651.2"/>
		<g>
			<line class="st38" x1="540" y1="549.8" x2="540" y2="603.3"/>
			<line class="st39" x1="542" y1="549.8" x2="532" y2="549.8"/>
			<line class="st39" x1="542" y1="603.3" x2="532" y2="603.3"/>
		</g>
		<g>
			<line class="st40" x1="858" y1="678.3" x2="858" y2="624.1"/>
			<line class="st41" x1="856" y1="678.3" x2="866" y2="678.3"/>
			<line class="st41" x1="856" y1="624.1" x2="866" y2="624.1"/>
		</g>
		<g>
			<path class="st42" d="M794,701.4H604c-2.8,0-5-2.2-5-5v-165c0-2.8,2.2-5,5-5h190c2.8,0,5,2.2,5,5v165
				C799,699.1,796.8,701.4,794,701.4z"/>
			<linearGradient id="SVGID_1" gradientUnits="userSpaceOnUse" x1="598" y1="538.856" x2="800" y2="538.856">
				<stop  offset="0" style="stop-color:#777777"/>
				<stop  offset="1" style="stop-color:#55ADBA"/>
			</linearGradient>
			<path class="st43" d="M794,701.4H604c-2.8,0-5-2.2-5-5v-165c0-2.8,2.2-5,5-5h190c2.8,0,5,2.2,5,5v165
				C799,699.1,796.8,701.4,794,701.4z"/>
			<text transform="matrix(1 0 0 1 615.8729 550.8551)"><tspan x="0" y="0" class="st20 st6">Um die Klimaziele 2020 </tspan><tspan x="-3.4" y="19.2" class="st20 st6">im Gebäudesektor  noch </tspan><tspan x="5.1" y="38.4" class="st20 st6">zu erreichen, müssten </tspan><tspan x="9.5" y="57.6" class="st20 st6">jährlich rund 3.5 Mil</tspan><tspan x="151.6" y="57.6" class="st20 st6">-</tspan><tspan x="1.2" y="76.8" class="st20 st6">lionen Wohnungen mit </tspan><tspan x="-2" y="96" class="st20 st6">einer Größe von 100 m2 </tspan><tspan x="-1.5" y="115.2" class="st20 st6">auf Passivhausstandard </tspan><tspan x="20.2" y="134.4" class="st20 st6">gebracht werden.</tspan></text>
		</g>
	</g>
	<g id="btw-building" class="info-building">
		<line class="st44" x1="540" y1="638.4" x2="599" y2="638.4"/>
		<line class="st45" x1="858" y1="703.6" x2="799" y2="703.6"/>
		<g>
			<line class="st46" x1="858" y1="728.9" x2="858" y2="678.3"/>
			<line class="st47" x1="856" y1="728.9" x2="866" y2="728.9"/>
			<line class="st47" x1="856" y1="678.3" x2="866" y2="678.3"/>
		</g>
		<g>
			<path class="st42" d="M794,746H604c-2.8,0-5-2.2-5-5V601c0-2.8,2.2-5,5-5h190c2.8,0,5,2.2,5,5v140C799,743.8,796.8,746,794,746z"/>
			<linearGradient id="SVGID_2" gradientUnits="userSpaceOnUse" x1="598" y1="596.0165" x2="800" y2="596.0165">
				<stop  offset="0" style="stop-color:#666666"/>
				<stop  offset="1" style="stop-color:#4995A0"/>
			</linearGradient>
			<path class="st48" d="M794,746H604c-2.8,0-5-2.2-5-5V601c0-2.8,2.2-5,5-5h190c2.8,0,5,2.2,5,5v140C799,743.8,796.8,746,794,746z"/>
			<text transform="matrix(1 0 0 1 630.721 618.5759)" class="st20 st6">Es müssten jährlich </text>
			<text transform="matrix(1 0 0 1 628.3768 637.7761)" class="st20 st6">3.416.667 Millionen </text>
			<text transform="matrix(1 0 0 1 621.3528 656.9763)" class="st20 st6">Wohnungen mit einer </text>
			<text transform="matrix(1 0 0 1 622.452 676.1765)" class="st20 st6">Größe von 100 m</text>
			<text transform="matrix(0.583 0 0 0.583 743.908 670.8483)" class="st20 st6">2</text>
			<text transform="matrix(1 0 0 1 749.0848 676.1765)" class="st20 st6"> auf </text>
			<text transform="matrix(1 0 0 1 614.4891 695.3766)" class="st20 st6">Passivhausstandard ge</text>
			<text transform="matrix(1 0 0 1 778.3611 695.3766)" class="st20 st6">-</text>
			<text transform="matrix(1 0 0 1 617.7689 714.5759)" class="st20 st6">bracht werden, um das </text>
			<text transform="matrix(1 0 0 1 618.8968 733.7761)" class="st20 st6">Ziel noch zu erreichen.</text>
		</g>
		<g>
			<line class="st49" x1="540" y1="603.3" x2="540" y2="673.6"/>
			<line class="st50" x1="542" y1="603.3" x2="532" y2="603.3"/>
			<line class="st50" x1="542" y1="673.6" x2="532" y2="673.6"/>
		</g>
	</g>
	<g id="btw-transport" class="info-transport">
		<line class="st36" x1="540" y1="738.1" x2="599" y2="738.1"/>
		<line class="st37" x1="858" y1="785.5" x2="799" y2="785.5"/>
		<g>
			<line class="st40" x1="858" y1="842" x2="858" y2="728.9"/>
			<line class="st41" x1="856" y1="842" x2="866" y2="842"/>
			<line class="st41" x1="856" y1="728.9" x2="866" y2="728.9"/>
		</g>
		<g>
			<path class="st42" d="M794,811.8H604c-2.8,0-5-2.2-5-5v-90c0-2.8,2.2-5,5-5h190c2.8,0,5,2.2,5,5v90
				C799,809.5,796.8,811.8,794,811.8z"/>
			<path class="st43" d="M794,811.8H604c-2.8,0-5-2.2-5-5v-90c0-2.8,2.2-5,5-5h190c2.8,0,5,2.2,5,5v90
				C799,809.5,796.8,811.8,794,811.8z"/>
			<text transform="matrix(1 0 0 1 610.0809 736.5759)"><tspan x="0" y="0" class="st20 st6">Um das Ziel zu erreichen, </tspan><tspan x="7.4" y="19.2" class="st20 st6">müssten drei Millionen </tspan><tspan x="9.4" y="38.4" class="st20 st6">Opel-Zafira-Fahrer auf </tspan><tspan x="1.7" y="57.6" class="st20 st6">Elektroautos umsteigen.</tspan></text>
		</g>
		<g>
			<line class="st38" x1="540" y1="673.6" x2="540" y2="806.4"/>
			<line class="st39" x1="542" y1="673.6" x2="532" y2="673.6"/>
			<line class="st39" x1="542" y1="806.4" x2="532" y2="806.4"/>
		</g>
	</g>
	<g id="btw-energy" class="info-energy">
		<line class="st44" x1="540" y1="938.8" x2="599" y2="938.8"/>
		<line class="st45" x1="858" y1="957" x2="799" y2="957"/>
		<g>
			<line class="st46" x1="858" y1="1072" x2="858" y2="842"/>
			<line class="st47" x1="856" y1="1072" x2="866" y2="1072"/>
			<line class="st47" x1="856" y1="842" x2="866" y2="842"/>
		</g>
		<g>
			<path class="st42" d="M794,1014.4H604c-2.8,0-5-2.2-5-5v-123c0-2.8,2.2-5,5-5h190c2.8,0,5,2.2,5,5v123
				C799,1012.2,796.8,1014.4,794,1014.4z"/>
			<path class="st48" d="M794,1014.4H604c-2.8,0-5-2.2-5-5v-123c0-2.8,2.2-5,5-5h190c2.8,0,5,2.2,5,5v123
				C799,1012.2,796.8,1014.4,794,1014.4z"/>
			<text transform="matrix(1 0 0 1 612.1609 905.2473)"><tspan x="0" y="0" class="st20 st6">Um das Ziel zu erreichen </tspan><tspan x="10.8" y="19.2" class="st20 st6">müssten jährlich acht </tspan><tspan x="15.3" y="38.4" class="st20 st6">Millionen Haushalte </tspan><tspan x="9.3" y="57.6" class="st20 st6">ihren Strombezug auf </tspan><tspan x="6" y="76.8" class="st20 st6">hundert Prozent Ökos</tspan><tspan x="162.6" y="76.8" class="st20 st6">-</tspan><tspan x="30.2" y="96" class="st20 st6">trom umstellen.</tspan></text>
		</g>
		<g>
			<line class="st49" x1="540" y1="806.4" x2="540" y2="1072"/>
			<line class="st50" x1="542" y1="806.4" x2="532" y2="806.4"/>
			<line class="st50" x1="542" y1="1072" x2="532" y2="1072"/>
		</g>
	</g>
	<!-- Infos Between END --> 

	<g id="txt-eco">
		<text transform="matrix(1 0 0 1 530.6602 280.1909)"><tspan x="0" y="0" class="st21 font-norm st6">Total Emissionen</tspan><tspan x="-12.3" y="16" class="st21 font-norm st6">Einsparung pro Jahr:</tspan><tspan id="span-nbr-1" x="-17.4" y="32" class="st21 st5 st6">27,85</tspan><tspan id="span-nbr-2" x="22.5" y="32" class="st21 st5 st6"> Mio Tonnen CO</tspan><tspan id="span-nbr-3" x="137.5" y="32" class="st21 st5 st23">2</tspan>
		<tspan id="span-nbr-roll" x="-17.4" y="32" class="st21 st5 st6">39</tspan> <!-- this change from 28 to 39 -->
		</text>
		<line class="st24" x1="593" y1="316.2" x2="593" y2="324.2"/>
	</g>
	<line id="line-top-2014" class="st24" x1="275" y1="324.2" x2="275" y2="332.2"/>
	<line id="line-top-2015" class="st24" x1="381" y1="324.2" x2="381" y2="354.5"/>
	<line id="line-top-2016" class="st24" x1="487" y1="324.2" x2="487" y2="376.8"/>
	<line id="line-top-2017" class="st24" x1="593" y1="324.2" x2="593" y2="399.1"/>
	<line id="line-top-2018" class="st24" x1="699" y1="324.2" x2="699" y2="421.4"/>
	<line id="line-top-2019" class="st24" x1="805" y1="324.2" x2="805" y2="443.7"/>
	<line id="line-still-2020" class="st24" x1="911" y1="324.2" x2="911" y2="394.7"/>
	<line id="line-horizontal" class="st24" x1="911" y1="324.2" x2="275" y2="324.2"/>
	<g id="txt-co2-2013">
		<text transform="matrix(1 0 0 1 106.6626 272.9761)"><tspan x="0" y="0" class="st8 font-norm st6">Total Emissionen</tspan><tspan x="-10.8" y="16" class="st8 st5 st6">945 Mio Tonnen CO</tspan><tspan x="130.9" y="16" class="st8 st5 st23">2</tspan></text>
		<line class="st25" x1="169" y1="310" x2="169" y2="293"/>
		<line class="st26" x1="97" y1="293" x2="241" y2="293"/>
	</g>
	<g id="txt-co2-2016">
		<text transform="matrix(1 0 0 1 424.6621 304.1763)"><tspan x="0" y="0" class="st8 font-norm st6">Total Emissionen</tspan><tspan x="-10.8" y="16" class="st8 st5 st6">906 Mio Tonnen CO</tspan><tspan x="130.9" y="16" class="st8 st5 st23">2</tspan></text>
		<line class="st26" x1="415" y1="324.2" x2="559" y2="324.2"/>
	</g>
	<g id="txt-co2-2020">
		<text transform="matrix(1 0 0 1 862.9902 412.9761)"><tspan x="0" y="0" class="st20 st5 st6">Ziel für 2020:</tspan><tspan x="-25.1" y="16" class="st20 st5 st6">750 Mio Tonnen CO</tspan><tspan x="116.5" y="16" class="st20 st5 st23">2</tspan><tspan x="-14.3" y="32" class="st20 font-norm st6">Total Emissionen</tspan></text>
		<line class="st27" x1="911" y1="466" x2="911" y2="449"/>
		<line class="st28" x1="849" y1="449" x2="973" y2="449"/>
	</g>

	<g id="txt">
		<text transform="matrix(1 0 0 1 150.6431 1098.6655)" class="st8 st5 st6">2013</text>
		<text transform="matrix(1 0 0 1 256.6426 1098.6655)" class="st21 st5 st6">2014</text>
		<text transform="matrix(1 0 0 1 362.6436 1098.6655)" class="st21 st5 st6">2015</text>
		<text transform="matrix(1 0 0 1 468.6406 1098.6655)" class="st8 st5 st6">2016</text>
		<text transform="matrix(1 0 0 1 568.6406 1098.6655)" class="st21 st5 st6">2017</text>
		<text transform="matrix(1 0 0 1 674.6406 1098.6655)" class="st21 st5 st6">2018</text>
		<text transform="matrix(1 0 0 1 780.6406 1098.6655)" class="st21 st5 st6">2019</text>
		<text transform="matrix(1 0 0 1 892.6421 1098.6655)" class="st21 st5 st6">2020</text>
		<line class="st29" x1="92" y1="1072" x2="972.5" y2="1072"/>
		<g>
			<text transform="matrix(1 0 0 1 70.8203 1072.9985)" class="st30 st5 st6">0</text>
			<text transform="matrix(1 0 0 1 52.4609 993.1089)" class="st30 st5 st6">100</text>
			<text transform="matrix(1 0 0 1 52.4609 913.2183)" class="st30 st5 st6">200</text>
			<text transform="matrix(1 0 0 1 52.4609 833.3276)" class="st30 st5 st6">300</text>
			<text transform="matrix(1 0 0 1 52.4609 753.3276)" class="st30 st5 st6">400</text>
			<text transform="matrix(1 0 0 1 52.4609 673.3276)" class="st30 st5 st6">500</text>
			<text transform="matrix(1 0 0 1 52.4609 593.3276)" class="st30 st5 st6">600</text>
			<text transform="matrix(1 0 0 1 52.4609 513.3276)" class="st30 st5 st6">700</text>
			<text transform="matrix(1 0 0 1 52.4609 433.3276)" class="st30 st5 st6">800</text>
			<text transform="matrix(1 0 0 1 52.4609 353.3276)" class="st30 st5 st6">900</text>
			<text transform="matrix(1 0 0 1 38.625 273.3286)" class="st30 st5 st6">1.000</text>
		</g>
		<g>
			<line class="st29" x1="92" y1="1073" x2="92" y2="271"/>
			<line class="st29" x1="92" y1="1032" x2="97" y2="1032"/>
			<line class="st29" x1="92" y1="992" x2="102" y2="992"/>
			<line class="st29" x1="92" y1="952" x2="97" y2="952"/>
			<line class="st29" x1="92" y1="912" x2="102" y2="912"/>
			<line class="st29" x1="92" y1="872" x2="97" y2="872"/>
			<line class="st29" x1="92" y1="832" x2="102" y2="832"/>
			<line class="st29" x1="92" y1="792" x2="97" y2="792"/>
			<line class="st29" x1="92" y1="752" x2="102" y2="752"/>
			<line class="st29" x1="92" y1="712" x2="97" y2="712"/>
			<line class="st29" x1="92" y1="672" x2="102" y2="672"/>
			<line class="st29" x1="92" y1="632" x2="97" y2="632"/>
			<line class="st29" x1="92" y1="592" x2="102" y2="592"/>
			<line class="st29" x1="92" y1="552" x2="97" y2="552"/>
			<line class="st29" x1="92" y1="512" x2="102" y2="512"/>
			<line class="st29" x1="92" y1="472" x2="97" y2="472"/>
			<line class="st29" x1="92" y1="432" x2="102" y2="432"/>
			<line class="st29" x1="92" y1="392" x2="97" y2="392"/>
			<line class="st29" x1="92" y1="352" x2="102" y2="352"/>
			<line class="st29" x1="92" y1="312" x2="97" y2="312"/>
			<line class="st29" x1="92" y1="272" x2="102" y2="272"/>
		</g>
		<g>
			<polyline id="anzahl-arrow_1_" class="st29" points="47.9,232.3 66.9,245.3 86.1,232.3"/>
			<text transform="matrix(1 0 0 1 14.5234 208.3833)"><tspan x="0" y="0" class="st30 font-norm st6">Emissionen in </tspan><tspan x="-6.2" y="16" class="st30 st6">Mio. Tonnen C0</tspan><tspan x="106.6" y="16" class="st30 st23">2</tspan></text>
		</g>

		<g id="infotext">
			<g id="pop-info">
				<circle class="st31" cx="872" cy="184.4" r="21"/>
				<path class="st32" d="M872,164.4c-11,0-20,9-20,20s9,20,20,20s20-9,20-20S883,164.4,872,164.4z M874.3,195.6h-4.6
				v-16.9h4.6V195.6z M874.3,174.6h-4.6v-3.4h4.6V174.6z"/>
			</g>
			<g id="info-line">
				<g>
					<path class="st42" d="M967,282.4H777c-5.5,0-10-4.5-10-10v-46c0-5.5,4.5-10,10-10h190c5.5,0,10,4.5,10,10v46
					C977,277.9,972.5,282.4,967,282.4z"/>
					<path class="st22" d="M967.6,282.4H776.4c-5.2,0-9.4-4.5-9.4-10v-46c0-5.5,4.2-10,9.4-10h191.3c5.2,0,9.4,4.5,9.4,11v46
					C977,277.9,972.8,282.4,967.6,282.4z"/>
				</g>
				<text transform="matrix(1 0 0 1 785.082 235.392)"><tspan x="0" y="0" class="font-norm st30 st6">Für mehr Informationen,</tspan><tspan x="-5.4" y="19.2" class="font-norm st30 st6">passen Sie die Maus über </tspan><tspan x="-4.3" y="38.4" class="font-norm st30 st6">die Ikone auf die Grafiken</tspan></text>
			</g>
		</g>

		<!-- Icons under title -->
		<g>
		<g>
			<text transform="matrix(1 0 0 1 626.0114 224.3555)" class="st8 st5 st6">Landwirtschaft</text>
			<g id="icon-farming">
				<g class="icon">
					<circle class="st4" cx="680" cy="184.4" r="22.5"/>
					<g>
						<path class="figure st8" d="M679.1,173.3h-3.6v6.5c1.9,0,4.1,0,6.1,0c-0.4-2-1-4.5-1.1-5.4C680.2,173.3,679.8,173.3,679.1,173.3z"/>
						<circle class="figure st8" cx="673.1" cy="189.4" r="3.3"/>
						<path class="figure st8" d="M669.8,174.2c-0.1,0.8-0.3,3.6-0.5,5.6c1,0,2.9,0,5.2,0v-6.5h-3.7C670.1,173.3,669.9,173.3,669.8,174.2z"
							/>
						<path class="figure st8" d="M680,161.9c-12.4,0-22.5,10.1-22.5,22.5s10.1,22.5,22.5,22.5s22.5-10.1,22.5-22.5S692.4,161.9,680,161.9z
							 M678.5,194.6c-1.4,1.3-3.3,2-5.4,2c-2.1,0-4-0.7-5.4-2c-1.5-1.3-2.3-3.2-2.3-5.2c0-4.2,3.4-7.3,7.7-7.3c4.2,0,7.7,3,7.7,7.3
							C680.8,191.4,680,193.3,678.5,194.6z M681.5,190.6c0.1-0.4,0.1-0.8,0.1-1.2c0-2.2-0.9-4.3-2.5-5.8c-1.6-1.5-3.7-2.3-6-2.3
							c-1.5,0-3,0.4-4.3,1.1c0,0,0,0,0,0c-0.1,0.1-0.3,0.1-0.4,0.1c-0.3,0-0.6-0.3-0.6-0.7c0-0.1,0.6-6.5,0.7-7.8c0.2-2,1.6-2,2.2-2
							h8.4c0.7,0,2.1,0,2.6,2.1c0.2,1.2,0.8,3.7,1.2,5.6c2.2,0,4.2,0,5.7,0v-3.1c0-0.5,0.4-0.8,0.8-0.8s0.8,0.4,0.8,0.8v3.1
							c0.8,0,1.3,0,1.4,0c2.4,0,3.1,5.2,1.8,7.5c-1.1-1.2-2.8-2-4.5-2c-3.1,0-5.7,2.3-6.2,5.3H681.5z M692.7,195.2
							c-1,0.9-2.4,1.4-3.8,1.4c-1.5,0-2.8-0.5-3.8-1.4c-1-0.9-1.6-2.3-1.6-3.7c0-3,2.4-5.4,5.4-5.4c3,0,5.4,2.4,5.4,5.4
							C694.3,193,693.7,194.3,692.7,195.2z"/>
						<circle class="figure st8" cx="688.9" cy="191.5" r="2.3"/>
					</g>
				</g>
			</g>
		</g>
		<g>
			<text transform="matrix(1 0 0 1 528.34 224.3555)" class="st8 st5 st6">Gebäude</text>
			<g id="icon-building">
				<g class="icon">
					<circle class="st4" cx="560" cy="184.4" r="22.5"/>
					<path class="figure st8" d="M560,161.9c-12.4,0-22.5,10.1-22.5,22.5c0,12.4,10.1,22.5,22.5,22.5s22.5-10.1,22.5-22.5
						C582.5,171.9,572.4,161.9,560,161.9z M570.2,173.1v5.5l-2.6-2.2l0-3.2H570.2z M569.4,193.6c0,0,0,0.8-0.7,0.8
						c-0.9,0-6.7,0-6.7,0l0-5.6c0,0,0.1-0.9-1-0.9h-2.8c-0.9,0-0.8,0.9-0.8,0.9l0,5.6c0,0-6.1,0-6.8,0c-0.6,0-0.6-0.6-0.6-0.6v-10.5
						l10-8.4l9.4,8.4V193.6z M570.4,182.4l-10.3-9.3l-11,9.3c-1.8,1.6-2.7,0-2.7,0l13.7-12.1l13.3,12
						C573.4,182.4,572.6,184,570.4,182.4z"/>
				</g>
			</g>
		</g>
		<g>
			<text transform="matrix(1 0 0 1 412.0392 224.3555)" class="st8 st5 st6">Verkehr</text>
			<g id="icon-transport">
				<g class="icon">
					<circle class="st4" cx="440" cy="184.4" r="22.5"/>
					<g>
						<ellipse class="figure st8" cx="448" cy="192.4" rx="1.4" ry="1.4"/>
						<path class="figure st8" d="M448.9,178.8c-0.1-0.1-0.2-0.2-0.4-0.2h-3.3c-0.2,0-0.4,0.2-0.4,0.4v3c0,0.2,0.2,0.4,0.4,0.4h5.5
							c0.4,0,0.6-0.4,0.4-0.7L448.9,178.8z"/>
						<path class="figure st8" d="M440,161.9c-12.4,0-22.5,10.1-22.5,22.5c0,12.4,10.1,22.5,22.5,22.5s22.5-10.1,22.5-22.5
							C462.5,171.9,452.4,161.9,440,161.9z M433.7,176.9c0-0.5,0.4-0.9,0.9-0.9h6.1c0.5,0,0.9,0.4,0.9,0.9v3.9c0,0.5-0.4,0.9-0.9,0.9
							h-6.1c-0.5,0-0.9-0.4-0.9-0.9V176.9z M424.5,176.9c0-0.5,0.4-0.9,0.9-0.9h6.1c0.5,0,0.9,0.4,0.9,0.9v3.9c0,0.5-0.4,0.9-0.9,0.9
							h-6.1c-0.5,0-0.9-0.4-0.9-0.9V176.9z M424.5,187.9v-3.9c0-0.5,0.4-0.9,0.9-0.9h15.3c0.5,0,0.9,0.4,0.9,0.9v3.9
							c0,0.5-0.4,0.9-0.9,0.9h-15.3C424.9,188.7,424.5,188.4,424.5,187.9z M425.2,191.8c-0.2,0-0.4-0.2-0.4-0.4v-1.3
							c0-0.2,0.2-0.4,0.4-0.4h6.1c-0.6,0.6-1.1,1.3-1.2,2.2H425.2z M433.7,195.1c-1.5,0-2.7-1.2-2.7-2.7c0-1.5,1.2-2.7,2.7-2.7
							c1.5,0,2.7,1.2,2.7,2.7C436.4,193.9,435.2,195.1,433.7,195.1z M448,195.1c-1.5,0-2.7-1.2-2.7-2.7c0-1.5,1.2-2.7,2.7-2.7
							c1.5,0,2.7,1.2,2.7,2.7C450.7,193.9,449.5,195.1,448,195.1z M455.5,191.4c0,0.2-0.2,0.4-0.4,0.4h-3.5c-0.3-1.7-1.8-3.1-3.6-3.1
							c-1.8,0-3.3,1.3-3.6,3.1h-7.2c-0.1-0.9-0.6-1.7-1.2-2.2h6.8v-12.5c0-0.5,0.4-0.9,0.9-0.9h4.1c1.2,0,2.3,0.6,2.9,1.5l2.7,4
							c0.4,0.6,0.6,1.3,0.6,2v6h1.1c0.2,0,0.4,0.2,0.4,0.4V191.4z"/>
						<circle class="figure st8" cx="433.7" cy="192.4" r="1.4"/>
					</g>
				</g>
			</g>
		</g>
		<g>
			<text transform="matrix(1 0 0 1 292.9717 224.3555)" class="st8 st5 st6">Energie</text>
			<g id="icon-energy">
				<g class="icon">
					<circle class="st4" cx="320" cy="184.4" r="22.5"/>
					<path class="figure st8" d="M320,161.9c-12.4,0-22.5,10.1-22.5,22.5s10.1,22.5,22.5,22.5s22.5-10.1,22.5-22.5S332.4,161.9,320,161.9z
					 M328.2,182.6l-9,17.8c-0.2,0.3-0.5,0.5-0.8,0.5c-0.1,0-0.2,0-0.3,0c-0.4-0.1-0.7-0.5-0.6-0.9l1.4-12h-6.6
					c-0.3,0-0.6-0.2-0.7-0.5c-0.2-0.3-0.2-0.6,0-0.9l9-18.2c0.2-0.3,0.5-0.5,0.8-0.5c0.1,0,0.2,0,0.3,0c0.4,0.1,0.7,0.6,0.6,1
					l-1.4,12.5h6.7c0.3,0,0.6,0.1,0.7,0.4C328.4,182,328.4,182.3,328.2,182.6z"/>
				</g>
			</g>
		</g>
	</g>
		<text transform="matrix(1 0 0 1 211.4844 51.3994)" class="st30 st34 st35">Was du heute kannst besorgen…</text>
		
		<text transform="matrix(1 0 0 1 233.4196 89)"><tspan x="0" y="0" class="st30 st34">...das verschiebe nicht auf die nächste Legislaturperiode.  </tspan><tspan x="-52.1" y="25.2" class="st30 st34">Weil die GroKo geschlafen hat, muss die nächste Regierung bis 2020  </tspan><tspan x="-36.1" y="50.4" class="st30 st34">umso mehr Emissionen einsparen, um das Ziel noch zu erreichen.</tspan></text>

		<text transform="matrix(0.9977 0 0 1 102 1203.5779)"><tspan x="0" y="0" class="st30 st34">Da es keine Sektorziele für das Jahr 2020 gibt, sind hier die von der Bundesregierung im  </tspan><tspan x="0" y="25.2" class="st30 st34">Projektionsbericht 2015 angeführten maximal möglichen Reduktionen bis 2020 aufgeführt - </tspan><tspan x="0" y="50.4" class="st30 st34">laut dem Bericht hätte damit unter bestimmten Annahmen das 40-Prozent-Ziel erreicht </tspan><tspan x="0" y="75.6" class="st30 st34">werden können. Das Aktionsprogramm Klimaschutz 2020 wurde erst Ende 2014 vom Kabinett</tspan><tspan x="0" y="100.8" class="st30 st34">beschlossen. Streng genommen gab es also 2013 das Einsparziel für 2020 noch gar nicht.</tspan></text>
		<line class="st29" x1="92" y1="1188.7" x2="92" y2="1304.5"/>

		<text transform="matrix(1 0 0 1 135 1345)" class="font-norm st54 st6">Quellen: Emissionsdaten 2013 und 2016: UBA, Projektion 2020: Projektionsbericht 2015, Tabelle 1-3 (S. 24)</text>
	</g>
</g>


<!-- Reference graphic -->
<g id="graph-ref">
	<g id="graph-2016-ref">
		<line class="st8" x1="487" y1="1072" x2="487" y2="347.2"/>
		<line class="st7" x1="487" y1="1072" x2="487" y2="549.8"/>
		<line class="st9" x1="487" y1="1072" x2="487" y2="603.3"/>
		<line class="st7" x1="487" y1="1072" x2="487" y2="673.6"/>
		<line class="st9" x1="487" y1="1072" x2="487" y2="806.4"/>
	</g>
	<g id="graph-2017-ref">
		<line class="st13" x1="593" y1="1072" x2="593" y2="378.4"/>
		<line class="st14" x1="593" y1="1072" x2="593" y2="568.4"/>
		<line class="st15" x1="593" y1="1072" x2="593" y2="622"/>
		<line class="st14" x1="593" y1="1072" x2="593" y2="687.4"/>
		<line class="st15" x1="593" y1="1072" x2="593" y2="815.3"/>
	</g>
	<g id="graph-2018-ref">
		<line class="st13" x1="699" y1="1072" x2="699" y2="409.6"/>
		<line class="st14" x1="699" y1="1072" x2="699" y2="586.9"/>
		<line class="st15" x1="699" y1="1072" x2="699" y2="640.8"/>
		<line class="st14" x1="699" y1="1072" x2="699" y2="701.3"/>
		<line class="st15" x1="699" y1="1072" x2="699" y2="824.1"/>
	</g>
	<g id="graph-2019-ref">
		<line class="st13" x1="805" y1="1072" x2="805" y2="440.8"/>
		<line class="st14" x1="805" y1="1072" x2="805" y2="605.3"/>
		<line class="st15" x1="805" y1="1072" x2="805" y2="659.5"/>
		<line class="st14" x1="805" y1="1072" x2="805" y2="715.1"/>
		<line class="st15" x1="805" y1="1072" x2="805" y2="833.3"/>
	</g>
	<line id="line-top-2016-ref" class="st25" x1="487" y1="325.2" x2="487" y2="341.2"/>
	<line id="line-top-2017-ref" class="st24" x1="593" y1="324.2" x2="593" y2="372.4"/>
	<line id="line-top-2018-ref" class="st24" x1="699" y1="324.2" x2="699" y2="403.6"/>
	<line id="line-top-2019-ref" class="st24" x1="805" y1="324.2" x2="805" y2="434.8"/>
	<line id="line-horizontal-ref" class="st24" x1="911" y1="324.2" x2="593" y2="324.2"/>
	<g id="txt-eco-ref">
		<text transform="matrix(1 0 0 1 689.6602 280.1909)"><tspan x="0" y="0" class="st21 font-norm st6">Total Emissionen</tspan><tspan x="-12.3" y="16" class="st21 font-norm st6">Einsparung pro Jahr:</tspan><tspan x="-6.2" y="32" class="st21 st5 st6">39 Mio Tonnen CO</tspan><tspan x="126.3" y="32" class="st21 st5 st23">2</tspan></text>
		<line class="st24" x1="752" y1="241.2" x2="752" y2="249.2"/>
	</g>
</g>


</svg>
