<?xml version="1.0" encoding="utf-8"?>
<!-- Generator: Adobe Illustrator 21.0.0, SVG Export Plug-In . SVG Version: 6.00 Build 0)  -->
<svg version="1.1" id="oil-nbr1" xmlns="http://www.w3.org/2000/svg" xmlns:xlink="http://www.w3.org/1999/xlink" x="0px" y="0px"
	 viewBox="0 0 500 500" style="enable-background:new 0 0 500 500;" xml:space="preserve">
<style type="text/css">
	.st0{fill:#FFFFFF;stroke:#FC6269;stroke-miterlimit:10;}
	.st1{fill:#555555;}
	.st2{opacity:0.25;}
	.st3{fill:#7AB440;}
	.st4{fill:#FFFFFF;}
	.st5{fill:#FC6269;}
</style>
<g id="oil-nbr-1">
	<path id="shape" class="st0" d="M143.6,184.5h-40c-2.8,0-5,2.3-5,5v6.8c0,2.8,2.3,5,5,5h13.2l2.9,2.8l3.9,3.8l3.9-3.8l2.9-2.8h13.2
		c2.8,0,5-2.3,5-5v-6.8C148.6,186.8,146.3,184.5,143.6,184.5z"/>
</g>
<g id="oil-nbr-2">
	<path id="shape_1_" class="st0" d="M185.7,188.9h-40c-2.8,0-5,2.3-5,5v6.8c0,2.8,2.3,5,5,5h13.2l2.9,2.8l3.9,3.8l3.9-3.8l2.9-2.8
		h13.2c2.8,0,5-2.3,5-5v-6.8C190.7,191.1,188.4,188.9,185.7,188.9z"/>
	<g>
		<path class="st1" d="M146.8,194.8v-1.3h4.9l-2.2,3c1.3,0.1,2.1,1.1,2.1,2.4c0,1.6-1.1,2.7-2.7,2.7c-0.9,0-1.7-0.4-2.1-1.1
			c-0.2-0.4-0.3-0.7-0.4-1.3h1.4c0.1,0.6,0.5,1,1.1,1c0.7,0,1.2-0.5,1.2-1.2s-0.5-1.2-1.2-1.2c-0.3,0-0.5,0.1-0.7,0.2l-0.9-0.7
			l1.8-2.4L146.8,194.8L146.8,194.8z"/>
		<path class="st1" d="M155.2,198.3c-0.2,0-0.3,0-0.4,0c-1.3,0-2.3-1-2.3-2.4c0-1.5,1.2-2.6,2.7-2.6s2.6,1.1,2.6,2.6
			c0,0.7-0.3,1.4-0.9,2.4l-2,3.1h-1.7L155.2,198.3z M154,195.9c0,0.6,0.5,1.2,1.1,1.2s1.2-0.5,1.2-1.1s-0.5-1.2-1.1-1.2
			C154.5,194.8,154,195.3,154,195.9z"/>
		<path class="st1" d="M160.4,196.6c0.4-0.2,0.6-0.2,1-0.2c1.3,0,2.3,1.1,2.3,2.5c0,1.6-1.1,2.7-2.6,2.7c-0.7,0-1.4-0.3-1.8-0.7
			c-0.3-0.3-0.4-0.5-0.7-1.1l1.3-0.5c0.2,0.6,0.6,0.9,1.1,0.9c0.7,0,1.2-0.5,1.2-1.2s-0.5-1.2-1.2-1.2c-0.4,0-0.7,0.2-1,0.5h-1v-4.7
			h4.1v1.4h-2.7L160.4,196.6L160.4,196.6z"/>
		<path class="st1" d="M166.6,200.8c0,0.5-0.4,0.9-0.9,0.9s-0.9-0.4-0.9-0.9s0.4-0.9,0.9-0.9C166.2,199.9,166.6,200.2,166.6,200.8z"
			/>
		<path class="st1" d="M172.7,199c0,0.9-0.2,1.5-0.7,1.9c-0.4,0.4-1.1,0.6-1.8,0.6c-0.8,0-1.5-0.2-1.9-0.7c-0.4-0.4-0.6-1-0.6-2.3
			v-2.6c0-1,0.2-1.6,0.5-2c0.4-0.5,1.1-0.7,1.9-0.7c0.7,0,1.4,0.2,1.8,0.6c0.5,0.5,0.7,1,0.7,2v3.2H172.7z M169.3,198.9
			c0,0.6,0,0.8,0.2,1s0.5,0.4,0.8,0.4s0.6-0.2,0.8-0.4c0.1-0.2,0.2-0.4,0.2-1v-2.8c0-0.5-0.1-0.8-0.2-1c-0.2-0.2-0.4-0.3-0.7-0.3
			c-0.4,0-0.7,0.1-0.8,0.4c-0.1,0.2-0.2,0.4-0.2,0.9v2.8H169.3z"/>
		<path class="st1" d="M176.2,196.7c0.2-0.1,0.3-0.1,0.4-0.1c1.2,0,2.2,1.1,2.2,2.4c0,1.5-1.2,2.7-2.7,2.7c-1.4,0-2.5-1.1-2.5-2.6
			c0-0.7,0.2-1.4,0.9-2.4l2-3.1h1.8L176.2,196.7z M175.1,199c0,0.7,0.5,1.2,1.1,1.2s1.2-0.5,1.2-1.2s-0.5-1.2-1.1-1.2
			C175.6,197.9,175.1,198.4,175.1,199z"/>
		<path class="st1" d="M179.9,194.8v-1.3h4.9l-2.2,3c1.3,0.1,2.1,1.1,2.1,2.4c0,1.6-1.1,2.7-2.7,2.7c-0.9,0-1.7-0.4-2.1-1.1
			c-0.2-0.4-0.3-0.7-0.4-1.3h1.4c0.1,0.6,0.5,1,1.1,1c0.7,0,1.2-0.5,1.2-1.2s-0.5-1.2-1.2-1.2c-0.3,0-0.5,0.1-0.7,0.2l-0.9-0.7
			l1.8-2.4L179.9,194.8L179.9,194.8z"/>
	</g>
</g>
<g id="oil-nbr-3">
	<path id="shape_2_" class="st0" d="M227.8,180.9h-40c-2.8,0-5,2.3-5,5v6.8c0,2.8,2.3,5,5,5H201l2.9,2.8l3.9,3.8l3.9-3.8l2.9-2.8
		h13.2c2.8,0,5-2.3,5-5v-6.8C232.8,183.1,230.5,180.9,227.8,180.9z"/>
	<g>
		<path class="st1" d="M188.7,191.7v-1.3l2.8-5.1h1.6v5.1h0.7v1.3h-0.7v1.6h-1.5v-1.6H188.7z M191.6,187.4l-1.7,3h1.7V187.4z"/>
		<path class="st1" d="M195.6,188.2v-1.4l3-1.6v8.2h-1.5v-6L195.6,188.2z"/>
		<path class="st1" d="M201.6,188.2v-1.4l3-1.6v8.2h-1.5v-6L201.6,188.2z"/>
		<path class="st1" d="M208.7,192.7c0,0.5-0.4,0.9-0.9,0.9s-0.9-0.4-0.9-0.9s0.4-0.9,0.9-0.9S208.7,192.1,208.7,192.7z"/>
		<path class="st1" d="M210.1,186.7v-1.3h4.9l-2.2,3c1.3,0.1,2.1,1.1,2.1,2.4c0,1.6-1.1,2.7-2.7,2.7c-0.9,0-1.7-0.4-2.1-1.1
			c-0.2-0.4-0.3-0.7-0.4-1.3h1.4c0.1,0.6,0.5,1,1.1,1c0.7,0,1.2-0.5,1.2-1.2s-0.5-1.2-1.2-1.2c-0.3,0-0.5,0.1-0.7,0.2l-0.9-0.7
			l1.8-2.4L210.1,186.7L210.1,186.7z"/>
		<path class="st1" d="M218.3,188.6c0.2-0.1,0.3-0.1,0.4-0.1c1.2,0,2.2,1.1,2.2,2.4c0,1.5-1.2,2.7-2.7,2.7c-1.4,0-2.5-1.1-2.5-2.6
			c0-0.7,0.2-1.4,0.9-2.4l2-3.1h1.8L218.3,188.6z M217.2,190.9c0,0.7,0.5,1.2,1.1,1.2s1.2-0.5,1.2-1.2s-0.5-1.2-1.1-1.2
			C217.7,189.8,217.2,190.3,217.2,190.9z"/>
		<path class="st1" d="M224.3,188.6c0.2-0.1,0.3-0.1,0.4-0.1c1.2,0,2.2,1.1,2.2,2.4c0,1.5-1.2,2.7-2.7,2.7c-1.4,0-2.5-1.1-2.5-2.6
			c0-0.7,0.2-1.4,0.9-2.4l2-3.1h1.8L224.3,188.6z M223.2,190.9c0,0.7,0.5,1.2,1.1,1.2s1.2-0.5,1.2-1.2s-0.5-1.2-1.1-1.2
			C223.7,189.8,223.2,190.3,223.2,190.9z"/>
	</g>
</g>
<g id="oil-nbr-4">
	<path id="shape_3_" class="st0" d="M270.7,167.8h-39.9c-2.8,0-5,2.3-5,5v6.8c0,2.8,2.3,5,5,5H244l2.9,2.8l3.9,3.8l3.9-3.8l2.9-2.8
		h13.2c2.8,0,5-2.3,5-5v-6.8C275.7,170.1,273.4,167.8,270.7,167.8z"/>
	<g>
		<path class="st1" d="M231.5,178.7v-1.3l2.8-5.1h1.6v5.1h0.7v1.3h-0.7v1.6h-1.5v-1.6H231.5z M234.5,174.4l-1.7,3h1.7V174.4z"/>
		<path class="st1" d="M237.8,173.7v-1.3h4.9l-2.2,3c1.3,0.1,2.1,1.1,2.1,2.4c0,1.6-1.1,2.7-2.7,2.7c-0.9,0-1.7-0.4-2.1-1.1
			c-0.2-0.4-0.3-0.7-0.4-1.3h1.4c0.1,0.6,0.5,1,1.1,1c0.7,0,1.2-0.5,1.2-1.2s-0.5-1.2-1.2-1.2c-0.3,0-0.5,0.1-0.7,0.2l-0.9-0.7
			l1.8-2.4L237.8,173.7L237.8,173.7z"/>
		<path class="st1" d="M248.6,177.9c0,0.9-0.2,1.5-0.7,1.9c-0.4,0.4-1.1,0.6-1.8,0.6c-0.8,0-1.5-0.2-1.9-0.7c-0.4-0.4-0.6-1-0.6-2.3
			V175c0-1,0.2-1.6,0.5-2c0.4-0.5,1.1-0.7,1.9-0.7c0.7,0,1.4,0.2,1.8,0.6c0.5,0.5,0.7,1,0.7,2v3H248.6z M245.1,177.7
			c0,0.6,0,0.8,0.2,1s0.5,0.4,0.8,0.4s0.6-0.2,0.8-0.4c0.1-0.2,0.2-0.4,0.2-1v-2.8c0-0.5-0.1-0.8-0.2-1c-0.2-0.2-0.4-0.3-0.7-0.3
			c-0.4,0-0.7,0.1-0.8,0.4c-0.1,0.2-0.2,0.4-0.2,0.9v2.8H245.1z"/>
		<path class="st1" d="M251.6,179.6c0,0.5-0.4,0.9-0.9,0.9s-0.9-0.4-0.9-0.9s0.4-0.9,0.9-0.9C251.2,178.7,251.6,179.1,251.6,179.6z"
			/>
		<path class="st1" d="M255.2,175.5c0.2-0.1,0.3-0.1,0.4-0.1c1.2,0,2.2,1.1,2.2,2.4c0,1.5-1.2,2.7-2.7,2.7c-1.4,0-2.5-1.1-2.5-2.6
			c0-0.7,0.2-1.4,0.9-2.4l2-3.1h1.8L255.2,175.5z M254.1,177.9c0,0.7,0.5,1.2,1.1,1.2s1.2-0.5,1.2-1.2s-0.5-1.2-1.1-1.2
			C254.6,176.7,254.1,177.2,254.1,177.9z"/>
		<path class="st1" d="M258.9,173.7v-1.3h4.9l-2.2,3c1.3,0.1,2.1,1.1,2.1,2.4c0,1.6-1.1,2.7-2.7,2.7c-0.9,0-1.7-0.4-2.1-1.1
			c-0.2-0.4-0.3-0.7-0.4-1.3h1.4c0.1,0.6,0.5,1,1.1,1c0.7,0,1.2-0.5,1.2-1.2s-0.5-1.2-1.2-1.2c-0.3,0-0.5,0.1-0.7,0.2l-0.9-0.7
			l1.8-2.4L258.9,173.7L258.9,173.7z"/>
		<path class="st1" d="M265.6,175.1v-1.4l3-1.6v8.2h-1.5v-6L265.6,175.1z"/>
	</g>
</g>
<g id="oil-nbr-5">
	<path id="shape_4_" class="st0" d="M312,152.1h-40c-2.8,0-5,2.3-5,5v6.8c0,2.8,2.3,5,5,5h13.2l2.9,2.8l3.9,3.8l3.9-3.8l2.9-2.8H312
		c2.8,0,5-2.3,5-5v-6.8C317,154.4,314.7,152.1,312,152.1z"/>
	<g>
		<path class="st1" d="M272.9,162.9v-1.3l2.8-5.1h1.6v5.1h0.7v1.3h-0.7v1.6h-1.5v-1.6H272.9z M275.8,158.6l-1.7,3h1.7V158.6z"/>
		<path class="st1" d="M281.4,159.7c0.2-0.1,0.3-0.1,0.4-0.1c1.2,0,2.2,1.1,2.2,2.4c0,1.5-1.2,2.7-2.7,2.7c-1.4,0-2.5-1.1-2.5-2.6
			c0-0.7,0.2-1.4,0.9-2.4l2-3.1h1.8L281.4,159.7z M280.3,162.1c0,0.7,0.5,1.2,1.1,1.2s1.2-0.5,1.2-1.2s-0.5-1.2-1.1-1.2
			C280.8,160.9,280.3,161.4,280.3,162.1z"/>
		<path class="st1" d="M285.3,158v-1.4h4.7l-3.1,8h-1.6l2.6-6.6H285.3z"/>
		<path class="st1" d="M292.9,163.8c0,0.5-0.4,0.9-0.9,0.9s-0.9-0.4-0.9-0.9s0.4-0.9,0.9-0.9C292.5,162.9,292.9,163.3,292.9,163.8z"
			/>
		<path class="st1" d="M295.8,159.7c0.4-0.2,0.6-0.2,1-0.2c1.3,0,2.3,1.1,2.3,2.5c0,1.6-1.1,2.7-2.6,2.7c-0.7,0-1.4-0.3-1.8-0.7
			c-0.3-0.3-0.4-0.5-0.7-1.1l1.3-0.5c0.2,0.6,0.6,0.9,1.1,0.9c0.7,0,1.2-0.5,1.2-1.2s-0.5-1.2-1.2-1.2c-0.4,0-0.7,0.2-1,0.5h-1v-4.7
			h4.1v1.4h-2.7L295.8,159.7L295.8,159.7z"/>
		<path class="st1" d="M305.1,162.1c0,0.9-0.2,1.5-0.7,1.9c-0.4,0.4-1.1,0.6-1.8,0.6c-0.8,0-1.5-0.2-1.9-0.7c-0.4-0.4-0.6-1-0.6-2.3
			V159c0-1,0.2-1.6,0.5-2c0.4-0.5,1.1-0.7,1.9-0.7c0.7,0,1.4,0.2,1.8,0.6c0.5,0.5,0.7,1,0.7,2v3.2H305.1z M301.6,161.9
			c0,0.6,0,0.8,0.2,1s0.5,0.4,0.8,0.4s0.6-0.2,0.8-0.4c0.1-0.2,0.2-0.4,0.2-1v-2.8c0-0.5-0.1-0.8-0.2-1c-0.2-0.2-0.4-0.3-0.7-0.3
			c-0.4,0-0.7,0.1-0.8,0.4c-0.1,0.2-0.2,0.4-0.2,0.9L301.6,161.9L301.6,161.9z"/>
		<path class="st1" d="M306.4,158v-1.4h4.7l-3.1,8h-1.6l2.6-6.6H306.4z"/>
	</g>
</g>
<g id="oil-nbr-6">
	<path id="shape_5_" class="st0" d="M355.3,157.8h-40c-2.8,0-5,2.3-5,5v6.8c0,2.8,2.3,5,5,5h13.2l2.9,2.8l3.9,3.8l3.9-3.8l2.9-2.8
		h13.2c2.8,0,5-2.3,5-5v-6.8C360.3,160.1,358.1,157.8,355.3,157.8z"/>
	<g>
		<path class="st1" d="M316,169v-1.3l2.8-5.1h1.6v5.1h0.7v1.3h-0.7v1.6h-1.5V169H316z M318.9,164.7l-1.7,3h1.7V164.7z"/>
		<path class="st1" d="M323.8,165.8c0.4-0.2,0.6-0.2,1-0.2c1.3,0,2.3,1.1,2.3,2.5c0,1.6-1.1,2.7-2.6,2.7c-0.7,0-1.4-0.3-1.8-0.7
			c-0.3-0.3-0.4-0.5-0.7-1.1l1.3-0.5c0.2,0.6,0.6,0.9,1.1,0.9c0.7,0,1.2-0.5,1.2-1.2s-0.5-1.2-1.2-1.2c-0.4,0-0.7,0.2-1,0.5h-1v-4.7
			h4.1v1.4h-2.7L323.8,165.8L323.8,165.8z"/>
		<path class="st1" d="M333.2,168.3c0,1.5-1.1,2.5-2.6,2.5s-2.6-1-2.6-2.4c0-1,0.4-1.6,1.2-2c-0.6-0.3-0.9-0.9-0.9-1.7
			c0-1.3,1-2.3,2.4-2.3s2.4,0.9,2.4,2.2c0,0.4-0.1,0.8-0.3,1.2c-0.2,0.3-0.3,0.4-0.6,0.5C332.8,166.8,333.2,167.4,333.2,168.3z
			 M329.5,168.3c0,0.6,0.5,1.1,1.1,1.1s1.1-0.5,1.1-1.1s-0.5-1.1-1.1-1.1C329.9,167.1,329.5,167.6,329.5,168.3z M329.6,164.8
			c0,0.6,0.4,1,1,1c0.5,0,1-0.5,1-1s-0.5-1-1-1C330,163.8,329.6,164.2,329.6,164.8z"/>
		<path class="st1" d="M336,169.9c0,0.5-0.4,0.9-0.9,0.9s-0.9-0.4-0.9-0.9s0.4-0.9,0.9-0.9C335.7,169,336,169.4,336,169.9z"/>
		<path class="st1" d="M339.8,167.5c-0.2,0-0.3,0-0.4,0c-1.3,0-2.3-1-2.3-2.4c0-1.5,1.2-2.6,2.7-2.6s2.6,1.1,2.6,2.6
			c0,0.7-0.3,1.4-0.9,2.4l-2,3.1h-1.7L339.8,167.5z M338.6,165c0,0.6,0.5,1.2,1.1,1.2s1.2-0.5,1.2-1.1s-0.5-1.2-1.1-1.2
			C339.1,163.9,338.6,164.4,338.6,165z"/>
		<path class="st1" d="M345.8,167.5c-0.2,0-0.3,0-0.4,0c-1.3,0-2.3-1-2.3-2.4c0-1.5,1.2-2.6,2.7-2.6s2.6,1.1,2.6,2.6
			c0,0.7-0.3,1.4-0.9,2.4l-2,3.1h-1.7L345.8,167.5z M344.6,165c0,0.6,0.5,1.2,1.1,1.2s1.2-0.5,1.2-1.1s-0.5-1.2-1.1-1.2
			C345.1,163.9,344.6,164.4,344.6,165z"/>
		<path class="st1" d="M349.1,169v-1.3l2.8-5.1h1.6v5.1h0.7v1.3h-0.7v1.6H352V169H349.1z M352.1,164.7l-1.7,3h1.7V164.7z"/>
	</g>
</g>
<g id="oil-nbr-7">
	<path id="shape_6_" class="st0" d="M398.5,129.2h-40c-2.8,0-5,2.3-5,5v6.8c0,2.8,2.3,5,5,5h13.2l2.9,2.8l3.9,3.8l3.9-3.8l2.9-2.8
		h13.2c2.8,0,5-2.3,5-5v-6.8C403.5,131.5,401.3,129.2,398.5,129.2z"/>
	<g>
		<path class="st1" d="M359.1,140.1v-1.3l2.8-5.1h1.6v5.1h0.7v1.3h-0.7v1.6H362v-1.6H359.1z M362.1,135.8l-1.7,3h1.7V135.8z"/>
		<path class="st1" d="M367.8,138.6c-0.2,0-0.3,0-0.4,0c-1.3,0-2.3-1-2.3-2.4c0-1.5,1.2-2.6,2.7-2.6s2.6,1.1,2.6,2.6
			c0,0.7-0.3,1.4-0.9,2.4l-2,3.1h-1.7L367.8,138.6z M366.6,136.2c0,0.6,0.5,1.2,1.1,1.2s1.2-0.5,1.2-1.1s-0.5-1.2-1.1-1.2
			C367.1,135.1,366.6,135.6,366.6,136.2z"/>
		<path class="st1" d="M373.8,138.6c-0.2,0-0.3,0-0.4,0c-1.3,0-2.3-1-2.3-2.4c0-1.5,1.2-2.6,2.7-2.6s2.6,1.1,2.6,2.6
			c0,0.7-0.3,1.4-0.9,2.4l-2,3.1h-1.7L373.8,138.6z M372.6,136.2c0,0.6,0.5,1.2,1.1,1.2s1.2-0.5,1.2-1.1s-0.5-1.2-1.1-1.2
			C373.1,135.1,372.6,135.6,372.6,136.2z"/>
		<path class="st1" d="M379.2,141.1c0,0.5-0.4,0.9-0.9,0.9s-0.9-0.4-0.9-0.9s0.4-0.9,0.9-0.9C378.8,140.2,379.2,140.5,379.2,141.1z"
			/>
		<path class="st1" d="M385.4,139.5c0,1.5-1.1,2.5-2.6,2.5s-2.6-1-2.6-2.4c0-1,0.4-1.6,1.2-2c-0.6-0.3-0.9-0.9-0.9-1.7
			c0-1.3,1-2.3,2.4-2.3s2.4,0.9,2.4,2.2c0,0.4-0.1,0.8-0.3,1.2c-0.2,0.3-0.3,0.4-0.6,0.5C385.1,137.9,385.4,138.6,385.4,139.5z
			 M381.7,139.4c0,0.6,0.5,1.1,1.1,1.1s1.1-0.5,1.1-1.1s-0.5-1.1-1.1-1.1C382.2,138.3,381.7,138.8,381.7,139.4z M381.9,135.9
			c0,0.6,0.4,1,1,1c0.5,0,1-0.5,1-1s-0.5-1-1-1C382.3,135,381.9,135.4,381.9,135.9z"/>
		<path class="st1" d="M386.3,140.1v-1.3l2.8-5.1h1.6v5.1h0.7v1.3h-0.7v1.6h-1.5v-1.6H386.3z M389.2,135.8l-1.7,3h1.7V135.8z"/>
		<path class="st1" d="M397.4,139.4c0,0.9-0.2,1.5-0.7,1.9c-0.4,0.4-1.1,0.6-1.8,0.6c-0.8,0-1.5-0.2-1.9-0.7c-0.4-0.4-0.6-1-0.6-2.3
			v-2.6c0-1,0.2-1.6,0.5-2c0.4-0.5,1.1-0.7,1.9-0.7c0.7,0,1.4,0.2,1.8,0.6c0.5,0.5,0.7,1,0.7,2v3.2H397.4z M393.9,139.2
			c0,0.6,0,0.8,0.2,1s0.5,0.4,0.8,0.4s0.6-0.2,0.8-0.4c0.1-0.2,0.2-0.4,0.2-1v-2.8c0-0.5-0.1-0.8-0.2-1c-0.2-0.2-0.4-0.3-0.7-0.3
			c-0.4,0-0.7,0.1-0.8,0.4c-0.1,0.2-0.2,0.4-0.2,0.9L393.9,139.2L393.9,139.2z"/>
	</g>
</g>
<g id="eco-badge">
	<g id="eco-badge_1_">
		<g class="st2">
			<circle cx="452" cy="335" r="40"/>
			<polygon points="397.7,335.1 406,330.3 414.3,325.5 414.3,335.1 414.3,344.6 406,339.8 			"/>
		</g>
		<g>
			<g>
				<circle class="st3" cx="451" cy="332" r="40"/>
				<polygon class="st3" points="396.7,332.1 405,327.3 413.3,322.5 413.3,332.1 413.3,341.6 405,336.8 				"/>
			</g>
		</g>
	</g>
	<g id="eco-details_2_">
		<g id="eco-details_1_">
			<path class="st4" d="M451.3,315.3c1.1-0.3,2.1-0.6,3.2-0.9c0.5-0.2,1-0.9,0.8-1.5c-0.3-1-0.7-2-1-3.1c0.2,0,0.4,0.1,0.6,0.1
				c0.9,0.2,1.8,0.4,2.6,0.6c0.5,0.1,1.3-0.3,1.4-0.9c0.2-1.1,0.5-2.1,0.7-3.3c0.8,0.8,1.6,1.5,2.4,2.3c0.4,0.4,1.3,0.4,1.7-0.1
				c0.6-0.7,1.2-1.3,1.8-2c0.1-0.1,0.2-0.3,0.4-0.4c0.3,1,0.6,1.9,0.8,2.9c0.1,0.7,0.6,0.9,1.2,1.2c0.1,0,0.3,0,0.4-0.1
				c0.9-0.3,1.7-0.6,2.6-0.9c0.2-0.1,0.3-0.1,0.6-0.1c-0.3,1.1-0.5,2.1-0.7,3.1c-0.2,0.7,0.3,1.4,1,1.6c1,0.2,2,0.4,3.1,0.7
				c-0.6,0.6-1.1,1.1-1.6,1.7c-0.2,0.2-0.3,0.4-0.5,0.5c-0.6,0.4-0.4,1-0.4,1.5c0,0.1,0.2,0.3,0.3,0.4c0.8,0.7,1.6,1.4,2.5,2.2
				c-0.8,0.3-1.6,0.5-2.4,0.7c-0.2,0.1-0.4,0.1-0.6,0.2c-0.8,0.2-1.2,0.9-0.9,1.7c0.3,0.9,0.6,1.9,0.9,2.9c-0.5-0.1-1.3-0.3-1.3-0.3
				l-3.1-3c-0.2-0.3-0.2-0.5,0.1-0.7c2.3-2.6,2.2-6.3-0.2-8.7c-3.3-3.3-9-1.9-10.4,2.6c-0.1,0.4-0.3,0.6-0.8,0.6c-1,0-2,0-3,0
				c-0.4,0-0.8-0.1-1-0.4C452.1,316,451.8,315.7,451.3,315.3z"/>
		</g>
		<path class="st4" d="M461.1,317.5h-22.2l-6.2,5.9v-7.3c0-0.4-0.3-0.7-0.7-0.7h-3.3c-0.4,0-0.7,0.3-0.7,0.7v11.8c0,0,0,0,0,0
			l-8.3,8l3,3.1l16.2-16l15.1,16l28.2-0.4L461.1,317.5z M469.9,329.3h-6.2l-4.1-4.2h6.2L469.9,329.3z M462.9,329.3h-6.2l-4.1-4.2
			h6.2L462.9,329.3z M461.1,320.5l4.1,4.2H459l-4.1-4.2H461.1z M454.2,320.5l4.1,4.2h-6.2l-4.1-4.2H454.2z M441,320.5h6.2l4.1,4.2
			h-6.2L441,320.5z M445.6,325.1h6.2l4.1,4.2h-6.2L445.6,325.1z M454.4,334l-4.1-4.2h6.2l4.1,4.2H454.4z M461.3,334l-4.1-4.2h6.2
			l4.1,4.2H461.3z M464.2,329.7h6.2l4.1,4.2h-6.2L464.2,329.7z"/>
	</g>
	<g id="eco-title_1_">
		<path class="st4" d="M426.4,348.1h2.3v1.1h-2.3v1.6h2.3v1.1h-3.6v-6.5h3.6v1.1h-2.3V348.1z"/>
		<path class="st4" d="M431,347.4v0.7c0.1-0.3,0.2-0.5,0.4-0.6c0.2-0.1,0.5-0.2,0.7-0.2c0,0,0.1,0,0.1,0v1.3c-0.1,0-0.2,0-0.3,0
			c-0.3,0-0.7,0.2-0.8,0.4c-0.1,0.2-0.2,0.4-0.2,0.8v2.2h-1.2v-4.5H431z"/>
		<path class="st4" d="M434.2,347.4v0.6c0.3-0.5,0.7-0.7,1.2-0.7c0.4,0,0.8,0.2,1.1,0.4c0.3,0.3,0.4,0.7,0.4,1.4v2.9h-1.2v-2.8
			c0-0.3,0-0.4-0.1-0.5c-0.1-0.2-0.4-0.3-0.6-0.3c-0.5,0-0.8,0.4-0.8,0.9v2.8H433v-4.5H434.2z"/>
		<path class="st4" d="M439.2,350c0.1,0.6,0.6,1,1.2,1c0.5,0,0.9-0.2,1-0.6l1.1,0.3c-0.5,0.9-1.2,1.4-2.2,1.4c-1.4,0-2.5-1-2.5-2.4
			c0-1.4,1-2.4,2.4-2.4c1.5,0,2.5,1,2.5,2.5l0,0.2H439.2z M441.5,349.3c-0.1-0.6-0.5-1-1.2-1c-0.6,0-1,0.3-1.1,1H441.5z"/>
		<path class="st4" d="M447.5,347.4v2.9c0,0.7-0.1,1-0.5,1.4c-0.4,0.3-0.9,0.5-1.5,0.5c-0.6,0-1.2-0.2-1.5-0.5
			c-0.3-0.3-0.5-0.7-0.5-1.3v-2.9h1.2v2.8c0,0.5,0.3,0.9,0.8,0.9c0.5,0,0.7-0.3,0.7-0.8v-2.9H447.5z"/>
		<path class="st4" d="M449.7,350c0.1,0.6,0.6,1,1.2,1c0.5,0,0.9-0.2,1-0.6l1.1,0.3c-0.5,0.9-1.2,1.4-2.2,1.4c-1.4,0-2.5-1-2.5-2.4
			c0-1.4,1-2.4,2.4-2.4c1.5,0,2.5,1,2.5,2.5l0,0.2H449.7z M451.9,349.3c-0.1-0.6-0.5-1-1.2-1c-0.6,0-1,0.3-1.1,1H451.9z"/>
		<path class="st4" d="M455.4,347.4v0.7c0.1-0.3,0.2-0.5,0.4-0.6c0.2-0.1,0.5-0.2,0.7-0.2c0,0,0.1,0,0.1,0v1.3c-0.1,0-0.2,0-0.3,0
			c-0.3,0-0.7,0.2-0.8,0.4c-0.1,0.2-0.2,0.4-0.2,0.8v2.2h-1.2v-4.5H455.4z"/>
		<path class="st4" d="M458.6,352h-1.2v-6.5h1.2v2.6c0.4-0.5,0.9-0.7,1.5-0.7c1.3,0,2.3,1,2.3,2.5c0,1.4-0.9,2.4-2.2,2.4
			c-0.7,0-1.1-0.2-1.5-0.7V352z M458.6,349.7c0,0.8,0.5,1.4,1.2,1.4c0.7,0,1.2-0.6,1.2-1.4c0-0.8-0.5-1.4-1.2-1.4
			C459.1,348.3,458.6,349,458.6,349.7z"/>
		<path class="st4" d="M466.8,347.4h1.2v4.5h-1.2v-0.6c-0.4,0.5-0.9,0.8-1.6,0.8c-1.3,0-2.2-1-2.2-2.4c0-1.4,1-2.5,2.3-2.5
			c0.6,0,1,0.2,1.5,0.7V347.4z M464.3,349.7c0,0.8,0.5,1.4,1.2,1.4c0.7,0,1.3-0.6,1.3-1.4c0-0.8-0.5-1.4-1.2-1.4
			C464.8,348.3,464.3,348.9,464.3,349.7z"/>
		<path class="st4" d="M470.5,347.4v0.7c0.1-0.3,0.2-0.5,0.4-0.6c0.2-0.1,0.5-0.2,0.7-0.2c0,0,0.1,0,0.1,0v1.3c-0.1,0-0.2,0-0.3,0
			c-0.3,0-0.7,0.2-0.8,0.4c-0.1,0.2-0.2,0.4-0.2,0.8v2.2h-1.2v-4.5H470.5z"/>
		<path class="st4" d="M473.5,350c0.1,0.6,0.6,1,1.2,1c0.5,0,0.9-0.2,1-0.6l1.1,0.3c-0.5,0.9-1.2,1.4-2.2,1.4c-1.4,0-2.5-1-2.5-2.4
			c0-1.4,1-2.4,2.4-2.4c1.5,0,2.5,1,2.5,2.5l0,0.2H473.5z M475.8,349.3c-0.1-0.6-0.5-1-1.2-1c-0.6,0-1,0.3-1.1,1H475.8z"/>
	</g>
</g>
<g id="oil-badge">
	<g id="oil-badge_1_">
		<g class="st2">
			<circle cx="452" cy="142.1" r="40"/>
			<polygon points="398.4,142.1 406.7,146.8 414.9,151.6 414.9,142.1 414.9,132.5 406.7,137.3 			"/>
		</g>
		<g>
			<g>
				<circle class="st5" cx="451" cy="139.1" r="40"/>
				<polygon class="st5" points="397.4,139.1 405.7,143.8 413.9,148.6 413.9,139.1 413.9,129.5 405.7,134.3 				"/>
			</g>
		</g>
	</g>
	<path id="oil-details_1_" class="st4" d="M468.5,142.3v-9.5h0.9v-1.5l0.3,0.1l0.9-2.9c0,0-12.7-3.8-14.1-4.2
		c-0.1,0-0.2-0.1-0.2-0.2c-0.1-0.8-0.5-3.4-0.5-3.4h-6.7l-0.2,1.3c0,0-5.3-1.6-7.9-2.3c-0.2,0-0.2-0.1-0.3-0.3
		c-0.8-2.2-1.7-4.4-2.5-6.7c-0.1-0.4-0.2-0.4,0.2-0.7c0.3-0.3,1.1-0.8,1.1-0.8s-0.7-1.1-1.1-1.6c-0.5,0.4-1.5,1.2-2.1,1.7
		c-1.8,1.8-3,3.9-3.9,6.1c-1,2.5-1.6,5.1-1.8,7.8c-0.1,2,0,4,0.5,5.9c0.1,0.5,0.3,0.9,0.5,1.4c0.6-0.3,1.8-0.8,1.8-0.8
		s-0.2-0.5-0.3-0.7c-0.1-0.1,0-0.2,0.1-0.3c2.1-2.7,4.2-5.4,6.3-8.2c0.1-0.1,0.2-0.2,0.4-0.1c2.4,0.7,8.7,2.6,8.7,2.6l-2.9,20.3
		l-12.3,0v4.4h38.1v-7.6H468.5z M435.7,125.5c-1,1.2-2.9,3.8-3,3.9c-0.1-0.7-0.1-1.3-0.1-1.9c-0.1-1.4,0.1-2.8,0.3-4.2
		c0-0.1,0.1-0.2,0.1-0.2c0.4-0.4,0.8-0.4,1.4-0.3c0.3,0.1,0.9,0.3,0.9,0.3s-0.1,0.5-0.2,0.7c0,0.1,0,0.2,0,0.3
		c0.2,0.4,0.4,0.8,0.6,1.1C435.7,125.3,435.7,125.4,435.7,125.5z M435.5,122.2c0,0-1-0.3-1.4-0.4c-0.1,0-0.1-0.1-0.1-0.1
		c-0.1-0.2-0.2-0.5-0.4-0.7c-0.1-0.2-0.1-0.4-0.1-0.6c0.2-0.4,0.3-0.9,0.5-1.3c0-0.1,0.1-0.1,0.2-0.2c0.3-0.1,0.5-0.1,0.8-0.2
		c0.1,0,0.1,0,0.2,0c0.4,0.1,1.3,0.4,1.3,0.4L435.5,122.2z M437.2,117.1c-0.2,0-0.2,0.1-0.3,0.3c-0.1,0.2-0.2,0.7-0.2,0.7
		s-0.8-0.2-1.2-0.4c-0.1,0-0.1-0.1-0.1-0.1c-0.1-0.3-0.2-0.6-0.3-0.9c0-0.1,0-0.2,0-0.2c0.6-1.1,1.4-2.3,2.1-3
		c0.4,1.1,1.2,3.3,1.2,3.3S437.6,117,437.2,117.1z M455.8,134.5c0.1,1,0.4,3.1,0.4,3.1l-5.7-3.3c0,0,3.4,0,5,0
		C455.7,134.3,455.8,134.3,455.8,134.5z M449.8,130.2l4.6,2.7h-5L449.8,130.2z M449.1,135l5.9,3.4h-6.4L449.1,135z M455.5,132.1
		l-4.1-2.5h3.8L455.5,132.1z M454.1,122.7l0.1,0.9l-3.1-0.9l0,0H454.1z M454.6,127c0.1,0,0.1,0.1,0.2,0.1c0.1,0.4,0.2,1.2,0.2,1.2
		H450l0.4-2.5C450.4,125.7,454.1,126.8,454.6,127z M456,145.2h-8.4l0.7-5.1L456,145.2z M450.2,139.8h6.4l0.7,4.7L450.2,139.8z
		 M467.3,142.3h-3.5v3.1l-4.1,0c-0.3,0-0.3,0-0.4-0.3l-2.5-17.5l9.5,2.8c0.1,0,0.2,0.1,0.2,0.3c0,0.6,0,2.2,0,2.2h0.8V142.3z"/>
	<g id="oil-title_1_">
		<path class="st4" d="M438.1,158.5c0.6,0.6,0.8,1.4,0.8,2.3c0,1.9-1.5,3.4-3.3,3.4c-1.9,0-3.4-1.5-3.4-3.4c0-1.9,1.5-3.4,3.4-3.4
			C436.6,157.4,437.5,157.8,438.1,158.5z M433.6,160.8c0,1.2,0.9,2.1,2,2.1c1.1,0,2-0.9,2-2.1c0-1.3-0.8-2.2-2-2.2
			C434.4,158.6,433.6,159.6,433.6,160.8z M435.2,156.2c0,0.4-0.3,0.7-0.7,0.7c-0.4,0-0.7-0.3-0.7-0.7s0.3-0.7,0.7-0.7
			C434.9,155.5,435.2,155.8,435.2,156.2z M437.3,156.2c0,0.4-0.3,0.7-0.7,0.7c-0.4,0-0.7-0.3-0.7-0.7s0.3-0.7,0.7-0.7
			C437,155.5,437.3,155.8,437.3,156.2z"/>
		<path class="st4" d="M439.9,164.1v-6.5h1.2v6.5H439.9z"/>
		<path class="st4" d="M446.9,160.2v-1.9h0.7v1.9h2v0.6h-2v1.9h-0.7v-1.9h-2v-0.6H446.9z"/>
		<path class="st4" d="M459.7,160.4v0.4c0,1-0.3,1.8-1,2.4c-0.7,0.7-1.5,1-2.4,1c-1.9,0-3.4-1.5-3.4-3.4c0-2,1.4-3.4,3.4-3.4
			c1.1,0,2,0.5,2.6,1.3l-1,0.8c-0.5-0.6-1-0.8-1.6-0.8c-1.1,0-2,0.9-2,2.2c0,1.2,0.9,2.2,2.1,2.2c0.6,0,1.1-0.2,1.5-0.7
			c0.2-0.2,0.3-0.4,0.4-0.8h-1.8v-1.1H459.7z"/>
		<path class="st4" d="M464.1,159.5h1.2v4.5h-1.2v-0.6c-0.4,0.5-0.9,0.8-1.6,0.8c-1.3,0-2.2-1-2.2-2.4c0-1.4,1-2.5,2.3-2.5
			c0.6,0,1,0.2,1.5,0.7V159.5z M461.7,161.8c0,0.8,0.5,1.4,1.2,1.4c0.7,0,1.3-0.6,1.3-1.4c0-0.8-0.5-1.4-1.2-1.4
			C462.2,160.4,461.7,161,461.7,161.8z"/>
		<path class="st4" d="M468.6,160.8L468.6,160.8c0-0.4-0.2-0.5-0.6-0.5c-0.3,0-0.5,0.2-0.5,0.4c0,0.1,0,0.2,0.1,0.3
			c0.1,0.1,0.1,0.1,0.8,0.3c1,0.3,1.4,0.7,1.4,1.5c0,0.9-0.7,1.5-1.8,1.5c-1.1,0-1.7-0.5-1.8-1.5h1.2c0.1,0.4,0.2,0.6,0.6,0.6
			c0.3,0,0.5-0.2,0.5-0.4c0-0.3-0.2-0.4-0.8-0.6c-1-0.3-1.4-0.7-1.4-1.5c0-0.9,0.7-1.4,1.8-1.4c1,0,1.7,0.5,1.7,1.5H468.6z"/>
	</g>
</g>
</svg>
