<?xml version="1.0" encoding="utf-8"?>
<!-- Generator: Adobe Illustrator 21.0.0, SVG Export Plug-In . SVG Version: 6.00 Build 0)  -->
<svg id="main-svg" version="1.1" xmlns="http://www.w3.org/2000/svg" xmlns:xlink="http://www.w3.org/1999/xlink" x="0px" y="0px"
	 viewBox="0 0 1000 1130" style="enable-background:new 0 0 1000 1130;" xml:space="preserve">

	<g id="graph">
		<g id="graphs-bg">
			<linearGradient id="SVGID" gradientUnits="userSpaceOnUse" x1="169" y1="1016.976" x2="169" y2="215.976">
				<stop  offset="0.9" style="stop-color:#CDEBEB"/>
				<stop  offset="1" style="stop-color:#EDEDED"/>
			</linearGradient>
			<line class="st1" x1="169" y1="1017" x2="169" y2="216"/>
			<line class="st1" x1="275" y1="1017" x2="275" y2="216"/>
			<line class="st1" x1="381" y1="1017" x2="381" y2="216"/>
			<line class="st1" x1="487" y1="1017" x2="487" y2="216"/>
			<line class="st1" x1="593" y1="1017" x2="593" y2="216"/>
			<line class="st1" x1="699" y1="1017" x2="699" y2="216"/>
			<line class="st1" x1="805" y1="1017" x2="805" y2="216"/>
			<line class="st1" x1="911" y1="1017" x2="911" y2="216"/>
		</g>
		<g id="warning1">
			<path class="sign-shadow st19" d="M330.7,576.4c1.4-2.5,5.1-2.5,6.5,0l76.2,132c1.4,2.5-0.4,5.6-3.3,5.6H257.8
				c-2.9,0-4.7-3.1-3.3-5.6L330.7,576.4z"/>
			<g id="sign">
				<path class="st10" d="M324.7,566.4c1.4-2.5,5.1-2.5,6.5,0l76.2,132c1.4,2.5-0.4,5.6-3.3,5.6H251.8c-2.9,0-4.7-3.1-3.3-5.6
					L324.7,566.4z"/>
				<g>
					<path class="st55" d="M328,586.7L388.2,691H267.8L328,586.7 M328,564.5c-1.3,0-2.5,0.6-3.3,1.9l-76.2,132
						c-1.4,2.5,0.4,5.6,3.3,5.6h152.5c2.9,0,4.7-3.1,3.3-5.6l-76.2-132C330.5,565.1,329.3,564.5,328,564.5L328,564.5z"/>
				</g>
				<text transform="matrix(0.9977 0 0 1 315.7 679.4843)" class="st55 st12">!</text>
				<text transform="matrix(0.9977 0 0 1 311.343 630.5776)"><tspan x="0" y="0" class="st0">Nur</tspan><tspan x="-14.5" y="20" class="st0">40 Mio.  </tspan><tspan x="-34.4" y="40" class="st0">Tonnen CO2  </tspan><tspan x="-20.2" y="60" class="st0">reduziert</tspan></text>
			</g>
		</g>
		<g id="warning2">
			<path class="sign-shadow st19" d="M697.9,557.4c1.8-3.1,6.3-3.1,8.1,0l95.3,165c1.8,3.1-0.5,7.1-4.1,7.1H606.7
				c-3.6,0-5.9-3.9-4.1-7.1L697.9,557.4z"/>
			<g id="sign_1_">
				<path class="st10" d="M691.9,547.4c1.8-3.1,6.3-3.1,8.1,0l95.3,165c1.8,3.1-0.5,7.1-4.1,7.1H600.7c-3.6,0-5.9-3.9-4.1-7.1
					L691.9,547.4z"/>
				<g>
					<path class="st55" d="M696,576.3l72.3,125.2H623.7L696,576.3 M696,545c-1.6,0-3.2,0.8-4.1,2.4l-95.3,165
						c-1.8,3.1,0.5,7.1,4.1,7.1h190.6c3.6,0,5.9-3.9,4.1-7.1l-95.3-165C699.2,545.8,697.6,545,696,545L696,545z"/>
				</g>
				<text transform="matrix(0.9977 0 0 1 682.6306 684.4843)" class="st55 st12">!</text>
				<text transform="matrix(0.9977 0 0 1 675.3103 631.5776)"><tspan x="0" y="0" class="st0">Noch </tspan><tspan x="-15.5" y="21.6" class="st0">156 Mio.  </tspan><tspan x="-30.4" y="43.2" class="st0">Tonnen CO2  </tspan><tspan x="-34.2" y="64.8" class="st0">zu reduzieren</tspan></text>
			</g>
		</g>
		<g id="graph-2013">
			<line class="st14" x1="169" y1="1017" x2="169" y2="261"/>
			<line class="st15" x1="169" y1="1017" x2="169" y2="461.4"/>
			<line class="st16" x1="169" y1="1017" x2="169" y2="515.4"/>
			<line class="st15" x1="169" y1="1017" x2="169" y2="596.2"/>
			<line class="st16" x1="169" y1="1017" x2="169" y2="723.4"/>
		</g>
		<g class="info-farming">
			<g class="nbr">
				<text transform="matrix(1 0 0 1 146.0254 463.3755)" class="st17">65,24</text>
			</g>
			<g class="icon">
				<circle class="bg st9" cx="169" cy="488.4" r="23.5"/>
				<g>
					<path class="figure st19" d="M168.1,477.3h-3.6v6.5c1.9,0,4.1,0,6.1,0c-0.4-2-1-4.5-1.1-5.4C169.2,477.3,168.8,477.3,168.1,477.3z"/>
					<circle class="figure st19" cx="162.1" cy="493.4" r="3.3"/>
					<path class="figure st19" d="M158.8,478.2c-0.1,0.8-0.3,3.6-0.5,5.6c1,0,2.9,0,5.2,0v-6.5h-3.7C159.1,477.3,158.8,477.4,158.8,478.2z"/>
					<path class="figure st19" d="M169,465.9c-12.4,0-22.5,10.1-22.5,22.5s10.1,22.5,22.5,22.5s22.5-10.1,22.5-22.5S181.4,465.9,169,465.9z
						 M167.5,498.6c-1.4,1.3-3.3,2-5.4,2c-2.1,0-4-0.7-5.4-2c-1.5-1.3-2.3-3.2-2.3-5.2c0-4.2,3.4-7.3,7.7-7.3c4.2,0,7.7,3,7.7,7.3
						C169.8,495.5,169,497.3,167.5,498.6z M170.5,494.7c0.1-0.4,0.1-0.8,0.1-1.2c0-2.2-0.9-4.3-2.5-5.8c-1.6-1.5-3.7-2.3-6-2.3
						c-1.5,0-3,0.4-4.3,1.1c0,0,0,0,0,0c-0.1,0.1-0.3,0.1-0.4,0.1c-0.3,0-0.6-0.3-0.6-0.7c0-0.1,0.6-6.5,0.7-7.8c0.2-2,1.6-2,2.2-2
						h8.4c0.7,0,2.1,0,2.6,2.1c0.2,1.2,0.8,3.7,1.2,5.6c2.2,0,4.2,0,5.7,0v-3.1c0-0.5,0.4-0.8,0.8-0.8s0.8,0.4,0.8,0.8v3.1
						c0.8,0,1.3,0,1.4,0c2.4,0,3.1,5.2,1.8,7.5c-1.1-1.2-2.8-2-4.5-2c-3.1,0-5.7,2.3-6.2,5.3H170.5z M181.7,499.2
						c-1,0.9-2.4,1.4-3.8,1.4c-1.5,0-2.8-0.5-3.8-1.4c-1-0.9-1.6-2.3-1.6-3.7c0-3,2.4-5.4,5.4-5.4c3,0,5.4,2.4,5.4,5.4
						C183.3,497,182.7,498.3,181.7,499.2z"/>
					<circle class="figure st19" cx="177.9" cy="495.5" r="2.3"/>
				</g>
			</g>
		</g>
		<g class="info-building">
			<g class="nbr">
				<text transform="matrix(1 0 0 1 153.5093 530.7758)" class="st17">101</text>
			</g>
			<g class="icon">
				<circle class="bg st20" cx="169" cy="555.8" r="23.5"/>
				<path class="figure st19" d="M169,533.3c-12.4,0-22.5,10.1-22.5,22.5c0,12.4,10.1,22.5,22.5,22.5s22.5-10.1,22.5-22.5
					C191.5,543.3,181.4,533.3,169,533.3z M179.2,544.6v5.5l-2.6-2.2l0-3.2H179.2z M178.4,565c0,0,0,0.8-0.7,0.8c-0.9,0-6.7,0-6.7,0
					l0-5.6c0,0,0.1-0.9-1-0.9h-2.8c-0.9,0-0.8,0.9-0.8,0.9l0,5.6c0,0-6.1,0-6.8,0c-0.6,0-0.6-0.6-0.6-0.6v-10.5l10-8.4l9.4,8.4V565z
					 M179.4,553.9l-10.3-9.3l-11,9.3c-1.8,1.6-2.7,0-2.7,0l13.7-12.1l13.3,12C182.4,553.9,181.6,555.4,179.4,553.9z"/>
			</g>
		</g>
		<g class="info-transport">
			<g class="nbr">
				<text transform="matrix(1 0 0 1 153.5093 634.7756)" class="st17">159</text>
			</g>
			<g class="icon">
				<circle class="bg st9" cx="169" cy="659.8" r="23.5"/>
				<g>
					<ellipse class="figure st19" cx="177" cy="667.8" rx="1.4" ry="1.4"/>
					<path class="figure st19" d="M177.9,654.2c-0.1-0.1-0.2-0.2-0.4-0.2h-3.3c-0.2,0-0.4,0.2-0.4,0.4v3c0,0.2,0.2,0.4,0.4,0.4h5.5
						c0.4,0,0.6-0.4,0.4-0.7L177.9,654.2z"/>
					<path class="figure st19" d="M169,637.3c-12.4,0-22.5,10.1-22.5,22.5c0,12.4,10.1,22.5,22.5,22.5s22.5-10.1,22.5-22.5
						C191.5,647.3,181.4,637.3,169,637.3z M162.7,652.3c0-0.5,0.4-0.9,0.9-0.9h6.1c0.5,0,0.9,0.4,0.9,0.9v3.9c0,0.5-0.4,0.9-0.9,0.9
						h-6.1c-0.5,0-0.9-0.4-0.9-0.9V652.3z M153.5,652.3c0-0.5,0.4-0.9,0.9-0.9h6.1c0.5,0,0.9,0.4,0.9,0.9v3.9c0,0.5-0.4,0.9-0.9,0.9
						h-6.1c-0.5,0-0.9-0.4-0.9-0.9V652.3z M153.5,663.3v-3.9c0-0.5,0.4-0.9,0.9-0.9h15.3c0.5,0,0.9,0.4,0.9,0.9v3.9
						c0,0.5-0.4,0.9-0.9,0.9h-15.3C153.9,664.2,153.5,663.8,153.5,663.3z M154.2,667.3c-0.2,0-0.4-0.2-0.4-0.4v-1.3
						c0-0.2,0.2-0.4,0.4-0.4h6.1c-0.6,0.6-1.1,1.3-1.2,2.2H154.2z M162.7,670.5c-1.5,0-2.7-1.2-2.7-2.7c0-1.5,1.2-2.7,2.7-2.7
						c1.5,0,2.7,1.2,2.7,2.7C165.4,669.3,164.2,670.5,162.7,670.5z M177,670.5c-1.5,0-2.7-1.2-2.7-2.7c0-1.5,1.2-2.7,2.7-2.7
						c1.5,0,2.7,1.2,2.7,2.7C179.7,669.3,178.5,670.5,177,670.5z M184.5,666.8c0,0.2-0.2,0.4-0.4,0.4h-3.5c-0.3-1.7-1.8-3.1-3.6-3.1
						c-1.8,0-3.3,1.3-3.6,3.1h-7.2c-0.1-0.9-0.6-1.7-1.2-2.2h6.8v-12.5c0-0.5,0.4-0.9,0.9-0.9h4.1c1.2,0,2.3,0.6,2.9,1.5l2.7,4
						c0.4,0.6,0.6,1.3,0.6,2v6h1.1c0.2,0,0.4,0.2,0.4,0.4V666.8z"/>
					<circle class="figure st19" cx="162.7" cy="667.8" r="1.4"/>
				</g>
			</g>
		</g>
		<g class="info-energy">
			<g class="nbr">
				<text transform="matrix(1 0 0 1 153.5093 845.1765)" class="st17">367</text>
			</g>
			<g class="icon">
				<circle class="bg st20" cx="169" cy="870.2" r="22.5"/>
				<path class="figure st19" d="M169,847.7c-12.4,0-22.5,10.1-22.5,22.5s10.1,22.5,22.5,22.5s22.5-10.1,22.5-22.5S181.4,847.7,169,847.7z
					 M177.2,868.4l-9,17.8c-0.2,0.3-0.5,0.5-0.8,0.5c-0.1,0-0.2,0-0.3,0c-0.4-0.1-0.7-0.5-0.6-0.9l1.4-12h-6.6
					c-0.3,0-0.6-0.2-0.7-0.5c-0.2-0.3-0.2-0.6,0-0.9l9-18.2c0.2-0.3,0.5-0.5,0.8-0.5c0.1,0,0.2,0,0.3,0c0.4,0.1,0.7,0.6,0.6,1
					l-1.4,12.5h6.7c0.3,0,0.6,0.1,0.7,0.4C177.4,867.8,177.4,868.1,177.2,868.4z"/>
			</g>
		</g>
		<g id="graph-2016">
			<line class="st14" x1="487" y1="1017" x2="487" y2="292.2"/>
			<line class="st15" x1="487" y1="1017" x2="487" y2="494.8"/>
			<line class="st16" x1="487" y1="1017" x2="487" y2="548.3"/>
			<line class="st15" x1="487" y1="1017" x2="487" y2="618.6"/>
			<line class="st16" x1="487" y1="1017" x2="487" y2="751.4"/>
		</g>
		<g class="info-farming">
			<g class="nbr">
				<text transform="matrix(1 0 0 1 469.1904 496.5357)" class="st17">66,8</text>
			</g>
			<g class="icon">
				<circle class="bg st9" cx="487" cy="521.5" r="23.5"/>
				<g>
					<path class="figure st19" d="M486.1,510.5h-3.6v6.5c1.9,0,4.1,0,6.1,0c-0.4-2-1-4.5-1.1-5.4C487.2,510.5,486.8,510.5,486.1,510.5z"/>
					<circle class="figure st19" cx="480.1" cy="526.6" r="3.3"/>
					<path class="figure st19" d="M476.8,511.4c-0.1,0.8-0.3,3.6-0.5,5.6c1,0,2.9,0,5.2,0v-6.5h-3.7C477.1,510.5,476.8,510.5,476.8,511.4z"/>
					<path class="figure st19" d="M487,499c-12.4,0-22.5,10.1-22.5,22.5S474.6,544,487,544s22.5-10.1,22.5-22.5S499.4,499,487,499z
						 M485.5,531.8c-1.4,1.3-3.3,2-5.4,2c-2.1,0-4-0.7-5.4-2c-1.5-1.3-2.3-3.2-2.3-5.2c0-4.2,3.4-7.3,7.7-7.3c4.2,0,7.7,3,7.7,7.3
						C487.8,528.6,487,530.5,485.5,531.8z M488.5,527.8c0.1-0.4,0.1-0.8,0.1-1.2c0-2.2-0.9-4.3-2.5-5.8c-1.6-1.5-3.7-2.3-6-2.3
						c-1.5,0-3,0.4-4.3,1.1c0,0,0,0,0,0c-0.1,0.1-0.3,0.1-0.4,0.1c-0.3,0-0.6-0.3-0.6-0.7c0-0.1,0.6-6.5,0.7-7.8c0.2-2,1.6-2,2.2-2
						h8.4c0.7,0,2.1,0,2.6,2.1c0.2,1.2,0.8,3.7,1.2,5.6c2.2,0,4.2,0,5.7,0v-3.1c0-0.5,0.4-0.8,0.8-0.8s0.8,0.4,0.8,0.8v3.1
						c0.8,0,1.3,0,1.4,0c2.4,0,3.1,5.2,1.8,7.5c-1.1-1.2-2.8-2-4.5-2c-3.1,0-5.7,2.3-6.2,5.3H488.5z M499.7,532.4
						c-1,0.9-2.4,1.4-3.8,1.4c-1.5,0-2.8-0.5-3.8-1.4c-1-0.9-1.6-2.3-1.6-3.7c0-3,2.4-5.4,5.4-5.4c3,0,5.4,2.4,5.4,5.4
						C501.3,530.1,500.7,531.5,499.7,532.4z"/>
					<circle class="figure st19" cx="495.9" cy="528.7" r="2.3"/>
				</g>
			</g>
		</g>
		<g class="info-building">
			<g class="nbr">
				<text transform="matrix(1 0 0 1 469.1904 558.416)" class="st17">87,9</text>
			</g>
			<g class="icon">
				<circle class="bg st20" cx="486.8" cy="583.4" r="23.5"/>
				<path class="figure st19" d="M486.8,560.9c-12.4,0-22.5,10.1-22.5,22.5c0,12.4,10.1,22.5,22.5,22.5s22.5-10.1,22.5-22.5
					C509.3,571,499.3,560.9,486.8,560.9z M497,572.2v5.5l-2.6-2.2l0-3.2H497z M496.2,592.6c0,0,0,0.8-0.7,0.8c-0.9,0-6.7,0-6.7,0
					l0-5.6c0,0,0.1-0.9-1-0.9h-2.8c-0.9,0-0.8,0.9-0.8,0.9l0,5.6c0,0-6.1,0-6.8,0c-0.6,0-0.6-0.6-0.6-0.6v-10.5l10-8.4l9.4,8.4V592.6
					z M497.3,581.5l-10.3-9.3l-11,9.3c-1.8,1.6-2.7,0-2.7,0l13.7-12.1l13.3,12C500.2,581.5,499.4,583,497.3,581.5z"/>
			</g>
		</g>
		<g class="info-transport">
			<g class="nbr">
				<text transform="matrix(1 0 0 1 471.5107 659.9765)" class="st17">166</text>
			</g>
			<g class="icon">
				<circle class="bg st9" cx="487" cy="685" r="23.5"/>
				<g>
					<ellipse class="figure st19" cx="495" cy="693" rx="1.4" ry="1.4"/>
					<path class="figure st19" d="M495.9,679.4c-0.1-0.1-0.2-0.2-0.4-0.2h-3.3c-0.2,0-0.4,0.2-0.4,0.4v3c0,0.2,0.2,0.4,0.4,0.4h5.5
						c0.4,0,0.6-0.4,0.4-0.7L495.9,679.4z"/>
					<path class="figure st19" d="M487,662.5c-12.4,0-22.5,10.1-22.5,22.5c0,12.4,10.1,22.5,22.5,22.5s22.5-10.1,22.5-22.5
						C509.5,672.5,499.4,662.5,487,662.5z M480.7,677.5c0-0.5,0.4-0.9,0.9-0.9h6.1c0.5,0,0.9,0.4,0.9,0.9v3.9c0,0.5-0.4,0.9-0.9,0.9
						h-6.1c-0.5,0-0.9-0.4-0.9-0.9V677.5z M471.5,677.5c0-0.5,0.4-0.9,0.9-0.9h6.1c0.5,0,0.9,0.4,0.9,0.9v3.9c0,0.5-0.4,0.9-0.9,0.9
						h-6.1c-0.5,0-0.9-0.4-0.9-0.9V677.5z M471.5,688.5v-3.9c0-0.5,0.4-0.9,0.9-0.9h15.3c0.5,0,0.9,0.4,0.9,0.9v3.9
						c0,0.5-0.4,0.9-0.9,0.9h-15.3C471.9,689.4,471.5,689,471.5,688.5z M472.2,692.5c-0.2,0-0.4-0.2-0.4-0.4v-1.3
						c0-0.2,0.2-0.4,0.4-0.4h6.1c-0.6,0.6-1.1,1.3-1.2,2.2H472.2z M480.7,695.7c-1.5,0-2.7-1.2-2.7-2.7c0-1.5,1.2-2.7,2.7-2.7
						c1.5,0,2.7,1.2,2.7,2.7C483.4,694.5,482.2,695.7,480.7,695.7z M495,695.7c-1.5,0-2.7-1.2-2.7-2.7c0-1.5,1.2-2.7,2.7-2.7
						c1.5,0,2.7,1.2,2.7,2.7C497.7,694.5,496.5,695.7,495,695.7z M502.5,692c0,0.2-0.2,0.4-0.4,0.4h-3.5c-0.3-1.7-1.8-3.1-3.6-3.1
						c-1.8,0-3.3,1.3-3.6,3.1h-7.2c-0.1-0.9-0.6-1.7-1.2-2.2h6.8v-12.5c0-0.5,0.4-0.9,0.9-0.9h4.1c1.2,0,2.3,0.6,2.9,1.5l2.7,4
						c0.4,0.6,0.6,1.3,0.6,2v6h1.1c0.2,0,0.4,0.2,0.4,0.4V692z"/>
					<circle class="figure st19" cx="480.7" cy="693" r="1.4"/>
				</g>
			</g>
		</g>
		<g class="info-energy">
			<g class="nbr">
				<text transform="matrix(1 0 0 1 471.5107 859.1756)" class="st17">332</text>
			</g>
			<g class="icon">
				<circle class="bg st20" cx="487" cy="884.2" r="23.5"/>
				<path class="figure st19" d="M487,861.7c-12.4,0-22.5,10.1-22.5,22.5s10.1,22.5,22.5,22.5s22.5-10.1,22.5-22.5S499.4,861.7,487,861.7z
					 M495.2,882.4l-9,17.8c-0.2,0.3-0.5,0.5-0.8,0.5c-0.1,0-0.2,0-0.3,0c-0.4-0.1-0.7-0.5-0.6-0.9l1.4-12h-6.6
					c-0.3,0-0.6-0.2-0.7-0.5c-0.2-0.3-0.2-0.6,0-0.9l9-18.2c0.2-0.3,0.5-0.5,0.8-0.5c0.1,0,0.2,0,0.3,0c0.4,0.1,0.7,0.6,0.6,1
					l-1.4,12.5h6.7c0.3,0,0.6,0.1,0.7,0.4C495.4,881.8,495.4,882.1,495.2,882.4z"/>
			</g>
		</g>
		<g id="graph-2020">
			<line class="st21" x1="911" y1="1017" x2="911" y2="417"/>
			<line class="st22" x1="911" y1="1017" x2="911" y2="569.1"/>
			<line class="st23" x1="911" y1="1017" x2="911" y2="623.3"/>
			<line class="st22" x1="911" y1="1017" x2="911" y2="673.9"/>
			<line class="st23" x1="911" y1="1017" x2="911" y2="787"/>
		</g>
		<g class="info-farming">
			<g class="nbr">
				<text transform="matrix(1 0 0 1 893.1905 571.1758)" class="st17">67,8</text>
			</g>
			<g class="icon">
				<circle class="bg st24" cx="911" cy="596.2" r="23.5"/>
				<g>
					<path class="figure st25" d="M910.1,585.1h-3.6v6.5c1.9,0,4.1,0,6.1,0c-0.4-2-1-4.5-1.1-5.4C911.2,585.1,910.8,585.1,910.1,585.1z"/>
					<circle class="figure st25" cx="904.1" cy="601.2" r="3.3"/>
					<path class="figure st25" d="M900.8,586c-0.1,0.8-0.3,3.6-0.5,5.6c1,0,2.9,0,5.2,0v-6.5h-3.7C901.1,585.1,900.8,585.2,900.8,586z"/>
					<path class="figure st25" d="M911,573.7c-12.4,0-22.5,10.1-22.5,22.5s10.1,22.5,22.5,22.5s22.5-10.1,22.5-22.5S923.4,573.7,911,573.7z
						 M909.5,606.4c-1.4,1.3-3.3,2-5.4,2c-2.1,0-4-0.7-5.4-2c-1.5-1.3-2.3-3.2-2.3-5.2c0-4.2,3.4-7.3,7.7-7.3c4.2,0,7.7,3,7.7,7.3
						C911.8,603.3,911,605.1,909.5,606.4z M912.5,602.5c0.1-0.4,0.1-0.8,0.1-1.2c0-2.2-0.9-4.3-2.5-5.8c-1.6-1.5-3.7-2.3-6-2.3
						c-1.5,0-3,0.4-4.3,1.1c0,0,0,0,0,0c-0.1,0.1-0.3,0.1-0.4,0.1c-0.3,0-0.6-0.3-0.6-0.7c0-0.1,0.6-6.5,0.7-7.8c0.2-2,1.6-2,2.2-2
						h8.4c0.7,0,2.1,0,2.6,2.1c0.2,1.2,0.8,3.7,1.2,5.6c2.2,0,4.2,0,5.7,0v-3.1c0-0.5,0.4-0.8,0.8-0.8s0.8,0.4,0.8,0.8v3.1
						c0.8,0,1.3,0,1.4,0c2.4,0,3.1,5.2,1.8,7.5c-1.1-1.2-2.8-2-4.5-2c-3.1,0-5.7,2.3-6.2,5.3H912.5z M923.7,607
						c-1,0.9-2.4,1.4-3.8,1.4c-1.5,0-2.8-0.5-3.8-1.4c-1-0.9-1.6-2.3-1.6-3.7c0-3,2.4-5.4,5.4-5.4c3,0,5.4,2.4,5.4,5.4
						C925.3,604.8,924.7,606.1,923.7,607z"/>
					<circle class="figure st25" cx="919.9" cy="603.3" r="2.3"/>
				</g>
			</g>
		</g>
		<g class="info-building">
			<g class="nbr">
				<text transform="matrix(1 0 0 1 893.1905 623.6157)" class="st17">63,3</text>
			</g>
			<g class="icon">
				<circle class="bg st26" cx="911" cy="648.6" r="23.5"/>
				<path class="figure st25" d="M911,626.1c-12.4,0-22.5,10.1-22.5,22.5c0,12.4,10.1,22.5,22.5,22.5s22.5-10.1,22.5-22.5
					C933.5,636.2,923.4,626.1,911,626.1z M921.2,637.4v5.5l-2.6-2.2l0-3.2H921.2z M920.4,657.8c0,0,0,0.8-0.7,0.8c-0.9,0-6.7,0-6.7,0
					l0-5.6c0,0,0.1-0.9-1-0.9h-2.8c-0.9,0-0.8,0.9-0.8,0.9l0,5.6c0,0-6.1,0-6.8,0c-0.6,0-0.6-0.6-0.6-0.6v-10.5l10-8.4l9.4,8.4V657.8
					z M921.4,646.7l-10.3-9.3l-11,9.3c-1.8,1.6-2.7,0-2.7,0l13.7-12.1l13.3,12C924.4,646.7,923.6,648.2,921.4,646.7z"/>
			</g>
		</g>
		<g class="info-transport">
			<g class="nbr">
				<text transform="matrix(1 0 0 1 888.0269 705.4562)" class="st17">141,3</text>
			</g>
			<g class="icon">
				<circle class="bg st24" cx="911" cy="730.5" r="23.5"/>
				<g>
					<ellipse class="figure st25" cx="919" cy="738.5" rx="1.4" ry="1.4"/>
					<path class="figure st25" d="M919.9,724.9c-0.1-0.1-0.2-0.2-0.4-0.2h-3.3c-0.2,0-0.4,0.2-0.4,0.4v3c0,0.2,0.2,0.4,0.4,0.4h5.5
						c0.4,0,0.6-0.4,0.4-0.7L919.9,724.9z"/>
					<path class="figure st25" d="M911,708c-12.4,0-22.5,10.1-22.5,22.5c0,12.4,10.1,22.5,22.5,22.5s22.5-10.1,22.5-22.5
						C933.5,718,923.4,708,911,708z M904.7,723c0-0.5,0.4-0.9,0.9-0.9h6.1c0.5,0,0.9,0.4,0.9,0.9v3.9c0,0.5-0.4,0.9-0.9,0.9h-6.1
						c-0.5,0-0.9-0.4-0.9-0.9V723z M895.5,723c0-0.5,0.4-0.9,0.9-0.9h6.1c0.5,0,0.9,0.4,0.9,0.9v3.9c0,0.5-0.4,0.9-0.9,0.9h-6.1
						c-0.5,0-0.9-0.4-0.9-0.9V723z M895.5,734V730c0-0.5,0.4-0.9,0.9-0.9h15.3c0.5,0,0.9,0.4,0.9,0.9v3.9c0,0.5-0.4,0.9-0.9,0.9
						h-15.3C895.9,734.8,895.5,734.5,895.5,734z M896.2,737.9c-0.2,0-0.4-0.2-0.4-0.4v-1.3c0-0.2,0.2-0.4,0.4-0.4h6.1
						c-0.6,0.6-1.1,1.3-1.2,2.2H896.2z M904.7,741.2c-1.5,0-2.7-1.2-2.7-2.7c0-1.5,1.2-2.7,2.7-2.7c1.5,0,2.7,1.2,2.7,2.7
						C907.4,740,906.2,741.2,904.7,741.2z M919,741.2c-1.5,0-2.7-1.2-2.7-2.7c0-1.5,1.2-2.7,2.7-2.7c1.5,0,2.7,1.2,2.7,2.7
						C921.7,740,920.5,741.2,919,741.2z M926.5,737.5c0,0.2-0.2,0.4-0.4,0.4h-3.5c-0.3-1.7-1.8-3.1-3.6-3.1c-1.8,0-3.3,1.3-3.6,3.1
						h-7.2c-0.1-0.9-0.6-1.7-1.2-2.2h6.8v-12.5c0-0.5,0.4-0.9,0.9-0.9h4.1c1.2,0,2.3,0.6,2.9,1.5l2.7,4c0.4,0.6,0.6,1.3,0.6,2v6h1.1
						c0.2,0,0.4,0.2,0.4,0.4V737.5z"/>
					<circle class="figure st25" cx="904.7" cy="738.5" r="1.4"/>
				</g>
			</g>
		</g>
		<g class="info-energy">
			<g class="nbr">
				<text transform="matrix(1 0 0 1 888.0269 876.9763)" class="st17">287,5</text>
			</g>
			<g class="icon">
				<circle class="bg st26" cx="911" cy="902" r="23.5"/>
				<path class="figure st25" d="M911,879.5c-12.4,0-22.5,10.1-22.5,22.5s10.1,22.5,22.5,22.5s22.5-10.1,22.5-22.5S923.4,879.5,911,879.5z
					 M919.2,900.2l-9,17.8c-0.2,0.3-0.5,0.5-0.8,0.5c-0.1,0-0.2,0-0.3,0c-0.4-0.1-0.7-0.5-0.6-0.9l1.4-12h-6.6
					c-0.3,0-0.6-0.2-0.7-0.5c-0.2-0.3-0.2-0.6,0-0.9l9-18.2c0.2-0.3,0.5-0.5,0.8-0.5c0.1,0,0.2,0,0.3,0c0.4,0.1,0.7,0.6,0.6,1
					l-1.4,12.5h6.7c0.3,0,0.6,0.1,0.7,0.4C919.4,899.6,919.4,899.9,919.2,900.2z"/>
			</g>
		</g>
		<g id="btw-farming" class="info-farming">
			<line class="st27" x1="540" y1="521.5" x2="579" y2="521.5"/>
			<line class="st34" x1="858" y1="596.2" x2="819" y2="596.2"/>
			<g>
				<line class="st28" x1="540" y1="494.8" x2="540" y2="548.3"/>
				<line class="st29" x1="542" y1="494.8" x2="532" y2="494.8"/>
				<line class="st29" x1="542" y1="548.3" x2="532" y2="548.3"/>
			</g>
			<g class="box">
				<path class="st30" d="M814,611.4H584c-2.8,0-5-2.2-5-5v-95c0-2.8,2.2-5,5-5h230c2.8,0,5,2.2,5,5v95
				C819,609.1,816.8,611.4,814,611.4z"/>
				<linearGradient id="SVGID_9_" gradientUnits="userSpaceOnUse" x1="578" y1="558.8555" x2="820" y2="558.8555">
					<stop  offset="0" style="stop-color:#777777"/>
					<stop  offset="1" style="stop-color:#55ADBA"/>
				</linearGradient>
				<path class="st31" d="M814,611.4H584c-2.8,0-5-2.2-5-5v-95c0-2.8,2.2-5,5-5h230c2.8,0,5,2.2,5,5v95
				C819,609.1,816.8,611.4,814,611.4z"/>
				<text transform="matrix(1 0 0 1 601.306 531.776)"><tspan x="0" y="0" class="st25">Um das Ziel zu erreichen </tspan><tspan x="10.4" y="21.6" class="st25">dürfte jeder Deutsche  </tspan><tspan x="-5.9" y="43.2" class="st25">nur noch rund halb so viel </tspan><tspan x="15" y="64.8" class="st25">Hühnerfleisch essen.</tspan></text>
			</g>
			<g>
				<line class="st35" x1="858" y1="623.3" x2="858" y2="569.1"/>
				<line class="st36" x1="856" y1="623.3" x2="866" y2="623.3"/>
				<line class="st36" x1="856" y1="569.1" x2="866" y2="569.1"/>
			</g>
		</g>
		<g id="btw-building" class="info-building">
			<line class="st37" x1="540" y1="583.4" x2="579" y2="583.4"/>
			<line class="st38" x1="858" y1="648.6" x2="819" y2="648.6"/>
			<g>
				<line class="st39" x1="858" y1="673.9" x2="858" y2="623.3"/>
				<line class="st40" x1="856" y1="673.9" x2="866" y2="673.9"/>
				<line class="st40" x1="856" y1="623.3" x2="866" y2="623.3"/>
			</g>
			<g class="box">
				<path class="st30" d="M814,678.5H584c-2.8,0-5-2.2-5-5v-115c0-2.8,2.2-5,5-5h230c2.8,0,5,2.2,5,5v115
				C819,676.3,816.8,678.5,814,678.5z"/>
				<linearGradient id="SVGID_10_" gradientUnits="userSpaceOnUse" x1="578" y1="616.016" x2="820" y2="616.016">
					<stop  offset="0" style="stop-color:#666666"/>
					<stop  offset="1" style="stop-color:#4995A0"/>
				</linearGradient>
				<path class="st41" d="M814,678.5H584c-2.8,0-5-2.2-5-5v-115c0-2.8,2.2-5,5-5h230c2.8,0,5,2.2,5,5v115
				C819,676.3,816.8,678.5,814,678.5z"/>
				<text transform="matrix(1 0 0 1 598.9661 577.9968)"><tspan x="0" y="0" class="st25">Um das Ziel zu erreichen, </tspan><tspan x="22.7" y="21.6" class="st25">müssten insgesamt  </tspan><tspan x="-1.1" y="43.2" class="st25">14 Millionen Wohnungen  </tspan><tspan x="4.8" y="64.8" class="st25">auf Passivhausstandard  </tspan><tspan x="29.3" y="86.4" class="st25">gebracht werden.</tspan></text>
			</g>
			<g>
				<line class="st42" x1="540" y1="548.3" x2="540" y2="618.6"/>
				<line class="st43" x1="542" y1="548.3" x2="532" y2="548.3"/>
				<line class="st43" x1="542" y1="618.6" x2="532" y2="618.6"/>
			</g>
		</g>
		<g id="btw-transport" class="info-transport">
			<line class="st27" x1="540" y1="683.1" x2="579" y2="683.1"/>
			<line class="st34" x1="858" y1="730.5" x2="819" y2="730.5"/>
			<g>
				<line class="st35" x1="858" y1="787" x2="858" y2="673.9"/>
				<line class="st36" x1="856" y1="787" x2="866" y2="787"/>
				<line class="st36" x1="856" y1="673.9" x2="866" y2="673.9"/>
			</g>
			<g class="box">
				<path class="st30" d="M814,759.3H584c-2.8,0-5-2.2-5-5v-95c0-2.8,2.2-5,5-5h230c2.8,0,5,2.2,5,5v95
					C819,757,816.8,759.3,814,759.3z"/>
				<linearGradient id="SVGID_11_" gradientUnits="userSpaceOnUse" x1="578" y1="706.7849" x2="820" y2="706.7849">
					<stop  offset="0" style="stop-color:#777777"/>
					<stop  offset="1" style="stop-color:#55ADBA"/>
				</linearGradient>
				<path class="st44" d="M814,759.3H584c-2.8,0-5-2.2-5-5v-95c0-2.8,2.2-5,5-5h230c2.8,0,5,2.2,5,5v95
					C819,757,816.8,759.3,814,759.3z"/>
				<text transform="matrix(1 0 0 1 598.9661 679.9968)"><tspan x="0" y="0" class="st25">Um das Ziel zu erreichen, </tspan><tspan x="14.3" y="21.6" class="st25">müssten 12 Millionen </tspan><tspan x="7.3" y="43.2" class="st25">Mittelklasse-Fahrer auf </tspan><tspan x="24.3" y="64.8" class="st25">Elektro umsteigen.</tspan></text>
			</g>
			<g>
				<line class="st28" x1="540" y1="618.6" x2="540" y2="751.4"/>
				<line class="st29" x1="542" y1="618.6" x2="532" y2="618.6"/>
				<line class="st29" x1="542" y1="751.4" x2="532" y2="751.4"/>
			</g>
		</g>
		<g id="btw-energy" class="info-energy">
			<line class="st37" x1="540" y1="883.8" x2="579" y2="883.8"/>
			<line class="st38" x1="858" y1="902" x2="819" y2="902"/>
			<g>
				<line class="st39" x1="858" y1="1017" x2="858" y2="787"/>
				<line class="st40" x1="856" y1="1017" x2="866" y2="1017"/>
				<line class="st40" x1="856" y1="787" x2="866" y2="787"/>
			</g>
			<g class="box">
				<path class="st30" d="M814,945.4H584c-2.8,0-5-2.2-5-5v-95c0-2.8,2.2-5,5-5h230c2.8,0,5,2.2,5,5v95
				C819,943.2,816.8,945.4,814,945.4z"/>
				<linearGradient id="SVGID_12_" gradientUnits="userSpaceOnUse" x1="578" y1="892.8896" x2="820" y2="892.8896">
					<stop  offset="0" style="stop-color:#666666"/>
					<stop  offset="1" style="stop-color:#4995A0"/>
				</linearGradient>
				<path class="st45" d="M814,945.4H584c-2.8,0-5-2.2-5-5v-95c0-2.8,2.2-5,5-5h230c2.8,0,5,2.2,5,5v95
				C819,943.2,816.8,945.4,814,945.4z"/>
				<text transform="matrix(1 0 0 1 601.306 866.6682)"><tspan x="0" y="0" class="st25">Um das Ziel zu erreichen </tspan><tspan x="12" y="21.6" class="st25">müssten 32 Millionen </tspan><tspan x="15.1" y="43.2" class="st25">Haushalte Ökostrom  </tspan><tspan x="58.5" y="64.8" class="st25">beziehen.</tspan></text>
			</g>
			<g>
				<line class="st42" x1="540" y1="751.4" x2="540" y2="1017"/>
				<line class="st43" x1="542" y1="751.4" x2="532" y2="751.4"/>
				<line class="st43" x1="542" y1="1017" x2="532" y2="1017"/>
			</g>
		</g>
		<line id="line-top-2016" class="st46" x1="487" y1="272.2" x2="487" y2="286.2"/>
		<g id="txt-co2-2013">
			<text transform="matrix(1 0 0 1 126.4063 215.9526)"><tspan x="0" y="0" class="st19 font-reg">insgesamt</tspan><tspan x="-39.7" y="20" class="st19">945 Mio Tonnen CO</tspan><tspan x="119.7" y="20" class="st19 st47">2</tspan></text>
			<line class="st46" x1="169" y1="255" x2="169" y2="241"/>
			<line class="st48" x1="86.5" y1="241" x2="251.5" y2="241"/>
		</g>
		<g id="txt-co2-2016">
			<text transform="matrix(1 0 0 1 444.4063 247.1528)"><tspan x="0" y="0" class="st19 font-reg">insgesamt</tspan><tspan x="-39.7" y="20" class="st19">906 Mio Tonnen CO<tspan x="119.7" y="20" class="st19 st47">2</tspan></tspan></text>
			<line class="st48" x1="404.5" y1="272.2" x2="569.5" y2="272.2"/>
		</g>
		<g id="txt-co2-2020">
			<path class="st25" d="M962.8,355H859.2c-4.8,0-8.7-3.9-8.7-8.6v-7.7c0-4.8,3.9-8.6,8.7-8.6h103.7c4.8,0,8.7,3.9,8.7,8.6v7.7
			C971.5,351.1,967.6,355,962.8,355z"/>
			<text transform="matrix(1 0 0 1 856.9883 349.25)"><tspan x="0" y="0" class="st11">Ziel für 2020:</tspan><tspan x="-28.2" y="23" class="st25">750 Mio Tonnen CO<tspan x="131.1" y="23" class="st25 st47">2</tspan></tspan><tspan x="11.4" y="41" class="st25 font-reg">insgesamt</tspan></text>
			<line class="st49" x1="911" y1="411" x2="911" y2="397"/>
			<line class="st50" x1="868.5" y1="397" x2="953.5" y2="397"/>
		</g>
	</g>
	<g id="txt">
		<text transform="matrix(1 0 0 1 148.3481 1044.6655)" class="st19">2013</text>
		<text transform="matrix(1 0 0 1 254.3477 1044.6655)" class="st51">2014</text>
		<text transform="matrix(1 0 0 1 360.3486 1044.6655)" class="st51">2015</text>
		<text transform="matrix(1 0 0 1 466.3457 1044.6655)" class="st19">2016</text>
		<text transform="matrix(1 0 0 1 566.3457 1044.6655)" class="st51">2017</text>
		<text transform="matrix(1 0 0 1 672.3457 1044.6655)" class="st51">2018</text>
		<text transform="matrix(1 0 0 1 778.3457 1044.6655)" class="st51">2019</text>
		<text transform="matrix(1 0 0 1 890.3472 1044.6655)" class="st26">2020</text>
		<line class="st52" x1="77" y1="1017" x2="972.5" y2="1017"/>
		<g>
			<text transform="matrix(1 0 0 1 54.6729 1017.9985)" class="st53">0</text>
			<text transform="matrix(1 0 0 1 34.0186 938.1089)" class="st53">100</text>
			<text transform="matrix(1 0 0 1 34.0186 858.2183)" class="st53">200</text>
			<text transform="matrix(1 0 0 1 34.0186 778.3276)" class="st53">300</text>
			<text transform="matrix(1 0 0 1 34.0186 698.3276)" class="st53">400</text>
			<text transform="matrix(1 0 0 1 34.0186 618.3276)" class="st53">500</text>
			<text transform="matrix(1 0 0 1 34.0186 538.3276)" class="st53">600</text>
			<text transform="matrix(1 0 0 1 34.0186 458.3276)" class="st53">700</text>
			<text transform="matrix(1 0 0 1 34.0186 378.3276)" class="st53">800</text>
			<text transform="matrix(1 0 0 1 34.0186 298.3276)" class="st53">900</text>
			<text transform="matrix(1 0 0 1 18.4531 218.3286)" class="st53">1.000</text>
		</g>
		<g>
			<line class="st52" x1="77" y1="1018" x2="77" y2="216"/>
			<line class="st52" x1="77" y1="977" x2="82" y2="977"/>
			<line class="st52" x1="77" y1="937" x2="87" y2="937"/>
			<line class="st52" x1="77" y1="897" x2="82" y2="897"/>
			<line class="st52" x1="77" y1="857" x2="87" y2="857"/>
			<line class="st52" x1="77" y1="817" x2="82" y2="817"/>
			<line class="st52" x1="77" y1="777" x2="87" y2="777"/>
			<line class="st52" x1="77" y1="737" x2="82" y2="737"/>
			<line class="st52" x1="77" y1="697" x2="87" y2="697"/>
			<line class="st52" x1="77" y1="657" x2="82" y2="657"/>
			<line class="st52" x1="77" y1="617" x2="87" y2="617"/>
			<line class="st52" x1="77" y1="577" x2="82" y2="577"/>
			<line class="st52" x1="77" y1="537" x2="87" y2="537"/>
			<line class="st52" x1="77" y1="497" x2="82" y2="497"/>
			<line class="st52" x1="77" y1="457" x2="87" y2="457"/>
			<line class="st52" x1="77" y1="417" x2="82" y2="417"/>
			<line class="st52" x1="77" y1="377" x2="87" y2="377"/>
			<line class="st52" x1="77" y1="337" x2="82" y2="337"/>
			<line class="st52" x1="77" y1="297" x2="87" y2="297"/>
			<line class="st52" x1="77" y1="257" x2="82" y2="257"/>
			<line class="st52" x1="77" y1="217" x2="87" y2="217"/>
		</g>
		<path class="st54" d="M157.4,172.3H65.5c-1.2,0-2.3,0.4-3.3,1.2l-16.9,18.8l-19-18.9c-0.9-0.7-2-1.1-3.1-1.1H15c-2.8,0-5-2.2-5-5
			v-40c0-2.8,2.2-5,5-5h142.4c2.8,0,5,2.2,5,5v40C162.4,170.1,160.1,172.3,157.4,172.3z"/>
		<text transform="matrix(1 0 0 1 18 143.3833)"><tspan x="0" y="0" class="st53 font-reg">Emissionen in </tspan><tspan x="0" y="18" class="st53 font-reg">Mio. Tonnen C02</tspan></text>

		<g id="info">
			<path id="info-frame" class="st0" d="M943.3,209.2h-150c-2.8,0-5-2.2-5-5v-70c0-2.8,2.2-5,5-5h150c2.8,0,5,2.2,5,5v70
				C948.3,206.9,946.1,209.2,943.3,209.2z"/>
			<g id="info-icon">
				<circle class="st0" cx="868.3" cy="112.4" r="21"/>
				<path id="icon" class="st25" d="M868.3,92.4c-11,0-20,9-20,20s9,20,20,20s20-9,20-20S879.4,92.4,868.3,92.4z M870.6,123.6
					H866v-16.9h4.6V123.6z M870.6,102.6H866v-3.4h4.6V102.6z"/>
			</g>
			<text id="infotext" transform="matrix(1 0 0 1 797.0754 152.6657)"><tspan x="0" y="0" class="st25 font-reg">Bewege die Maus</tspan><tspan x="1.3" y="21.6" class="st25 font-reg">über die Symbole</tspan><tspan x="22.3" y="43.2" class="st25 font-reg">in der Grafik</tspan></text>
		</g>

		<!-- Icons under title -->
		<g>
			<text transform="matrix(1 0 0 1 619.2614 154.3555)" class="st19">Landwirtschaft</text>
			<g id="icon-farming">
				<g class="icon">
					<circle class="bg st0" cx="680" cy="112.4" r="23.5"/>
					<g>
						<path class="figure st19" d="M679.1,101.3h-3.6v6.5c1.9,0,4.1,0,6.1,0c-0.4-2-1-4.5-1.1-5.4C680.2,101.3,679.8,101.3,679.1,101.3z"/>
						<circle class="figure st19" cx="673.1" cy="117.4" r="3.3"/>
						<path class="figure st19" d="M669.8,102.2c-0.1,0.8-0.3,3.6-0.5,5.6c1,0,2.9,0,5.2,0v-6.5h-3.7C670.1,101.3,669.9,101.3,669.8,102.2z"
							/>
						<path class="figure st19" d="M680,89.9c-12.4,0-22.5,10.1-22.5,22.5s10.1,22.5,22.5,22.5s22.5-10.1,22.5-22.5S692.4,89.9,680,89.9z
							 M678.5,122.6c-1.4,1.3-3.3,2-5.4,2c-2.1,0-4-0.7-5.4-2c-1.5-1.3-2.3-3.2-2.3-5.2c0-4.2,3.4-7.3,7.7-7.3c4.2,0,7.7,3,7.7,7.3
							C680.8,119.4,680,121.3,678.5,122.6z M681.5,118.6c0.1-0.4,0.1-0.8,0.1-1.2c0-2.2-0.9-4.3-2.5-5.8c-1.6-1.5-3.7-2.3-6-2.3
							c-1.5,0-3,0.4-4.3,1.1c0,0,0,0,0,0c-0.1,0.1-0.3,0.1-0.4,0.1c-0.3,0-0.6-0.3-0.6-0.7c0-0.1,0.6-6.5,0.7-7.8c0.2-2,1.6-2,2.2-2
							h8.4c0.7,0,2.1,0,2.6,2.1c0.2,1.2,0.8,3.7,1.2,5.6c2.2,0,4.2,0,5.7,0v-3.1c0-0.5,0.4-0.8,0.8-0.8s0.8,0.4,0.8,0.8v3.1
							c0.8,0,1.3,0,1.4,0c2.4,0,3.1,5.2,1.8,7.5c-1.1-1.2-2.8-2-4.5-2c-3.1,0-5.7,2.3-6.2,5.3H681.5z M692.7,123.2
							c-1,0.9-2.4,1.4-3.8,1.4c-1.5,0-2.8-0.5-3.8-1.4c-1-0.9-1.6-2.3-1.6-3.7c0-3,2.4-5.4,5.4-5.4c3,0,5.4,2.4,5.4,5.4
							C694.3,121,693.7,122.3,692.7,123.2z"/>
						<circle class="figure st19" cx="688.9" cy="119.5" r="2.3"/>
					</g>
				</g>
			</g>
		</g>
		<g>
			<text transform="matrix(1 0 0 1 524.383 154.3555)" class="st19">Gebäude</text>
			<g id="icon-building">
				<g class="icon">
					<circle class="bg st0" cx="560" cy="112.4" r="23.5"/>
					<path class="figure st19" d="M560,89.9c-12.4,0-22.5,10.1-22.5,22.5c0,12.4,10.1,22.5,22.5,22.5s22.5-10.1,22.5-22.5
						C582.5,99.9,572.4,89.9,560,89.9z M570.2,101.1v5.5l-2.6-2.2l0-3.2H570.2z M569.4,121.6c0,0,0,0.8-0.7,0.8c-0.9,0-6.7,0-6.7,0
						l0-5.6c0,0,0.1-0.9-1-0.9h-2.8c-0.9,0-0.8,0.9-0.8,0.9l0,5.6c0,0-6.1,0-6.8,0c-0.6,0-0.6-0.6-0.6-0.6v-10.5l10-8.4l9.4,8.4
						V121.6z M570.4,110.4l-10.3-9.3l-11,9.3c-1.8,1.6-2.7,0-2.7,0l13.7-12.1l13.3,12C573.4,110.4,572.6,112,570.4,110.4z"/>
				</g>
			</g>
		</g>
		<g>
			<text transform="matrix(1 0 0 1 408.5441 154.3555)" class="st19">Verkehr</text>
			<g id="icon-transport">
				<g class="icon">
					<circle class="bg st0" cx="440" cy="112.4" r="23.5"/>
					<g>
						<ellipse class="figure st19" cx="448" cy="120.4" rx="1.4" ry="1.4"/>
						<path class="figure st19" d="M448.9,106.8c-0.1-0.1-0.2-0.2-0.4-0.2h-3.3c-0.2,0-0.4,0.2-0.4,0.4v3c0,0.2,0.2,0.4,0.4,0.4h5.5
							c0.4,0,0.6-0.4,0.4-0.7L448.9,106.8z"/>
						<path class="figure st19" d="M440,89.9c-12.4,0-22.5,10.1-22.5,22.5c0,12.4,10.1,22.5,22.5,22.5s22.5-10.1,22.5-22.5
							C462.5,99.9,452.4,89.9,440,89.9z M433.7,104.9c0-0.5,0.4-0.9,0.9-0.9h6.1c0.5,0,0.9,0.4,0.9,0.9v3.9c0,0.5-0.4,0.9-0.9,0.9
							h-6.1c-0.5,0-0.9-0.4-0.9-0.9V104.9z M424.5,104.9c0-0.5,0.4-0.9,0.9-0.9h6.1c0.5,0,0.9,0.4,0.9,0.9v3.9c0,0.5-0.4,0.9-0.9,0.9
							h-6.1c-0.5,0-0.9-0.4-0.9-0.9V104.9z M424.5,115.9v-3.9c0-0.5,0.4-0.9,0.9-0.9h15.3c0.5,0,0.9,0.4,0.9,0.9v3.9
							c0,0.5-0.4,0.9-0.9,0.9h-15.3C424.9,116.7,424.5,116.4,424.5,115.9z M425.2,119.8c-0.2,0-0.4-0.2-0.4-0.4v-1.3
							c0-0.2,0.2-0.4,0.4-0.4h6.1c-0.6,0.6-1.1,1.3-1.2,2.2H425.2z M433.7,123.1c-1.5,0-2.7-1.2-2.7-2.7c0-1.5,1.2-2.7,2.7-2.7
							c1.5,0,2.7,1.2,2.7,2.7C436.4,121.9,435.2,123.1,433.7,123.1z M448,123.1c-1.5,0-2.7-1.2-2.7-2.7c0-1.5,1.2-2.7,2.7-2.7
							c1.5,0,2.7,1.2,2.7,2.7C450.7,121.9,449.5,123.1,448,123.1z M455.5,119.4c0,0.2-0.2,0.4-0.4,0.4h-3.5c-0.3-1.7-1.8-3.1-3.6-3.1
							c-1.8,0-3.3,1.3-3.6,3.1h-7.2c-0.1-0.9-0.6-1.7-1.2-2.2h6.8v-12.5c0-0.5,0.4-0.9,0.9-0.9h4.1c1.2,0,2.3,0.6,2.9,1.5l2.7,4
							c0.4,0.6,0.6,1.3,0.6,2v6h1.1c0.2,0,0.4,0.2,0.4,0.4V119.4z"/>
						<circle class="figure st19" cx="433.7" cy="120.4" r="1.4"/>
					</g>
				</g>
			</g>
		</g>
		<g>
			<text transform="matrix(1 0 0 1 289.5928 154.3555)" class="st19">Energie</text>
			<g id="icon-energy">
				<g class="icon">
					<circle class="bg st0" cx="320" cy="112.4" r="23.5"/>
					<path class="figure st19" d="M320,89.9c-12.4,0-22.5,10.1-22.5,22.5s10.1,22.5,22.5,22.5s22.5-10.1,22.5-22.5S332.4,89.9,320,89.9z
						 M328.2,110.6l-9,17.8c-0.2,0.3-0.5,0.5-0.8,0.5c-0.1,0-0.2,0-0.3,0c-0.4-0.1-0.7-0.5-0.6-0.9l1.4-12h-6.6
						c-0.3,0-0.6-0.2-0.7-0.5c-0.2-0.3-0.2-0.6,0-0.9l9-18.2c0.2-0.3,0.5-0.5,0.8-0.5c0.1,0,0.2,0,0.3,0c0.4,0.1,0.7,0.6,0.6,1
						l-1.4,12.5h6.7c0.3,0,0.6,0.1,0.7,0.4C328.4,110,328.4,110.3,328.2,110.6z"/>
				</g>
			</g>
		</g>
		<text transform="matrix(1 0 0 1 173.8965 56.6895)" class="st53 st63">Bundesregierung verfehlt Klimaziele</text>

		<text transform="matrix(1 0 0 1 69.3273 1083.6683)" class="st19 font-reg">Quellen: Emissionsdaten 2013 und 2016: UBA, Projektion 2020: Projektionsbericht 2015, Tabelle 1-3 (S. 24)</text>

		<text id="credits" transform="matrix(1 0 0 1 312.2892 1122.2764)" class="st33 font-reg st24">
			<a id="g1" href="https://correctiv.org/" target="_blank">Correctiv.org</a> | 
			<a id="g1" href="http://www.klimaretter.info/" target="_blank"> Klimaretter.info</a> | Design: 
			<a id="g1" href="http://www.kreataz.com/" target="_blank">kreataz</a></text>
	</g>
</svg>
