<?xml version="1.0" encoding="utf-8"?>
<!-- Generator: Adobe Illustrator 21.0.0, SVG Export Plug-In . SVG Version: 6.00 Build 0)  -->
<svg id="main-svg" version="1.1" xmlns="http://www.w3.org/2000/svg" xmlns:xlink="http://www.w3.org/1999/xlink" x="0px" y="0px"
	 viewBox="0 0 1000 1120" style="enable-background:new 0 0 1000 1120;" xml:space="preserve">

<g id="bg">
	<rect id="background" class="st0" width="1000" height="1120"/>
	<polygon id="background_1_" class="st1" points="0,1024.3 1000,1024.2 1000,1120 0,1120 	"/>
	<g id="radiator-graf" class="st2">
		<g id="radiator" class="st3">
			<g>
				<g>
					
						<linearGradient id="SVGID_1_" gradientUnits="userSpaceOnUse" x1="122.2" y1="1432.7" x2="178.4" y2="1432.7" gradientTransform="matrix(1 0 0 1 0 -532)">
						<stop  offset="0.33" style="stop-color:#B3B3B3"/>
						<stop  offset="0.66" style="stop-color:#808080"/>
					</linearGradient>
					<rect x="122.2" y="890.2" class="st4" width="56.2" height="21"/>
					<g>
						
							<linearGradient id="SVGID_2_" gradientUnits="userSpaceOnUse" x1="128.0892" y1="1394.8" x2="172.4892" y2="1394.8" gradientTransform="matrix(1 0 0 1 0 -532)">
							<stop  offset="0.33" style="stop-color:#B3B3B3"/>
							<stop  offset="0.66" style="stop-color:#808080"/>
						</linearGradient>
						<polygon class="st5" points="128,838.6 128,887 172.4,887 172.4,838.6 160,838.6 160,871 140.4,871 140.4,838.6 						"/>
						<rect x="143.8" y="838.6" class="st6" width="13" height="29"/>
					</g>
				</g>
				<g>
					<rect x="180.8" y="921" class="st7" width="22" height="10.4"/>
					<rect x="180.8" y="934.6" class="st6" width="22" height="16.2"/>
					<rect x="180.8" y="954" class="st8" width="22" height="10.4"/>
				</g>
				
					<linearGradient id="SVGID_3_" gradientUnits="userSpaceOnUse" x1="141.6258" y1="1543" x2="159.31" y2="1543" gradientTransform="matrix(1 0 0 1 0 -532)">
					<stop  offset="0.33" style="stop-color:#B3B3B3"/>
					<stop  offset="0.66" style="stop-color:#808080"/>
				</linearGradient>
				<rect x="141.6" y="997.8" class="st9" width="17.6" height="26.4"/>
				
					<linearGradient id="SVGID_4_" gradientUnits="userSpaceOnUse" x1="141.6258" y1="1475.5" x2="159.31" y2="1475.5" gradientTransform="matrix(1 0 0 1 0 -532)">
					<stop  offset="0.33" style="stop-color:#B3B3B3"/>
					<stop  offset="0.66" style="stop-color:#808080"/>
				</linearGradient>
				<rect x="141.6" y="914.2" class="st10" width="17.6" height="58.6"/>
				<g>
					<rect x="161.8" y="976" class="st8" width="9.8" height="18.4"/>
					<rect x="142.2" y="976" class="st6" width="16.4" height="18.4"/>
					<rect x="129" y="976" class="st7" width="9.8" height="18.4"/>
				</g>
				
					<linearGradient id="SVGID_5_" gradientUnits="userSpaceOnUse" x1="170.1" y1="1490.3248" x2="170.1" y2="1457.5344" gradientTransform="matrix(1 0 0 1 0 -532)">
					<stop  offset="0" style="stop-color:#808080"/>
					<stop  offset="1" style="stop-color:#B3B3B3"/>
				</linearGradient>
				<rect x="162.6" y="927" class="st11" width="15" height="31.4"/>
			</g>
			<g>
				
					<linearGradient id="SVGID_6_" gradientUnits="userSpaceOnUse" x1="847.6354" y1="1543" x2="865.3198" y2="1543" gradientTransform="matrix(1 0 0 1 0 -532)">
					<stop  offset="0.33" style="stop-color:#B3B3B3"/>
					<stop  offset="0.66" style="stop-color:#808080"/>
				</linearGradient>
				<rect x="847.6" y="997.8" class="st12" width="17.6" height="26.4"/>
				
					<linearGradient id="SVGID_7_" gradientUnits="userSpaceOnUse" x1="842.0001" y1="1423.6" x2="871.2853" y2="1423.6" gradientTransform="matrix(1 0 0 1 0 -532)">
					<stop  offset="0.33" style="stop-color:#B3B3B3"/>
					<stop  offset="0.66" style="stop-color:#808080"/>
				</linearGradient>
				<path class="st13" d="M871.2,876.2c0-2.2-1.8-3.8-3.8-3.8h-21.6c-2.2,0-3.8,1.8-3.8,3.8v34.6h29.2L871.2,876.2L871.2,876.2z"/>
				<g>
					<rect x="804" y="921" class="st7" width="22" height="10.4"/>
					<rect x="804" y="934.6" class="st6" width="22" height="16.2"/>
					<rect x="804" y="954" class="st8" width="22" height="10.4"/>
				</g>
				<g>
					<rect x="835.6" y="976" class="st7" width="9.8" height="18.4"/>
					<rect x="848.6" y="976" class="st6" width="16.4" height="18.4"/>
					<rect x="868.2" y="976" class="st8" width="9.8" height="18.4"/>
				</g>
				
					<linearGradient id="SVGID_8_" gradientUnits="userSpaceOnUse" x1="904.2958" y1="1475.5" x2="921.9802" y2="1475.5" gradientTransform="matrix(1 0 0 1 -56.6604 -532)">
					<stop  offset="0.33" style="stop-color:#B3B3B3"/>
					<stop  offset="0.66" style="stop-color:#808080"/>
				</linearGradient>
				<rect x="847.6" y="914.2" class="st14" width="17.6" height="58.6"/>
				
					<linearGradient id="SVGID_9_" gradientUnits="userSpaceOnUse" x1="-1407.5667" y1="1490.3248" x2="-1407.5667" y2="1457.5344" gradientTransform="matrix(-1 0 0 1 -570.6666 -532)">
					<stop  offset="0" style="stop-color:#808080"/>
					<stop  offset="1" style="stop-color:#B3B3B3"/>
				</linearGradient>
				<rect x="829.4" y="927" class="st15" width="15" height="31.4"/>
			</g>
			<g>
				
					<linearGradient id="SVGID_10_" gradientUnits="userSpaceOnUse" x1="499.8" y1="842.484" x2="499.8" y2="807.866" gradientTransform="matrix(1 0 0 1 0 -532)">
					<stop  offset="0" style="stop-color:#808080"/>
					<stop  offset="1" style="stop-color:#B3B3B3"/>
				</linearGradient>
				<path class="st16" d="M802.4,293.2L802.4,293.2c0-9.6-7.8-17.4-17.4-17.4H214.6c-9.6,0-17.4,7.8-17.4,17.4l0,0
					c0,9.6,7.8,17.4,17.4,17.4H785C794.6,310.4,802.4,302.8,802.4,293.2z"/>
				
					<linearGradient id="SVGID_11_" gradientUnits="userSpaceOnUse" x1="503.5" y1="1491.9595" x2="503.5" y2="1457.3594" gradientTransform="matrix(1 0 0 1 0 -532)">
					<stop  offset="0" style="stop-color:#808080"/>
					<stop  offset="1" style="stop-color:#B3B3B3"/>
				</linearGradient>
				<rect x="206.2" y="925.4" class="st17" width="594.6" height="34.6"/>
				<g>
					
						<linearGradient id="SVGID_12_" gradientUnits="userSpaceOnUse" x1="221.4" y1="1150" x2="273.0936" y2="1150" gradientTransform="matrix(1 0 0 1 0 -532)">
						<stop  offset="0.33" style="stop-color:#CCCCCC"/>
						<stop  offset="0.66" style="stop-color:#999999"/>
					</linearGradient>
					<path class="st18" d="M273,275.6c0-14.2-11.6-25.8-25.8-25.8l0,0c-14.2,0-25.8,11.6-25.8,25.8v684.8
						c0,14.2,11.6,25.8,25.8,25.8l0,0c14.2,0,25.8-11.6,25.8-25.8V275.6z"/>
					
						<linearGradient id="SVGID_13_" gradientUnits="userSpaceOnUse" x1="305.5446" y1="1150" x2="357.2382" y2="1150" gradientTransform="matrix(1 0 0 1 0 -532)">
						<stop  offset="0.33" style="stop-color:#CCCCCC"/>
						<stop  offset="0.66" style="stop-color:#999999"/>
					</linearGradient>
					<path class="st19" d="M331.4,986.2L331.4,986.2c14.2,0,25.8-11.6,25.8-25.8V275.6c0-14.2-11.6-25.8-25.8-25.8l0,0
						c-14.2,0-25.8,11.6-25.8,25.8v684.8C305.6,974.8,317.2,986.2,331.4,986.2z"/>
					
						<linearGradient id="SVGID_14_" gradientUnits="userSpaceOnUse" x1="389.7108" y1="1150" x2="441.4052" y2="1150" gradientTransform="matrix(1 0 0 1 0 -532)">
						<stop  offset="0.33" style="stop-color:#CCCCCC"/>
						<stop  offset="0.66" style="stop-color:#999999"/>
					</linearGradient>
					<path class="st20" d="M441.4,275.6c0-14.2-11.6-25.8-25.8-25.8l0,0c-14.2,0-25.8,11.6-25.8,25.8v684.8
						c0,14.2,11.6,25.8,25.8,25.8l0,0c14.2,0,25.8-11.6,25.8-25.8V275.6z"/>
					
						<linearGradient id="SVGID_15_" gradientUnits="userSpaceOnUse" x1="473.8776" y1="1150" x2="525.572" y2="1150" gradientTransform="matrix(1 0 0 1 0 -532)">
						<stop  offset="0.33" style="stop-color:#CCCCCC"/>
						<stop  offset="0.66" style="stop-color:#999999"/>
					</linearGradient>
					<path class="st21" d="M525.6,275.6c0-14.2-11.6-25.8-25.8-25.8l0,0c-14.2,0-25.8,11.6-25.8,25.8v684.8
						c0,14.2,11.6,25.8,25.8,25.8l0,0c14.2,0,25.8-11.6,25.8-25.8V275.6z"/>
					
						<linearGradient id="SVGID_16_" gradientUnits="userSpaceOnUse" x1="558.0438" y1="1150" x2="609.739" y2="1150" gradientTransform="matrix(1 0 0 1 0 -532)">
						<stop  offset="0.33" style="stop-color:#CCCCCC"/>
						<stop  offset="0.66" style="stop-color:#999999"/>
					</linearGradient>
					<path class="st22" d="M609.8,275.6c0-14.2-11.6-25.8-25.8-25.8l0,0c-14.2,0-25.8,11.6-25.8,25.8v684.8
						c0,14.2,11.6,25.8,25.8,25.8l0,0c14.2,0,25.8-11.6,25.8-25.8V275.6z"/>
					
						<linearGradient id="SVGID_17_" gradientUnits="userSpaceOnUse" x1="642.2106" y1="1150" x2="693.9058" y2="1150" gradientTransform="matrix(1 0 0 1 0 -532)">
						<stop  offset="0.33" style="stop-color:#CCCCCC"/>
						<stop  offset="0.66" style="stop-color:#999999"/>
					</linearGradient>
					<path class="st23" d="M694,275.6c0-14.2-11.6-25.8-25.8-25.8l0,0c-14.2,0-25.8,11.6-25.8,25.8v684.8
						c0,14.2,11.6,25.8,25.8,25.8l0,0c14.2,0,25.8-11.6,25.8-25.8V275.6z"/>
					
						<linearGradient id="SVGID_18_" gradientUnits="userSpaceOnUse" x1="726.4" y1="1150" x2="778.0952" y2="1150" gradientTransform="matrix(1 0 0 1 0 -532)">
						<stop  offset="0.33" style="stop-color:#CCCCCC"/>
						<stop  offset="0.66" style="stop-color:#999999"/>
					</linearGradient>
					<path class="st24" d="M778,275.6c0-14.2-11.6-25.8-25.8-25.8l0,0c-14.2,0-25.8,11.6-25.8,25.8v684.8
						c0,14.2,11.6,25.8,25.8,25.8l0,0c14.2,0,25.8-11.6,25.8-25.8V275.6z"/>
				</g>
			</g>
		</g>
	</g>
	<g id="heat">
		<path class="st32" d="M262.2,340c0-25-30-25-30-50s30-25,30-50s-30-25-30-50s30-25,30-50"/>
		<path class="st32" d="M346.4,340c0-25-30-25-30-50s30-25,30-50s-30-25-30-50s30-25,30-50"/>
		<path class="st32" d="M430.6,340c0-25-30-25-30-50s30-25,30-50s-30-25-30-50s30-25,30-50"/>
		<path class="st32" d="M514.8,340c0-25-30-25-30-50s30-25,30-50s-30-25-30-50s30-25,30-50"/>
		<path class="st32" d="M599,340c0-25-30-25-30-50s30-25,30-50s-30-25-30-50s30-25,30-50"/>
		<path class="st32" d="M683.2,340c0-25-30-25-30-50s30-25,30-50s-30-25-30-50s30-25,30-50"/>
		<path class="st32" d="M767.4,340c0-25-30-25-30-50s30-25,30-50s-30-25-30-50s30-25,30-50"/>
	</g>
	<rect id="heat-mask" x="197.2" y="140" class="st33" width="605.2" height="100"/>
	<linearGradient id="heat-grad_1_" gradientUnits="userSpaceOnUse" x1="499.8" y1="240" x2="499.8" y2="140">
		<stop  offset="0" style="stop-color:#555555;stop-opacity:0"/>
		<stop  offset="1" style="stop-color:#555555"/>
	</linearGradient>
	<rect id="heat-grad" x="197.2" y="140" class="st34" width="605.2" height="100"/>
</g>
<g id="txt">
	<text transform="matrix(1 0 0 1 257.8086 1061)" class="st35 font-reg">Quelle: Eigene Berechnungen Bundesverband Wärmepumpe</text>
	<text transform="matrix(1 0 0 1 259.0625 101.3994)" class="st35 st39">Absatzzahlen der Heizungen für den Gebäudebestand</text>
	<text transform="matrix(1 0 0 1 218.3008 56.6895)" class="st35 st40">Abschied von der Wärmewende</text>
</g>
<g id="table">
	<g id="count">
		<path class="st41" d="M181,310.6h-10.9c-1.2,0-2.3,0.4-3.3,1.2l-16.6,18.8L131,311.7c-0.9-0.7-2-1.1-3.1-1.1h-8.3
			c-2.8,0-5-2.2-5-5v-23c0-2.8,2.2-5,5-5H181c2.8,0,5,2.2,5,5v23C186,308.4,183.7,310.6,181,310.6z"/>
		<text transform="matrix(1 0 0 1 122.5002 300.15)" class="st42 font-reg">Anzahl</text>
	</g>
	<g id="nbrs">
		<text transform="matrix(1 0 0 1 117.8322 801)" class="st35">100.000</text>
		<text transform="matrix(1 0 0 1 117.8322 701)" class="st35">200.000</text>
		<text transform="matrix(1 0 0 1 117.8322 601)" class="st35">300.000</text>
		<text transform="matrix(1 0 0 1 117.8322 501)" class="st35">400.000</text>
		<text transform="matrix(1 0 0 1 117.8322 401)" class="st35">500.000</text>
	</g>
	<g id="dotted-lines_2_">
		<line class="st43" x1="196" y1="700" x2="798" y2="700"/>
		<line class="st43" x1="196" y1="600" x2="798" y2="600"/>
		<line class="st43" x1="196" y1="500" x2="798" y2="500"/>
		<line class="st43" x1="196" y1="400" x2="798" y2="400"/>
		<line class="st43" x1="196" y1="800" x2="798" y2="800"/>
	</g>
	<g id="years">
		<text transform="matrix(1 0 0 1 226.8286 928.8)" class="st35">2009</text>
		<text transform="matrix(1 0 0 1 311 928.8)" class="st35">2010</text>
		<text transform="matrix(1 0 0 1 395.1738 928.8)" class="st35">2011</text>
		<text transform="matrix(1 0 0 1 479.3457 928.8)" class="st35">2012</text>
		<text transform="matrix(1 0 0 1 563.5195 928.8)" class="st35">2013</text>
		<text transform="matrix(1 0 0 1 647.6895 928.8)" class="st35">2014</text>
		<text transform="matrix(1 0 0 1 731.8633 928.8)" class="st35">2015</text>
	</g>
	<g>
		<line class="st44" x1="196" y1="850" x2="201" y2="850"/>
		<line class="st44" x1="196" y1="750" x2="201" y2="750"/>
		<line class="st44" x1="196" y1="650" x2="201" y2="650"/>
		<line class="st44" x1="196" y1="550" x2="201" y2="550"/>
		<line class="st44" x1="196" y1="450" x2="201" y2="450"/>
		<line class="st44" x1="196" y1="350" x2="201" y2="350"/>
		<line class="st45" x1="247.2" y1="900" x2="247.2" y2="910"/>
		<line class="st45" x1="331.4" y1="900" x2="331.4" y2="910"/>
		<line class="st45" x1="415.6" y1="900" x2="415.6" y2="910"/>
		<line class="st45" x1="499.8" y1="900" x2="499.8" y2="910"/>
		<line class="st45" x1="584" y1="900" x2="584" y2="910"/>
		<line class="st45" x1="668.2" y1="900" x2="668.2" y2="910"/>
		<line class="st45" x1="752.4" y1="900" x2="752.4" y2="910"/>
		<line class="st45" x1="196" y1="800" x2="206" y2="800"/>
		<line class="st45" x1="196" y1="700" x2="206" y2="700"/>
		<line class="st45" x1="196" y1="600" x2="206" y2="600"/>
		<line class="st45" x1="196" y1="500" x2="206" y2="500"/>
		<line class="st45" x1="196" y1="400" x2="206" y2="400"/>
		<line class="st45" x1="196" y1="350" x2="196" y2="320.6"/>
		<polyline class="st45" points="807,900 196,900 196,350 		"/>
	</g>
</g>
<g id="graphs">
	<g id="eco-wrap">
		<g id="eco-graph">
			<polyline id="eco-path" class="st46" points="247.2,666.3 331.7,715 415.6,668.2 500,666.2 584,676.6 668.3,693.9 752.2,749.2 
							"/>
			<circle class="spot st47" cx="247.2" cy="666.3" r="8"/>
			<g class="nbr">
				<text transform="matrix(1 0 0 1 213.5994 656.266)" class="st35">233.734</text>
			</g>
			<circle class="spot st47" cx="331.6" cy="715" r="8"/>
			<g class="nbr">
				<text transform="matrix(1 0 0 1 298.0537 705.012)" class="st35">184.988</text>
			</g>
			<circle class="spot st47" cx="415.6" cy="668.2" r="8"/>
			<g class="nbr">
				<text transform="matrix(1 0 0 1 381.9994 658.191)" class="st35">231.809</text>
			</g>
			<circle class="spot st47" cx="499.8" cy="666.2" r="8"/>
			<g class="nbr">
				<text transform="matrix(1 0 0 1 466.3994 656.23)" class="st35">233.770</text>
			</g>
			<circle class="spot st47" cx="584" cy="676.6" r="8"/>
			<g class="nbr">
				<text transform="matrix(1 0 0 1 550.3984 666.633)" class="st35">223.367</text>
			</g>
			<circle class="spot st47" cx="668.2" cy="693.9" r="8"/>
			<g class="nbr">
				<text transform="matrix(1 0 0 1 634.7432 683.949)" class="st35">206.051</text>
			</g>
			<circle class="spot st47" cx="752.2" cy="749.2" r="8"/>
			<g class="nbr">
				<text transform="matrix(1 0 0 1 718.5994 739.18)" class="st35">150.820</text>
			</g>
		</g>
		<g id="eco-badge">
			<g id="eco-ball">
				<g class="st48">
					<circle class="shadow" cx="897.9" cy="701.3" r="80"/>
				</g>
				<g>
					<g>
						<circle class="st49" cx="895.9" cy="697.3" r="80"/>
					</g>
				</g>
			</g>
			<g id="eco-icon">
				<g id="eco-details">
					<path class="st35" d="M896.7,664c2.2-0.7,4.3-1.3,6.3-1.9c1.1-0.3,2-1.9,1.6-2.9c-0.6-2-1.3-4.1-2-6.3c0.4,0.1,0.8,0.1,1.2,0.2
						c1.8,0.4,3.5,0.8,5.3,1.3c1.1,0.3,2.6-0.7,2.8-1.8c0.5-2.1,0.9-4.2,1.4-6.5c1.7,1.6,3.2,3.1,4.8,4.6c0.9,0.8,2.6,0.8,3.4-0.2
						c1.2-1.3,2.4-2.6,3.5-4c0.2-0.3,0.5-0.5,0.8-0.9c0.6,2,1.3,3.8,1.6,5.7c0.3,1.4,1.3,1.9,2.4,2.4c0.2,0.1,0.5-0.1,0.8-0.1
						c1.7-0.6,3.5-1.1,5.2-1.7c0.3-0.1,0.6-0.2,1.1-0.3c-0.5,2.2-1,4.2-1.5,6.2c-0.3,1.4,0.6,2.8,1.9,3.1c2,0.4,4.1,0.9,6.3,1.3
						c-1.1,1.2-2.1,2.3-3.1,3.3c-0.4,0.4-0.6,0.8-1.1,1.1c-1.2,0.8-0.9,1.9-0.8,3c0,0.3,0.3,0.6,0.6,0.8c1.6,1.4,3.2,2.9,4.9,4.4
						c-1.7,0.5-3.2,1-4.8,1.4c-0.4,0.1-0.8,0.3-1.3,0.4c-1.7,0.5-2.3,1.9-1.8,3.5c0.6,1.9,1.2,3.8,1.9,5.9c-0.9-0.2-2.7-0.6-2.7-0.6
						l-6.1-6c-0.4-0.6-0.3-0.9,0.2-1.5c4.6-5.2,4.4-12.6-0.4-17.4c-6.6-6.6-18-3.8-20.8,5.1c-0.3,0.9-0.6,1.2-1.5,1.1
						c-2-0.1-4,0-6,0c-0.8,0-1.5-0.2-2.1-0.8C898.2,665.3,897.5,664.7,896.7,664z"/>
				</g>
				<path class="st35" d="M916.1,668.3h-44.3l-12.3,11.8v-14.7c0-0.8-0.6-1.4-1.4-1.4h-6.5c-0.8,0-1.4,0.6-1.4,1.4V689
					c0,0,0,0,0,0.1l-16.7,16l6.1,6.3l32.5-32l30.3,32l56.3-0.8L916.1,668.3z M933.8,691.9h-12.5l-8.3-8.4h12.5L933.8,691.9z
					 M919.9,691.9h-12.5l-8.3-8.4h12.5L919.9,691.9z M916.3,674.2l8.3,8.4H912l-8.3-8.4H916.3z M902.4,674.2l8.3,8.4h-12.5l-8.3-8.4
					H902.4z M876,674.2h12.5l8.3,8.4h-12.5L876,674.2z M885.2,683.5h12.5l8.3,8.4h-12.5L885.2,683.5z M902.8,701.2l-8.3-8.4H907
					l8.3,8.4H902.8z M916.7,701.2l-8.3-8.4h12.5l8.3,8.4H916.7z M922.3,692.8h12.5l8.3,8.4h-12.5L922.3,692.8z"/>
			</g>
			<g id="eco-title"><text transform="matrix(1 0 0 1 841.498 737.2598)" class="st35 st39">Erneuerbare</text></g>
		</g>
	</g>
	<g id="oil-wrap">
		<g id="oil-graph">
			<polyline id="oil-path" class="st50" points="247.2,497.4 331.7,504.9 415.6,488.6 499.7,469.4 584.2,432.5 668.3,441 
				752.5,400 			"/>
			<circle class="spot st51" cx="247.2" cy="497.4" r="8"/>
			<g class="nbr">
				<text transform="matrix(1 0 0 1 213.5994 487.422)" class="st35">402.578</text>
			</g>
			<circle class="spot st51" cx="331.6" cy="504.9" r="8"/>
			<g class="nbr">
				<text transform="matrix(1 0 0 1 298.0537 494.937)" class="st35">395.063</text>
			</g>
			<circle class="spot st51" cx="415.6" cy="488.6" r="8"/>
			<g class="nbr">
				<text transform="matrix(1 0 0 1 381.999 478.634)" class="st35">411.366</text>
			</g>
			<circle class="spot st51" cx="499.8" cy="469.4" r="8"/>
			<g class="nbr">
				<text transform="matrix(1 0 0 1 466.0994 459.369)" class="st35">430.631</text>
			</g>
			<circle class="spot st51" cx="584" cy="432.5" r="8"/>
			<g class="nbr">
				<text transform="matrix(1 0 0 1 550.5732 422.493)" class="st35">467.507</text>
			</g>
			<circle class="spot st51" cx="668.2" cy="441" r="8"/>
			<g class="nbr">
				<text transform="matrix(1 0 0 1 634.7432 431.006)" class="st35">458.994</text>
			</g>
			<circle class="spot st51" cx="752.2" cy="400.2" r="8"/>
			<g class="nbr">
				<text transform="matrix(1 0 0 1 718.917 390)" class="st35">499.840</text>
			</g>
		</g>
		<g id="oil-badge">
			<g id="oil-ball">
				<g class="st48">
					<circle class="shadow" cx="897.9" cy="403.4" r="80"/>
				</g>
				<g>
					<g>
						<circle class="st52" cx="895.9" cy="399.4" r="80"/>
					</g>
				</g>
			</g>
			<path id="oil-icon" class="st35" d="M931,406v-18.9h1.8v-3l0.7,0.2l1.8-5.9c0,0-25.5-7.6-28.3-8.4c-0.2,0-0.4-0.2-0.4-0.3
				c-0.2-1.5-1-6.8-1-6.8h-13.3l-0.4,2.6c0,0-10.6-3.2-15.8-4.7c-0.3-0.1-0.4-0.2-0.6-0.5c-1.7-4.4-3.3-8.9-5-13.3
				c-0.3-0.8-0.3-0.8,0.3-1.3c0.7-0.6,2.1-1.6,2.1-1.6s-1.4-2.2-2.1-3.2c-1,0.8-3,2.3-4.2,3.5c-3.5,3.5-6,7.7-7.9,12.3
				c-2,5-3.3,10.2-3.6,15.6c-0.2,4,0,7.9,1,11.8c0.3,0.9,0.6,1.9,0.9,2.8c1.3-0.5,3.7-1.5,3.7-1.5s-0.3-1-0.5-1.5
				c-0.1-0.3,0-0.5,0.1-0.7c4.2-5.4,8.4-10.9,12.6-16.3c0.2-0.3,0.4-0.3,0.7-0.2c4.8,1.5,17.3,5.2,17.3,5.2l-5.8,40.5l-24.6,0.1v8.9
				h76.2V406H931z M865.3,372.3c-1.9,2.5-5.9,7.6-6,7.8c-0.1-1.3-0.3-2.6-0.3-3.8c-0.1-2.8,0.1-5.6,0.6-8.4c0-0.1,0.3-0.4,0.3-0.4
				c0.9-0.8,1.7-0.8,2.9-0.5c0.6,0.2,1.8,0.6,1.8,0.6s-0.3,0.9-0.4,1.4c0,0.2,0,0.4,0.1,0.6c0.4,0.8,0.8,1.5,1.2,2.3
				C865.5,371.9,865.5,372.1,865.3,372.3z M865,365.6c0,0-1.9-0.6-2.9-0.9c-0.1,0-0.2-0.2-0.3-0.3c-0.3-0.5-0.5-1-0.8-1.5
				c-0.3-0.4-0.3-0.8-0.1-1.2c0.3-0.9,0.6-1.7,0.9-2.6c0.1-0.1,0.2-0.3,0.4-0.3c0.5-0.1,1-0.2,1.5-0.3c0.1,0,0.3,0,0.4,0
				c0.9,0.3,2.7,0.8,2.7,0.8L865,365.6z M868.4,355.5c-0.3,0.1-0.4,0.3-0.5,0.6c-0.1,0.5-0.4,1.5-0.4,1.5s-1.7-0.5-2.5-0.8
				c-0.1,0-0.2-0.2-0.2-0.3c-0.2-0.6-0.4-1.2-0.6-1.8c0-0.1,0-0.3,0-0.4c1.1-2.1,2.7-4.5,4.1-6.1c0.8,2.2,2.4,6.5,2.4,6.5
				S869.2,355.3,868.4,355.5z M905.6,390.3c0.3,2,0.9,6.2,0.9,6.2l-11.4-6.7c0,0,6.9,0,10,0C905.5,389.9,905.6,390,905.6,390.3z
				 M893.5,381.7l9.1,5.5h-9.9L893.5,381.7z M892.1,391.2l11.8,6.9h-12.8L892.1,391.2z M904.9,385.5l-8.3-5h7.6L904.9,385.5z
				 M902.2,366.7l0.3,1.9l-6.1-1.8l0-0.1H902.2z M903.1,375.2c0.1,0,0.3,0.2,0.3,0.3c0.1,0.8,0.4,2.3,0.4,2.3h-9.7l0.7-5.1
				C894.8,372.7,902.2,374.9,903.1,375.2z M906.1,411.7h-16.9l1.5-10.2L906.1,411.7z M894.3,400.8h12.8l1.3,9.3L894.3,400.8z
				 M928.6,406h-7v6.2l-8.2,0c-0.6,0-0.6,0-0.8-0.6l-5.1-35.1l18.9,5.6c0.3,0.1,0.4,0.2,0.4,0.5c0,1.3,0,4.4,0,4.4h1.7V406z"/>
			<g id="oil-title"><text transform="matrix(1 0 0 1 858.7783 449.4023)" class="st35 st39">Öl + Gas</text></g>g
		</g>
	</g>
	<text id="credits" transform="matrix(1 0 0 1 312.2892 1100.2764)" class="st33 font-reg st54">
			<a id="g1" href="https://correctiv.org/" target="_blank">Correctiv.org</a> | 
			<a id="g1" href="http://www.klimaretter.info/" target="_blank"> Klimaretter.info</a> | Design: 
			<a id="g1" href="http://www.kreataz.com/" target="_blank">kreataz</a></text>
</g>
</svg>
