<?xml version="1.0" encoding="utf-8"?>
<!-- Generator: Adobe Illustrator 21.0.0, SVG Export Plug-In . SVG Version: 6.00 Build 0)  -->
<svg id="svg" version="1.1" xmlns="http://www.w3.org/2000/svg" xmlns:xlink="http://www.w3.org/1999/xlink" x="0px" y="0px"
	 viewBox="0 0 500 550" style="enable-background:new 0 0 500 550;" xml:space="preserve">

<g id="main-svg">
	<g id="radiator-graf">
		<polygon id="background" class="st0" points="0,0 500,-0.7 500,550 0,550 			"/>
		<g id="radiator" class="st1">
			<polygon id="background_1_" class="st2" points="0,522.1 500,522.1 500,550 0,550 				"/>
			<g>
				<g>
					
						<linearGradient id="SVGID_1_" gradientUnits="userSpaceOnUse" x1="61.1" y1="992.35" x2="89.2" y2="992.35" gradientTransform="matrix(1 0 0 1 0 -532)">
						<stop  offset="0.33" style="stop-color:#B3B3B3"/>
						<stop  offset="0.66" style="stop-color:#808080"/>
					</linearGradient>
					<rect x="61.1" y="455.1" class="st3" width="28.1" height="10.5"/>
					<g>
						
							<linearGradient id="SVGID_2_" gradientUnits="userSpaceOnUse" x1="64.0446" y1="973.4" x2="86.2446" y2="973.4" gradientTransform="matrix(1 0 0 1 0 -532)">
							<stop  offset="0.33" style="stop-color:#B3B3B3"/>
							<stop  offset="0.66" style="stop-color:#808080"/>
						</linearGradient>
						<polygon class="st4" points="64,429.3 64,453.5 86.2,453.5 86.2,429.3 80,429.3 80,445.5 70.2,445.5 70.2,429.3 							"/>
						<rect x="71.9" y="429.3" class="st5" width="6.5" height="14.5"/>
					</g>
				</g>
				<g>
					<rect x="90.4" y="470.5" class="st6" width="11" height="5.2"/>
					<rect x="90.4" y="477.3" class="st5" width="11" height="8.1"/>
					<rect x="90.4" y="487" class="st7" width="11" height="5.2"/>
				</g>
				
					<linearGradient id="SVGID_3_" gradientUnits="userSpaceOnUse" x1="70.8129" y1="1047.5" x2="79.655" y2="1047.5" gradientTransform="matrix(1 0 0 1 0 -532)">
					<stop  offset="0.33" style="stop-color:#B3B3B3"/>
					<stop  offset="0.66" style="stop-color:#808080"/>
				</linearGradient>
				<rect x="70.8" y="508.9" class="st8" width="8.8" height="13.2"/>
				
					<linearGradient id="SVGID_4_" gradientUnits="userSpaceOnUse" x1="70.8129" y1="1013.75" x2="79.655" y2="1013.75" gradientTransform="matrix(1 0 0 1 0 -532)">
					<stop  offset="0.33" style="stop-color:#B3B3B3"/>
					<stop  offset="0.66" style="stop-color:#808080"/>
				</linearGradient>
				<rect x="70.8" y="467.1" class="st9" width="8.8" height="29.3"/>
				<g>
					<rect x="80.9" y="498" class="st7" width="4.9" height="9.2"/>
					<rect x="71.1" y="498" class="st5" width="8.2" height="9.2"/>
					<rect x="64.5" y="498" class="st6" width="4.9" height="9.2"/>
				</g>
				
					<linearGradient id="SVGID_5_" gradientUnits="userSpaceOnUse" x1="85.05" y1="1021.1624" x2="85.05" y2="1004.7672" gradientTransform="matrix(1 0 0 1 0 -532)">
					<stop  offset="0" style="stop-color:#808080"/>
					<stop  offset="1" style="stop-color:#B3B3B3"/>
				</linearGradient>
				<rect x="81.3" y="473.5" class="st10" width="7.5" height="15.7"/>
			</g>
			<g>
				
					<linearGradient id="SVGID_6_" gradientUnits="userSpaceOnUse" x1="423.8177" y1="1047.5" x2="432.6599" y2="1047.5" gradientTransform="matrix(1 0 0 1 0 -532)">
					<stop  offset="0.33" style="stop-color:#B3B3B3"/>
					<stop  offset="0.66" style="stop-color:#808080"/>
				</linearGradient>
				<rect x="423.8" y="508.9" class="st11" width="8.8" height="13.2"/>
				
					<linearGradient id="SVGID_7_" gradientUnits="userSpaceOnUse" x1="421" y1="987.8" x2="435.6426" y2="987.8" gradientTransform="matrix(1 0 0 1 0 -532)">
					<stop  offset="0.33" style="stop-color:#B3B3B3"/>
					<stop  offset="0.66" style="stop-color:#808080"/>
				</linearGradient>
				<path class="st12" d="M435.6,448.1c0-1.1-0.9-1.9-1.9-1.9h-10.8c-1.1,0-1.9,0.9-1.9,1.9v17.3h14.6L435.6,448.1L435.6,448.1z"/>
				<g>
					<rect x="402" y="470.5" class="st6" width="11" height="5.2"/>
					<rect x="402" y="477.3" class="st5" width="11" height="8.1"/>
					<rect x="402" y="487" class="st7" width="11" height="5.2"/>
				</g>
				<g>
					<rect x="417.8" y="498" class="st6" width="4.9" height="9.2"/>
					<rect x="424.3" y="498" class="st5" width="8.2" height="9.2"/>
					<rect x="434.1" y="498" class="st7" width="4.9" height="9.2"/>
				</g>
				
					<linearGradient id="SVGID_8_" gradientUnits="userSpaceOnUse" x1="480.4781" y1="1013.75" x2="489.3203" y2="1013.75" gradientTransform="matrix(1 0 0 1 -56.6604 -532)">
					<stop  offset="0.33" style="stop-color:#B3B3B3"/>
					<stop  offset="0.66" style="stop-color:#808080"/>
				</linearGradient>
				<rect x="423.8" y="467.1" class="st13" width="8.8" height="29.3"/>
				
					<linearGradient id="SVGID_9_" gradientUnits="userSpaceOnUse" x1="-989.1166" y1="1021.1624" x2="-989.1166" y2="1004.7672" gradientTransform="matrix(-1 0 0 1 -570.6666 -532)">
					<stop  offset="0" style="stop-color:#808080"/>
					<stop  offset="1" style="stop-color:#B3B3B3"/>
				</linearGradient>
				<rect x="414.7" y="473.5" class="st14" width="7.5" height="15.7"/>
			</g>
			<g>
				
					<linearGradient id="SVGID_10_" gradientUnits="userSpaceOnUse" x1="249.9" y1="697.242" x2="249.9" y2="679.933" gradientTransform="matrix(1 0 0 1 0 -532)">
					<stop  offset="0" style="stop-color:#808080"/>
					<stop  offset="1" style="stop-color:#B3B3B3"/>
				</linearGradient>
				<path class="st15" d="M401.2,156.6L401.2,156.6c0-4.8-3.9-8.7-8.7-8.7H107.3c-4.8,0-8.7,3.9-8.7,8.7l0,0c0,4.8,3.9,8.7,8.7,8.7
					h285.2C397.3,165.2,401.2,161.4,401.2,156.6z"/>
				
					<linearGradient id="SVGID_11_" gradientUnits="userSpaceOnUse" x1="251.75" y1="1021.9797" x2="251.75" y2="1004.6797" gradientTransform="matrix(1 0 0 1 0 -532)">
					<stop  offset="0" style="stop-color:#808080"/>
					<stop  offset="1" style="stop-color:#B3B3B3"/>
				</linearGradient>
				<rect x="103.1" y="472.7" class="st16" width="297.3" height="17.3"/>
				<g>
					
						<linearGradient id="SVGID_12_" gradientUnits="userSpaceOnUse" x1="110.7" y1="851" x2="136.5468" y2="851" gradientTransform="matrix(1 0 0 1 0 -532)">
						<stop  offset="0.33" style="stop-color:#CCCCCC"/>
						<stop  offset="0.66" style="stop-color:#999999"/>
					</linearGradient>
					<path class="st17" d="M136.5,147.8c0-7.1-5.8-12.9-12.9-12.9l0,0c-7.1,0-12.9,5.8-12.9,12.9v342.4c0,7.1,5.8,12.9,12.9,12.9
						l0,0c7.1,0,12.9-5.8,12.9-12.9V147.8z"/>
					
						<linearGradient id="SVGID_13_" gradientUnits="userSpaceOnUse" x1="152.7723" y1="851" x2="178.6191" y2="851" gradientTransform="matrix(1 0 0 1 0 -532)">
						<stop  offset="0.33" style="stop-color:#CCCCCC"/>
						<stop  offset="0.66" style="stop-color:#999999"/>
					</linearGradient>
					<path class="st18" d="M165.7,503.1L165.7,503.1c7.1,0,12.9-5.8,12.9-12.9V147.8c0-7.1-5.8-12.9-12.9-12.9l0,0
						c-7.1,0-12.9,5.8-12.9,12.9v342.4C152.8,497.4,158.6,503.1,165.7,503.1z"/>
					
						<linearGradient id="SVGID_14_" gradientUnits="userSpaceOnUse" x1="194.8554" y1="851" x2="220.7026" y2="851" gradientTransform="matrix(1 0 0 1 0 -532)">
						<stop  offset="0.33" style="stop-color:#CCCCCC"/>
						<stop  offset="0.66" style="stop-color:#999999"/>
					</linearGradient>
					<path class="st19" d="M220.7,147.8c0-7.1-5.8-12.9-12.9-12.9l0,0c-7.1,0-12.9,5.8-12.9,12.9v342.4c0,7.1,5.8,12.9,12.9,12.9
						l0,0c7.1,0,12.9-5.8,12.9-12.9V147.8z"/>
					
						<linearGradient id="SVGID_15_" gradientUnits="userSpaceOnUse" x1="236.9388" y1="851" x2="262.786" y2="851" gradientTransform="matrix(1 0 0 1 0 -532)">
						<stop  offset="0.33" style="stop-color:#CCCCCC"/>
						<stop  offset="0.66" style="stop-color:#999999"/>
					</linearGradient>
					<path class="st20" d="M262.8,147.8c0-7.1-5.8-12.9-12.9-12.9l0,0c-7.1,0-12.9,5.8-12.9,12.9v342.4c0,7.1,5.8,12.9,12.9,12.9
						l0,0c7.1,0,12.9-5.8,12.9-12.9V147.8z"/>
					
						<linearGradient id="SVGID_16_" gradientUnits="userSpaceOnUse" x1="279.0219" y1="851" x2="304.8695" y2="851" gradientTransform="matrix(1 0 0 1 0 -532)">
						<stop  offset="0.33" style="stop-color:#CCCCCC"/>
						<stop  offset="0.66" style="stop-color:#999999"/>
					</linearGradient>
					<path class="st21" d="M304.9,147.8c0-7.1-5.8-12.9-12.9-12.9l0,0c-7.1,0-12.9,5.8-12.9,12.9v342.4c0,7.1,5.8,12.9,12.9,12.9
						l0,0c7.1,0,12.9-5.8,12.9-12.9V147.8z"/>
					
						<linearGradient id="SVGID_17_" gradientUnits="userSpaceOnUse" x1="321.1053" y1="851" x2="346.9529" y2="851" gradientTransform="matrix(1 0 0 1 0 -532)">
						<stop  offset="0.33" style="stop-color:#CCCCCC"/>
						<stop  offset="0.66" style="stop-color:#999999"/>
					</linearGradient>
					<path class="st22" d="M347,147.8c0-7.1-5.8-12.9-12.9-12.9l0,0c-7.1,0-12.9,5.8-12.9,12.9v342.4c0,7.1,5.8,12.9,12.9,12.9l0,0
						c7.1,0,12.9-5.8,12.9-12.9V147.8z"/>
					
						<linearGradient id="SVGID_18_" gradientUnits="userSpaceOnUse" x1="363.2" y1="851" x2="389.0476" y2="851" gradientTransform="matrix(1 0 0 1 0 -532)">
						<stop  offset="0.33" style="stop-color:#CCCCCC"/>
						<stop  offset="0.66" style="stop-color:#999999"/>
					</linearGradient>
					<path class="st23" d="M389,147.8c0-7.1-5.8-12.9-12.9-12.9l0,0c-7.1,0-12.9,5.8-12.9,12.9v342.4c0,7.1,5.8,12.9,12.9,12.9l0,0
						c7.1,0,12.9-5.8,12.9-12.9V147.8z"/>
				</g>
			</g>
		</g>
	</g>
	<g id="heat">
			<linearGradient id="SVGID_19_" gradientUnits="userSpaceOnUse" x1="125.4037" y1="660.1763" x2="125.4037" y2="609.776" gradientTransform="matrix(1 0 0 1 0 -532)">
			<stop  offset="0" style="stop-color:#FFFFFF"/>
			<stop  offset="1" style="stop-color:#FFFFFF;stop-opacity:0"/>
		</linearGradient>
		<path class="heat" d="M125.7,78.7c0,0-21.4,10.1-0.4,23.2s0.4,25.5,0.4,25.5"/>
		
			<linearGradient id="SVGID_20_" gradientUnits="userSpaceOnUse" x1="166.9037" y1="660.1763" x2="166.9037" y2="609.776" gradientTransform="matrix(1 0 0 1 0 -532)">
			<stop  offset="0" style="stop-color:#FFFFFF"/>
			<stop  offset="1" style="stop-color:#FFFFFF;stop-opacity:0"/>
		</linearGradient>
		<path class="heat" d="M167.2,78.7c0,0-21.4,10.1-0.4,23.2s0.4,25.5,0.4,25.5"/>
		
			<linearGradient id="SVGID_21_" gradientUnits="userSpaceOnUse" x1="208.5037" y1="660.1763" x2="208.5037" y2="609.776" gradientTransform="matrix(1 0 0 1 0 -532)">
			<stop  offset="0" style="stop-color:#FFFFFF"/>
			<stop  offset="1" style="stop-color:#FFFFFF;stop-opacity:0"/>
		</linearGradient>
		<path class="heat" d="M208.8,78.7c0,0-21.4,10.1-0.4,23.2s0.4,25.5,0.4,25.5"/>
		
			<linearGradient id="SVGID_22_" gradientUnits="userSpaceOnUse" x1="250.0037" y1="660.1763" x2="250.0037" y2="609.776" gradientTransform="matrix(1 0 0 1 0 -532)">
			<stop  offset="0" style="stop-color:#FFFFFF"/>
			<stop  offset="1" style="stop-color:#FFFFFF;stop-opacity:0"/>
		</linearGradient>
		<path class="heat" d="M250.3,78.7c0,0-21.4,10.1-0.4,23.2s0.4,25.5,0.4,25.5"/>
		
			<linearGradient id="SVGID_23_" gradientUnits="userSpaceOnUse" x1="291.5037" y1="660.1763" x2="291.5037" y2="609.776" gradientTransform="matrix(1 0 0 1 0 -532)">
			<stop  offset="0" style="stop-color:#FFFFFF"/>
			<stop  offset="1" style="stop-color:#FFFFFF;stop-opacity:0"/>
		</linearGradient>
		<path class="heat" d="M291.8,78.7c0,0-21.4,10.1-0.4,23.2s0.4,25.5,0.4,25.5"/>
		
			<linearGradient id="SVGID_24_" gradientUnits="userSpaceOnUse" x1="333.0037" y1="660.1763" x2="333.0037" y2="609.776" gradientTransform="matrix(1 0 0 1 0 -532)">
			<stop  offset="0" style="stop-color:#FFFFFF"/>
			<stop  offset="1" style="stop-color:#FFFFFF;stop-opacity:0"/>
		</linearGradient>
		<path class="heat" d="M333.3,78.7c0,0-21.4,10.1-0.4,23.2s0.4,25.5,0.4,25.5"/>
		
			<linearGradient id="SVGID_25_" gradientUnits="userSpaceOnUse" x1="374.5037" y1="660.1763" x2="374.5037" y2="609.776" gradientTransform="matrix(1 0 0 1 0 -532)">
			<stop  offset="0" style="stop-color:#FFFFFF"/>
			<stop  offset="1" style="stop-color:#FFFFFF;stop-opacity:0"/>
		</linearGradient>
		<path class="heat" d="M374.8,78.7c0,0-21.4,10.1-0.4,23.2s0.4,25.5,0.4,25.5"/>
	</g>
	<g id="txt">
		<text transform="matrix(1 0 0 1 147.2019 538.9996)" class="source">Quelle: Eigene Berechnungen Bundesverband Wärmepumpe</text>
		<text transform="matrix(1 0 0 1 112.7414 515.9986)" class="years">2009</text>
		<text transform="matrix(1 0 0 1 154.8274 515.9986)" class="years">2010</text>
		<text transform="matrix(1 0 0 1 196.9138 515.9986)" class="years">2011</text>
		<text transform="matrix(1 0 0 1 238.9997 515.9986)" class="years">2012</text>
		<text transform="matrix(1 0 0 1 281.0866 515.9986)" class="years">2013</text>
		<text transform="matrix(1 0 0 1 323.1716 515.9986)" class="years">2014</text>
		<text transform="matrix(1 0 0 1 365.2585 515.9986)" class="years">2015</text>
		<text transform="matrix(1 0 0 1 58.6577 416.274)" class="count">100.000</text>
		<text transform="matrix(1 0 0 1 58.6577 359.0616)" class="count">200.000</text>
		<text transform="matrix(1 0 0 1 58.6577 301.8473)" class="count">300.000</text>
		<text transform="matrix(1 0 0 1 58.6577 244.6334)" class="count">400.000</text>
		<text transform="matrix(1 0 0 1 58.6577 187.4195)" class="count">500.000</text>
		<text transform="matrix(1 0 0 1 61.9591 154.7001)" class="anzahl">Anzahl</text>
		<polyline id="anzahl-arrow" class="st38" points="65.6,160.2 75.1,166.7 84.7,160.2 			"/>
		<g id="dotted-lines">
			<line class="st39" x1="100.7" y1="416" x2="399" y2="416"/>
			<line class="st39" x1="100.7" y1="358.7" x2="399" y2="358.7"/>
			<line class="st39" x1="100.7" y1="301.5" x2="399" y2="301.5"/>
			<line class="st39" x1="100.7" y1="244.3" x2="399" y2="244.3"/>
			<line class="st39" x1="100.7" y1="187.1" x2="399" y2="187.1"/>
		</g>
		<text transform="matrix(1 0 0 1 105.324 65.6996)" class="sub-title">Absatzzahlen der Heizungen für den Gebäudebestand</text>
		<text transform="matrix(1 0 0 1 168.8572 25.6996)"><tspan x="0" y="0" class="title">Abschied von der </tspan><tspan x="16.9" y="20" class="title">Wärmewende</tspan></text>
	</g>
	<g id="eco-wrap">
		<g id="eco-graph">
			<polyline id="eco-path" class="st43" points="124.9,337.1 165.8,370.2 207.8,337.3 249.9,337.1 292,343 334.1,355.3 
				376.1,388.7 				"/>
			<circle class="eco-spot" cx="123.6" cy="337.1" r="5" onmouseover="playclip();"/>
			<g class="eco-nbr">
				<path class="st45" d="M143.6,308.7h-40c-2.8,0-5,2.3-5,5v6.8c0,2.8,2.3,5,5,5h13.2l2.9,2.8l3.9,3.8l3.9-3.8l2.9-2.8
					h13.2c2.8,0,5-2.3,5-5v-6.8C148.6,311,146.3,308.7,143.6,308.7z"/>
				<text transform="matrix(1 0 0 1 104.0343 321.1)" class="st0 st40 st41">233.734</text>
			</g>
			<circle class="eco-spot" cx="165.8" cy="370.2" r="5" onmouseover="playclip();"/>
			<g class="eco-nbr">
				<path class="st45" d="M185.7,341.8h-40c-2.8,0-5,2.3-5,5v6.8c0,2.8,2.3,5,5,5h13.2l2.9,2.8l3.9,3.8l3.9-3.8
					l2.9-2.8h13.2c2.8,0,5-2.3,5-5v-6.8C190.7,344,188.4,341.8,185.7,341.8z"/>
				<text transform="matrix(1 0 0 1 146.1342 354.2001)" class="st0 st40 st41">184.988</text>
			</g>
			<circle class="eco-spot" cx="207.8" cy="337.3" r="5" onmouseover="playclip();"/>
			<g class="eco-nbr">
				<path class="st45" d="M227.8,308.9h-40c-2.8,0-5,2.3-5,5v6.8c0,2.8,2.3,5,5,5H201l2.9,2.8l3.9,3.8l3.9-3.8
					l2.9-2.8h13.2c2.8,0,5-2.3,5-5v-6.8C232.8,311.1,230.5,308.9,227.8,308.9z"/>
				<text transform="matrix(1 0 0 1 188.2342 321.2874)" class="st0 st40 st41">231.809</text>
			</g>
			<circle class="eco-spot" cx="249.9" cy="337.1" r="5" onmouseover="playclip();"/>
			<g class="eco-nbr">
				<path class="st45" d="M269.8,308.7h-39.9c-2.8,0-5,2.3-5,5v6.8c0,2.8,2.3,5,5,5h13.2l2.9,2.8l3.9,3.8l3.9-3.8
					l2.9-2.8h13.2c2.8,0,5-2.3,5-5v-6.8C274.8,311,272.5,308.7,269.8,308.7z"/>
				<text transform="matrix(1 0 0 1 230.3341 321.0626)" class="st0 st40 st41">233.770</text>
			</g>
			<circle class="eco-spot" cx="292" cy="343" r="5" onmouseover="playclip();"/>
			<g class="eco-nbr">
				<path class="st45" d="M312,314.6h-40c-2.8,0-5,2.3-5,5v6.8c0,2.8,2.3,5,5,5h13.2l2.9,2.8l3.9,3.8l3.9-3.8
					l2.9-2.8H312c2.8,0,5-2.3,5-5v-6.8C317,316.9,314.7,314.6,312,314.6z"/>
				<text transform="matrix(1 0 0 1 272.4337 326.9875)" class="st0 st40 st41">223.367</text>
			</g>
			<circle class="eco-spot" cx="334.1" cy="355.3" r="5" onmouseover="playclip();"/>
			<g class="eco-nbr">
				<path class="st45" d="M354.1,326.9h-40c-2.8,0-5,2.3-5,5v6.8c0,2.8,2.3,5,5,5h13.2l2.9,2.8l3.9,3.8l3.9-3.8
					l2.9-2.8h13.2c2.8,0,5-2.3,5-5v-6.8C359.1,329.2,356.9,326.9,354.1,326.9z"/>
				<text transform="matrix(1 0 0 1 314.5337 339.3299)" class="st0 st40 st41">206.051</text>
			</g>
			<circle class="eco-spot" cx="376.1" cy="388.7" r="5" onmouseover="playclip();"/>
			<g class="eco-nbr">
				<path class="st45" d="M396.1,360.3h-40c-2.8,0-5,2.3-5,5v6.8c0,2.8,2.3,5,5,5h13.2l2.9,2.8l3.9,3.8l3.9-3.8
					l2.9-2.8h13.2c2.8,0,5-2.3,5-5v-6.8C401.1,362.6,398.9,360.3,396.1,360.3z"/>
				<text transform="matrix(1 0 0 1 356.5337 372.709)" class="st0 st40 st41">150.820</text>
			</g>
		</g>
		<g id="eco-badge">
			<g id="eco-ball">
				<g class="shadow">
					<circle cx="449" cy="361.6" r="40"/>
				</g>
				<g>
					<circle class="st47" cx="448" cy="358.6" r="40"/>
				</g>
			</g>
			<g id="eco-icon">
				<g id="eco-details">
					<path class="st31" d="M448.3,342c1.1-0.3,2.1-0.6,3.2-0.9c0.5-0.2,1-0.9,0.8-1.5c-0.3-1-0.7-2-1-3.1c0.2,0,0.4,0.1,0.6,0.1
						c0.9,0.2,1.8,0.4,2.6,0.6c0.5,0.1,1.3-0.3,1.4-0.9c0.2-1.1,0.5-2.1,0.7-3.3c0.8,0.8,1.6,1.5,2.4,2.3c0.4,0.4,1.3,0.4,1.7-0.1
						c0.6-0.7,1.2-1.3,1.8-2c0.1-0.1,0.2-0.3,0.4-0.4c0.3,1,0.6,1.9,0.8,2.9c0.1,0.7,0.6,0.9,1.2,1.2c0.1,0,0.3,0,0.4-0.1
						c0.9-0.3,1.7-0.6,2.6-0.9c0.2-0.1,0.3-0.1,0.6-0.1c-0.3,1.1-0.5,2.1-0.7,3.1c-0.2,0.7,0.3,1.4,1,1.6c1,0.2,2,0.4,3.1,0.7
						c-0.6,0.6-1.1,1.1-1.6,1.7c-0.2,0.2-0.3,0.4-0.5,0.5c-0.6,0.4-0.4,1-0.4,1.5c0,0.1,0.2,0.3,0.3,0.4c0.8,0.7,1.6,1.4,2.5,2.2
						c-0.8,0.3-1.6,0.5-2.4,0.7c-0.2,0.1-0.4,0.1-0.6,0.2c-0.8,0.2-1.2,0.9-0.9,1.7c0.3,0.9,0.6,1.9,0.9,2.9
						c-0.5-0.1-1.3-0.3-1.3-0.3l-3.1-3c-0.2-0.3-0.2-0.5,0.1-0.7c2.3-2.6,2.2-6.3-0.2-8.7c-3.3-3.3-9-1.9-10.4,2.6
						c-0.1,0.4-0.3,0.6-0.8,0.6c-1,0-2,0-3,0c-0.4,0-0.8-0.1-1-0.4C449.1,342.7,448.8,342.4,448.3,342z"/>
				</g>
				<path class="st31" d="M458.1,344.1h-22.2l-6.2,5.9v-7.3c0-0.4-0.3-0.7-0.7-0.7h-3.3c-0.4,0-0.7,0.3-0.7,0.7v11.8c0,0,0,0,0,0
					l-8.3,8l3,3.1l16.2-16l15.1,16l28.2-0.4L458.1,344.1z M466.9,356h-6.2l-4.1-4.2h6.2L466.9,356z M459.9,356h-6.2l-4.1-4.2h6.2
					L459.9,356z M458.1,347.1l4.1,4.2H456l-4.1-4.2H458.1z M451.2,347.1l4.1,4.2h-6.2l-4.1-4.2H451.2z M438,347.1h6.2l4.1,4.2h-6.2
					L438,347.1z M442.6,351.8h6.2l4.1,4.2h-6.2L442.6,351.8z M451.4,360.6l-4.1-4.2h6.2l4.1,4.2H451.4z M458.3,360.6l-4.1-4.2h6.2
					l4.1,4.2H458.3z M461.2,356.4h6.2l4.1,4.2h-6.2L461.2,356.4z"/>
			</g>
			<g id="eco-title">
				<text transform="matrix(1 0 0 1 421.024 378.63)" class="st31 st40 st36">Erneuerbare</text>
			</g>
		</g>
	</g>
	<g id="oil-wrap">
		<g id="oil-graph">
			<polyline id="oil-path" class="st48" points="124.9,243.1 165.8,247.2 208,239.1 250.7,226.3 291.8,211.2 334.7,216.2 
				376.1,187.3 				"/>
			<circle class="oil-spot" cx="123.6" cy="243.1" r="5" onmouseover="playclip();"/>
			<g class="oil-nbr">
				<path class="st50" d="M143.6,214.7h-40c-2.8,0-5,2.3-5,5v6.8c0,2.8,2.3,5,5,5h13.2l2.9,2.8l3.9,3.8l3.9-3.8
					l2.9-2.8h13.2c2.8,0,5-2.3,5-5v-6.8C148.6,217,146.3,214.7,143.6,214.7z"/>
				<text transform="matrix(1 0 0 1 104.0343 227.1)" class="st0 st40 st41">402.578</text>
			</g>
			<circle class="oil-spot" cx="165.8" cy="247.2" r="5" onmouseover="playclip();"/>
			<g class="oil-nbr">
				<path class="st50" d="M185.7,218.8h-40c-2.8,0-5,2.3-5,5v6.8c0,2.8,2.3,5,5,5h13.2l2.9,2.8l3.9,3.8l3.9-3.8
					l2.9-2.8h13.2c2.8,0,5-2.3,5-5v-6.8C190.7,221,188.4,218.8,185.7,218.8z"/>
				<text transform="matrix(1 0 0 1 146.1342 231.2001)" class="st0 st40 st41">395.063</text>
			</g>
			<circle class="oil-spot" cx="207.8" cy="239.1" r="5" onmouseover="playclip();"/>
			<g class="oil-nbr">
				<path class="st50" d="M227.8,210.7h-40c-2.8,0-5,2.3-5,5v6.8c0,2.8,2.3,5,5,5H201l2.9,2.8l3.9,3.8l3.9-3.8
					l2.9-2.8h13.2c2.8,0,5-2.3,5-5v-6.8C232.8,212.9,230.5,210.7,227.8,210.7z"/>
				<text transform="matrix(1 0 0 1 188.2342 223.0999)" class="st0 st40 st41">411.366</text>
			</g>
			<circle class="oil-spot" cx="249.9" cy="226.3" r="5" onmouseover="playclip();"/>
			<g class="oil-nbr">
				<path class="st50" d="M269.8,197.9h-39.9c-2.8,0-5,2.3-5,5v6.8c0,2.8,2.3,5,5,5h13.2l2.9,2.8l3.9,3.8l3.9-3.8
					l2.9-2.8h13.2c2.8,0,5-2.3,5-5v-6.8C274.8,200.2,272.5,197.9,269.8,197.9z"/>
				<text transform="matrix(1 0 0 1 230.3341 210.2998)" class="st0 st40 st41">430.631</text>
			</g>
			<circle class="oil-spot" cx="292" cy="211.2" r="5" onmouseover="playclip();"/>
			<g class="oil-nbr">
				<path class="st50" d="M312,182.8h-40c-2.8,0-5,2.3-5,5v6.8c0,2.8,2.3,5,5,5h13.2l2.9,2.8l3.9,3.8l3.9-3.8
					l2.9-2.8H312c2.8,0,5-2.3,5-5v-6.8C317,185.1,314.7,182.8,312,182.8z"/>
				<text transform="matrix(1 0 0 1 272.4337 195.2)" class="st0 st40 st41">467.507</text>
			</g>
			<circle class="oil-spot" cx="334.1" cy="216.2" r="5" onmouseover="playclip();"/>
			<g class="oil-nbr">
				<path class="st50" d="M354.1,187.8h-40c-2.8,0-5,2.3-5,5v6.8c0,2.8,2.3,5,5,5h13.2l2.9,2.8l3.9,3.8l3.9-3.8
					l2.9-2.8h13.2c2.8,0,5-2.3,5-5v-6.8C359.1,190.1,356.9,187.8,354.1,187.8z"/>
				<text transform="matrix(1 0 0 1 314.5337 200.1998)" class="st0 st40 st41">458.994</text>
			</g>
			<circle class="oil-spot" cx="376.1" cy="187.3" r="5" onmouseover="playclip();"/>
			<g class="oil-nbr">
				<path class="st50" d="M396.1,158.9h-40c-2.8,0-5,2.3-5,5v6.8c0,2.8,2.3,5,5,5h13.2l2.9,2.8l3.9,3.8l3.9-3.8
					l2.9-2.8h13.2c2.8,0,5-2.3,5-5v-6.8C401.1,161.2,398.9,158.9,396.1,158.9z"/>
				<text transform="matrix(1 0 0 1 356.5337 171.2998)" class="st0 st40 st41">499.840</text>
			</g>
		</g>
		<g id="oil-badge">
			<g id="oil-ball">
				<g class="shadow">
					<circle cx="449" cy="212.7" r="40"/>
				</g>
				<g>
					<circle class="st51" cx="448" cy="209.7" r="40"/>
				</g>
			</g>
			<path id="oil-icon" class="st31" d="M465.5,213v-9.5h0.9V202l0.3,0.1l0.9-2.9c0,0-12.7-3.8-14.1-4.2c-0.1,0-0.2-0.1-0.2-0.2
				c-0.1-0.8-0.5-3.4-0.5-3.4h-6.7l-0.2,1.3c0,0-5.3-1.6-7.9-2.3c-0.2,0-0.2-0.1-0.3-0.3c-0.8-2.2-1.7-4.4-2.5-6.7
				c-0.1-0.4-0.2-0.4,0.2-0.7c0.3-0.3,1.1-0.8,1.1-0.8s-0.7-1.1-1.1-1.6c-0.5,0.4-1.5,1.2-2.1,1.7c-1.8,1.8-3,3.9-3.9,6.1
				c-1,2.5-1.6,5.1-1.8,7.8c-0.1,2,0,4,0.5,5.9c0.1,0.5,0.3,0.9,0.5,1.4c0.6-0.3,1.8-0.8,1.8-0.8s-0.2-0.5-0.3-0.7
				c-0.1-0.1,0-0.2,0.1-0.3c2.1-2.7,4.2-5.4,6.3-8.2c0.1-0.1,0.2-0.2,0.4-0.1c2.4,0.7,8.7,2.6,8.7,2.6l-2.9,20.3l-12.3,0v4.4h38.1
				V213H465.5z M432.7,196.1c-1,1.2-2.9,3.8-3,3.9c-0.1-0.7-0.1-1.3-0.1-1.9c-0.1-1.4,0.1-2.8,0.3-4.2c0-0.1,0.1-0.2,0.1-0.2
				c0.4-0.4,0.8-0.4,1.4-0.3c0.3,0.1,0.9,0.3,0.9,0.3s-0.1,0.5-0.2,0.7c0,0.1,0,0.2,0,0.3c0.2,0.4,0.4,0.8,0.6,1.1
				C432.7,196,432.7,196,432.7,196.1z M432.5,192.8c0,0-1-0.3-1.4-0.4c-0.1,0-0.1-0.1-0.1-0.1c-0.1-0.2-0.2-0.5-0.4-0.7
				c-0.1-0.2-0.1-0.4-0.1-0.6c0.2-0.4,0.3-0.9,0.5-1.3c0-0.1,0.1-0.1,0.2-0.2c0.3-0.1,0.5-0.1,0.8-0.2c0.1,0,0.1,0,0.2,0
				c0.4,0.1,1.3,0.4,1.3,0.4L432.5,192.8z M434.2,187.8c-0.2,0-0.2,0.1-0.3,0.3c-0.1,0.2-0.2,0.7-0.2,0.7s-0.8-0.2-1.2-0.4
				c-0.1,0-0.1-0.1-0.1-0.1c-0.1-0.3-0.2-0.6-0.3-0.9c0-0.1,0-0.2,0-0.2c0.6-1.1,1.4-2.3,2.1-3c0.4,1.1,1.2,3.3,1.2,3.3
				S434.6,187.6,434.2,187.8z M452.8,205.2c0.1,1,0.4,3.1,0.4,3.1l-5.7-3.3c0,0,3.4,0,5,0C452.7,204.9,452.8,205,452.8,205.2z
				 M446.8,200.9l4.6,2.7h-5L446.8,200.9z M446.1,205.6l5.9,3.4h-6.4L446.1,205.6z M452.5,202.8l-4.1-2.5h3.8L452.5,202.8z
				 M451.1,193.3l0.1,0.9l-3.1-0.9l0,0H451.1z M451.6,197.6c0.1,0,0.1,0.1,0.2,0.1c0.1,0.4,0.2,1.2,0.2,1.2H447l0.4-2.5
				C447.4,196.4,451.1,197.5,451.6,197.6z M453,215.9h-8.4l0.7-5.1L453,215.9z M447.2,210.4h6.4l0.7,4.7L447.2,210.4z M464.3,213
				h-3.5v3.1l-4.1,0c-0.3,0-0.3,0-0.4-0.3l-2.5-17.5l9.5,2.8c0.1,0,0.2,0.1,0.2,0.3c0,0.6,0,2.2,0,2.2h0.8V213z"/>
			<g id="oil-title">
				<text transform="matrix(1 0 0 1 428.4888 234)" class="st31 st40 st36">Öl + Gas</text>
			</g>
		</g>
	</g>
</g>
</svg>
