<?xml version="1.0" encoding="utf-8"?>
<!-- Generator: Adobe Illustrator 21.0.0, SVG Export Plug-In . SVG Version: 6.00 Build 0)  -->
<svg version="1.1" xmlns="http://www.w3.org/2000/svg" xmlns:xlink="http://www.w3.org/1999/xlink" x="0px" y="0px"
	 viewBox="0 0 1000 1100" style="enable-background:new 0 0 1000 1100;" xml:space="preserve">
<style type="text/css">

</style>
<g id="main-svg">
	<g id="main">
		<polyline id="truck-path" class="st3" points="80,563.2 215,526.4 350,460.8 485,437.6 620,423.2 755,417.6 890,417.6 917,408 	"/>
		<g id="truck-graph">
			<linearGradient id="graph-bg_2_" gradientUnits="userSpaceOnUse" x1="498.5" y1="980.0004" x2="498.5" y2="408">
				<stop  offset="0" style="stop-color:#FD8187"/>
				<stop  offset="1" style="stop-color:#FC6269"/>
			</linearGradient>
			<polygon id="graph-bg" class="st4" points="80,563.2 215,526.4 350,460.8 485,437.6 620,423.2 755,417.6 890,417.6 917,408 
				917,980 80,980 		"/>
			<g class="bubble">
				<circle class="st5" cx="80" cy="563.2" r="5"/>
				<g class="nbr">
					<text transform="matrix(1 0 0 1 62.189 553.1995)" class="st6 st7 st8">52,1</text>
				</g>
			</g>	
			<g class="bubble">
				<circle class="st5" cx="215" cy="526.4" r="5"/>
				<g class="nbr">
					<text transform="matrix(1 0 0 1 197.189 516.4)" class="st6 st7 st8">56,7</text>
				</g>
			</g>	
			<g class="bubble">
				<circle class="st5" cx="350" cy="460.8" r="5"/>
				<g class="nbr">
					<text transform="matrix(1 0 0 1 332.189 450.7998)" class="st6 st7 st8">64,9</text>
				</g>
			</g>	
			<g class="bubble">
				<circle class="st5" cx="485" cy="437.6" r="5"/>
				<g class="nbr">
					<text transform="matrix(1 0 0 1 467.189 427.6004)" class="st6 st7 st8">67,8</text>
				</g>
			</g>	
			<g class="bubble">
				<circle class="st5" cx="620" cy="423.2" r="5"/>
				<g class="nbr">
					<text transform="matrix(1 0 0 1 602.189 413.1996)" class="st6 st7 st8">69,6</text>
				</g>
			</g>	
			<g class="bubble">
				<circle class="st5" cx="755" cy="417.6" r="5"/>
				<g class="nbr">
					<text transform="matrix(1 0 0 1 737.189 407.5998)" class="st6 st7 st8">70,3</text>
				</g>
			</g>	
			<g class="bubble">
				<circle class="st5" cx="890" cy="417.6" r="5"/>
				<g class="nbr">
					<text transform="matrix(1 0 0 1 872.189 407.6)" class="st6 st7 st8">70,8</text>
				</g>
			</g>	
			<g class="bubble">
				<circle class="st5" cx="917" cy="408" r="5"/>
				<g class="nbr">
					<text transform="matrix(1 0 0 1 899.189 398.0003)" class="st6 st7 st8">71,5</text>
				</g>
			</g>	
		</g>
		<polyline id="train-path_1_" class="st9" points="80,780 215,815.2 350,848.8 485,850.4 620,848 755,843.2 890,836 917,839.2 	"/>
		<g id="train-graph">
			<linearGradient id="graph-bg_3_" gradientUnits="userSpaceOnUse" x1="498.5" y1="980.0005" x2="498.5" y2="780">
				<stop  offset="0" style="stop-color:#4995A0"/>
				<stop  offset="1" style="stop-color:#1B7A88"/>
			</linearGradient>
			<polygon id="graph-bg_1_" class="st10" points="80,780 215,815.2 350,848.8 485,850.4 620,848 755,843.2 890,836 917,839.2 
				917,980 80,980 		"/>
			<g class="bubble">
				<circle class="st11" cx="80" cy="780" r="5"/>
				<g class="nbr">
					<text transform="matrix(1 0 0 1 62.1891 769.9998)" class="st6 st7 st8">25,0</text>
				</g>
			</g>	
			<g class="bubble">
				<circle class="st11" cx="215" cy="815.2" r="5"/>
				<g class="nbr">
					<text transform="matrix(1 0 0 1 197.1891 805.2)" class="st6 st7 st8">20,6</text>
				</g>
			</g>	
			<g class="bubble">
				<circle class="st11" cx="350" cy="848.8" r="5"/>
				<g class="nbr">
					<text transform="matrix(1 0 0 1 332.1891 838.7998)" class="st6 st7 st8">16,4</text>
				</g>
			</g>	
			<g class="bubble">
				<circle class="st11" cx="485" cy="850.4" r="5"/>
				<g class="nbr">
					<text transform="matrix(1 0 0 1 467.1895 840.4003)" class="st6 st7 st8">16,2</text>
				</g>
			</g>	
			<g class="bubble">
				<circle class="st11" cx="620" cy="848" r="5"/>
				<g class="nbr">
					<text transform="matrix(1 0 0 1 602.1891 838.0002)" class="st6 st7 st8">16,5</text>
				</g>
			</g>	
			<g class="bubble">
				<circle class="st11" cx="755" cy="843.2" r="5"/>
				<g class="nbr">
					<text transform="matrix(1 0 0 1 737.1898 833.2004)" class="st6 st7 st8">17,1</text>
				</g>
			</g>	
			<g class="bubble">
				<circle class="st11" cx="890" cy="836" r="5"/>
				<g class="nbr">
					<text transform="matrix(1 0 0 1 872.1888 826.0004)" class="st6 st7 st8">18,0</text>
				</g>
			</g>	
			<g class="bubble">
				<circle class="st11" cx="917" cy="839.2" r="5"/>
				<g class="nbr">
					<text transform="matrix(1 0 0 1 899.1897 828.8002)" class="st6 st7 st8">17,6</text>
				</g>
			</g>	
		</g>
	</g>
	<g id="txt">
		<g>
			<g class="years">
				<text transform="matrix(1 0 0 1 85.0002 1016.69)" class="st2 st7 st8">1985</text>
				<text transform="matrix(1 0 0 1 220.0002 1016.69)" class="st2 st7 st8">1990</text>
				<text transform="matrix(1 0 0 1 355.0002 1016.69)" class="st2 st7 st8">1995</text>
				<text transform="matrix(1 0 0 1 490.0002 1016.69)" class="st2 st7 st8">2000</text>
				<text transform="matrix(1 0 0 1 625.0001 1016.69)" class="st2 st7 st8">2005</text>
				<text transform="matrix(1 0 0 1 760.0001 1016.69)" class="st2 st7 st8">2010</text>
				<text transform="matrix(1 0 0 1 895.0001 1016.69)" class="st2 st7 st8">2015</text>
				<text transform="matrix(1 0 0 1 922.0004 999.0005)" class="st2 st7 st8">2016</text>
				<line class="st12" x1="80" y1="980" x2="80" y2="1016.7"/>
				<line class="st12" x1="215" y1="980" x2="215" y2="1016.7"/>
				<line class="st12" x1="350" y1="980" x2="350" y2="1016.7"/>
				<line class="st12" x1="485" y1="980" x2="485" y2="1016.7"/>
				<line class="st12" x1="620" y1="980" x2="620" y2="1016.7"/>
				<line class="st12" x1="755" y1="980" x2="755" y2="1016.7"/>
				<line class="st12" x1="890" y1="980" x2="890" y2="1016.7"/>
				<line class="st12" x1="107" y1="980" x2="107" y2="990"/>
				<line class="st12" x1="134" y1="980" x2="134" y2="990"/>
				<line class="st12" x1="161" y1="980" x2="161" y2="990"/>
				<line class="st12" x1="188" y1="980" x2="188" y2="990"/>
				<line class="st12" x1="242" y1="980" x2="242" y2="990"/>
				<line class="st12" x1="269" y1="980" x2="269" y2="990"/>
				<line class="st12" x1="296" y1="980" x2="296" y2="990"/>
				<line class="st12" x1="323" y1="980" x2="323" y2="990"/>
				<line class="st12" x1="377" y1="980" x2="377" y2="990"/>
				<line class="st12" x1="404" y1="980" x2="404" y2="990"/>
				<line class="st12" x1="431" y1="980" x2="431" y2="990"/>
				<line class="st12" x1="458" y1="980" x2="458" y2="990"/>
				<line class="st12" x1="512" y1="980" x2="512" y2="990"/>
				<line class="st12" x1="539" y1="980" x2="539" y2="990"/>
				<line class="st12" x1="566" y1="980" x2="566" y2="990"/>
				<line class="st12" x1="593" y1="980" x2="593" y2="990"/>
				<line class="st12" x1="647" y1="980" x2="647" y2="990"/>
				<line class="st12" x1="674" y1="980" x2="674" y2="990"/>
				<line class="st12" x1="701" y1="980" x2="701" y2="990"/>
				<line class="st12" x1="728" y1="980" x2="728" y2="990"/>
				<line class="st12" x1="782" y1="980" x2="782" y2="990"/>
				<line class="st12" x1="809" y1="980" x2="809" y2="990"/>
				<line class="st12" x1="836" y1="980" x2="836" y2="990"/>
				<line class="st12" x1="863" y1="980" x2="863" y2="990"/>
				<line class="st12" x1="917" y1="980" x2="917" y2="999"/>
				<line class="st13" x1="80" y1="980" x2="940" y2="980"/>
			</g>
			<g id="percentages_2_">
				<text transform="matrix(1 0 0 1 59.673 985.0006)" class="st2 st7 st8">0</text>
				<text transform="matrix(1 0 0 1 49.3459 905.0007)" class="st2 st7 st8">10</text>
				<text transform="matrix(1 0 0 1 49.3459 825.0006)" class="st2 st7 st8">20</text>
				<text transform="matrix(1 0 0 1 49.3459 745.0006)" class="st2 st7 st8">30</text>
				<text transform="matrix(1 0 0 1 49.3459 665.0006)" class="st2 st7 st8">40</text>
				<text transform="matrix(1 0 0 1 49.3459 585.0006)" class="st2 st7 st8">50</text>
				<text transform="matrix(1 0 0 1 49.3459 505.0006)" class="st2 st7 st8">60</text>
				<text transform="matrix(1 0 0 1 49.3459 425.0006)" class="st2 st7 st8">70</text>
				<text transform="matrix(1 0 0 1 49.3459 345.0006)" class="st2 st7 st8">80</text>
				<text transform="matrix(1 0 0 1 49.3459 265.0006)" class="st2 st7 st8">90</text>
				<text transform="matrix(1 0 0 1 25.7209 185.0006)" class="st2 st7 st8">100%</text>
				<line class="st13" x1="80" y1="980" x2="80" y2="179"/>
				<line class="st12" x1="80" y1="940" x2="85" y2="940"/>
				<line class="st13" x1="80" y1="900" x2="90" y2="900"/>
				<line class="st12" x1="80" y1="860" x2="85" y2="860"/>
				<line class="st13" x1="80" y1="820" x2="90" y2="820"/>
				<line class="st12" x1="80" y1="780" x2="85" y2="780"/>
				<line class="st13" x1="80" y1="740" x2="90" y2="740"/>
				<line class="st12" x1="80" y1="700" x2="85" y2="700"/>
				<line class="st13" x1="80" y1="660" x2="90" y2="660"/>
				<line class="st12" x1="80" y1="620" x2="85" y2="620"/>
				<line class="st13" x1="80" y1="580" x2="90" y2="580"/>
				<line class="st12" x1="80" y1="540" x2="85" y2="540"/>
				<line class="st13" x1="80" y1="500" x2="90" y2="500"/>
				<line class="st12" x1="80" y1="460" x2="85" y2="460"/>
				<line class="st13" x1="80" y1="420" x2="90" y2="420"/>
				<line class="st12" x1="80" y1="380" x2="85" y2="380"/>
				<line class="st13" x1="80" y1="340" x2="90" y2="340"/>
				<line class="st12" x1="80" y1="300" x2="85" y2="300"/>
				<line class="st13" x1="80" y1="260" x2="90" y2="260"/>
				<line class="st12" x1="80" y1="220" x2="85" y2="220"/>
				<line class="st13" x1="80" y1="180" x2="90" y2="180"/>
			</g>
		</g>
		<g id="percentage_1_">
			<path class="st14" d="M211.4,142.3H65.5c-1.2,0-2.3,0.4-3.3,1.2l-16.9,18.8l-19-18.9c-0.9-0.7-2-1.1-3.1-1.1H15c-2.8,0-5-2.2-5-5
				v-40c0-2.8,2.2-5,5-5h196.4c2.8,0,5,2.2,5,5v40C216.4,140.1,214.1,142.3,211.4,142.3z"/>
			<text transform="matrix(1 0 0 1 18 112.3833)"><tspan x="0" y="0" class="st2 font-reg st8">Marktanteil am  </tspan><tspan x="0" y="20" class="st2 font-reg st8">Güterverkehr in Prozent</tspan></text>
		</g>
		<text transform="matrix(1 0 0 1 233.9453 56.6895)" class="st2 st7 st19">Güter kommen nicht zum Zug</text>
		<text transform="matrix(1 0 0 1 403.6876 152.0135)" class="st2 st7 st8">Lkw</text>
		<text transform="matrix(1 0 0 1 543.0898 152.0135)" class="st2 st7 st8">Güterzug</text>
		<g>
			<circle class="st20" cx="580" cy="109.6" r="22.5"/>
			<path class="st11" d="M578.1,132h3.7c10.3-0.8,18.6-8.6,20.3-18.7l-1.1-0.9l-29,2.8l-14.4-8c-0.1,0.8-0.1,1.6-0.1,2.5
				C557.5,121.4,566.6,131.1,578.1,132z"/>
			<circle class="st12" cx="580" cy="109.6" r="22.5"/>
		</g>
		<g>
			<circle class="st20" cx="420" cy="109.5" r="22.5"/>
			<path class="st5" d="M412,101l-14.5,8.2c0,0.1,0,0.2,0,0.3c0,12.4,10.1,22.5,22.5,22.5s22.5-10.1,22.5-22.5
				c0-4.3-1.2-8.3-3.3-11.7L412,101z"/>
			<circle class="st12" cx="420" cy="109.5" r="22.5"/>
		</g>
		<text transform="matrix(1 0 0 1 245.8908 1053.6683)" class="st2 font-reg st8">Quellen: Statistisches Bundesamt, Allianz pro Schiene, Statista</text>

		<text id="credits" transform="matrix(1 0 0 1 312.2892 1090.2764)" class="st11 font-reg st21">
			<a id="g1" href="https://correctiv.org/" target="_blank">Correctiv.org</a> | 
			<a id="g1" href="http://www.klimaretter.info/" target="_blank"> Klimaretter.info</a> | Design: 
			<a id="g1" href="http://www.kreataz.com/" target="_blank">kreataz</a></text>

	</g>
</g>



<!-- Facts to append separately: -->
<g id="facts">

	<g id="fact1">
		<g id="fact-spot1">
			<circle class="st22" cx="295" cy="318.1" r="32.5"/>
			<circle class="st11" cx="295" cy="318.1" r="29"/>
			<text transform="matrix(1 0 0 1 277.0087 315.6124)"><tspan x="0" y="0" class="st6 st7 st8">Fakt </tspan><tspan x="1.1" y="19" class="st6 st7 st8">ist…</tspan></text>
		</g>
		<g id="fact-txt1">
			<linearGradient id="grad-frame1" gradientUnits="userSpaceOnUse" x1="291.6667" y1="673.1122" x2="291.6667" y2="358.1122">
				<stop  offset="0" style="stop-color:#ACD3D9"/>
				<stop  offset="1" style="stop-color:#D4F2F4"/>
			</linearGradient>
			<g class="fact-graph">
				<g class="chart">
					<g>
						<text transform="matrix(1 0 0 1 135.1406 660.9882)" class="st11 st7 st21">2010</text>
						<text transform="matrix(1 0 0 1 178.1406 660.9882)" class="st11 st7 st21">2011</text>
						<text transform="matrix(1 0 0 1 221.1406 660.9882)" class="st11 st7 st21">2012</text>
						<text transform="matrix(1 0 0 1 264.1406 660.9882)" class="st11 st7 st21">2013</text>
						<text transform="matrix(1 0 0 1 307.1406 660.9882)" class="st11 st7 st21">2014</text>
						<text transform="matrix(1 0 0 1 350.1406 660.9882)" class="st11 st7 st21">2015</text>
						<text transform="matrix(1 0 0 1 393.1406 660.9882)" class="st11 st7 st21">2016</text>
						<text transform="matrix(1 0 0 1 436.1406 660.9882)" class="st11 st7 st21">2017</text>
					</g>
					<g>
						<text transform="matrix(1 0 0 1 114.3204 579.5116)" class="st11 st7 st21">90%</text>
						<text transform="matrix(1 0 0 1 105.1407 539.5116)" class="st11 st7 st21">100%</text>
						<text transform="matrix(1 0 0 1 105.1407 499.5115)" class="st11 st7 st21">110%</text>
						<text transform="matrix(1 0 0 1 105.1407 459.5115)" class="st11 st7 st21">120%</text>
						<text transform="matrix(1 0 0 1 114.3204 619.5116)" class="st11 st7 st21">80%</text>
					</g>
					<g>
						<g>
							<line class="st24" x1="153.5" y1="638.7" x2="472.4" y2="638.7"/>
							<g>
								<line class="st24" x1="153.5" y1="638.7" x2="153.5" y2="645.7"/>
								<line class="st24" x1="196.5" y1="638.7" x2="196.5" y2="645.7"/>
								<line class="st24" x1="239.5" y1="638.7" x2="239.5" y2="645.7"/>
								<line class="st24" x1="282.5" y1="638.7" x2="282.5" y2="645.7"/>
								<line class="st24" x1="325.5" y1="638.7" x2="325.5" y2="645.7"/>
								<line class="st24" x1="368.5" y1="638.7" x2="368.5" y2="645.7"/>
								<line class="st24" x1="411.5" y1="638.7" x2="411.5" y2="645.7"/>
								<line class="st24" x1="454.5" y1="638.7" x2="454.5" y2="645.7"/>
							</g>
						</g>
						<g>
							<line class="st25" x1="196.5" y1="638.7" x2="196.5" y2="438.7"/>
							<line class="st25" x1="239.5" y1="638.7" x2="239.5" y2="438.7"/>
							<line class="st25" x1="282.5" y1="638.7" x2="282.5" y2="438.7"/>
							<line class="st25" x1="325.5" y1="638.7" x2="325.5" y2="438.7"/>
							<line class="st25" x1="368.5" y1="638.7" x2="368.5" y2="438.7"/>
							<line class="st25" x1="411.5" y1="638.7" x2="411.5" y2="438.7"/>
							<line class="st25" x1="454.5" y1="638.7" x2="454.5" y2="438.7"/>
						</g>
						<g>
							<g>
								<line class="st25" x1="153.8" y1="538.7" x2="457.4" y2="538.7"/>
								<line class="st24" x1="153.5" y1="458.5" x2="153.5" y2="618.5"/>
								<g>
									<line class="st24" x1="148.5" y1="538.5" x2="153.5" y2="538.5"/>
									<line class="st24" x1="153.5" y1="498.5" x2="148.5" y2="498.5"/>
									<line class="st24" x1="153.5" y1="458.5" x2="148.5" y2="458.5"/>
									<line class="st24" x1="153.5" y1="578.5" x2="148.5" y2="578.5"/>
									<line class="st24" x1="153.5" y1="618.5" x2="148.5" y2="618.5"/>
								</g>
							</g>
							<g>
								<g>
									<line class="st24" x1="153.5" y1="618.5" x2="153.5" y2="620.5"/>
									<line class="st26" x1="153.5" y1="622.8" x2="153.5" y2="635.5"/>
									<line class="st24" x1="153.5" y1="636.7" x2="153.5" y2="638.7"/>
								</g>
							</g>
							<g>
								<g>
									<line class="st24" x1="153.5" y1="436.3" x2="153.5" y2="438.3"/>
									<line class="st27" x1="153.5" y1="440.2" x2="153.5" y2="455.6"/>
									<line class="st24" x1="153.5" y1="456.5" x2="153.5" y2="458.5"/>
								</g>
							</g>
						</g>
					</g>
				</g>
				<polyline class="st28" points="153.7,538.5 196.5,530.5 239.5,518.5 282.5,506.5 325.5,498.5 368.5,486.5 
					411.5,474.5 454.5,466.5 				"/>
				<g id="train-spots">
					<circle class="st2" cx="196.5" cy="530.5" r="2"/>
					<circle class="st2" cx="239.5" cy="518.5" r="2"/>
					<circle class="st2" cx="282.5" cy="506.5" r="2"/>
					<circle class="st2" cx="325.5" cy="498.5" r="2"/>
					<circle class="st2" cx="368.5" cy="486.5" r="2"/>
					<circle class="st2" cx="411.5" cy="474.5" r="2"/>
					<circle class="st2" cx="454.5" cy="466.5" r="2"/>
				</g>
				<polyline class="st29" points="153.7,538.5 196.5,550.5 239.5,562.5 282.5,570.5 325.5,574.5 368.5,602.5 
									"/>
				<g id="truck-spots">
					<circle class="st2" cx="153.7" cy="538.5" r="2"/>
					<circle class="st2" cx="196.5" cy="550.5" r="2"/>
					<circle class="st2" cx="239.5" cy="562.5" r="2"/>
					<circle class="st2" cx="282.5" cy="570.5" r="2"/>
					<circle class="st2" cx="325.5" cy="574.5" r="2"/>
					<circle class="st2" cx="368.5" cy="602.5" r="2"/>
				</g>
				<g id="fact-legende">
					<g>
						<text transform="matrix(1 0 0 1 183.8965 457.5115)" class="st11 st7 st8">Trassenpreise</text>
						<rect x="167.1" y="444.5" class="st30" width="13" height="13"/>
					</g>
					<g>
						<text transform="matrix(1 0 0 1 183.8965 479.0118)" class="st11 st7 st8">Lkw-Maut</text>
						<rect x="167.1" y="466" class="st5" width="13" height="13"/>
					</g>
				</g>
			</g>
			<rect x="109" y="369.5" class="st31" width="365.3" height="59"/>
			<text transform="matrix(1 0 0 1 109.0005 383.2155)"><tspan x="0" y="0" class="st32 st7 st8">Die Lkw-Maut seit Jahren sinkt seit Jahren, </tspan><tspan x="0" y="21" class="st32 st7 st8">während die Trassenpreise, sozusagen die </tspan><tspan x="0" y="42" class="st32 st7 st8">„Zug-Maut“, stetig steigen.</tspan></text>
		</g>
	</g>


	<g id="fact2">
		<g id="fact-spot2">
			<circle class="st22" cx="705" cy="268.1" r="32.5"/>
			<circle class="st11" cx="705" cy="268.1" r="29"/>
			<text transform="matrix(1 0 0 1 687.0087 265.6124)"><tspan x="0" y="0" class="st6 st7 st8">Fakt </tspan><tspan x="1.1" y="19" class="st6 st7 st8">ist…</tspan></text>
		</g>
		<g id="fact-txt2">
			<linearGradient id="grad-frame2" gradientUnits="userSpaceOnUse" x1="705" y1="663.1122" x2="705" y2="308.1122">
				<stop  offset="0" style="stop-color:#ACD3D9"/>
				<stop  offset="1" style="stop-color:#D4F2F4"/>
			</linearGradient>
			<g class="fact-graph">
				<g class="chart">
					<g class="years">
						<text transform="matrix(1 0 0 1 584.5859 651.6602)" class="st11 st7 st21">2013</text>
						<text transform="matrix(1 0 0 1 666.5859 651.6602)" class="st11 st7 st21">2014</text>
						<text transform="matrix(1 0 0 1 748.5859 651.6602)" class="st11 st7 st21">2015</text>
						<text transform="matrix(1 0 0 1 830.5859 651.6602)" class="st11 st7 st21">2016</text>
					</g>
					<text transform="matrix(1 0 0 1 541.2373 634.8193)" class="st11 st7 st21">0</text>
					<g>
						<g id="graphs">
							<line class="st34" x1="602.9" y1="633.7" x2="602.9" y2="476.6"/>
							<line class="st34" x1="684.9" y1="633.7" x2="684.9" y2="485.2"/>
							<line class="st34" x1="766.9" y1="633.7" x2="766.9" y2="504.9"/>
							<line class="st34" x1="848.9" y1="633.7" x2="848.9" y2="515.8"/>
						</g>
						<g>
							<g>
								<polyline class="st24" points="556.4,468.7 556.4,633.7 871.4,633.7 								"/>
								<line class="st24" x1="556.4" y1="633.7" x2="551.4" y2="633.7"/>
								<text transform="matrix(1 0 0 1 532.0576 612.8193)" class="st11 st7 st21">20</text>
								<line class="st24" x1="556.4" y1="611.7" x2="551.4" y2="611.7"/>
								<text transform="matrix(1 0 0 1 532.0576 590.8193)" class="st11 st7 st21">40</text>
								<line class="st24" x1="556.4" y1="589.7" x2="551.4" y2="589.7"/>
								<text transform="matrix(1 0 0 1 532.0576 568.8193)" class="st11 st7 st21">60</text>
								<line class="st24" x1="556.4" y1="567.7" x2="551.4" y2="567.7"/>
								<text transform="matrix(1 0 0 1 532.0576 546.8193)" class="st11 st7 st21">80</text>
								<line class="st24" x1="556.4" y1="545.7" x2="551.4" y2="545.7"/>
								<text transform="matrix(1 0 0 1 522.8779 524.8193)" class="st11 st7 st21">100</text>
								<line class="st24" x1="556.4" y1="523.7" x2="551.4" y2="523.7"/>
								<text transform="matrix(1 0 0 1 522.8779 502.8193)" class="st11 st7 st21">120</text>
								<line class="st24" x1="556.4" y1="501.7" x2="551.4" y2="501.7"/>
								<text transform="matrix(1 0 0 1 522.8779 480.8193)" class="st11 st7 st21">140</text>
								<line class="st24" x1="556.4" y1="479.7" x2="551.4" y2="479.7"/>
								<line class="st25" x1="556.4" y1="479.7" x2="871.4" y2="479.7"/>
								<line class="st25" x1="556.4" y1="501.7" x2="871.4" y2="501.7"/>
								<line class="st25" x1="556.4" y1="523.7" x2="871.4" y2="523.7"/>
								<line class="st25" x1="556.4" y1="545.7" x2="871.4" y2="545.7"/>
								<line class="st25" x1="556.4" y1="567.7" x2="871.4" y2="567.7"/>
								<line class="st25" x1="556.4" y1="589.7" x2="871.4" y2="589.7"/>
								<line class="st25" x1="556.4" y1="611.7" x2="871.4" y2="611.7"/>
							</g>
						</g>
					</g>
				</g>
			</g>
			<text transform="matrix(1 0 0 1 523.333 460.0238)" class="st11 st7 st8">Dieselpreis in Cent pro Liter:</text>
			<rect x="523.3" y="319.5" class="st31" width="365.2" height="120.2"/>
			<text transform="matrix(1 0 0 1 523.3334 333.2155)"><tspan x="0" y="0" class="st32 st7 st8">Der Preis für Diesel, in der Regel der </tspan><tspan x="0" y="21" class="st32 st7 st8">Kraftstoff der Lkw, ist in den vergangenen </tspan><tspan x="0" y="42" class="st32 st7 st8">Jahren gesunken. Das liegt teilweise am </tspan><tspan x="0" y="63" class="st32 st7 st8">global niedrigen Ölpreis, allerdings profitiert </tspan><tspan x="0" y="84" class="st32 st7 st8">der Diesel in Deutschland auch jährlich von </tspan><tspan x="0" y="105" class="st32 st7 st8">Milliarden-Subventionen.</tspan></text>
		</g>
	</g>


	<g id="fact3">
		<g id="fact-spot3">
			<circle class="st22" cx="380" cy="720" r="32.5"/>
			<circle class="st11" cx="380" cy="720" r="29"/>
			<text transform="matrix(1 0 0 1 362.0087 717.5001)"><tspan x="0" y="0" class="st6 st7 st8">Fakt </tspan><tspan x="1.1" y="19" class="st6 st7 st8">ist…</tspan></text>
		</g>
		<g id="fact-txt3">
			<linearGradient id="grad-frame3" gradientUnits="userSpaceOnUse" x1="659.9999" y1="905.0255" x2="659.9999" y2="535.0255">
				<stop  offset="0" style="stop-color:#ACD3D9"/>
				<stop  offset="1" style="stop-color:#D4F2F4"/>
			</linearGradient>
			<g class="fact-graph">
				<g>
					<polyline class="st36" points="434.4,636.4 434.4,877.1 891.5,877.1"/>
					<g id="heads_1_">
						<line class="st37" x1="489.4" y1="877.1" x2="489.4" y2="636.4"/>
						<line class="st37" x1="544.4" y1="877.1" x2="544.4" y2="636.4"/>
						<line class="st37" x1="599.4" y1="877.1" x2="599.4" y2="636.4"/>
						<line class="st37" x1="654.4" y1="877.1" x2="654.4" y2="636.4"/>
						<line class="st37" x1="709.4" y1="877.1" x2="709.4" y2="636.4"/>
						<line class="st37" x1="764.4" y1="877.1" x2="764.4" y2="636.4"/>
						<line class="st37" x1="819.4" y1="877.1" x2="819.4" y2="636.4"/>
						<line class="st37" x1="874.4" y1="877.1" x2="874.4" y2="636.4"/>
						<line class="st36" x1="434.4" y1="877.1" x2="434.4" y2="893.1"/>
						<line class="st36" x1="489.4" y1="877.1" x2="489.4" y2="882.1"/>
						<line class="st36" x1="544.4" y1="877.1" x2="544.4" y2="893.1"/>
						<line class="st36" x1="599.4" y1="877.1" x2="599.4" y2="882.1"/>
						<line class="st36" x1="654.4" y1="877.1" x2="654.4" y2="893.1"/>
						<line class="st36" x1="709.4" y1="877.1" x2="709.4" y2="882.1"/>
						<line class="st36" x1="764.4" y1="877.1" x2="764.4" y2="893.1"/>
						<line class="st36" x1="819.4" y1="877.1" x2="819.4" y2="882.1"/>
						<line class="st36" x1="874.4" y1="877.1" x2="874.4" y2="893.1"/>
						<text transform="matrix(1.1 0 0 1 437.7061 893.3877)" class="st38 st7 st21">0</text>
						<text transform="matrix(1.1 0 0 1 547.7061 893.3877)" class="st38 st7 st21">100</text>
						<text transform="matrix(1.1 0 0 1 657.7061 893.3877)" class="st38 st7 st21">200</text>
						<text transform="matrix(1.1 0 0 1 767.7061 893.3877)" class="st38 st7 st21">300</text>
					</g>
					<g id="bars">
						<line class="st39" x1="434.4" y1="815.4" x2="496" y2="815.4"/>
						<line class="st39" x1="434.4" y1="839.4" x2="475.1" y2="839.4"/>
						<line class="st39" x1="434.4" y1="863.4" x2="474" y2="863.4"/>
						<line class="st39" x1="434.4" y1="791.4" x2="513.6" y2="791.4"/>
						<line class="st39" x1="434.4" y1="767.4" x2="589.5" y2="767.4"/>
						<line class="st39" x1="434.4" y1="743.4" x2="601.6" y2="743.4"/>
						<line class="st39" x1="434.4" y1="719.4" x2="612.6" y2="719.4"/>
						<line class="st39" x1="434.4" y1="695.4" x2="629.1" y2="695.4"/>
						<line class="st39" x1="434.4" y1="671.4" x2="645.6" y2="671.4"/>
						<line class="st39" x1="434.4" y1="647.4" x2="855.7" y2="647.4"/>
					</g>
					<g id="countries">
						<text transform="matrix(1 0 0 1 439.0757 797.3881)" class="st6 st7 st8">Italien</text>
						<text transform="matrix(1 0 0 1 439.0757 821.3881)" class="st6 st7 st8">Deutschland</text>
						<text transform="matrix(1 0 0 1 439.0757 845.3881)" class="st6 st7 st8">Frankreich</text>
						<text transform="matrix(1 0 0 1 439.0757 869.3881)" class="st6 st7 st8">Spanien</text>
						<text transform="matrix(1 0 0 1 439.0757 773.388)" class="st6 st7 st8">Niederlande</text>
						<text transform="matrix(1 0 0 1 439.0757 749.3881)" class="st6 st7 st8">Großbritannien</text>
						<text transform="matrix(1 0 0 1 439.0757 725.388)" class="st6 st7 st8">Dänemark</text>
						<text transform="matrix(1 0 0 1 439.0757 701.388)" class="st6 st7 st8">Schweden</text>
						<text transform="matrix(1 0 0 1 439.0757 677.3881)" class="st6 st7 st8">Österreich</text>
						<text transform="matrix(1 0 0 1 439.0757 653.3881)" class="st6 st7 st8">Schweiz</text>
					</g>
				</g>
			</g>
			<rect x="432.2" y="546.4" class="st31" width="425.7" height="49.6"/>
			<text transform="matrix(1 0 0 1 432.1664 560.1035)"><tspan x="0" y="0" class="st32 st7 st8">Deutschland investiert weniger in die Schienenin</tspan><tspan x="393.1" y="0" class="st32 st7 st8">-</tspan><tspan x="0" y="21" class="st32 st7 st8">frastruktur als viele andere Länder in Europa.</tspan></text>
			<rect x="432.2" y="591.3" class="st31" width="465.2" height="43"/>
			<text transform="matrix(1 0 0 1 432.1661 605.0348)"><tspan x="0" y="0" class="st11 st7 st8">Pro-Kopf-Investitionen in die Schieneninfrastruktur in </tspan><tspan x="0" y="21" class="st11 st7 st8">ausgewählten Ländern im Jahr 2015, Euro pro Einwohner</tspan></text>
		</g>
	</g>
</g>

</svg>
