<?xml version="1.0" encoding="utf-8"?>
<!-- Generator: Adobe Illustrator 21.0.0, SVG Export Plug-In . SVG Version: 6.00 Build 0)  -->
<svg version="1.1" xmlns="http://www.w3.org/2000/svg" xmlns:xlink="http://www.w3.org/1999/xlink" x="0px" y="0px"
	 viewBox="0 0 1000 1100" style="enable-background:new 0 0 1000 1100;" xml:space="preserve">
<style type="text/css">

</style>
<g id="main-svg">
	<g id="main">
		<g id="truck">
			<rect x="497.8" y="373.2" transform="matrix(-0.9942 0.1076 -0.1076 -0.9942 1098.2664 723.6256)" class="st1" width="63.6" height="36.5"/>
			<path class="st1" d="M562.8,382.1l4.1,38.3l8.5-0.9c-0.2-4.8,3.3-9,8.1-9.5c4.8-0.5,9.1,2.8,9.9,7.5l8.6-0.9l-2.8-25.9
				c-0.7-6.8-6.9-11.8-13.7-11L562.8,382.1z M577.4,387.5l10.9-1.2c2.2-0.2,4.2,1.4,4.4,3.6l0.9,8.3l-14.9,1.6L577.4,387.5z"/>
			<path class="st1" d="M577.2,419.8c0.4,4.1,4.1,7,8.1,6.5c4.1-0.4,7-4.1,6.5-8.1c-0.4-4.1-4.1-7-8.1-6.5
				C579.7,412.1,576.8,415.8,577.2,419.8z M580.6,419.5c-0.2-2.2,1.4-4.2,3.6-4.4s4.2,1.4,4.4,3.6c0.2,2.2-1.4,4.2-3.6,4.4
				C582.8,423.3,580.8,421.7,580.6,419.5z"/>
			<path class="st1" d="M536.5,424.3c0.4,4.1,4.1,7,8.1,6.5c4.1-0.4,7-4.1,6.5-8.1c-0.4-4.1-4.1-7-8.1-6.5
				C538.9,416.6,536,420.2,536.5,424.3z M539.8,423.9c-0.2-2.2,1.4-4.2,3.6-4.4c2.2-0.2,4.2,1.4,4.4,3.6c0.2,2.2-1.4,4.2-3.6,4.4
				C542,427.7,540,426.1,539.8,423.9z"/>
			<path class="st1" d="M509.7,427.1c0.4,4.1,4.1,7,8.1,6.5c4.1-0.4,7-4.1,6.5-8.1c-0.4-4.1-4.1-7-8.1-6.5
				C512.2,419.4,509.3,423.1,509.7,427.1z M513.1,426.8c-0.2-2.2,1.4-4.2,3.6-4.4c2.2-0.2,4.2,1.4,4.4,3.6c0.2,2.2-1.4,4.2-3.6,4.4
				C515.3,430.6,513.3,429,513.1,426.8z"/>
			
				<rect x="557.2" y="418.4" transform="matrix(-0.9942 0.1076 -0.1076 -0.9942 1163.7003 776.6786)" class="st1" width="7.5" height="2.6"/>
			
				<rect x="498.1" y="424.9" transform="matrix(-0.9942 0.1076 -0.1076 -0.9942 1045.0264 796.0405)" class="st1" width="5.9" height="2.6"/>
			<path class="st1" d="M505,423.4l-3.9,0.4l-0.9-8.6l63.2-6.8l0.9,8.6l-8.7,0.9l0.4,3.6l-3.3,0.4c-0.8-4.7-5.1-8.1-9.9-7.5
				c-4.8,0.5-8.3,4.7-8.1,9.5l-8.7,0.9c-0.8-4.7-5.1-8.1-9.9-7.5c-4.8,0.5-8.3,4.7-8.1,9.5l-2.6,0.3L505,423.4z"/>
		</g>
		<polyline id="truck-path" class="st3" points="80,563.2 215,526.4 350,460.8 485,437.6 620,423.2 755,417.6 890,417.6 917,408 	"/>
		<g id="truck-graph">
			<linearGradient id="graph-bg_2_" gradientUnits="userSpaceOnUse" x1="498.5" y1="980.0004" x2="498.5" y2="408">
				<stop  offset="0" style="stop-color:#FD8187"/>
				<stop  offset="1" style="stop-color:#FC6269"/>
			</linearGradient>
			<polygon id="graph-bg" class="st4" points="80,563.2 215,526.4 350,460.8 485,437.6 620,423.2 755,417.6 890,417.6 917,408 
				917,980 80,980 		"/>
			<g class="bubble">
				<circle class="st5" cx="80" cy="563.2" r="5"/>
				<g class="nbr">
					<text transform="matrix(1 0 0 1 62.189 553.1995)" class="st6 st8">52,1</text>
				</g>
			</g>	
			<g class="bubble">
				<circle class="st5" cx="215" cy="526.4" r="5"/>
				<g class="nbr">
					<text transform="matrix(1 0 0 1 197.189 516.4)" class="st6 st8">56,7</text>
				</g>
			</g>	
			<g class="bubble">
				<circle class="st5" cx="350" cy="460.8" r="5"/>
				<g class="nbr">
					<text transform="matrix(1 0 0 1 332.189 450.7998)" class="st6 st8">64,9</text>
				</g>
			</g>	
			<g class="bubble">
				<circle class="st5" cx="485" cy="437.6" r="5"/>
				<g class="nbr">
					<text transform="matrix(1 0 0 1 467.189 427.6004)" class="st6 st8">67,8</text>
				</g>
			</g>	
			<g class="bubble">
				<circle class="st5" cx="620" cy="423.2" r="5"/>
				<g class="nbr">
					<text transform="matrix(1 0 0 1 602.189 413.1996)" class="st6 st8">69,6</text>
				</g>
			</g>	
			<g class="bubble">
				<circle class="st5" cx="755" cy="417.6" r="5"/>
				<g class="nbr">
					<text transform="matrix(1 0 0 1 737.189 407.5998)" class="st6 st8">70,3</text>
				</g>
			</g>
			<g class="bubble">
				<circle class="st5" cx="890" cy="417.6" r="5"/>
				<g class="nbr">
					<text transform="matrix(1 0 0 1 872.189 407.6)" class="st6 st8">70,8</text>
				</g>
			</g>	
			<g class="bubble">
				<circle class="st5" cx="917" cy="408" r="5"/>
				<g class="nbr">
					<text transform="matrix(1 0 0 1 899.189 398.0003)" class="st6 st8">71,5</text>
				</g>
			</g>	
		</g>

		<g id="train">
			<g>
				<path class="st38" d="M679.2,840.3c0.1,3,2.6,5.3,5.5,5.2c3-0.1,5.3-2.6,5.2-5.5c-0.1-3-2.6-5.3-5.5-5.2
					C681.4,834.9,679.1,837.3,679.2,840.3z M680.9,840.2c-0.1-2,1.5-3.7,3.5-3.8c2-0.1,3.7,1.5,3.8,3.5c0.1,2-1.5,3.7-3.5,3.8
					C682.6,843.9,680.9,842.3,680.9,840.2z"/>
				<path class="st38" d="M665,840.8c0.1,3,2.6,5.3,5.5,5.2c3-0.1,5.3-2.6,5.2-5.5c-0.1-3-2.6-5.3-5.5-5.2
					C667.2,835.3,664.9,837.8,665,840.8z M666.7,840.7c-0.1-2,1.5-3.7,3.5-3.8c2-0.1,3.7,1.5,3.8,3.5c0.1,2-1.5,3.7-3.5,3.8
					C668.5,844.3,666.8,842.8,666.7,840.7z"/>
				<path class="st38" d="M615.8,842.5c0.1,3,2.6,5.3,5.5,5.2c3-0.1,5.3-2.6,5.2-5.5c-0.1-3-2.6-5.3-5.5-5.2
					C618,837,615.7,839.5,615.8,842.5z M617.5,842.4c-0.1-2,1.5-3.7,3.5-3.8c2-0.1,3.7,1.5,3.8,3.5c0.1,2-1.5,3.7-3.5,3.8
					C619.3,846,617.6,844.4,617.5,842.4z"/>
				<path class="st38" d="M595.9,794.5l97.5-3.3c1.3,0,2.3,1,2.4,2.2l1.4,41.9c0,1.3-1,2.3-2.2,2.4l-4.8,0.2c-1-2.3-3.3-3.9-5.9-3.8
					c-2.7,0.1-4.9,1.9-5.7,4.2l-2.5,0.1c-1-2.3-3.3-3.9-5.9-3.8c-2.7,0.1-4.9,1.9-5.7,4.2l-37.6,1.3c-1-2.3-3.3-3.9-5.9-3.8
					c-2.7,0.1-4.9,1.9-5.7,4.2l-2.5,0.1c-1-2.3-3.3-3.9-5.9-3.8c-2.7,0.1-4.9,1.9-5.7,4.2l-3.7,0.1c-1.3,0-2.3-1-2.4-2.2l-1.4-41.9
					C593.6,795.6,594.6,794.5,595.9,794.5z"/>
				<path class="st38" d="M601.7,843c0.1,3,2.6,5.3,5.5,5.2c3-0.1,5.3-2.6,5.2-5.5c-0.1-3-2.6-5.3-5.5-5.2
					C603.9,837.5,601.6,840,601.7,843z M603.4,842.9c-0.1-2,1.5-3.7,3.5-3.8s3.7,1.5,3.8,3.5c0.1,2-1.5,3.7-3.5,3.8
					S603.4,844.9,603.4,842.9z"/>
			</g>
			<g>
				<path class="st38" d="M570.8,842.9c0,3,2.5,5.3,5.5,5.3c3,0,5.3-2.5,5.3-5.5c0-3-2.5-5.3-5.5-5.3
					C573.1,837.5,570.8,839.9,570.8,842.9z M572.5,842.9c0-2,1.6-3.7,3.6-3.7c2,0,3.7,1.6,3.7,3.6c0,2-1.6,3.7-3.6,3.7
					C574.2,846.5,572.5,844.9,572.5,842.9z"/>
				<path class="st38" d="M556.7,843.1c0,3,2.5,5.3,5.5,5.3c3,0,5.3-2.5,5.3-5.5c0-3-2.5-5.3-5.5-5.3
					C559,837.7,556.6,840.2,556.7,843.1z M558.3,843.1c0-2,1.6-3.7,3.6-3.7c2,0,3.7,1.6,3.7,3.6c0,2-1.6,3.7-3.6,3.7
					C560,846.7,558.4,845.1,558.3,843.1z"/>
				<path class="st38" d="M507.4,843.9c0,3,2.5,5.3,5.5,5.3c3,0,5.3-2.5,5.3-5.5c0-3-2.5-5.3-5.5-5.3
					C509.7,838.5,507.4,841,507.4,843.9z M509.1,843.9c0-2,1.6-3.7,3.6-3.7c2,0,3.7,1.6,3.7,3.6c0,2-1.6,3.7-3.6,3.7
					C510.8,847.5,509.2,845.9,509.1,843.9z"/>
				<path class="st38" d="M488.4,795.6L586,794c1.3,0,2.3,1,2.3,2.3l0.7,41.9c0,1.3-1,2.3-2.3,2.3l-4.8,0.1c-0.9-2.3-3.2-4-5.9-4
					c-2.7,0-4.9,1.8-5.7,4.1l-2.5,0c-0.9-2.3-3.2-4-5.9-4c-2.7,0-4.9,1.8-5.7,4.1l-37.6,0.6c-0.9-2.3-3.2-4-5.9-4
					c-2.7,0-4.9,1.8-5.7,4.1l-2.5,0c-0.9-2.3-3.2-4-5.9-4c-2.7,0-4.9,1.8-5.7,4.1l-3.7,0.1c-1.3,0-2.3-1-2.3-2.3l-0.7-41.9
					C486.1,796.7,487.1,795.6,488.4,795.6z"/>
				<path class="st38" d="M493.3,844.2c0,3,2.5,5.3,5.5,5.3c3,0,5.3-2.5,5.3-5.5c0-3-2.5-5.3-5.5-5.3
					C495.6,838.8,493.2,841.2,493.3,844.2z M495,844.1c0-2,1.6-3.7,3.6-3.7c2,0,3.7,1.6,3.7,3.6c0,2-1.6,3.7-3.6,3.7
					C496.7,847.8,495,846.2,495,844.1z"/>
			</g>
			<g>
				<path class="st38" d="M462.3,844.3c0,3,2.3,5.4,5.3,5.4c3,0,5.4-2.3,5.4-5.3c0-3-2.3-5.4-5.3-5.4
					C464.8,839,462.4,841.3,462.3,844.3z M464,844.3c0-2,1.7-3.6,3.7-3.6c2,0,3.6,1.7,3.6,3.7s-1.7,3.6-3.7,3.6
					C465.6,848,464,846.3,464,844.3z"/>
				<path class="st38" d="M448.2,844.1c0,3,2.3,5.4,5.3,5.4c3,0,5.4-2.3,5.4-5.3c0-3-2.3-5.4-5.3-5.4
					C450.6,838.8,448.2,841.2,448.2,844.1z M449.9,844.1c0-2,1.7-3.6,3.7-3.6c2,0,3.6,1.7,3.6,3.7c0,2-1.7,3.6-3.7,3.6
					C451.5,847.8,449.8,846.2,449.9,844.1z"/>
				<path class="st38" d="M398.9,843.5c0,3,2.3,5.4,5.3,5.4c3,0,5.4-2.3,5.4-5.3c0-3-2.3-5.4-5.3-5.4
					C401.4,838.1,399,840.5,398.9,843.5z M400.6,843.5c0-2,1.7-3.6,3.7-3.6c2,0,3.6,1.7,3.6,3.7c0,2-1.7,3.6-3.7,3.6
					C402.2,847.2,400.6,845.5,400.6,843.5z"/>
				<path class="st38" d="M381.3,794.6l97.6,1.3c1.3,0,2.3,1.1,2.3,2.3l-0.5,41.9c0,1.3-1.1,2.3-2.3,2.3l-4.8-0.1
					c-0.9-2.4-3.1-4.1-5.7-4.1c-2.7,0-4.9,1.6-5.9,4l-2.5,0c-0.9-2.4-3.1-4.1-5.7-4.1c-2.7,0-4.9,1.6-5.9,4l-37.6-0.5
					c-0.9-2.4-3.1-4.1-5.7-4.1c-2.7,0-4.9,1.6-5.9,4l-2.5,0c-0.9-2.4-3.1-4.1-5.7-4.1c-2.7,0-4.9,1.6-5.9,4l-3.7,0
					c-1.3,0-2.3-1.1-2.3-2.3l0.5-41.9C379,795.6,380,794.6,381.3,794.6z"/>
				<path class="st38" d="M384.8,843.3c0,3,2.3,5.4,5.3,5.4c3,0,5.4-2.3,5.4-5.3c0-3-2.3-5.4-5.3-5.4
					C387.3,838,384.8,840.3,384.8,843.3z M386.5,843.3c0-2,1.7-3.6,3.7-3.6c2,0,3.6,1.7,3.6,3.7c0,2-1.7,3.6-3.7,3.6
					C388.1,847,386.5,845.3,386.5,843.3z"/>
			</g>
			<g>
				<path class="st38" d="M778.7,835.9c0.1,3,2.6,5.3,5.6,5.1c3-0.1,5.3-2.6,5.1-5.6c-0.1-3-2.6-5.3-5.6-5.1
					C780.9,830.5,778.6,833,778.7,835.9z M780.4,835.9c-0.1-2,1.5-3.7,3.5-3.8c2-0.1,3.7,1.5,3.8,3.5c0.1,2-1.5,3.7-3.5,3.8
					C782.2,839.5,780.5,837.9,780.4,835.9z"/>
				<path class="st38" d="M764.6,836.5c0.1,3,2.6,5.3,5.6,5.1c3-0.1,5.3-2.6,5.1-5.6c-0.1-3-2.6-5.3-5.6-5.1
					C766.7,831.1,764.4,833.6,764.6,836.5z M766.3,836.5c-0.1-2,1.5-3.7,3.5-3.8c2-0.1,3.7,1.5,3.8,3.5c0.1,2-1.5,3.7-3.5,3.8
					C768.1,840.1,766.3,838.5,766.3,836.5z"/>
				<path class="st38" d="M699.1,790.6l2,47l5.4-0.2c0.6-2.7,2.9-4.7,5.8-4.8c2.9-0.1,5.3,1.7,6.1,4.3l2.2-0.1
					c0.6-2.7,2.9-4.7,5.8-4.8c2.9-0.1,5.3,1.7,6.1,4.3l6.4-0.3l24.9-1c0.6-2.7,2.9-4.7,5.8-4.8c2.9-0.1,5.3,1.7,6.1,4.3l2.2-0.1
					c0.6-2.7,2.9-4.7,5.8-4.8c2.9-0.1,5.3,1.7,6.1,4.3l6.1-0.3c2.1-4.5,3.2-9.6,3-15c-0.7-17.8-15.7-31.6-33.5-30.8L699.1,790.6z
					 M774.2,794.2c9.1,2.6,16.3,9.9,18.7,19.3l-17.8,0.7L774.2,794.2z M763.3,794.7l7.1-0.3l0.8,20l-7.1,0.3L763.3,794.7z"/>
				<path class="st38" d="M721.3,838.4c0.1,3,2.6,5.3,5.6,5.1c3-0.1,5.3-2.6,5.1-5.6c-0.1-3-2.6-5.3-5.6-5.1
					C723.5,832.9,721.2,835.4,721.3,838.4z M723,838.3c-0.1-2,1.5-3.7,3.5-3.8c2-0.1,3.7,1.5,3.8,3.5c0.1,2-1.5,3.7-3.5,3.8
					C724.8,841.9,723.1,840.3,723,838.3z"/>
				<path class="st38" d="M707.2,839c0.1,3,2.6,5.3,5.6,5.1c3-0.1,5.3-2.6,5.1-5.6c-0.1-3-2.6-5.3-5.6-5.1
					C709.3,833.5,707,836,707.2,839z M708.9,838.9c-0.1-2,1.5-3.7,3.5-3.8c2-0.1,3.7,1.5,3.8,3.5c0.1,2-1.5,3.7-3.5,3.8
					C710.7,842.5,708.9,840.9,708.9,838.9z"/>
			</g>
		</g>

		<polyline id="train-path_1_" class="st9" points="80,780 215,815.2 350,848.8 485,850.4 620,848 755,843.2 890,836 917,839.2 	"/>
		<g id="train-graph">
			<linearGradient id="graph-bg_3_" gradientUnits="userSpaceOnUse" x1="498.5" y1="980.0005" x2="498.5" y2="780">
				<stop  offset="0" style="stop-color:#4995A0"/>
				<stop  offset="1" style="stop-color:#1B7A88"/>
			</linearGradient>
			<polygon id="graph-bg_1_" class="st10" points="80,780 215,815.2 350,848.8 485,850.4 620,848 755,843.2 890,836 917,839.2 
				917,980 80,980 		"/>
			<g class="bubble">
				<circle class="st11" cx="80" cy="780" r="5"/>
				<g class="nbr">
					<text transform="matrix(1 0 0 1 62.1891 769.9998)" class="st6 st8">25,0</text>
				</g>
			</g>	
			<g class="bubble">
				<circle class="st11" cx="215" cy="815.2" r="5"/>
				<g class="nbr">
					<text transform="matrix(1 0 0 1 197.1891 805.2)" class="st6 st8">20,6</text>
				</g>
			</g>	
			<g class="bubble">
				<circle class="st11" cx="350" cy="848.8" r="5"/>
				<g class="nbr">
					<text transform="matrix(1 0 0 1 332.1891 838.7998)" class="st6 st8">16,4</text>
				</g>
			</g>	
			<g class="bubble">
				<circle class="st11" cx="485" cy="850.4" r="5"/>
				<g class="nbr">
					<text transform="matrix(1 0 0 1 467.1895 840.4003)" class="st6 st8">16,2</text>
				</g>
			</g>	
			<g class="bubble">
				<circle class="st11" cx="620" cy="848" r="5"/>
				<g class="nbr">
					<text transform="matrix(1 0 0 1 602.1891 838.0002)" class="st6 st8">16,5</text>
				</g>
			</g>	
			<g class="bubble">
				<circle class="st11" cx="755" cy="843.2" r="5"/>
				<g class="nbr">
					<text transform="matrix(1 0 0 1 737.1898 833.2004)" class="st6 st8">17,1</text>
				</g>
			</g>	
			<g class="bubble">
				<circle class="st11" cx="890" cy="836" r="5"/>
				<g class="nbr">
					<text transform="matrix(1 0 0 1 872.1888 826.0004)" class="st6 st8">18,0</text>
				</g>
			</g>	
			<g class="bubble">
				<circle class="st11" cx="917" cy="839.2" r="5"/>
				<g class="nbr">
					<text transform="matrix(1 0 0 1 899.1897 828.8002)" class="st6 st8">17,6</text>
				</g>
			</g>	
		</g>
	</g>
	<g id="txt">
		<g>
			<g class="years">
				<text transform="matrix(1 0 0 1 85.0002 1016.69)" class="st2 st8">1985</text>
				<text transform="matrix(1 0 0 1 220.0002 1016.69)" class="st2 st8">1990</text>
				<text transform="matrix(1 0 0 1 355.0002 1016.69)" class="st2 st8">1995</text>
				<text transform="matrix(1 0 0 1 490.0002 1016.69)" class="st2 st8">2000</text>
				<text transform="matrix(1 0 0 1 625.0001 1016.69)" class="st2 st8">2005</text>
				<text transform="matrix(1 0 0 1 760.0001 1016.69)" class="st2 st8">2010</text>
				<text transform="matrix(1 0 0 1 895.0001 1016.69)" class="st2 st8">2015</text>
				<text transform="matrix(1 0 0 1 922.0004 999.0005)" class="st2 st8">2016</text>
				<line class="st12" x1="80" y1="980" x2="80" y2="1016.7"/>
				<line class="st12" x1="215" y1="980" x2="215" y2="1016.7"/>
				<line class="st12" x1="350" y1="980" x2="350" y2="1016.7"/>
				<line class="st12" x1="485" y1="980" x2="485" y2="1016.7"/>
				<line class="st12" x1="620" y1="980" x2="620" y2="1016.7"/>
				<line class="st12" x1="755" y1="980" x2="755" y2="1016.7"/>
				<line class="st12" x1="890" y1="980" x2="890" y2="1016.7"/>
				<line class="st12" x1="107" y1="980" x2="107" y2="990"/>
				<line class="st12" x1="134" y1="980" x2="134" y2="990"/>
				<line class="st12" x1="161" y1="980" x2="161" y2="990"/>
				<line class="st12" x1="188" y1="980" x2="188" y2="990"/>
				<line class="st12" x1="242" y1="980" x2="242" y2="990"/>
				<line class="st12" x1="269" y1="980" x2="269" y2="990"/>
				<line class="st12" x1="296" y1="980" x2="296" y2="990"/>
				<line class="st12" x1="323" y1="980" x2="323" y2="990"/>
				<line class="st12" x1="377" y1="980" x2="377" y2="990"/>
				<line class="st12" x1="404" y1="980" x2="404" y2="990"/>
				<line class="st12" x1="431" y1="980" x2="431" y2="990"/>
				<line class="st12" x1="458" y1="980" x2="458" y2="990"/>
				<line class="st12" x1="512" y1="980" x2="512" y2="990"/>
				<line class="st12" x1="539" y1="980" x2="539" y2="990"/>
				<line class="st12" x1="566" y1="980" x2="566" y2="990"/>
				<line class="st12" x1="593" y1="980" x2="593" y2="990"/>
				<line class="st12" x1="647" y1="980" x2="647" y2="990"/>
				<line class="st12" x1="674" y1="980" x2="674" y2="990"/>
				<line class="st12" x1="701" y1="980" x2="701" y2="990"/>
				<line class="st12" x1="728" y1="980" x2="728" y2="990"/>
				<line class="st12" x1="782" y1="980" x2="782" y2="990"/>
				<line class="st12" x1="809" y1="980" x2="809" y2="990"/>
				<line class="st12" x1="836" y1="980" x2="836" y2="990"/>
				<line class="st12" x1="863" y1="980" x2="863" y2="990"/>
				<line class="st12" x1="917" y1="980" x2="917" y2="999"/>
				<line class="st13" x1="80" y1="980" x2="940" y2="980"/>
			</g>
			<g id="percentages_2_">
				<text transform="matrix(1 0 0 1 59.673 985.0006)" class="st2 st8">0</text>
				<text transform="matrix(1 0 0 1 49.3459 905.0007)" class="st2 st8">10</text>
				<text transform="matrix(1 0 0 1 49.3459 825.0006)" class="st2 st8">20</text>
				<text transform="matrix(1 0 0 1 49.3459 745.0006)" class="st2 st8">30</text>
				<text transform="matrix(1 0 0 1 49.3459 665.0006)" class="st2 st8">40</text>
				<text transform="matrix(1 0 0 1 49.3459 585.0006)" class="st2 st8">50</text>
				<text transform="matrix(1 0 0 1 49.3459 505.0006)" class="st2 st8">60</text>
				<text transform="matrix(1 0 0 1 49.3459 425.0006)" class="st2 st8">70</text>
				<text transform="matrix(1 0 0 1 49.3459 345.0006)" class="st2 st8">80</text>
				<text transform="matrix(1 0 0 1 49.3459 265.0006)" class="st2 st8">90</text>
				<text transform="matrix(1 0 0 1 25.7209 185.0006)" class="st2 st8">100%</text>
				<line class="st13" x1="80" y1="980" x2="80" y2="179"/>
				<line class="st12" x1="80" y1="940" x2="85" y2="940"/>
				<line class="st13" x1="80" y1="900" x2="90" y2="900"/>
				<line class="st12" x1="80" y1="860" x2="85" y2="860"/>
				<line class="st13" x1="80" y1="820" x2="90" y2="820"/>
				<line class="st12" x1="80" y1="780" x2="85" y2="780"/>
				<line class="st13" x1="80" y1="740" x2="90" y2="740"/>
				<line class="st12" x1="80" y1="700" x2="85" y2="700"/>
				<line class="st13" x1="80" y1="660" x2="90" y2="660"/>
				<line class="st12" x1="80" y1="620" x2="85" y2="620"/>
				<line class="st13" x1="80" y1="580" x2="90" y2="580"/>
				<line class="st12" x1="80" y1="540" x2="85" y2="540"/>
				<line class="st13" x1="80" y1="500" x2="90" y2="500"/>
				<line class="st12" x1="80" y1="460" x2="85" y2="460"/>
				<line class="st13" x1="80" y1="420" x2="90" y2="420"/>
				<line class="st12" x1="80" y1="380" x2="85" y2="380"/>
				<line class="st13" x1="80" y1="340" x2="90" y2="340"/>
				<line class="st12" x1="80" y1="300" x2="85" y2="300"/>
				<line class="st13" x1="80" y1="260" x2="90" y2="260"/>
				<line class="st12" x1="80" y1="220" x2="85" y2="220"/>
				<line class="st13" x1="80" y1="180" x2="90" y2="180"/>
			</g>
		</g>
		<g id="percentage_1_">
			<path class="st14" d="M211.4,142.3H65.5c-1.2,0-2.3,0.4-3.3,1.2l-16.9,18.8l-19-18.9c-0.9-0.7-2-1.1-3.1-1.1H15c-2.8,0-5-2.2-5-5
				v-40c0-2.8,2.2-5,5-5h196.4c2.8,0,5,2.2,5,5v40C216.4,140.1,214.1,142.3,211.4,142.3z"/>
			<text transform="matrix(1 0 0 1 18 112.3833)"><tspan x="0" y="0" class="st2 font-reg st8">Marktanteil am  </tspan><tspan x="0" y="20" class="st2 font-reg st8">Güterverkehr in Prozent</tspan></text>
		</g>
		<text transform="matrix(1 0 0 1 233.9453 56.6895)" class="st2 st19">Güter kommen nicht zum Zug</text>
		<text transform="matrix(1 0 0 1 403.6876 152.0135)" class="st2 st8">Lkw</text>
		<text transform="matrix(1 0 0 1 543.0898 152.0135)" class="st2 st8">Güterzug</text>
		<g>
			<circle class="st20" cx="580" cy="109.6" r="22.5"/>
			<path class="st11" d="M578.1,132h3.7c10.3-0.8,18.6-8.6,20.3-18.7l-1.1-0.9l-29,2.8l-14.4-8c-0.1,0.8-0.1,1.6-0.1,2.5
				C557.5,121.4,566.6,131.1,578.1,132z"/>
			<circle class="st12" cx="580" cy="109.6" r="22.5"/>
		</g>
		<g>
			<circle class="st20" cx="420" cy="109.5" r="22.5"/>
			<path class="st5" d="M412,101l-14.5,8.2c0,0.1,0,0.2,0,0.3c0,12.4,10.1,22.5,22.5,22.5s22.5-10.1,22.5-22.5
				c0-4.3-1.2-8.3-3.3-11.7L412,101z"/>
			<circle class="st12" cx="420" cy="109.5" r="22.5"/>
		</g>
		<text transform="matrix(1 0 0 1 245.8908 1053.6683)" class="st2 font-reg st8">Quellen: Statistisches Bundesamt, Allianz pro Schiene, Statista</text>

		<text id="credits" transform="matrix(1 0 0 1 312.2892 1090.2764)" class="st11 font-reg st21">
			<a id="g1" href="https://correctiv.org/" target="_blank">Correctiv.org</a> | 
			<a id="g1" href="http://www.klimaretter.info/" target="_blank"> Klimaretter.info</a> | Design: 
			<a id="g1" href="http://www.kreataz.com/" target="_blank">kreataz</a></text>

	</g>
</g>



<!-- Facts to append separately: -->
<g id="facts">

	<g id="fact1">
		<g id="fact-spot1">
			<circle class="st22" cx="295" cy="318.1" r="32.5"/>
			<circle class="st11" cx="295" cy="318.1" r="29"/>
			<text transform="matrix(1 0 0 1 277.0087 315.6124)"><tspan x="0" y="0" class="st6 st8">Fakt </tspan><tspan x="1.1" y="19" class="st6 st8">ist…</tspan></text>
		</g>
		<g id="fact-txt1">
			<linearGradient id="grad-frame1" gradientUnits="userSpaceOnUse" x1="291.6667" y1="663.1122" x2="291.6667" y2="358.1122">
				<stop  offset="0" style="stop-color:#ACD3D9"/>
				<stop  offset="1" style="stop-color:#D4F2F4"/>
			</linearGradient>
			<g class="fact-graph">			
				<g id="chart-bg">
					<g>
						<line class="st25" x1="196.5" y1="628.7" x2="196.5" y2="428.7"/>
						<line class="st25" x1="239.5" y1="628.7" x2="239.5" y2="428.7"/>
						<line class="st25" x1="282.5" y1="628.7" x2="282.5" y2="428.7"/>
						<line class="st25" x1="325.5" y1="628.7" x2="325.5" y2="428.7"/>
						<line class="st25" x1="368.5" y1="628.7" x2="368.5" y2="428.7"/>
						<line class="st25" x1="411.5" y1="628.7" x2="411.5" y2="428.7"/>
						<line class="st25" x1="454.5" y1="628.7" x2="454.5" y2="428.7"/>
						<line class="st25" x1="153.8" y1="528.7" x2="457.4" y2="528.7"/>
					</g>
				</g>
				<g>
					<polyline id="fact-train-graph" class="st15" points="153.7,528.5 196.5,520.5 239.5,508.5 282.5,496.5 325.5,488.5 368.5,476.5 
						411.5,464.5 454.5,456.5 					"/>
					<g id="train-spots">
						<circle class="st11" cx="196.5" cy="520.5" r="2"/>
						<circle class="st11" cx="239.5" cy="508.5" r="2"/>
						<circle class="st11" cx="282.5" cy="496.5" r="2"/>
						<circle class="st11" cx="325.5" cy="488.5" r="2"/>
						<circle class="st11" cx="368.5" cy="476.5" r="2"/>
						<circle class="st11" cx="411.5" cy="464.5" r="2"/>
						<circle class="st11" cx="454.5" cy="456.5" r="2"/>
					</g>
				</g>
				<g>
					<polyline id="fact-truck-graph" class="st29" points="153.7,528.5 196.5,540.5 239.5,552.5 282.5,560.5 325.5,564.5 368.5,592.5 
											"/>
					<g id="truck-spots">
						<circle class="st5" cx="153.7" cy="528.5" r="2"/>
						<circle class="st5" cx="196.5" cy="540.5" r="2"/>
						<circle class="st5" cx="239.5" cy="552.5" r="2"/>
						<circle class="st5" cx="282.5" cy="560.5" r="2"/>
						<circle class="st5" cx="325.5" cy="564.5" r="2"/>
						<circle class="st5" cx="368.5" cy="592.5" r="2"/>
					</g>
				</g>
				<g id="chart">
					<g>
						<text transform="matrix(1 0 0 1 178.1406 650.9882)" class="st11 st21">2011</text>
						<text transform="matrix(1 0 0 1 264.1406 650.9882)" class="st11 st21">2013</text>
						<text transform="matrix(1 0 0 1 350.1406 650.9882)" class="st11 st21">2015</text>
						<text transform="matrix(1 0 0 1 436.1406 650.9882)" class="st11 st21">2017</text>
						<g>
							<line class="st24" x1="153.5" y1="628.7" x2="472.4" y2="628.7"/>
							<g>
								<line class="st24" x1="153.5" y1="628.7" x2="153.5" y2="640.7"/>
								<line class="st24" x1="196.5" y1="628.7" x2="196.5" y2="635.7"/>
								<line class="st24" x1="239.5" y1="628.7" x2="239.5" y2="640.7"/>
								<line class="st24" x1="282.5" y1="628.7" x2="282.5" y2="635.7"/>
								<line class="st24" x1="325.5" y1="628.7" x2="325.5" y2="640.7"/>
								<line class="st24" x1="368.5" y1="628.7" x2="368.5" y2="635.7"/>
								<line class="st24" x1="411.5" y1="628.7" x2="411.5" y2="640.7"/>
								<line class="st24" x1="454.5" y1="628.7" x2="454.5" y2="635.7"/>
							</g>
						</g>
					</g>
					<g>
						<text transform="matrix(1 0 0 1 114.3204 569.5116)" class="st11 st21">90%</text>
						<text transform="matrix(1 0 0 1 105.1407 529.5116)" class="st11 st21">100%</text>
						<text transform="matrix(1 0 0 1 105.1407 489.5115)" class="st11 st21">110%</text>
						<text transform="matrix(1 0 0 1 105.1407 449.5115)" class="st11 st21">120%</text>
						<text transform="matrix(1 0 0 1 114.3204 609.5116)" class="st11 st21">80%</text>
						<g>
							<g>
								<line class="st7" x1="153.5" y1="608.5" x2="153.5" y2="628.7"/>
								<line class="st24" x1="153.5" y1="448.5" x2="153.5" y2="608.5"/>
								<line class="st7" x1="153.5" y1="426.3" x2="153.5" y2="448."/>
								<g>
									<line class="st24" x1="148.5" y1="528.5" x2="153.5" y2="528.5"/>
									<line class="st24" x1="153.5" y1="488.5" x2="148.5" y2="488.5"/>
									<line class="st24" x1="153.5" y1="448.5" x2="148.5" y2="448.5"/>
									<line class="st24" x1="153.5" y1="568.5" x2="148.5" y2="568.5"/>
									<line class="st24" x1="153.5" y1="608.5" x2="148.5" y2="608.5"/>
								</g>
							</g>
						</g>
					</g>
				</g>
				<g id="fact-legende">
					<g>
						<text transform="matrix(1 0 0 1 183.8965 447.5115)" class="st11 st8">Trassenpreise</text>
						<rect x="167.1" y="434.5" class="st11" width="13" height="13"/>
					</g>
					<g>
						<text transform="matrix(1 0 0 1 183.8965 469.0118)" class="st11 st8">Lkw-Maut</text>
						<rect x="167.1" y="456" class="st5" width="13" height="13"/>
					</g>
				</g>
			</g>

			<rect x="109" y="369.5" class="st31" width="365.3" height="49.5"/>
			<text transform="matrix(1 0 0 1 109.0005 383.2155)"><tspan x="0" y="0" class="st32 st8">LKW-Maut sinkt,</tspan><tspan x="0" y="25.6" class="st32 st8">Trassenpreise für Züge steigen.</tspan></text>
		</g>
	</g>


	<g id="fact2">
		<g id="fact-spot2">
			<circle class="st22" cx="705" cy="253.1" r="32.5"/>
			<circle class="st11" cx="705" cy="253.1" r="29"/>
			<text transform="matrix(1 0 0 1 687.0087 250.6124)"><tspan x="0" y="0" class="st6 st8">Fakt </tspan><tspan x="1.1" y="19" class="st6 st8">ist…</tspan></text>
		</g>
		<g id="fact-txt2">
			<linearGradient id="grad-frame2" gradientUnits="userSpaceOnUse" x1="705" y1="558.1122" x2="705" y2="293.1122">
				<stop  offset="0" style="stop-color:#ACD3D9"/>
				<stop  offset="1" style="stop-color:#D4F2F4"/>
			</linearGradient>
			<g class="fact-graph">
				<g class="chart">
					<g class="years">
						<text transform="matrix(1 0 0 1 584.5859 546.6602)" class="st11 st21">2013</text>
						<text transform="matrix(1 0 0 1 666.5859 546.6602)" class="st11 st21">2014</text>
						<text transform="matrix(1 0 0 1 748.5859 546.6602)" class="st11 st21">2015</text>
						<text transform="matrix(1 0 0 1 830.5859 546.6602)" class="st11 st21">2016</text>
					</g>
					<g>
						<g id="graphs">
							<line class="st34" x1="602.9" y1="528.7" x2="602.9" y2="371.6"/>
							<line class="st34" x1="684.9" y1="528.7" x2="684.9" y2="380.2"/>
							<line class="st34" x1="766.9" y1="528.7" x2="766.9" y2="399.9"/>
							<line class="st34" x1="848.9" y1="528.7" x2="848.9" y2="410.8"/>
						</g>
						<g>
							<g>
								<polyline class="st24" points="556.4,363.7 556.4,528.7 871.4,528.7 								"/>
								<line class="st24" x1="556.4" y1="528.7" x2="551.4" y2="528.7"/>
								<text transform="matrix(1 0 0 1 532.0576 507.8193)" class="st11 st21">20</text>
								<line class="st24" x1="556.4" y1="506.7" x2="551.4" y2="506.7"/>
								<text transform="matrix(1 0 0 1 532.0576 485.8193)" class="st11 st21">40</text>
								<line class="st24" x1="556.4" y1="484.7" x2="551.4" y2="484.7"/>
								<text transform="matrix(1 0 0 1 532.0576 463.8193)" class="st11 st21">60</text>
								<line class="st24" x1="556.4" y1="462.7" x2="551.4" y2="462.7"/>
								<text transform="matrix(1 0 0 1 532.0576 441.8193)" class="st11 st21">80</text>
								<line class="st24" x1="556.4" y1="440.7" x2="551.4" y2="440.7"/>
								<text transform="matrix(1 0 0 1 522.8779 419.8193)" class="st11 st21">100</text>
								<line class="st24" x1="556.4" y1="418.7" x2="551.4" y2="418.7"/>
								<text transform="matrix(1 0 0 1 522.8779 397.8193)" class="st11 st21">120</text>
								<line class="st24" x1="556.4" y1="396.7" x2="551.4" y2="396.7"/>
								<text transform="matrix(1 0 0 1 522.8779 375.8193)" class="st11 st21">140</text>
								<line class="st24" x1="556.4" y1="374.7" x2="551.4" y2="374.7"/>
								<line class="st25" x1="556.4" y1="374.7" x2="871.4" y2="374.7"/>
								<line class="st25" x1="556.4" y1="396.7" x2="871.4" y2="396.7"/>
								<line class="st25" x1="556.4" y1="418.7" x2="871.4" y2="418.7"/>
								<line class="st25" x1="556.4" y1="440.7" x2="871.4" y2="440.7"/>
								<line class="st25" x1="556.4" y1="462.7" x2="871.4" y2="462.7"/>
								<line class="st25" x1="556.4" y1="484.7" x2="871.4" y2="484.7"/>
								<line class="st25" x1="556.4" y1="506.7" x2="871.4" y2="506.7"/>
							</g>
						</g>
					</g>
				</g>
			</g>
			<rect x="523.3" y="304.5" class="st31" width="365.2" height="50"/>
			<text transform="matrix(1 0 0 1 523.3334 318.2155)"><tspan x="0" y="0" class="st32 st8">Der Dieselpreis sinkt.</tspan><tspan x="0" y="25.6" class="st11 st8">Dieselpreis in Cent pro Liter:</tspan></text>
		</g>
	</g>


	<g id="fact3">
		<g id="fact-spot3">
			<circle class="st22" cx="400" cy="740" r="32.5"/>
			<circle class="st11" cx="400" cy="740" r="29"/>
			<text transform="matrix(1 0 0 1 382.0087 737.5001)"><tspan x="0" y="0" class="st6 st8">Fakt </tspan><tspan x="1.1" y="19" class="st6 st8">ist…</tspan></text>
		</g>
		<g id="fact-txt3">
			<linearGradient id="grad-frame3" gradientUnits="userSpaceOnUse" x1="669.9999" y1="902.5255" x2="669.9999" y2="577.5255">
				<stop  offset="0" style="stop-color:#ACD3D9"/>
				<stop  offset="1" style="stop-color:#D4F2F4"/>
			</linearGradient>
			<g class="fact-graph">
				<g>
					<g id="heads">
						<g>
							<line class="st37" x1="504.4" y1="874.6" x2="504.4" y2="633.9"/>
							<line class="st37" x1="554.4" y1="874.6" x2="554.4" y2="633.9"/>
							<line class="st37" x1="604.4" y1="874.6" x2="604.4" y2="633.9"/>
							<line class="st37" x1="654.4" y1="874.6" x2="654.4" y2="633.9"/>
							<line class="st37" x1="704.4" y1="874.6" x2="704.4" y2="633.9"/>
							<line class="st37" x1="754.4" y1="874.6" x2="754.4" y2="633.9"/>
							<line class="st37" x1="804.4" y1="874.6" x2="804.4" y2="633.9"/>
							<line class="st37" x1="854.4" y1="874.6" x2="854.4" y2="633.9"/>
							<line class="st36" x1="454.4" y1="874.6" x2="454.4" y2="890.6"/>
							<line class="st36" x1="504.4" y1="874.6" x2="504.4" y2="879.6"/>
							<line class="st36" x1="554.4" y1="874.6" x2="554.4" y2="890.6"/>
							<line class="st36" x1="604.4" y1="874.6" x2="604.4" y2="879.6"/>
							<line class="st36" x1="654.4" y1="874.6" x2="654.4" y2="890.6"/>
							<line class="st36" x1="704.4" y1="874.6" x2="704.4" y2="879.6"/>
							<line class="st36" x1="754.4" y1="874.6" x2="754.4" y2="890.6"/>
							<line class="st36" x1="804.4" y1="874.6" x2="804.4" y2="879.6"/>
							<line class="st36" x1="854.4" y1="874.6" x2="854.4" y2="890.6"/>
						</g>
						<text transform="matrix(1.1 0 0 1 458.4056 890.8872)" class="st38 st21">0</text>
						<text transform="matrix(1.1 0 0 1 558.4057 890.8872)" class="st38 st21">100</text>
						<text transform="matrix(1.1 0 0 1 658.4057 890.8872)" class="st38 st21">200</text>
						<text transform="matrix(1.1 0 0 1 758.4057 890.8872)" class="st38 st21">300</text>
						<text transform="matrix(1.1 0 0 1 858.4061 890.8872)" class="st38 st21">400</text>
					</g>
					<g id="bars">
						<line class="st44" x1="454.4" y1="812.9" x2="510.4" y2="812.9"/>
						<line class="st39" x1="454.4" y1="836.9" x2="491.4" y2="836.9"/>
						<line class="st39" x1="454.4" y1="860.9" x2="490.4" y2="860.9"/>
						<line class="st39" x1="454.4" y1="788.9" x2="526.4" y2="788.9"/>
						<line class="st39" x1="454.4" y1="764.9" x2="595.4" y2="764.9"/>
						<line class="st39" x1="454.4" y1="740.9" x2="606.4" y2="740.9"/>
						<line class="st39" x1="454.4" y1="716.9" x2="616.4" y2="716.9"/>
						<line class="st39" x1="454.4" y1="692.9" x2="631.4" y2="692.9"/>
						<line class="st39" x1="454.4" y1="668.9" x2="646.4" y2="668.9"/>
						<line class="st39" x1="454.4" y1="644.9" x2="837.4" y2="644.9"/>
					</g>
					<polyline class="st36" points="454.4,633.9 454.4,874.6 888,874.6"/>
					<g id="countries">
						<text transform="matrix(1 0 0 1 459.0757 866.8876)" class="st6 st8">Spanien</text>
						<text transform="matrix(1 0 0 1 459.0757 842.8876)" class="st6 st8">Frankreich</text>
						<text transform="matrix(1 0 0 1 514.4051 818.8876)" class="st5 st8">Deutschland</text>
						<text transform="matrix(1 0 0 1 459.0757 794.8876)" class="st6 st8">Italien</text>
						<text transform="matrix(1 0 0 1 459.0757 770.8875)" class="st6 st8">Niederlande</text>
						<text transform="matrix(1 0 0 1 459.0757 746.8876)" class="st6 st8">Großbritannien</text>
						<text transform="matrix(1 0 0 1 459.0757 722.8876)" class="st6 st8">Dänemark</text>
						<text transform="matrix(1 0 0 1 459.0757 698.8876)" class="st6 st8">Schweden</text>
						<text transform="matrix(1 0 0 1 459.0757 674.8876)" class="st6 st8">Österreich</text>
						<text transform="matrix(1 0 0 1 459.0757 650.8876)" class="st6 st8">Schweiz</text>
<!--
-->					</g>
				</g>
			</g>
			<rect x="452.2" y="588.8" class="st31" width="435.8" height="43"/>
			<text transform="matrix(1 0 0 1 452.1661 602.5353)"><tspan x="0" y="0" class="st11 st8">Pro-Kopf-Investitionen in Infrastruktur für Züge  </tspan><tspan x="0" y="21" class="st11 st8">in Europa 2015</tspan></text>
		</g>
	</g>
</g>

</svg>
